<svg xmlns="http://www.w3.org/2000/svg" width="501.243" height="260.418" viewBox="0 0 132.62 68.902" version="1.1"><g transform="translate(-26.602 -47.78)"><rect width="132.292" height="68.792" x="26.98" y="47.89" rx=".8" opacity="1" fill="#fff" fill-opacity=".995"/><g steps="1--" transform="translate(0 2.646)" stroke-linecap="butt"><text transform="scale(.91257 1.0958)" y="50.315" x="63.6" style="line-height:77.90000439%;-inkscape-font-specification:'Walter Turncoat'" xml:space="preserve" font-style="normal" font-variant="normal" font-weight="400" font-stretch="normal" font-size="4.031" font-family="Walter Turncoat" letter-spacing="0" word-spacing="0" display="inline" fill="#000" fill-opacity="1" fill-rule="evenodd" stroke="none" stroke-width=".101" stroke-linejoin="miter" stroke-opacity="1"><tspan style="line-height:77.90000439%;text-align:center" y="50.315" x="63.6" text-anchor="middle" stroke-width=".101" stroke-linecap="butt" stroke-linejoin="round">&quot;get fragments from</tspan><tspan style="line-height:77.90000439%;text-align:center" y="53.455" x="63.6" text-anchor="middle" stroke-width=".101" stroke-linecap="butt" stroke-linejoin="round">different companies&quot;</tspan></text><g><path d="M46.306 85.496c.967 1.937 2.138 3.415 3.168 4.752.073.129.293-.578.306-.548.102.237.222 1.266.246 1.467.005.037-1.083-.459-1.29-.542-.036-.014.534-.117.534-.117" display="inline" fill="none" stroke="#000" stroke-width=".28" stroke-linejoin="miter" stroke-miterlimit="4" stroke-dasharray="none" stroke-opacity="1"/><g transform="translate(-3.185 28.064) scale(.12781)" display="inline" opacity="1" fill="#585858" fill-opacity="1" fill-rule="evenodd" stroke="none" stroke-width="1" stroke-linejoin="round"><path d="M305.916 395.395c-1.047-3.677 6.205-.223 4.413-4.329-.203-10.156-.51-20.315-.754-30.473-4.467-1.13-4.85-7.147-2.216-10.257 2.41-2.701 1.783-6.198 1.742-9.519-1.25-4.612 4.398-2.31 6.123-4.897 1.786-3.7 6.898-1.756 10.189-2.527 9.987-.353 19.98-.745 29.975-.507 2.669.942 3.923 4.821 7.343 3.338 2.497 2.013.75 6.085 1.42 8.916 1.18 3.45 5.164 6.466 3.712 10.528.112 2.569-4.169 2.687-3.297 5.491l.786 30.76c1.497-.456 6.731.152 3.721 1.882-3.182.607-6.476.14-9.704.504-17.794.539-35.602 1.224-53.402 1.1l-.051-.01zm36.707-17.07l-.288-14.17 16.972-.433.873 28.33c2.149.593 2.974-.642 2.52-2.571l-.771-30.161c-2.195-2.225-4.805.852-7.234.104-2.786-2.109-5.105 1.129-7.836.096-3.033-2.124-5.706 2.09-8.796-.283-2.644-.677-4.933 2.15-7.643.168-2.69-.44-5.048 2.236-7.746.09-2.44-.044-4.654 2.253-7.169.254-2.915-.964-3.856 1.96-3.253 4.244l.748 29.264 29.91-.764-.287-14.169zm-27.074 8.174c-.371-7.21-.374-14.43-.54-21.645 7.98-.18 15.958-.706 23.944-.516 1.208 3.025.55 6.391.907 9.565.116 3.995.347 8.005-.05 11.991-7.74.834-15.547.788-23.321.742l-.473-.054-.467-.083zm21.888-11.28l-.22-8.63-19.996.36.448 17.561 19.988-.662-.22-8.63zm20.102 3.804l-.334-13.089-12.657.324.669 26.176 12.656-.323-.334-13.088zm-10.76.542c-1.961-3.243 4.468-1.064.613.385l-.337-.106zM312.357 357.7c2.282-2.235-.074-3.549-2.234-2.94-2.423-.751-2.291 1.934-.758 3.133.855.81 2.23.684 2.992-.193zm7.479-.191c2.282-2.235-.074-3.549-2.234-2.94-2.423-.752-2.291 1.934-.758 3.133.855.81 2.23.684 2.992-.193zm7.479-.191c2.282-2.235-.074-3.549-2.235-2.94-2.422-.752-2.29 1.934-.757 3.133.855.81 2.23.684 2.992-.193zm7.479-.191c2.282-2.235-.074-3.549-2.235-2.94-2.422-.752-2.29 1.934-.757 3.133.855.81 2.23.684 2.992-.193zm7.479-.191c2.282-2.235-.074-3.549-2.235-2.94-2.422-.752-2.29 1.934-.757 3.133.855.81 2.23.684 2.992-.193zm7.479-.192c2.282-2.234-.074-3.548-2.235-2.94-2.422-.75-2.29 1.935-.757 3.134.855.81 2.23.684 2.992-.194zm7.479-.19c2.282-2.236-.074-3.55-2.235-2.94-2.422-.752-2.29 1.934-.757 3.133.855.81 2.23.684 2.992-.194zm7.479-.192c2.282-2.235-.074-3.548-2.235-2.94-2.422-.751-2.29 1.935-.757 3.134.855.81 2.23.684 2.992-.194zm-50.205-6.103c2.3-3.188-4.178-2.359-4.483.184-2.5 2.631 3.075 2.041 4.075.966.02-.422.261-.77.408-1.15zm6.938-.25c1.59-3.1-4.664-2.394-4.436.269-1.499 2.727 5.355 2.389 4.436-.269zm6.875.472c1.396-4.112-6.352-2.923-4.613.979 1 .188 5.033 1.247 4.613-.979zm7.402-.764c.81-2.87-4.292-1.971-4.794-1.363-.95 2.28-.036 3.878 2.329 3.225 1.535-.226 3.398.712 2.465-1.862zm7.26.39c1.287-3-6.104-3.776-4.874-.587-1.07 2.9 3.914 2.14 4.894 1.272l-.02-.685zm7.078.25c.234-3.058-2.617-3.45-4.779-2.625-1.36 3.28 3.15 4.608 4.957 3.026zm6.443-1.171c-.544-3.537-6.576-1.88-3.832 1.436.914.655 6.366 1.199 3.832-1.436zm6.937-.177c-.203-2.198-4.924-2.583-4.89-1.092.753 1.796 1.503 3.6 3.709 2.92 1.797-.158 3.212.529 1.181-1.828zm-1.96-7.362c.94-2.935-1.846-4.439-3.465-1.648-1.603 2.804-5.138 2.198-7.856 2.51-10.813.15-21.623.79-32.44.536-1.983-.559-4.643-5.707-6.094-2.3.136 1.776.1 3.558.171 5.337l49.764-1.271-.08-3.164zm-6.703-1.875c2.702-.754 1.542-5.429-1.12-4.834l-35.546.909c-3.132 1.838-.593 6.189 2.654 4.923 10.838.071 21.675-.354 32.5-.814a21.443 21.443 0 0 0 1.512-.184z" display="inline"/><path d="M304.49 394.37c-1.006-2.47 2.781-1.875 4.367-1.907.494-.59.08-2.108.237-3.043l.338-29.693c-3.584-.911-4.729-5.906-2.723-8.782.839-1.693 2.124-3.223 2.88-4.921.088-2.94-.106-5.911.398-8.817 2.24-1.1 5.497.354 6.466-2.96 2.573-1.933 6.288-.692 9.335-1.117 10.15.017 20.315-.016 30.45.601 2.73.51 2.819 4.722 6.187 3.52 3.297-.314 1.844 4.014 2.157 6.073.146 1.543-.509 3.298.595 4.586 1.537 2.763 4.004 5.715 2.685 9.047-.012 2.641-3.864 2.421-3.488 4.65l-.36 31.485c1.623.22 4.145-.634 4.858 1.287-1.786 1.857-5.72.407-8.334.887-18.418-.081-36.844-.15-55.252-.798l-.57-.05zm37.313-15.703l.236-14.17 16.976.193-.174 28.343c.768-.267 2.671.627 2.59-.508l.367-32.137c-2.034-1.87-3.712-.34-5.948.04-2.389-.013-4.158-2.295-6.297-.235-2.648 1.165-4.868-2.515-7.11-.196-2.85 1.463-5.276-2.503-7.755-.034-2.844 1.09-5.08-2.39-7.595-.07-2.663 1.307-4.779-2.445-7.074-.206-2.646 1.69-4.945-2.234-7.203-.198-1.39.194-.599 1.86-.824 2.84l-.343 30.166 29.918.341.236-14.17zm-27.357 7.168c-.105-7.216.159-14.433.259-21.65 7.982.115 15.98-.116 23.948.369 1.016 2.196.332 5.336.575 7.88-.09 4.561.105 9.173-.515 13.694-6.794.543-13.653.183-20.468.04-1.26-.094-2.572-.018-3.8-.333zm22.29-10.464l.098-8.631-19.996-.38-.2 17.567 19.999.076.098-8.632zm19.947 4.544l.15-13.091-12.66-.145-.3 26.183 12.66.145.15-13.092zm-10.772.145c-1.888-2.683 3.626-2.265 1.291.169-.418.356-1.001.335-1.291-.17zm-33.592-23.122c1.181-.823 1.612-3.76-.513-3.001l-3.459-.04c-.554 2.283 1.83 5.035 3.972 3.041zm7.481.086c1.181-.824 1.612-3.76-.514-3.002l-3.458-.04c-.554 2.283 1.83 5.035 3.972 3.042zm7.481.085c1.18-.823 1.612-3.76-.514-3.002l-3.458-.04c-.554 2.283 1.83 5.035 3.972 3.042zm7.481.085c1.18-.823 1.612-3.76-.514-3.002l-3.458-.04c-.554 2.283 1.83 5.036 3.972 3.042zm7.48.085c1.182-.823 1.613-3.76-.513-3.002l-3.458-.039c-.554 2.282 1.83 5.035 3.972 3.041zm7.482.085c1.18-.823 1.612-3.76-.514-3.001l-3.458-.04c-.554 2.283 1.83 5.035 3.972 3.041zm7.48.086c1.181-.824 1.613-3.76-.513-3.002l-3.458-.04c-.554 2.283 1.83 5.035 3.972 3.042zm7.482.085c1.18-.823 1.612-3.76-.514-3.002l-3.458-.04c-.554 2.283 1.83 5.035 3.972 3.042zm-49.946-7.954c.5-.986 1.45-2.236-.38-1.864-2.456-.925-3.724 1.056-4.684 2.928-1.105 1.226 1.359.479 2.07.7 1.118.002 2.468.379 2.672-1.102l.322-.662zm6.943.007c.438-1.212.733-2.314-.964-1.881-.985.173-2.537-.587-2.8.772-1.055 1.573-1.777 3.584 1.049 2.949 1.012-.11 2.624.557 2.508-1.017.07-.274.138-.548.207-.823zm6.853.726c1.285-2.962-1.536-2.578-3.55-2.558-.627.55-2.28 4.072-.11 3.721 1.004-.35 3.469.745 3.65-.478l.01-.685zm7.425-.49c.127-1.242.014-2.247-1.497-1.867l-3.314-.154c.4 1.144-1.08 3.565.132 3.765l4.744.054-.065-1.799zm7.24.657c.798-2.932-2.305-2.588-4.202-2.566-1.277-.213-.42 1.757-.685 2.58-.543 1.619 1.108 1.094 2.136 1.178.834-.252 2.766.616 2.746-.506l.006-.686zm7.064.512c-.454-1.307-.15-3.61-2.156-2.974-.787.244-2.653-.616-2.579.508-.498 2.363.62 3.86 3.17 3.24.726-.166 2.266.55 1.565-.774zm6.483-.933c-.42-1.003-.66-2.267-2.047-1.878-2.797-.967-2.732 1.294-1.836 3.172.353.986 2.025.246 2.942.494 1.506.27 2.045-.098 1.087-1.457l-.146-.331zm6.938.079c-.577-.956-.96-2.234-2.33-1.876-.774.146-2.8-.542-2.724.172l1.66 3.464 4.473.05-1.079-1.81zm-1.687-7.43c-.112-.992.272-2.47-.143-3.166-2.753-.791-3.315 2.567-5.578 3.27-4.97.667-10.038.135-15.045.234-7.67-.146-15.36-.043-23.015-.556-2.493-.823-2.765-4.371-5.775-3.511-.457.621-.072 2.105-.22 3.043l-.037 3.285 49.777.567.036-3.165zm-6.629-2.12c2.376-.86 2.01-3.708.134-4.86l-36.63-.417c-2.347 1.26-2.017 5.197 1.1 4.944 9.751.56 19.535.411 29.3.522 2.03-.042 4.078.06 6.096-.19z" display="inline"/></g><text transform="scale(.91257 1.0958)" y="74.687" x="43.745" style="line-height:77.90000439%;-inkscape-font-specification:'Walter Turncoat'" xml:space="preserve" font-style="normal" font-variant="normal" font-weight="400" font-stretch="normal" font-size="2.802" font-family="Walter Turncoat" letter-spacing="0" word-spacing="0" display="inline" fill="#000" fill-opacity="1" fill-rule="evenodd" stroke="none" stroke-width=".07" stroke-linejoin="miter" stroke-opacity="1"><tspan style="line-height:77.90000439%;text-align:center" y="74.687" x="43.745" text-anchor="middle" stroke-width=".07" stroke-linecap="butt" stroke-linejoin="round">vendor 1</tspan></text><g transform="translate(14.843 27.84) scale(.12781)" display="inline" opacity="1" fill="#585858" fill-opacity="1" fill-rule="evenodd" stroke="none" stroke-width="1" stroke-linejoin="round"><path d="M305.916 395.395c-1.047-3.677 6.205-.223 4.413-4.329-.203-10.156-.51-20.315-.754-30.473-4.467-1.13-4.85-7.147-2.216-10.257 2.41-2.701 1.783-6.198 1.742-9.519-1.25-4.612 4.398-2.31 6.123-4.897 1.786-3.7 6.898-1.756 10.189-2.527 9.987-.353 19.98-.745 29.975-.507 2.669.942 3.923 4.821 7.343 3.338 2.497 2.013.75 6.085 1.42 8.916 1.18 3.45 5.164 6.466 3.712 10.528.112 2.569-4.169 2.687-3.297 5.491l.786 30.76c1.497-.456 6.731.152 3.721 1.882-3.182.607-6.476.14-9.704.504-17.794.539-35.602 1.224-53.402 1.1l-.051-.01zm36.707-17.07l-.288-14.17 16.972-.433.873 28.33c2.149.593 2.974-.642 2.52-2.571l-.771-30.161c-2.195-2.225-4.805.852-7.234.104-2.786-2.109-5.105 1.129-7.836.096-3.033-2.124-5.706 2.09-8.796-.283-2.644-.677-4.933 2.15-7.643.168-2.69-.44-5.048 2.236-7.746.09-2.44-.044-4.654 2.253-7.169.254-2.915-.964-3.856 1.96-3.253 4.244l.748 29.264 29.91-.764-.287-14.169zm-27.074 8.174c-.371-7.21-.374-14.43-.54-21.645 7.98-.18 15.958-.706 23.944-.516 1.208 3.025.55 6.391.907 9.565.116 3.995.347 8.005-.05 11.991-7.74.834-15.547.788-23.321.742l-.473-.054-.467-.083zm21.888-11.28l-.22-8.63-19.996.36.448 17.561 19.988-.662-.22-8.63zm20.102 3.804l-.334-13.089-12.657.324.669 26.176 12.656-.323-.334-13.088zm-10.76.542c-1.961-3.243 4.468-1.064.613.385l-.337-.106zM312.357 357.7c2.282-2.235-.074-3.549-2.234-2.94-2.423-.751-2.291 1.934-.758 3.133.855.81 2.23.684 2.992-.193zm7.479-.191c2.282-2.235-.074-3.549-2.234-2.94-2.423-.752-2.291 1.934-.758 3.133.855.81 2.23.684 2.992-.193zm7.479-.191c2.282-2.235-.074-3.549-2.235-2.94-2.422-.752-2.29 1.934-.757 3.133.855.81 2.23.684 2.992-.193zm7.479-.191c2.282-2.235-.074-3.549-2.235-2.94-2.422-.752-2.29 1.934-.757 3.133.855.81 2.23.684 2.992-.193zm7.479-.191c2.282-2.235-.074-3.549-2.235-2.94-2.422-.752-2.29 1.934-.757 3.133.855.81 2.23.684 2.992-.193zm7.479-.192c2.282-2.234-.074-3.548-2.235-2.94-2.422-.75-2.29 1.935-.757 3.134.855.81 2.23.684 2.992-.194zm7.479-.19c2.282-2.236-.074-3.55-2.235-2.94-2.422-.752-2.29 1.934-.757 3.133.855.81 2.23.684 2.992-.194zm7.479-.192c2.282-2.235-.074-3.548-2.235-2.94-2.422-.751-2.29 1.935-.757 3.134.855.81 2.23.684 2.992-.194zm-50.205-6.103c2.3-3.188-4.178-2.359-4.483.184-2.5 2.631 3.075 2.041 4.075.966.02-.422.261-.77.408-1.15zm6.938-.25c1.59-3.1-4.664-2.394-4.436.269-1.499 2.727 5.355 2.389 4.436-.269zm6.875.472c1.396-4.112-6.352-2.923-4.613.979 1 .188 5.033 1.247 4.613-.979zm7.402-.764c.81-2.87-4.292-1.971-4.794-1.363-.95 2.28-.036 3.878 2.329 3.225 1.535-.226 3.398.712 2.465-1.862zm7.26.39c1.287-3-6.104-3.776-4.874-.587-1.07 2.9 3.914 2.14 4.894 1.272l-.02-.685zm7.078.25c.234-3.058-2.617-3.45-4.779-2.625-1.36 3.28 3.15 4.608 4.957 3.026zm6.443-1.171c-.544-3.537-6.576-1.88-3.832 1.436.914.655 6.366 1.199 3.832-1.436zm6.937-.177c-.203-2.198-4.924-2.583-4.89-1.092.753 1.796 1.503 3.6 3.709 2.92 1.797-.158 3.212.529 1.181-1.828zm-1.96-7.362c.94-2.935-1.846-4.439-3.465-1.648-1.603 2.804-5.138 2.198-7.856 2.51-10.813.15-21.623.79-32.44.536-1.983-.559-4.643-5.707-6.094-2.3.136 1.776.1 3.558.171 5.337l49.764-1.271-.08-3.164zm-6.703-1.875c2.702-.754 1.542-5.429-1.12-4.834l-35.546.909c-3.132 1.838-.593 6.189 2.654 4.923 10.838.071 21.675-.354 32.5-.814a21.443 21.443 0 0 0 1.512-.184z" display="inline"/><path d="M304.49 394.37c-1.006-2.47 2.781-1.875 4.367-1.907.494-.59.08-2.108.237-3.043l.338-29.693c-3.584-.911-4.729-5.906-2.723-8.782.839-1.693 2.124-3.223 2.88-4.921.088-2.94-.106-5.911.398-8.817 2.24-1.1 5.497.354 6.466-2.96 2.573-1.933 6.288-.692 9.335-1.117 10.15.017 20.315-.016 30.45.601 2.73.51 2.819 4.722 6.187 3.52 3.297-.314 1.844 4.014 2.157 6.073.146 1.543-.509 3.298.595 4.586 1.537 2.763 4.004 5.715 2.685 9.047-.012 2.641-3.864 2.421-3.488 4.65l-.36 31.485c1.623.22 4.145-.634 4.858 1.287-1.786 1.857-5.72.407-8.334.887-18.418-.081-36.844-.15-55.252-.798l-.57-.05zm37.313-15.703l.236-14.17 16.976.193-.174 28.343c.768-.267 2.671.627 2.59-.508l.367-32.137c-2.034-1.87-3.712-.34-5.948.04-2.389-.013-4.158-2.295-6.297-.235-2.648 1.165-4.868-2.515-7.11-.196-2.85 1.463-5.276-2.503-7.755-.034-2.844 1.09-5.08-2.39-7.595-.07-2.663 1.307-4.779-2.445-7.074-.206-2.646 1.69-4.945-2.234-7.203-.198-1.39.194-.599 1.86-.824 2.84l-.343 30.166 29.918.341.236-14.17zm-27.357 7.168c-.105-7.216.159-14.433.259-21.65 7.982.115 15.98-.116 23.948.369 1.016 2.196.332 5.336.575 7.88-.09 4.561.105 9.173-.515 13.694-6.794.543-13.653.183-20.468.04-1.26-.094-2.572-.018-3.8-.333zm22.29-10.464l.098-8.631-19.996-.38-.2 17.567 19.999.076.098-8.632zm19.947 4.544l.15-13.091-12.66-.145-.3 26.183 12.66.145.15-13.092zm-10.772.145c-1.888-2.683 3.626-2.265 1.291.169-.418.356-1.001.335-1.291-.17zm-33.592-23.122c1.181-.823 1.612-3.76-.513-3.001l-3.459-.04c-.554 2.283 1.83 5.035 3.972 3.041zm7.481.086c1.181-.824 1.612-3.76-.514-3.002l-3.458-.04c-.554 2.283 1.83 5.035 3.972 3.042zm7.481.085c1.18-.823 1.612-3.76-.514-3.002l-3.458-.04c-.554 2.283 1.83 5.035 3.972 3.042zm7.481.085c1.18-.823 1.612-3.76-.514-3.002l-3.458-.04c-.554 2.283 1.83 5.036 3.972 3.042zm7.48.085c1.182-.823 1.613-3.76-.513-3.002l-3.458-.039c-.554 2.282 1.83 5.035 3.972 3.041zm7.482.085c1.18-.823 1.612-3.76-.514-3.001l-3.458-.04c-.554 2.283 1.83 5.035 3.972 3.041zm7.48.086c1.181-.824 1.613-3.76-.513-3.002l-3.458-.04c-.554 2.283 1.83 5.035 3.972 3.042zm7.482.085c1.18-.823 1.612-3.76-.514-3.002l-3.458-.04c-.554 2.283 1.83 5.035 3.972 3.042zm-49.946-7.954c.5-.986 1.45-2.236-.38-1.864-2.456-.925-3.724 1.056-4.684 2.928-1.105 1.226 1.359.479 2.07.7 1.118.002 2.468.379 2.672-1.102l.322-.662zm6.943.007c.438-1.212.733-2.314-.964-1.881-.985.173-2.537-.587-2.8.772-1.055 1.573-1.777 3.584 1.049 2.949 1.012-.11 2.624.557 2.508-1.017.07-.274.138-.548.207-.823zm6.853.726c1.285-2.962-1.536-2.578-3.55-2.558-.627.55-2.28 4.072-.11 3.721 1.004-.35 3.469.745 3.65-.478l.01-.685zm7.425-.49c.127-1.242.014-2.247-1.497-1.867l-3.314-.154c.4 1.144-1.08 3.565.132 3.765l4.744.054-.065-1.799zm7.24.657c.798-2.932-2.305-2.588-4.202-2.566-1.277-.213-.42 1.757-.685 2.58-.543 1.619 1.108 1.094 2.136 1.178.834-.252 2.766.616 2.746-.506l.006-.686zm7.064.512c-.454-1.307-.15-3.61-2.156-2.974-.787.244-2.653-.616-2.579.508-.498 2.363.62 3.86 3.17 3.24.726-.166 2.266.55 1.565-.774zm6.483-.933c-.42-1.003-.66-2.267-2.047-1.878-2.797-.967-2.732 1.294-1.836 3.172.353.986 2.025.246 2.942.494 1.506.27 2.045-.098 1.087-1.457l-.146-.331zm6.938.079c-.577-.956-.96-2.234-2.33-1.876-.774.146-2.8-.542-2.724.172l1.66 3.464 4.473.05-1.079-1.81zm-1.687-7.43c-.112-.992.272-2.47-.143-3.166-2.753-.791-3.315 2.567-5.578 3.27-4.97.667-10.038.135-15.045.234-7.67-.146-15.36-.043-23.015-.556-2.493-.823-2.765-4.371-5.775-3.511-.457.621-.072 2.105-.22 3.043l-.037 3.285 49.777.567.036-3.165zm-6.629-2.12c2.376-.86 2.01-3.708.134-4.86l-36.63-.417c-2.347 1.26-2.017 5.197 1.1 4.944 9.751.56 19.535.411 29.3.522 2.03-.042 4.078.06 6.096-.19z" display="inline"/></g><text transform="scale(.91257 1.0958)" y="74.483" x="63.5" style="line-height:77.90000439%;-inkscape-font-specification:'Walter Turncoat'" xml:space="preserve" font-style="normal" font-variant="normal" font-weight="400" font-stretch="normal" font-size="2.802" font-family="Walter Turncoat" letter-spacing="0" word-spacing="0" display="inline" fill="#000" fill-opacity="1" fill-rule="evenodd" stroke="none" stroke-width=".07" stroke-linejoin="miter" stroke-opacity="1"><tspan style="line-height:77.90000439%;text-align:center" y="74.483" x="63.5" text-anchor="middle" stroke-width=".07" stroke-linecap="butt" stroke-linejoin="round">vendor 2</tspan></text><g transform="translate(32.779 27.96) scale(.12781)" display="inline" opacity="1" fill="#585858" fill-opacity="1" fill-rule="evenodd" stroke="none" stroke-width="1" stroke-linejoin="round"><path d="M305.916 395.395c-1.047-3.677 6.205-.223 4.413-4.329-.203-10.156-.51-20.315-.754-30.473-4.467-1.13-4.85-7.147-2.216-10.257 2.41-2.701 1.783-6.198 1.742-9.519-1.25-4.612 4.398-2.31 6.123-4.897 1.786-3.7 6.898-1.756 10.189-2.527 9.987-.353 19.98-.745 29.975-.507 2.669.942 3.923 4.821 7.343 3.338 2.497 2.013.75 6.085 1.42 8.916 1.18 3.45 5.164 6.466 3.712 10.528.112 2.569-4.169 2.687-3.297 5.491l.786 30.76c1.497-.456 6.731.152 3.721 1.882-3.182.607-6.476.14-9.704.504-17.794.539-35.602 1.224-53.402 1.1l-.051-.01zm36.707-17.07l-.288-14.17 16.972-.433.873 28.33c2.149.593 2.974-.642 2.52-2.571l-.771-30.161c-2.195-2.225-4.805.852-7.234.104-2.786-2.109-5.105 1.129-7.836.096-3.033-2.124-5.706 2.09-8.796-.283-2.644-.677-4.933 2.15-7.643.168-2.69-.44-5.048 2.236-7.746.09-2.44-.044-4.654 2.253-7.169.254-2.915-.964-3.856 1.96-3.253 4.244l.748 29.264 29.91-.764-.287-14.169zm-27.074 8.174c-.371-7.21-.374-14.43-.54-21.645 7.98-.18 15.958-.706 23.944-.516 1.208 3.025.55 6.391.907 9.565.116 3.995.347 8.005-.05 11.991-7.74.834-15.547.788-23.321.742l-.473-.054-.467-.083zm21.888-11.28l-.22-8.63-19.996.36.448 17.561 19.988-.662-.22-8.63zm20.102 3.804l-.334-13.089-12.657.324.669 26.176 12.656-.323-.334-13.088zm-10.76.542c-1.961-3.243 4.468-1.064.613.385l-.337-.106zM312.357 357.7c2.282-2.235-.074-3.549-2.234-2.94-2.423-.751-2.291 1.934-.758 3.133.855.81 2.23.684 2.992-.193zm7.479-.191c2.282-2.235-.074-3.549-2.234-2.94-2.423-.752-2.291 1.934-.758 3.133.855.81 2.23.684 2.992-.193zm7.479-.191c2.282-2.235-.074-3.549-2.235-2.94-2.422-.752-2.29 1.934-.757 3.133.855.81 2.23.684 2.992-.193zm7.479-.191c2.282-2.235-.074-3.549-2.235-2.94-2.422-.752-2.29 1.934-.757 3.133.855.81 2.23.684 2.992-.193zm7.479-.191c2.282-2.235-.074-3.549-2.235-2.94-2.422-.752-2.29 1.934-.757 3.133.855.81 2.23.684 2.992-.193zm7.479-.192c2.282-2.234-.074-3.548-2.235-2.94-2.422-.75-2.29 1.935-.757 3.134.855.81 2.23.684 2.992-.194zm7.479-.19c2.282-2.236-.074-3.55-2.235-2.94-2.422-.752-2.29 1.934-.757 3.133.855.81 2.23.684 2.992-.194zm7.479-.192c2.282-2.235-.074-3.548-2.235-2.94-2.422-.751-2.29 1.935-.757 3.134.855.81 2.23.684 2.992-.194zm-50.205-6.103c2.3-3.188-4.178-2.359-4.483.184-2.5 2.631 3.075 2.041 4.075.966.02-.422.261-.77.408-1.15zm6.938-.25c1.59-3.1-4.664-2.394-4.436.269-1.499 2.727 5.355 2.389 4.436-.269zm6.875.472c1.396-4.112-6.352-2.923-4.613.979 1 .188 5.033 1.247 4.613-.979zm7.402-.764c.81-2.87-4.292-1.971-4.794-1.363-.95 2.28-.036 3.878 2.329 3.225 1.535-.226 3.398.712 2.465-1.862zm7.26.39c1.287-3-6.104-3.776-4.874-.587-1.07 2.9 3.914 2.14 4.894 1.272l-.02-.685zm7.078.25c.234-3.058-2.617-3.45-4.779-2.625-1.36 3.28 3.15 4.608 4.957 3.026zm6.443-1.171c-.544-3.537-6.576-1.88-3.832 1.436.914.655 6.366 1.199 3.832-1.436zm6.937-.177c-.203-2.198-4.924-2.583-4.89-1.092.753 1.796 1.503 3.6 3.709 2.92 1.797-.158 3.212.529 1.181-1.828zm-1.96-7.362c.94-2.935-1.846-4.439-3.465-1.648-1.603 2.804-5.138 2.198-7.856 2.51-10.813.15-21.623.79-32.44.536-1.983-.559-4.643-5.707-6.094-2.3.136 1.776.1 3.558.171 5.337l49.764-1.271-.08-3.164zm-6.703-1.875c2.702-.754 1.542-5.429-1.12-4.834l-35.546.909c-3.132 1.838-.593 6.189 2.654 4.923 10.838.071 21.675-.354 32.5-.814a21.443 21.443 0 0 0 1.512-.184z" display="inline"/><path d="M304.49 394.37c-1.006-2.47 2.781-1.875 4.367-1.907.494-.59.08-2.108.237-3.043l.338-29.693c-3.584-.911-4.729-5.906-2.723-8.782.839-1.693 2.124-3.223 2.88-4.921.088-2.94-.106-5.911.398-8.817 2.24-1.1 5.497.354 6.466-2.96 2.573-1.933 6.288-.692 9.335-1.117 10.15.017 20.315-.016 30.45.601 2.73.51 2.819 4.722 6.187 3.52 3.297-.314 1.844 4.014 2.157 6.073.146 1.543-.509 3.298.595 4.586 1.537 2.763 4.004 5.715 2.685 9.047-.012 2.641-3.864 2.421-3.488 4.65l-.36 31.485c1.623.22 4.145-.634 4.858 1.287-1.786 1.857-5.72.407-8.334.887-18.418-.081-36.844-.15-55.252-.798l-.57-.05zm37.313-15.703l.236-14.17 16.976.193-.174 28.343c.768-.267 2.671.627 2.59-.508l.367-32.137c-2.034-1.87-3.712-.34-5.948.04-2.389-.013-4.158-2.295-6.297-.235-2.648 1.165-4.868-2.515-7.11-.196-2.85 1.463-5.276-2.503-7.755-.034-2.844 1.09-5.08-2.39-7.595-.07-2.663 1.307-4.779-2.445-7.074-.206-2.646 1.69-4.945-2.234-7.203-.198-1.39.194-.599 1.86-.824 2.84l-.343 30.166 29.918.341.236-14.17zm-27.357 7.168c-.105-7.216.159-14.433.259-21.65 7.982.115 15.98-.116 23.948.369 1.016 2.196.332 5.336.575 7.88-.09 4.561.105 9.173-.515 13.694-6.794.543-13.653.183-20.468.04-1.26-.094-2.572-.018-3.8-.333zm22.29-10.464l.098-8.631-19.996-.38-.2 17.567 19.999.076.098-8.632zm19.947 4.544l.15-13.091-12.66-.145-.3 26.183 12.66.145.15-13.092zm-10.772.145c-1.888-2.683 3.626-2.265 1.291.169-.418.356-1.001.335-1.291-.17zm-33.592-23.122c1.181-.823 1.612-3.76-.513-3.001l-3.459-.04c-.554 2.283 1.83 5.035 3.972 3.041zm7.481.086c1.181-.824 1.612-3.76-.514-3.002l-3.458-.04c-.554 2.283 1.83 5.035 3.972 3.042zm7.481.085c1.18-.823 1.612-3.76-.514-3.002l-3.458-.04c-.554 2.283 1.83 5.035 3.972 3.042zm7.481.085c1.18-.823 1.612-3.76-.514-3.002l-3.458-.04c-.554 2.283 1.83 5.036 3.972 3.042zm7.48.085c1.182-.823 1.613-3.76-.513-3.002l-3.458-.039c-.554 2.282 1.83 5.035 3.972 3.041zm7.482.085c1.18-.823 1.612-3.76-.514-3.001l-3.458-.04c-.554 2.283 1.83 5.035 3.972 3.041zm7.48.086c1.181-.824 1.613-3.76-.513-3.002l-3.458-.04c-.554 2.283 1.83 5.035 3.972 3.042zm7.482.085c1.18-.823 1.612-3.76-.514-3.002l-3.458-.04c-.554 2.283 1.83 5.035 3.972 3.042zm-49.946-7.954c.5-.986 1.45-2.236-.38-1.864-2.456-.925-3.724 1.056-4.684 2.928-1.105 1.226 1.359.479 2.07.7 1.118.002 2.468.379 2.672-1.102l.322-.662zm6.943.007c.438-1.212.733-2.314-.964-1.881-.985.173-2.537-.587-2.8.772-1.055 1.573-1.777 3.584 1.049 2.949 1.012-.11 2.624.557 2.508-1.017.07-.274.138-.548.207-.823zm6.853.726c1.285-2.962-1.536-2.578-3.55-2.558-.627.55-2.28 4.072-.11 3.721 1.004-.35 3.469.745 3.65-.478l.01-.685zm7.425-.49c.127-1.242.014-2.247-1.497-1.867l-3.314-.154c.4 1.144-1.08 3.565.132 3.765l4.744.054-.065-1.799zm7.24.657c.798-2.932-2.305-2.588-4.202-2.566-1.277-.213-.42 1.757-.685 2.58-.543 1.619 1.108 1.094 2.136 1.178.834-.252 2.766.616 2.746-.506l.006-.686zm7.064.512c-.454-1.307-.15-3.61-2.156-2.974-.787.244-2.653-.616-2.579.508-.498 2.363.62 3.86 3.17 3.24.726-.166 2.266.55 1.565-.774zm6.483-.933c-.42-1.003-.66-2.267-2.047-1.878-2.797-.967-2.732 1.294-1.836 3.172.353.986 2.025.246 2.942.494 1.506.27 2.045-.098 1.087-1.457l-.146-.331zm6.938.079c-.577-.956-.96-2.234-2.33-1.876-.774.146-2.8-.542-2.724.172l1.66 3.464 4.473.05-1.079-1.81zm-1.687-7.43c-.112-.992.272-2.47-.143-3.166-2.753-.791-3.315 2.567-5.578 3.27-4.97.667-10.038.135-15.045.234-7.67-.146-15.36-.043-23.015-.556-2.493-.823-2.765-4.371-5.775-3.511-.457.621-.072 2.105-.22 3.043l-.037 3.285 49.777.567.036-3.165zm-6.629-2.12c2.376-.86 2.01-3.708.134-4.86l-36.63-.417c-2.347 1.26-2.017 5.197 1.1 4.944 9.751.56 19.535.411 29.3.522 2.03-.042 4.078.06 6.096-.19z" display="inline"/></g><text transform="scale(.91257 1.0958)" y="74.593" x="83.155" style="line-height:77.90000439%;-inkscape-font-specification:'Walter Turncoat'" xml:space="preserve" font-style="normal" font-variant="normal" font-weight="400" font-stretch="normal" font-size="2.802" font-family="Walter Turncoat" letter-spacing="0" word-spacing="0" display="inline" fill="#000" fill-opacity="1" fill-rule="evenodd" stroke="none" stroke-width=".07" stroke-linejoin="miter" stroke-opacity="1"><tspan style="line-height:77.90000439%;text-align:center" y="74.593" x="83.155" text-anchor="middle" stroke-width=".07" stroke-linecap="butt" stroke-linejoin="round">vendor 3</tspan></text><path d="M70.485 85.117c-.966 1.937-2.138 3.416-3.168 4.753-.073.129-.293-.578-.306-.548-.101.237-.221 1.266-.246 1.467-.004.037 1.083-.459 1.291-.542.036-.014-.534-.117-.534-.117M58.42 84.298c-.249 2.15-.075 4.029.057 5.711-.01.148.561-.324.555-.292-.044.254-.506 1.182-.595 1.363-.016.034-.657-.976-.785-1.159-.022-.03.512.194.512.194" display="inline" fill="none" stroke="#000" stroke-width=".28" stroke-linejoin="miter" stroke-miterlimit="4" stroke-dasharray="none" stroke-opacity="1"/><text xml:space="preserve" style="line-height:77.90000439%;-inkscape-font-specification:'Walter Turncoat'" x="63.491" y="95.532" transform="scale(.91257 1.0958)" font-style="normal" font-variant="normal" font-weight="400" font-stretch="normal" font-size="2.625" font-family="Walter Turncoat" letter-spacing="0" word-spacing="0" display="inline" fill="#000" fill-opacity="1" fill-rule="evenodd" stroke="none" stroke-width=".066" stroke-linejoin="miter" stroke-opacity="1"><tspan x="63.491" y="95.532" style="line-height:77.90000439%;text-align:center" text-anchor="middle" stroke-width=".066" stroke-linecap="butt" stroke-linejoin="round">Gibson Assembly</tspan></text><g transform="matrix(.04267 0 0 .04267 20.533 63.673)" display="inline" fill="none" fill-rule="evenodd" stroke="#000" stroke-width="1" stroke-linejoin="round"><g transform="matrix(.75 0 0 .75 603.484 -501.984)" stroke-linecap="butt" stroke-linejoin="round"><g transform="matrix(.5292 0 0 .5292 171.947 1354.914)" stroke-linecap="butt" stroke-linejoin="round" fill-rule="evenodd"><path d="M219.475 503.011s46.72-3.12 97.01 2.027c0 0 2.547 6.24-5.62 8.112l-7.653 52.117 78.623 242.165s17.64 30.529-37.239 37.152c-54.878 6.618-137.18 16.77-201.45-16.33 0 0-15.162-12.802 11.554-71.499l72.932-190.654-2.89-52.734s-11.555-7.507-5.267-10.356z" fill="#fff" stroke="#585858" stroke-width="19.757" stroke-linecap="butt" stroke-linejoin="round" stroke-opacity="1"/><ellipse ry="16.77" rx="99.097" cy="824.231" cx="268.673" color="#000" opacity=".466" fill="#d3d7cf" stroke="none"/><path d="M343.17 754.018c-75.135 26.951-131.196 19.24-167.95 5.37l-.1.29c-.061.173-.142.346-.223.519-12.97 28.514-15.405 45.252-15.031 53.989.131 3.188.586 5.004 1.01 6.252 55.324 26.297 126.072 18.036 179.677 11.567 21.015-2.533 21.298-6.154 22.622-10.714 1.314-4.566-1.081-9.602-1.081-9.602a9.034 9.034 0 0 1-.789-1.773z" fill="#585858" fill-opacity="1" stroke="#fff" stroke-width="11.403" stroke-linecap="butt" stroke-linejoin="round" stroke-miterlimit="4" stroke-dasharray="none" stroke-opacity="1"/><path d="M434.672 582.9l-2.295-43.534s.253-5.616-4.337-7.334l3.316-4.992s27.566-4.06 93.937 1.248c0 0 10.472-.47 11.746 5.616 0 0-5.873 4.06-5.358 10.924l-7.662 41.348s80.412 198.167 101.852 279.929c0 0-9.694 34.013-65.35 39.944-55.647 5.926-168.992 21.842-257.824-28.088 0 0-30.143-13.413 10.21-70.838l111.838-204.389s10.108-10.59 11.544-14.124c1.445-3.528-1.436-5.295-1.617-5.71z" fill="#fff" stroke="#585858" stroke-width="19.757" stroke-linecap="butt" stroke-linejoin="round" stroke-opacity="1"/><ellipse ry="26.921" rx="134.655" cy="874.769" cx="467.403" color="#000" opacity=".466" fill="#d3d7cf" stroke="none"/><path d="M349.903 786.165l-14.02 25.642a14.92 14.92 0 0 1-.698 1.161c-19.044 27.1-20.156 42.194-18.549 48.985.799 3.348 2.113 4.739 2.527 5.153 79.391 44.578 179.828 30.479 237.203 24.368 34.803-3.707 43.052-20.68 44.82-25.74-4.993-18.542-12.969-43.003-22.268-69.683-103.116 17.01-178.342 6.235-229.015-9.886z" fill="#585858" fill-opacity="1" stroke="#fff" stroke-width="11.403" stroke-linecap="butt" stroke-linejoin="round" stroke-miterlimit="4" stroke-dasharray="none" stroke-opacity="1"/></g></g></g></g></g><g steps="3--" transform="translate(0 2.646)" stroke-linecap="butt"><g transform="matrix(.11917 0 0 .11917 69.876 25.466)" display="inline" opacity="1" fill="#585858" fill-opacity="1" fill-rule="evenodd" stroke="none" stroke-width="1" stroke-linejoin="round"><path d="M305.916 395.395c-1.047-3.677 6.205-.223 4.413-4.329-.203-10.156-.51-20.315-.754-30.473-4.467-1.13-4.85-7.147-2.216-10.257 2.41-2.701 1.783-6.198 1.742-9.519-1.25-4.612 4.398-2.31 6.123-4.897 1.786-3.7 6.898-1.756 10.189-2.527 9.987-.353 19.98-.745 29.975-.507 2.669.942 3.923 4.821 7.343 3.338 2.497 2.013.75 6.085 1.42 8.916 1.18 3.45 5.164 6.466 3.712 10.528.112 2.569-4.169 2.687-3.297 5.491l.786 30.76c1.497-.456 6.731.152 3.721 1.882-3.182.607-6.476.14-9.704.504-17.794.539-35.602 1.224-53.402 1.1l-.051-.01zm36.707-17.07l-.288-14.17 16.972-.433.873 28.33c2.149.593 2.974-.642 2.52-2.571l-.771-30.161c-2.195-2.225-4.805.852-7.234.104-2.786-2.109-5.105 1.129-7.836.096-3.033-2.124-5.706 2.09-8.796-.283-2.644-.677-4.933 2.15-7.643.168-2.69-.44-5.048 2.236-7.746.09-2.44-.044-4.654 2.253-7.169.254-2.915-.964-3.856 1.96-3.253 4.244l.748 29.264 29.91-.764-.287-14.169zm-27.074 8.174c-.371-7.21-.374-14.43-.54-21.645 7.98-.18 15.958-.706 23.944-.516 1.208 3.025.55 6.391.907 9.565.116 3.995.347 8.005-.05 11.991-7.74.834-15.547.788-23.321.742l-.473-.054-.467-.083zm21.888-11.28l-.22-8.63-19.996.36.448 17.561 19.988-.662-.22-8.63zm20.102 3.804l-.334-13.089-12.657.324.669 26.176 12.656-.323-.334-13.088zm-10.76.542c-1.961-3.243 4.468-1.064.613.385l-.337-.106zM312.357 357.7c2.282-2.235-.074-3.549-2.234-2.94-2.423-.751-2.291 1.934-.758 3.133.855.81 2.23.684 2.992-.193zm7.479-.191c2.282-2.235-.074-3.549-2.234-2.94-2.423-.752-2.291 1.934-.758 3.133.855.81 2.23.684 2.992-.193zm7.479-.191c2.282-2.235-.074-3.549-2.235-2.94-2.422-.752-2.29 1.934-.757 3.133.855.81 2.23.684 2.992-.193zm7.479-.191c2.282-2.235-.074-3.549-2.235-2.94-2.422-.752-2.29 1.934-.757 3.133.855.81 2.23.684 2.992-.193zm7.479-.191c2.282-2.235-.074-3.549-2.235-2.94-2.422-.752-2.29 1.934-.757 3.133.855.81 2.23.684 2.992-.193zm7.479-.192c2.282-2.234-.074-3.548-2.235-2.94-2.422-.75-2.29 1.935-.757 3.134.855.81 2.23.684 2.992-.194zm7.479-.19c2.282-2.236-.074-3.55-2.235-2.94-2.422-.752-2.29 1.934-.757 3.133.855.81 2.23.684 2.992-.194zm7.479-.192c2.282-2.235-.074-3.548-2.235-2.94-2.422-.751-2.29 1.935-.757 3.134.855.81 2.23.684 2.992-.194zm-50.205-6.103c2.3-3.188-4.178-2.359-4.483.184-2.5 2.631 3.075 2.041 4.075.966.02-.422.261-.77.408-1.15zm6.938-.25c1.59-3.1-4.664-2.394-4.436.269-1.499 2.727 5.355 2.389 4.436-.269zm6.875.472c1.396-4.112-6.352-2.923-4.613.979 1 .188 5.033 1.247 4.613-.979zm7.402-.764c.81-2.87-4.292-1.971-4.794-1.363-.95 2.28-.036 3.878 2.329 3.225 1.535-.226 3.398.712 2.465-1.862zm7.26.39c1.287-3-6.104-3.776-4.874-.587-1.07 2.9 3.914 2.14 4.894 1.272l-.02-.685zm7.078.25c.234-3.058-2.617-3.45-4.779-2.625-1.36 3.28 3.15 4.608 4.957 3.026zm6.443-1.171c-.544-3.537-6.576-1.88-3.832 1.436.914.655 6.366 1.199 3.832-1.436zm6.937-.177c-.203-2.198-4.924-2.583-4.89-1.092.753 1.796 1.503 3.6 3.709 2.92 1.797-.158 3.212.529 1.181-1.828zm-1.96-7.362c.94-2.935-1.846-4.439-3.465-1.648-1.603 2.804-5.138 2.198-7.856 2.51-10.813.15-21.623.79-32.44.536-1.983-.559-4.643-5.707-6.094-2.3.136 1.776.1 3.558.171 5.337l49.764-1.271-.08-3.164zm-6.703-1.875c2.702-.754 1.542-5.429-1.12-4.834l-35.546.909c-3.132 1.838-.593 6.189 2.654 4.923 10.838.071 21.675-.354 32.5-.814a21.443 21.443 0 0 0 1.512-.184z" display="inline"/><path d="M304.49 394.37c-1.006-2.47 2.781-1.875 4.367-1.907.494-.59.08-2.108.237-3.043l.338-29.693c-3.584-.911-4.729-5.906-2.723-8.782.839-1.693 2.124-3.223 2.88-4.921.088-2.94-.106-5.911.398-8.817 2.24-1.1 5.497.354 6.466-2.96 2.573-1.933 6.288-.692 9.335-1.117 10.15.017 20.315-.016 30.45.601 2.73.51 2.819 4.722 6.187 3.52 3.297-.314 1.844 4.014 2.157 6.073.146 1.543-.509 3.298.595 4.586 1.537 2.763 4.004 5.715 2.685 9.047-.012 2.641-3.864 2.421-3.488 4.65l-.36 31.485c1.623.22 4.145-.634 4.858 1.287-1.786 1.857-5.72.407-8.334.887-18.418-.081-36.844-.15-55.252-.798l-.57-.05zm37.313-15.703l.236-14.17 16.976.193-.174 28.343c.768-.267 2.671.627 2.59-.508l.367-32.137c-2.034-1.87-3.712-.34-5.948.04-2.389-.013-4.158-2.295-6.297-.235-2.648 1.165-4.868-2.515-7.11-.196-2.85 1.463-5.276-2.503-7.755-.034-2.844 1.09-5.08-2.39-7.595-.07-2.663 1.307-4.779-2.445-7.074-.206-2.646 1.69-4.945-2.234-7.203-.198-1.39.194-.599 1.86-.824 2.84l-.343 30.166 29.918.341.236-14.17zm-27.357 7.168c-.105-7.216.159-14.433.259-21.65 7.982.115 15.98-.116 23.948.369 1.016 2.196.332 5.336.575 7.88-.09 4.561.105 9.173-.515 13.694-6.794.543-13.653.183-20.468.04-1.26-.094-2.572-.018-3.8-.333zm22.29-10.464l.098-8.631-19.996-.38-.2 17.567 19.999.076.098-8.632zm19.947 4.544l.15-13.091-12.66-.145-.3 26.183 12.66.145.15-13.092zm-10.772.145c-1.888-2.683 3.626-2.265 1.291.169-.418.356-1.001.335-1.291-.17zm-33.592-23.122c1.181-.823 1.612-3.76-.513-3.001l-3.459-.04c-.554 2.283 1.83 5.035 3.972 3.041zm7.481.086c1.181-.824 1.612-3.76-.514-3.002l-3.458-.04c-.554 2.283 1.83 5.035 3.972 3.042zm7.481.085c1.18-.823 1.612-3.76-.514-3.002l-3.458-.04c-.554 2.283 1.83 5.035 3.972 3.042zm7.481.085c1.18-.823 1.612-3.76-.514-3.002l-3.458-.04c-.554 2.283 1.83 5.036 3.972 3.042zm7.48.085c1.182-.823 1.613-3.76-.513-3.002l-3.458-.039c-.554 2.282 1.83 5.035 3.972 3.041zm7.482.085c1.18-.823 1.612-3.76-.514-3.001l-3.458-.04c-.554 2.283 1.83 5.035 3.972 3.041zm7.48.086c1.181-.824 1.613-3.76-.513-3.002l-3.458-.04c-.554 2.283 1.83 5.035 3.972 3.042zm7.482.085c1.18-.823 1.612-3.76-.514-3.002l-3.458-.04c-.554 2.283 1.83 5.035 3.972 3.042zm-49.946-7.954c.5-.986 1.45-2.236-.38-1.864-2.456-.925-3.724 1.056-4.684 2.928-1.105 1.226 1.359.479 2.07.7 1.118.002 2.468.379 2.672-1.102l.322-.662zm6.943.007c.438-1.212.733-2.314-.964-1.881-.985.173-2.537-.587-2.8.772-1.055 1.573-1.777 3.584 1.049 2.949 1.012-.11 2.624.557 2.508-1.017.07-.274.138-.548.207-.823zm6.853.726c1.285-2.962-1.536-2.578-3.55-2.558-.627.55-2.28 4.072-.11 3.721 1.004-.35 3.469.745 3.65-.478l.01-.685zm7.425-.49c.127-1.242.014-2.247-1.497-1.867l-3.314-.154c.4 1.144-1.08 3.565.132 3.765l4.744.054-.065-1.799zm7.24.657c.798-2.932-2.305-2.588-4.202-2.566-1.277-.213-.42 1.757-.685 2.58-.543 1.619 1.108 1.094 2.136 1.178.834-.252 2.766.616 2.746-.506l.006-.686zm7.064.512c-.454-1.307-.15-3.61-2.156-2.974-.787.244-2.653-.616-2.579.508-.498 2.363.62 3.86 3.17 3.24.726-.166 2.266.55 1.565-.774zm6.483-.933c-.42-1.003-.66-2.267-2.047-1.878-2.797-.967-2.732 1.294-1.836 3.172.353.986 2.025.246 2.942.494 1.506.27 2.045-.098 1.087-1.457l-.146-.331zm6.938.079c-.577-.956-.96-2.234-2.33-1.876-.774.146-2.8-.542-2.724.172l1.66 3.464 4.473.05-1.079-1.81zm-1.687-7.43c-.112-.992.272-2.47-.143-3.166-2.753-.791-3.315 2.567-5.578 3.27-4.97.667-10.038.135-15.045.234-7.67-.146-15.36-.043-23.015-.556-2.493-.823-2.765-4.371-5.775-3.511-.457.621-.072 2.105-.22 3.043l-.037 3.285 49.777.567.036-3.165zm-6.629-2.12c2.376-.86 2.01-3.708.134-4.86l-36.63-.417c-2.347 1.26-2.017 5.197 1.1 4.944 9.751.56 19.535.411 29.3.522 2.03-.042 4.078.06 6.096-.19z" display="inline"/></g><text xml:space="preserve" style="line-height:77.90000439%;-inkscape-font-specification:'Walter Turncoat'" x="120.612" y="68.998" transform="scale(.91257 1.0958)" font-style="normal" font-variant="normal" font-weight="400" font-stretch="normal" font-size="2.613" font-family="Walter Turncoat" letter-spacing="0" word-spacing="0" display="inline" fill="#000" fill-opacity="1" fill-rule="evenodd" stroke="none" stroke-width=".065" stroke-linejoin="miter" stroke-opacity="1"><tspan x="120.612" y="68.998" style="line-height:77.90000439%;text-align:center" text-anchor="middle" stroke-width=".065" stroke-linecap="butt" stroke-linejoin="round">vendor 1</tspan></text><text transform="scale(.91257 1.0958)" y="84.827" x="121.39" style="line-height:77.90000439%;-inkscape-font-specification:'Walter Turncoat'" xml:space="preserve" font-style="normal" font-variant="normal" font-weight="400" font-stretch="normal" font-size="2.447" font-family="Walter Turncoat" letter-spacing="0" word-spacing="0" display="inline" fill="#000" fill-opacity="1" fill-rule="evenodd" stroke="none" stroke-width=".061" stroke-linejoin="miter" stroke-opacity="1"><tspan style="line-height:77.90000439%;text-align:center" y="84.827" x="121.782" text-anchor="middle" stroke-width=".061" stroke-linecap="butt" stroke-linejoin="round">Gibson</tspan></text><g transform="matrix(.03978 0 0 .03978 75.9 54.717)" display="inline" fill="none" fill-rule="evenodd" stroke="#000" stroke-width="1" stroke-linejoin="round"><g transform="matrix(.75 0 0 .75 603.484 -501.984)" stroke-linecap="butt" stroke-linejoin="round"><g transform="matrix(.5292 0 0 .5292 171.947 1354.914)" stroke-linecap="butt" stroke-linejoin="round" fill-rule="evenodd"><path d="M219.475 503.011s46.72-3.12 97.01 2.027c0 0 2.547 6.24-5.62 8.112l-7.653 52.117 78.623 242.165s17.64 30.529-37.239 37.152c-54.878 6.618-137.18 16.77-201.45-16.33 0 0-15.162-12.802 11.554-71.499l72.932-190.654-2.89-52.734s-11.555-7.507-5.267-10.356z" fill="#fff" stroke="#585858" stroke-width="19.757" stroke-linecap="butt" stroke-linejoin="round" stroke-opacity="1"/><ellipse cx="268.673" cy="824.231" rx="99.097" ry="16.77" color="#000" opacity=".466" fill="#d3d7cf" stroke="none"/><path d="M343.17 754.018c-75.135 26.951-131.196 19.24-167.95 5.37l-.1.29c-.061.173-.142.346-.223.519-12.97 28.514-15.405 45.252-15.031 53.989.131 3.188.586 5.004 1.01 6.252 55.324 26.297 126.072 18.036 179.677 11.567 21.015-2.533 21.298-6.154 22.622-10.714 1.314-4.566-1.081-9.602-1.081-9.602a9.034 9.034 0 0 1-.789-1.773z" fill="#585858" fill-opacity="1" stroke="#fff" stroke-width="11.403" stroke-linecap="butt" stroke-linejoin="round" stroke-miterlimit="4" stroke-dasharray="none" stroke-opacity="1"/><path d="M434.672 582.9l-2.295-43.534s.253-5.616-4.337-7.334l3.316-4.992s27.566-4.06 93.937 1.248c0 0 10.472-.47 11.746 5.616 0 0-5.873 4.06-5.358 10.924l-7.662 41.348s80.412 198.167 101.852 279.929c0 0-9.694 34.013-65.35 39.944-55.647 5.926-168.992 21.842-257.824-28.088 0 0-30.143-13.413 10.21-70.838l111.838-204.389s10.108-10.59 11.544-14.124c1.445-3.528-1.436-5.295-1.617-5.71z" fill="#fff" stroke="#585858" stroke-width="19.757" stroke-linecap="butt" stroke-linejoin="round" stroke-opacity="1"/><ellipse cx="467.403" cy="874.769" rx="134.655" ry="26.921" color="#000" opacity=".466" fill="#d3d7cf" stroke="none"/><path d="M349.903 786.165l-14.02 25.642a14.92 14.92 0 0 1-.698 1.161c-19.044 27.1-20.156 42.194-18.549 48.985.799 3.348 2.113 4.739 2.527 5.153 79.391 44.578 179.828 30.479 237.203 24.368 34.803-3.707 43.052-20.68 44.82-25.74-4.993-18.542-12.969-43.003-22.268-69.683-103.116 17.01-178.342 6.235-229.015-9.886z" fill="#585858" fill-opacity="1" stroke="#fff" stroke-width="11.403" stroke-linecap="butt" stroke-linejoin="round" stroke-miterlimit="4" stroke-dasharray="none" stroke-opacity="1"/></g></g></g><path d="M110.524 76.34c-.232 2.005-.07 2.048.053 3.617-.009.138.523-.303.518-.272-.041.236-.472 1.101-.555 1.27-.015.032-.612-.91-.732-1.08-.02-.03.477.18.477.18" display="inline" fill="none" stroke="#000" stroke-width=".261" stroke-linejoin="miter" stroke-miterlimit="4" stroke-dasharray="none" stroke-opacity="1"/></g><g steps="4--" transform="translate(0 2.646)" stroke-linecap="butt"><g transform="matrix(.11917 0 0 .11917 86.685 25.257)" display="inline" opacity="1" fill="#585858" fill-opacity="1" fill-rule="evenodd" stroke="none" stroke-width="1" stroke-linejoin="round"><path d="M305.916 395.395c-1.047-3.677 6.205-.223 4.413-4.329-.203-10.156-.51-20.315-.754-30.473-4.467-1.13-4.85-7.147-2.216-10.257 2.41-2.701 1.783-6.198 1.742-9.519-1.25-4.612 4.398-2.31 6.123-4.897 1.786-3.7 6.898-1.756 10.189-2.527 9.987-.353 19.98-.745 29.975-.507 2.669.942 3.923 4.821 7.343 3.338 2.497 2.013.75 6.085 1.42 8.916 1.18 3.45 5.164 6.466 3.712 10.528.112 2.569-4.169 2.687-3.297 5.491l.786 30.76c1.497-.456 6.731.152 3.721 1.882-3.182.607-6.476.14-9.704.504-17.794.539-35.602 1.224-53.402 1.1l-.051-.01zm36.707-17.07l-.288-14.17 16.972-.433.873 28.33c2.149.593 2.974-.642 2.52-2.571l-.771-30.161c-2.195-2.225-4.805.852-7.234.104-2.786-2.109-5.105 1.129-7.836.096-3.033-2.124-5.706 2.09-8.796-.283-2.644-.677-4.933 2.15-7.643.168-2.69-.44-5.048 2.236-7.746.09-2.44-.044-4.654 2.253-7.169.254-2.915-.964-3.856 1.96-3.253 4.244l.748 29.264 29.91-.764-.287-14.169zm-27.074 8.174c-.371-7.21-.374-14.43-.54-21.645 7.98-.18 15.958-.706 23.944-.516 1.208 3.025.55 6.391.907 9.565.116 3.995.347 8.005-.05 11.991-7.74.834-15.547.788-23.321.742l-.473-.054-.467-.083zm21.888-11.28l-.22-8.63-19.996.36.448 17.561 19.988-.662-.22-8.63zm20.102 3.804l-.334-13.089-12.657.324.669 26.176 12.656-.323-.334-13.088zm-10.76.542c-1.961-3.243 4.468-1.064.613.385l-.337-.106zM312.357 357.7c2.282-2.235-.074-3.549-2.234-2.94-2.423-.751-2.291 1.934-.758 3.133.855.81 2.23.684 2.992-.193zm7.479-.191c2.282-2.235-.074-3.549-2.234-2.94-2.423-.752-2.291 1.934-.758 3.133.855.81 2.23.684 2.992-.193zm7.479-.191c2.282-2.235-.074-3.549-2.235-2.94-2.422-.752-2.29 1.934-.757 3.133.855.81 2.23.684 2.992-.193zm7.479-.191c2.282-2.235-.074-3.549-2.235-2.94-2.422-.752-2.29 1.934-.757 3.133.855.81 2.23.684 2.992-.193zm7.479-.191c2.282-2.235-.074-3.549-2.235-2.94-2.422-.752-2.29 1.934-.757 3.133.855.81 2.23.684 2.992-.193zm7.479-.192c2.282-2.234-.074-3.548-2.235-2.94-2.422-.75-2.29 1.935-.757 3.134.855.81 2.23.684 2.992-.194zm7.479-.19c2.282-2.236-.074-3.55-2.235-2.94-2.422-.752-2.29 1.934-.757 3.133.855.81 2.23.684 2.992-.194zm7.479-.192c2.282-2.235-.074-3.548-2.235-2.94-2.422-.751-2.29 1.935-.757 3.134.855.81 2.23.684 2.992-.194zm-50.205-6.103c2.3-3.188-4.178-2.359-4.483.184-2.5 2.631 3.075 2.041 4.075.966.02-.422.261-.77.408-1.15zm6.938-.25c1.59-3.1-4.664-2.394-4.436.269-1.499 2.727 5.355 2.389 4.436-.269zm6.875.472c1.396-4.112-6.352-2.923-4.613.979 1 .188 5.033 1.247 4.613-.979zm7.402-.764c.81-2.87-4.292-1.971-4.794-1.363-.95 2.28-.036 3.878 2.329 3.225 1.535-.226 3.398.712 2.465-1.862zm7.26.39c1.287-3-6.104-3.776-4.874-.587-1.07 2.9 3.914 2.14 4.894 1.272l-.02-.685zm7.078.25c.234-3.058-2.617-3.45-4.779-2.625-1.36 3.28 3.15 4.608 4.957 3.026zm6.443-1.171c-.544-3.537-6.576-1.88-3.832 1.436.914.655 6.366 1.199 3.832-1.436zm6.937-.177c-.203-2.198-4.924-2.583-4.89-1.092.753 1.796 1.503 3.6 3.709 2.92 1.797-.158 3.212.529 1.181-1.828zm-1.96-7.362c.94-2.935-1.846-4.439-3.465-1.648-1.603 2.804-5.138 2.198-7.856 2.51-10.813.15-21.623.79-32.44.536-1.983-.559-4.643-5.707-6.094-2.3.136 1.776.1 3.558.171 5.337l49.764-1.271-.08-3.164zm-6.703-1.875c2.702-.754 1.542-5.429-1.12-4.834l-35.546.909c-3.132 1.838-.593 6.189 2.654 4.923 10.838.071 21.675-.354 32.5-.814a21.443 21.443 0 0 0 1.512-.184z" display="inline"/><path d="M304.49 394.37c-1.006-2.47 2.781-1.875 4.367-1.907.494-.59.08-2.108.237-3.043l.338-29.693c-3.584-.911-4.729-5.906-2.723-8.782.839-1.693 2.124-3.223 2.88-4.921.088-2.94-.106-5.911.398-8.817 2.24-1.1 5.497.354 6.466-2.96 2.573-1.933 6.288-.692 9.335-1.117 10.15.017 20.315-.016 30.45.601 2.73.51 2.819 4.722 6.187 3.52 3.297-.314 1.844 4.014 2.157 6.073.146 1.543-.509 3.298.595 4.586 1.537 2.763 4.004 5.715 2.685 9.047-.012 2.641-3.864 2.421-3.488 4.65l-.36 31.485c1.623.22 4.145-.634 4.858 1.287-1.786 1.857-5.72.407-8.334.887-18.418-.081-36.844-.15-55.252-.798l-.57-.05zm37.313-15.703l.236-14.17 16.976.193-.174 28.343c.768-.267 2.671.627 2.59-.508l.367-32.137c-2.034-1.87-3.712-.34-5.948.04-2.389-.013-4.158-2.295-6.297-.235-2.648 1.165-4.868-2.515-7.11-.196-2.85 1.463-5.276-2.503-7.755-.034-2.844 1.09-5.08-2.39-7.595-.07-2.663 1.307-4.779-2.445-7.074-.206-2.646 1.69-4.945-2.234-7.203-.198-1.39.194-.599 1.86-.824 2.84l-.343 30.166 29.918.341.236-14.17zm-27.357 7.168c-.105-7.216.159-14.433.259-21.65 7.982.115 15.98-.116 23.948.369 1.016 2.196.332 5.336.575 7.88-.09 4.561.105 9.173-.515 13.694-6.794.543-13.653.183-20.468.04-1.26-.094-2.572-.018-3.8-.333zm22.29-10.464l.098-8.631-19.996-.38-.2 17.567 19.999.076.098-8.632zm19.947 4.544l.15-13.091-12.66-.145-.3 26.183 12.66.145.15-13.092zm-10.772.145c-1.888-2.683 3.626-2.265 1.291.169-.418.356-1.001.335-1.291-.17zm-33.592-23.122c1.181-.823 1.612-3.76-.513-3.001l-3.459-.04c-.554 2.283 1.83 5.035 3.972 3.041zm7.481.086c1.181-.824 1.612-3.76-.514-3.002l-3.458-.04c-.554 2.283 1.83 5.035 3.972 3.042zm7.481.085c1.18-.823 1.612-3.76-.514-3.002l-3.458-.04c-.554 2.283 1.83 5.035 3.972 3.042zm7.481.085c1.18-.823 1.612-3.76-.514-3.002l-3.458-.04c-.554 2.283 1.83 5.036 3.972 3.042zm7.48.085c1.182-.823 1.613-3.76-.513-3.002l-3.458-.039c-.554 2.282 1.83 5.035 3.972 3.041zm7.482.085c1.18-.823 1.612-3.76-.514-3.001l-3.458-.04c-.554 2.283 1.83 5.035 3.972 3.041zm7.48.086c1.181-.824 1.613-3.76-.513-3.002l-3.458-.04c-.554 2.283 1.83 5.035 3.972 3.042zm7.482.085c1.18-.823 1.612-3.76-.514-3.002l-3.458-.04c-.554 2.283 1.83 5.035 3.972 3.042zm-49.946-7.954c.5-.986 1.45-2.236-.38-1.864-2.456-.925-3.724 1.056-4.684 2.928-1.105 1.226 1.359.479 2.07.7 1.118.002 2.468.379 2.672-1.102l.322-.662zm6.943.007c.438-1.212.733-2.314-.964-1.881-.985.173-2.537-.587-2.8.772-1.055 1.573-1.777 3.584 1.049 2.949 1.012-.11 2.624.557 2.508-1.017.07-.274.138-.548.207-.823zm6.853.726c1.285-2.962-1.536-2.578-3.55-2.558-.627.55-2.28 4.072-.11 3.721 1.004-.35 3.469.745 3.65-.478l.01-.685zm7.425-.49c.127-1.242.014-2.247-1.497-1.867l-3.314-.154c.4 1.144-1.08 3.565.132 3.765l4.744.054-.065-1.799zm7.24.657c.798-2.932-2.305-2.588-4.202-2.566-1.277-.213-.42 1.757-.685 2.58-.543 1.619 1.108 1.094 2.136 1.178.834-.252 2.766.616 2.746-.506l.006-.686zm7.064.512c-.454-1.307-.15-3.61-2.156-2.974-.787.244-2.653-.616-2.579.508-.498 2.363.62 3.86 3.17 3.24.726-.166 2.266.55 1.565-.774zm6.483-.933c-.42-1.003-.66-2.267-2.047-1.878-2.797-.967-2.732 1.294-1.836 3.172.353.986 2.025.246 2.942.494 1.506.27 2.045-.098 1.087-1.457l-.146-.331zm6.938.079c-.577-.956-.96-2.234-2.33-1.876-.774.146-2.8-.542-2.724.172l1.66 3.464 4.473.05-1.079-1.81zm-1.687-7.43c-.112-.992.272-2.47-.143-3.166-2.753-.791-3.315 2.567-5.578 3.27-4.97.667-10.038.135-15.045.234-7.67-.146-15.36-.043-23.015-.556-2.493-.823-2.765-4.371-5.775-3.511-.457.621-.072 2.105-.22 3.043l-.037 3.285 49.777.567.036-3.165zm-6.629-2.12c2.376-.86 2.01-3.708.134-4.86l-36.63-.417c-2.347 1.26-2.017 5.197 1.1 4.944 9.751.56 19.535.411 29.3.522 2.03-.042 4.078.06 6.096-.19z" display="inline"/></g><text xml:space="preserve" style="line-height:77.90000439%;-inkscape-font-specification:'Walter Turncoat'" x="139.03" y="68.807" transform="scale(.91257 1.0958)" font-style="normal" font-variant="normal" font-weight="400" font-stretch="normal" font-size="2.613" font-family="Walter Turncoat" letter-spacing="0" word-spacing="0" display="inline" fill="#000" fill-opacity="1" fill-rule="evenodd" stroke="none" stroke-width=".065" stroke-linejoin="miter" stroke-opacity="1"><tspan x="139.03" y="68.807" style="line-height:77.90000439%;text-align:center" text-anchor="middle" stroke-width=".065" stroke-linecap="butt" stroke-linejoin="round">vendor 2</tspan></text><path d="M127.326 76.198c-.232 2.005-.07 2.048.053 3.616-.01.138.523-.302.518-.272-.042.237-.472 1.102-.555 1.271-.015.031-.612-.91-.732-1.08-.02-.03.477.18.477.18" display="inline" fill="none" stroke="#000" stroke-width=".261" stroke-linejoin="miter" stroke-miterlimit="4" stroke-dasharray="none" stroke-opacity="1"/><text transform="scale(.91257 1.0958)" y="84.609" x="139.326" style="line-height:77.90000439%;-inkscape-font-specification:'Walter Turncoat'" xml:space="preserve" font-style="normal" font-variant="normal" font-weight="400" font-stretch="normal" font-size="2.447" font-family="Walter Turncoat" letter-spacing="0" word-spacing="0" display="inline" fill="#000" fill-opacity="1" fill-rule="evenodd" stroke="none" stroke-width=".061" stroke-linejoin="miter" stroke-opacity="1"><tspan style="line-height:77.90000439%;text-align:center" y="84.609" x="139.326" text-anchor="middle" stroke-width=".061" stroke-linecap="butt" stroke-linejoin="round">Gibson</tspan></text><g transform="matrix(.03978 0 0 .03978 92.268 54.478)" display="inline" fill="none" fill-rule="evenodd" stroke="#000" stroke-width="1" stroke-linejoin="round"><g transform="matrix(.75 0 0 .75 603.484 -501.984)" stroke-linecap="butt" stroke-linejoin="round"><g transform="matrix(.5292 0 0 .5292 171.947 1354.914)" stroke-linecap="butt" stroke-linejoin="round" fill-rule="evenodd"><path d="M219.475 503.011s46.72-3.12 97.01 2.027c0 0 2.547 6.24-5.62 8.112l-7.653 52.117 78.623 242.165s17.64 30.529-37.239 37.152c-54.878 6.618-137.18 16.77-201.45-16.33 0 0-15.162-12.802 11.554-71.499l72.932-190.654-2.89-52.734s-11.555-7.507-5.267-10.356z" fill="#fff" stroke="#585858" stroke-width="19.757" stroke-linecap="butt" stroke-linejoin="round" stroke-opacity="1"/><ellipse cx="268.673" cy="824.231" rx="99.097" ry="16.77" color="#000" opacity=".466" fill="#d3d7cf" stroke="none"/><path d="M343.17 754.018c-75.135 26.951-131.196 19.24-167.95 5.37l-.1.29c-.061.173-.142.346-.223.519-12.97 28.514-15.405 45.252-15.031 53.989.131 3.188.586 5.004 1.01 6.252 55.324 26.297 126.072 18.036 179.677 11.567 21.015-2.533 21.298-6.154 22.622-10.714 1.314-4.566-1.081-9.602-1.081-9.602a9.034 9.034 0 0 1-.789-1.773z" fill="#585858" fill-opacity="1" stroke="#fff" stroke-width="11.403" stroke-linecap="butt" stroke-linejoin="round" stroke-miterlimit="4" stroke-dasharray="none" stroke-opacity="1"/><path d="M434.672 582.9l-2.295-43.534s.253-5.616-4.337-7.334l3.316-4.992s27.566-4.06 93.937 1.248c0 0 10.472-.47 11.746 5.616 0 0-5.873 4.06-5.358 10.924l-7.662 41.348s80.412 198.167 101.852 279.929c0 0-9.694 34.013-65.35 39.944-55.647 5.926-168.992 21.842-257.824-28.088 0 0-30.143-13.413 10.21-70.838l111.838-204.389s10.108-10.59 11.544-14.124c1.445-3.528-1.436-5.295-1.617-5.71z" fill="#fff" stroke="#585858" stroke-width="19.757" stroke-linecap="butt" stroke-linejoin="round" stroke-opacity="1"/><ellipse cx="467.403" cy="874.769" rx="134.655" ry="26.921" color="#000" opacity=".466" fill="#d3d7cf" stroke="none"/><path d="M349.903 786.165l-14.02 25.642a14.92 14.92 0 0 1-.698 1.161c-19.044 27.1-20.156 42.194-18.549 48.985.799 3.348 2.113 4.739 2.527 5.153 79.391 44.578 179.828 30.479 237.203 24.368 34.803-3.707 43.052-20.68 44.82-25.74-4.993-18.542-12.969-43.003-22.268-69.683-103.116 17.01-178.342 6.235-229.015-9.886z" fill="#585858" fill-opacity="1" stroke="#fff" stroke-width="11.403" stroke-linecap="butt" stroke-linejoin="round" stroke-miterlimit="4" stroke-dasharray="none" stroke-opacity="1"/></g></g></g></g><g steps="5--" transform="translate(0 2.646)" stroke-linecap="butt"><g transform="matrix(.11917 0 0 .11917 103.408 25.37)" display="inline" opacity="1" fill="#585858" fill-opacity="1" fill-rule="evenodd" stroke="none" stroke-width="1" stroke-linejoin="round"><path d="M305.916 395.395c-1.047-3.677 6.205-.223 4.413-4.329-.203-10.156-.51-20.315-.754-30.473-4.467-1.13-4.85-7.147-2.216-10.257 2.41-2.701 1.783-6.198 1.742-9.519-1.25-4.612 4.398-2.31 6.123-4.897 1.786-3.7 6.898-1.756 10.189-2.527 9.987-.353 19.98-.745 29.975-.507 2.669.942 3.923 4.821 7.343 3.338 2.497 2.013.75 6.085 1.42 8.916 1.18 3.45 5.164 6.466 3.712 10.528.112 2.569-4.169 2.687-3.297 5.491l.786 30.76c1.497-.456 6.731.152 3.721 1.882-3.182.607-6.476.14-9.704.504-17.794.539-35.602 1.224-53.402 1.1l-.051-.01zm36.707-17.07l-.288-14.17 16.972-.433.873 28.33c2.149.593 2.974-.642 2.52-2.571l-.771-30.161c-2.195-2.225-4.805.852-7.234.104-2.786-2.109-5.105 1.129-7.836.096-3.033-2.124-5.706 2.09-8.796-.283-2.644-.677-4.933 2.15-7.643.168-2.69-.44-5.048 2.236-7.746.09-2.44-.044-4.654 2.253-7.169.254-2.915-.964-3.856 1.96-3.253 4.244l.748 29.264 29.91-.764-.287-14.169zm-27.074 8.174c-.371-7.21-.374-14.43-.54-21.645 7.98-.18 15.958-.706 23.944-.516 1.208 3.025.55 6.391.907 9.565.116 3.995.347 8.005-.05 11.991-7.74.834-15.547.788-23.321.742l-.473-.054-.467-.083zm21.888-11.28l-.22-8.63-19.996.36.448 17.561 19.988-.662-.22-8.63zm20.102 3.804l-.334-13.089-12.657.324.669 26.176 12.656-.323-.334-13.088zm-10.76.542c-1.961-3.243 4.468-1.064.613.385l-.337-.106zM312.357 357.7c2.282-2.235-.074-3.549-2.234-2.94-2.423-.751-2.291 1.934-.758 3.133.855.81 2.23.684 2.992-.193zm7.479-.191c2.282-2.235-.074-3.549-2.234-2.94-2.423-.752-2.291 1.934-.758 3.133.855.81 2.23.684 2.992-.193zm7.479-.191c2.282-2.235-.074-3.549-2.235-2.94-2.422-.752-2.29 1.934-.757 3.133.855.81 2.23.684 2.992-.193zm7.479-.191c2.282-2.235-.074-3.549-2.235-2.94-2.422-.752-2.29 1.934-.757 3.133.855.81 2.23.684 2.992-.193zm7.479-.191c2.282-2.235-.074-3.549-2.235-2.94-2.422-.752-2.29 1.934-.757 3.133.855.81 2.23.684 2.992-.193zm7.479-.192c2.282-2.234-.074-3.548-2.235-2.94-2.422-.75-2.29 1.935-.757 3.134.855.81 2.23.684 2.992-.194zm7.479-.19c2.282-2.236-.074-3.55-2.235-2.94-2.422-.752-2.29 1.934-.757 3.133.855.81 2.23.684 2.992-.194zm7.479-.192c2.282-2.235-.074-3.548-2.235-2.94-2.422-.751-2.29 1.935-.757 3.134.855.81 2.23.684 2.992-.194zm-50.205-6.103c2.3-3.188-4.178-2.359-4.483.184-2.5 2.631 3.075 2.041 4.075.966.02-.422.261-.77.408-1.15zm6.938-.25c1.59-3.1-4.664-2.394-4.436.269-1.499 2.727 5.355 2.389 4.436-.269zm6.875.472c1.396-4.112-6.352-2.923-4.613.979 1 .188 5.033 1.247 4.613-.979zm7.402-.764c.81-2.87-4.292-1.971-4.794-1.363-.95 2.28-.036 3.878 2.329 3.225 1.535-.226 3.398.712 2.465-1.862zm7.26.39c1.287-3-6.104-3.776-4.874-.587-1.07 2.9 3.914 2.14 4.894 1.272l-.02-.685zm7.078.25c.234-3.058-2.617-3.45-4.779-2.625-1.36 3.28 3.15 4.608 4.957 3.026zm6.443-1.171c-.544-3.537-6.576-1.88-3.832 1.436.914.655 6.366 1.199 3.832-1.436zm6.937-.177c-.203-2.198-4.924-2.583-4.89-1.092.753 1.796 1.503 3.6 3.709 2.92 1.797-.158 3.212.529 1.181-1.828zm-1.96-7.362c.94-2.935-1.846-4.439-3.465-1.648-1.603 2.804-5.138 2.198-7.856 2.51-10.813.15-21.623.79-32.44.536-1.983-.559-4.643-5.707-6.094-2.3.136 1.776.1 3.558.171 5.337l49.764-1.271-.08-3.164zm-6.703-1.875c2.702-.754 1.542-5.429-1.12-4.834l-35.546.909c-3.132 1.838-.593 6.189 2.654 4.923 10.838.071 21.675-.354 32.5-.814a21.443 21.443 0 0 0 1.512-.184z" display="inline"/><path d="M304.49 394.37c-1.006-2.47 2.781-1.875 4.367-1.907.494-.59.08-2.108.237-3.043l.338-29.693c-3.584-.911-4.729-5.906-2.723-8.782.839-1.693 2.124-3.223 2.88-4.921.088-2.94-.106-5.911.398-8.817 2.24-1.1 5.497.354 6.466-2.96 2.573-1.933 6.288-.692 9.335-1.117 10.15.017 20.315-.016 30.45.601 2.73.51 2.819 4.722 6.187 3.52 3.297-.314 1.844 4.014 2.157 6.073.146 1.543-.509 3.298.595 4.586 1.537 2.763 4.004 5.715 2.685 9.047-.012 2.641-3.864 2.421-3.488 4.65l-.36 31.485c1.623.22 4.145-.634 4.858 1.287-1.786 1.857-5.72.407-8.334.887-18.418-.081-36.844-.15-55.252-.798l-.57-.05zm37.313-15.703l.236-14.17 16.976.193-.174 28.343c.768-.267 2.671.627 2.59-.508l.367-32.137c-2.034-1.87-3.712-.34-5.948.04-2.389-.013-4.158-2.295-6.297-.235-2.648 1.165-4.868-2.515-7.11-.196-2.85 1.463-5.276-2.503-7.755-.034-2.844 1.09-5.08-2.39-7.595-.07-2.663 1.307-4.779-2.445-7.074-.206-2.646 1.69-4.945-2.234-7.203-.198-1.39.194-.599 1.86-.824 2.84l-.343 30.166 29.918.341.236-14.17zm-27.357 7.168c-.105-7.216.159-14.433.259-21.65 7.982.115 15.98-.116 23.948.369 1.016 2.196.332 5.336.575 7.88-.09 4.561.105 9.173-.515 13.694-6.794.543-13.653.183-20.468.04-1.26-.094-2.572-.018-3.8-.333zm22.29-10.464l.098-8.631-19.996-.38-.2 17.567 19.999.076.098-8.632zm19.947 4.544l.15-13.091-12.66-.145-.3 26.183 12.66.145.15-13.092zm-10.772.145c-1.888-2.683 3.626-2.265 1.291.169-.418.356-1.001.335-1.291-.17zm-33.592-23.122c1.181-.823 1.612-3.76-.513-3.001l-3.459-.04c-.554 2.283 1.83 5.035 3.972 3.041zm7.481.086c1.181-.824 1.612-3.76-.514-3.002l-3.458-.04c-.554 2.283 1.83 5.035 3.972 3.042zm7.481.085c1.18-.823 1.612-3.76-.514-3.002l-3.458-.04c-.554 2.283 1.83 5.035 3.972 3.042zm7.481.085c1.18-.823 1.612-3.76-.514-3.002l-3.458-.04c-.554 2.283 1.83 5.036 3.972 3.042zm7.48.085c1.182-.823 1.613-3.76-.513-3.002l-3.458-.039c-.554 2.282 1.83 5.035 3.972 3.041zm7.482.085c1.18-.823 1.612-3.76-.514-3.001l-3.458-.04c-.554 2.283 1.83 5.035 3.972 3.041zm7.48.086c1.181-.824 1.613-3.76-.513-3.002l-3.458-.04c-.554 2.283 1.83 5.035 3.972 3.042zm7.482.085c1.18-.823 1.612-3.76-.514-3.002l-3.458-.04c-.554 2.283 1.83 5.035 3.972 3.042zm-49.946-7.954c.5-.986 1.45-2.236-.38-1.864-2.456-.925-3.724 1.056-4.684 2.928-1.105 1.226 1.359.479 2.07.7 1.118.002 2.468.379 2.672-1.102l.322-.662zm6.943.007c.438-1.212.733-2.314-.964-1.881-.985.173-2.537-.587-2.8.772-1.055 1.573-1.777 3.584 1.049 2.949 1.012-.11 2.624.557 2.508-1.017.07-.274.138-.548.207-.823zm6.853.726c1.285-2.962-1.536-2.578-3.55-2.558-.627.55-2.28 4.072-.11 3.721 1.004-.35 3.469.745 3.65-.478l.01-.685zm7.425-.49c.127-1.242.014-2.247-1.497-1.867l-3.314-.154c.4 1.144-1.08 3.565.132 3.765l4.744.054-.065-1.799zm7.24.657c.798-2.932-2.305-2.588-4.202-2.566-1.277-.213-.42 1.757-.685 2.58-.543 1.619 1.108 1.094 2.136 1.178.834-.252 2.766.616 2.746-.506l.006-.686zm7.064.512c-.454-1.307-.15-3.61-2.156-2.974-.787.244-2.653-.616-2.579.508-.498 2.363.62 3.86 3.17 3.24.726-.166 2.266.55 1.565-.774zm6.483-.933c-.42-1.003-.66-2.267-2.047-1.878-2.797-.967-2.732 1.294-1.836 3.172.353.986 2.025.246 2.942.494 1.506.27 2.045-.098 1.087-1.457l-.146-.331zm6.938.079c-.577-.956-.96-2.234-2.33-1.876-.774.146-2.8-.542-2.724.172l1.66 3.464 4.473.05-1.079-1.81zm-1.687-7.43c-.112-.992.272-2.47-.143-3.166-2.753-.791-3.315 2.567-5.578 3.27-4.97.667-10.038.135-15.045.234-7.67-.146-15.36-.043-23.015-.556-2.493-.823-2.765-4.371-5.775-3.511-.457.621-.072 2.105-.22 3.043l-.037 3.285 49.777.567.036-3.165zm-6.629-2.12c2.376-.86 2.01-3.708.134-4.86l-36.63-.417c-2.347 1.26-2.017 5.197 1.1 4.944 9.751.56 19.535.411 29.3.522 2.03-.042 4.078.06 6.096-.19z" display="inline"/></g><text xml:space="preserve" style="line-height:77.90000439%;-inkscape-font-specification:'Walter Turncoat'" x="157.356" y="68.91" transform="scale(.91257 1.0958)" font-style="normal" font-variant="normal" font-weight="400" font-stretch="normal" font-size="2.613" font-family="Walter Turncoat" letter-spacing="0" word-spacing="0" display="inline" fill="#000" fill-opacity="1" fill-rule="evenodd" stroke="none" stroke-width=".065" stroke-linejoin="miter" stroke-opacity="1"><tspan x="157.356" y="68.91" style="line-height:77.90000439%;text-align:center" text-anchor="middle" stroke-width=".065" stroke-linecap="butt" stroke-linejoin="round">vendor 3</tspan></text><path d="M143.914 76.055c-.232 2.005-.07 2.049.053 3.617-.009.138.524-.302.518-.272-.041.236-.472 1.101-.555 1.27-.015.032-.612-.91-.732-1.08-.02-.029.477.18.477.18" display="inline" fill="none" stroke="#000" stroke-width=".261" stroke-linejoin="miter" stroke-miterlimit="4" stroke-dasharray="none" stroke-opacity="1"/><text transform="scale(.91257 1.0958)" y="84.349" x="157.45" style="line-height:77.90000439%;-inkscape-font-specification:'Walter Turncoat'" xml:space="preserve" font-style="normal" font-variant="normal" font-weight="400" font-stretch="normal" font-size="2.447" font-family="Walter Turncoat" letter-spacing="0" word-spacing="0" display="inline" fill="#000" fill-opacity="1" fill-rule="evenodd" stroke="none" stroke-width=".061" stroke-linejoin="miter" stroke-opacity="1"><tspan style="line-height:77.90000439%;text-align:center" y="84.349" x="157.45" text-anchor="middle" stroke-width=".061" stroke-linecap="butt" stroke-linejoin="round">Gibson</tspan></text><g transform="matrix(.03978 0 0 .03978 108.808 54.193)" display="inline" fill="none" fill-rule="evenodd" stroke="#000" stroke-width="1" stroke-linejoin="round"><g transform="matrix(.75 0 0 .75 603.484 -501.984)" stroke-linecap="butt" stroke-linejoin="round"><g transform="matrix(.5292 0 0 .5292 171.947 1354.914)" stroke-linecap="butt" stroke-linejoin="round" fill-rule="evenodd"><path d="M219.475 503.011s46.72-3.12 97.01 2.027c0 0 2.547 6.24-5.62 8.112l-7.653 52.117 78.623 242.165s17.64 30.529-37.239 37.152c-54.878 6.618-137.18 16.77-201.45-16.33 0 0-15.162-12.802 11.554-71.499l72.932-190.654-2.89-52.734s-11.555-7.507-5.267-10.356z" fill="#fff" stroke="#585858" stroke-width="19.757" stroke-linecap="butt" stroke-linejoin="round" stroke-opacity="1"/><ellipse cx="268.673" cy="824.231" rx="99.097" ry="16.77" color="#000" opacity=".466" fill="#d3d7cf" stroke="none"/><path d="M343.17 754.018c-75.135 26.951-131.196 19.24-167.95 5.37l-.1.29c-.061.173-.142.346-.223.519-12.97 28.514-15.405 45.252-15.031 53.989.131 3.188.586 5.004 1.01 6.252 55.324 26.297 126.072 18.036 179.677 11.567 21.015-2.533 21.298-6.154 22.622-10.714 1.314-4.566-1.081-9.602-1.081-9.602a9.034 9.034 0 0 1-.789-1.773z" fill="#585858" fill-opacity="1" stroke="#fff" stroke-width="11.403" stroke-linecap="butt" stroke-linejoin="round" stroke-miterlimit="4" stroke-dasharray="none" stroke-opacity="1"/><path d="M434.672 582.9l-2.295-43.534s.253-5.616-4.337-7.334l3.316-4.992s27.566-4.06 93.937 1.248c0 0 10.472-.47 11.746 5.616 0 0-5.873 4.06-5.358 10.924l-7.662 41.348s80.412 198.167 101.852 279.929c0 0-9.694 34.013-65.35 39.944-55.647 5.926-168.992 21.842-257.824-28.088 0 0-30.143-13.413 10.21-70.838l111.838-204.389s10.108-10.59 11.544-14.124c1.445-3.528-1.436-5.295-1.617-5.71z" fill="#fff" stroke="#585858" stroke-width="19.757" stroke-linecap="butt" stroke-linejoin="round" stroke-opacity="1"/><ellipse cx="467.403" cy="874.769" rx="134.655" ry="26.921" color="#000" opacity=".466" fill="#d3d7cf" stroke="none"/><path d="M349.903 786.165l-14.02 25.642a14.92 14.92 0 0 1-.698 1.161c-19.044 27.1-20.156 42.194-18.549 48.985.799 3.348 2.113 4.739 2.527 5.153 79.391 44.578 179.828 30.479 237.203 24.368 34.803-3.707 43.052-20.68 44.82-25.74-4.993-18.542-12.969-43.003-22.268-69.683-103.116 17.01-178.342 6.235-229.015-9.886z" fill="#585858" fill-opacity="1" stroke="#fff" stroke-width="11.403" stroke-linecap="butt" stroke-linejoin="round" stroke-miterlimit="4" stroke-dasharray="none" stroke-opacity="1"/></g></g></g></g><g steps="6--" transform="translate(0 2.646)"><path d="M118.166 93.82c1.203 1.622 2.52 2.788 3.683 3.848.088.106.175-.58.191-.553.132.2.41 1.126.465 1.306.01.034-1.069-.245-1.273-.287-.035-.006.471-.195.471-.195" display="inline" fill="none" stroke="#000" stroke-width=".261" stroke-linecap="butt" stroke-linejoin="miter" stroke-miterlimit="4" stroke-dasharray="none" stroke-opacity="1"/><path d="M126.322 109.239a.838.838 0 0 1-.421-.253.94.94 0 0 1-.179-1.1.988.988 0 0 1 .31-.362l.072-.044v-4.073l-.116-.09a.963.963 0 0 1-.343-.97.95.95 0 0 1 1.078-.723.95.95 0 0 1 .743 1.268c-.06.158-.207.356-.328.44l-.097.067v1.233c0 .691.008 1.234.018 1.234.01 0 .075-.025.144-.056.069-.03.35-.13.625-.22.603-.2.87-.323 1.05-.489.248-.23.363-.476.397-.853.018-.194.017-.204-.028-.234a1 1 0 0 1-.425-.955.864.864 0 0 1 .267-.522.925.925 0 0 1 .827-.274.9.9 0 0 1 .526.274c.292.29.359.696.178 1.082a.964.964 0 0 1-.315.375c-.07.043-.071.048-.071.189 0 .08-.015.23-.033.333-.122.7-.45 1.197-1.021 1.54-.24.144-.443.229-1.058.439-.92.315-1.032.4-1.07.82l-.016.162.074.046c.192.118.36.385.403.64a.989.989 0 0 1-.083.573c-.066.14-.274.36-.405.426a1.036 1.036 0 0 1-.703.077zm.458-.494c.184-.085.297-.318.258-.531-.02-.101-.032-.124-.124-.227-.164-.182-.462-.196-.662-.03a.49.49 0 0 0-.146.463.508.508 0 0 0 .328.351c.118.032.24.022.346-.026zm3.116-5.081c.095-.016.254-.15.305-.259a.634.634 0 0 0 .014-.373.604.604 0 0 0-.244-.256.512.512 0 0 0-.41-.002.656.656 0 0 0-.217.198c-.045.06-.067.234-.044.343.044.207.3.4.486.366l.11-.018zm-3.116-.667a.52.52 0 0 0 .255-.325c.023-.115.003-.279-.041-.337-.13-.173-.249-.241-.422-.241a.464.464 0 0 0-.467.38c-.03.16.006.285.118.41a.46.46 0 0 0 .557.113z" display="inline" opacity="1" fill="#585858" fill-opacity="1"/><path d="M127.687 93.423c-.232 2.005-.07 2.048.053 3.616-.009.138.524-.302.518-.272-.041.237-.472 1.102-.555 1.271-.015.031-.612-.91-.732-1.08-.02-.03.477.18.477.18M137.399 93.863c-1.203 1.62-2.52 2.788-3.683 3.847-.088.106-.175-.579-.191-.553-.132.201-.41 1.126-.465 1.307-.01.033 1.069-.245 1.273-.287.035-.007-.471-.195-.471-.195" display="inline" fill="none" stroke="#000" stroke-width=".261" stroke-linecap="butt" stroke-linejoin="miter" stroke-miterlimit="4" stroke-dasharray="none" stroke-opacity="1"/><text transform="scale(.91257 1.0958)" y="98.999" x="148.839" style="line-height:77.90000439%;-inkscape-font-specification:'Walter Turncoat'" xml:space="preserve" font-style="normal" font-variant="normal" font-weight="400" font-stretch="normal" font-size="2.447" font-family="Walter Turncoat" letter-spacing="0" word-spacing="0" display="inline" fill="#000" fill-opacity="1" fill-rule="evenodd" stroke="none" stroke-width=".061" stroke-linecap="butt" stroke-linejoin="miter" stroke-opacity="1"><tspan style="line-height:77.90000439%;text-align:center" y="98.999" x="148.839" text-anchor="middle" stroke-width=".061" stroke-linecap="butt" stroke-linejoin="round">comparator</tspan></text></g><g steps="2--" transform="translate(0 2.646)"><g steps="2--" stroke-linecap="butt" stroke-linejoin="miter" stroke-opacity="1"><text xml:space="preserve" style="line-height:77.90000439%;-inkscape-font-specification:'Walter Turncoat'" x="139.306" y="49.71" transform="scale(.91257 1.0958)" font-style="normal" font-variant="normal" font-weight="400" font-stretch="normal" font-size="4.031" font-family="Walter Turncoat" letter-spacing="0" word-spacing="0" display="inline" fill="#000" fill-opacity="1" fill-rule="evenodd" stroke="none" stroke-width=".101"><tspan x="139.306" y="49.71" style="line-height:77.90000439%;text-align:center" text-anchor="middle" stroke-width=".101" stroke-linecap="butt" stroke-linejoin="round">&quot;choose one company and</tspan><tspan x="139.306" y="52.851" style="line-height:77.90000439%;text-align:center" text-anchor="middle" stroke-width=".101" stroke-linecap="butt" stroke-linejoin="round">order all fragments there&quot;</tspan></text><path d="M79.777 54.972c3.918.454 14.827.137 17.892-.103.27.017-.591-1.023-.532-1.013.462.081 2.153.923 2.484 1.085.06.03-1.78 1.196-2.112 1.43-.057.041.352-.932.352-.932" display="inline" fill="none" stroke="#000" stroke-width=".51" stroke-miterlimit="4" stroke-dasharray="none"/></g></g></g></svg>