<svg xmlns="http://www.w3.org/2000/svg" width="789.034" height="799.34" viewBox="0 0 591.775 599.504" version="1.2"><g transform="translate(-10 -109.496)" fill="none" fill-rule="evenodd" stroke="#000" stroke-width="1" stroke-linecap="square" stroke-linejoin="bevel" font-style="normal"><g transform="translate(280 439)" font-size="9" font-weight="400" font-family="Sans Serif" fill="#252525" fill-opacity="1" stroke="none"><path d="M-1-263v13h3v-13h-3" vector-effect="none" fill-rule="evenodd"/></g><g transform="translate(280 439)" font-size="9" font-weight="400" font-family="Sans Serif" fill="none" stroke="#252525" stroke-width="2" stroke-linecap="square" stroke-linejoin="bevel" stroke-opacity="1"><path d="M-128.725-229.335l3.426 6.104" vector-effect="none"/></g><g transform="translate(280 439)" font-size="9" font-weight="400" font-family="Sans Serif" fill="none" stroke="#252525" stroke-width="2" stroke-linecap="square" stroke-linejoin="bevel" stroke-opacity="1"><path d="M-261.798 25.012l6.968-.665" vector-effect="none"/></g><g transform="translate(280 439)" font-size="9" font-weight="400" font-family="Sans Serif" fill="none" stroke="#252525" stroke-width="2" stroke-linecap="square" stroke-linejoin="bevel" stroke-opacity="1"><path d="M-82.97 249.559l2.208-6.642" vector-effect="none"/></g><g transform="translate(280 439)" font-size="9" font-weight="400" font-family="Sans Serif" fill="none" stroke="#252525" stroke-width="2" stroke-linecap="square" stroke-linejoin="bevel" stroke-opacity="1"><path d="M194.709 176.787l-5.183-4.705" vector-effect="none"/></g><g transform="translate(280 439)" font-size="9" font-weight="400" font-family="Sans Serif" fill="none" stroke="#252525" stroke-width="2" stroke-linecap="square" stroke-linejoin="bevel" stroke-opacity="1"><path d="M240.42-106.61l-6.399 2.838" vector-effect="none"/></g><g transform="translate(280 439)" font-size="11" font-weight="400" font-family="Verdana" fill="#000" fill-opacity="1" stroke="none"><path d="M-143.985-206.808l-4.565 3.253-.663-.908c.124-.493.252-.984.385-1.474.133-.491.245-.964.337-1.419.201-.961.297-1.68.288-2.156a2.211 2.211 0 0 0-.404-1.271c-.239-.34-.545-.521-.917-.545-.373-.023-.772.118-1.199.422a4.143 4.143 0 0 0-.815.793c-.262.328-.48.699-.653 1.118l-.045.034-.665-.912c.146-.262.374-.566.682-.913a5.83 5.83 0 0 1 .982-.892c.712-.508 1.385-.745 2.017-.711.632.037 1.143.336 1.531.892.174.249.303.504.387.766.085.262.13.534.136.82.007.268-.008.547-.045.837-.036.29-.094.623-.174.999-.108.54-.232 1.077-.375 1.611-.141.533-.274 1.029-.399 1.488l3.648-2.588.526.756m4.553-6.141c.204.312.34.649.408 1.012.069.362.065.709-.011 1.04a2.765 2.765 0 0 1-.478 1.009 3.688 3.688 0 0 1-.955.875c-.377.25-.761.459-1.158.62a5.533 5.533 0 0 1-1.063.328l-.642-.936.065-.044a4.96 4.96 0 0 0 1.152-.214 4.141 4.141 0 0 0 1.108-.514c.219-.145.412-.316.579-.512.167-.197.282-.423.344-.679.051-.22.052-.442.003-.667a2.049 2.049 0 0 0-.306-.69 1.511 1.511 0 0 0-.51-.503 1.189 1.189 0 0 0-.599-.151 1.87 1.87 0 0 0-.753.156 4.938 4.938 0 0 0-.83.45 6.62 6.62 0 0 0-.755.594c-.23.21-.423.395-.581.556l-2.326-3.402 4.271-2.862.516.788-3.348 2.227 1.193 1.761a9.278 9.278 0 0 1 .756-.563 5.887 5.887 0 0 1 1.065-.573c.327-.13.661-.196 1.003-.199.361-.001.696.083 1.005.252.309.169.591.45.847.841m5.461-5.19c.752 1.225 1.104 2.246 1.057 3.062-.044.816-.482 1.478-1.308 2.003-.837.533-1.632.636-2.386.308-.757-.326-1.518-1.081-2.284-2.266-.77-1.193-1.139-2.203-1.105-3.03.036-.828.482-1.515 1.336-2.059.866-.55 1.687-.649 2.453-.309.763.342 1.508 1.106 2.237 2.291m.019 2.848a3.432 3.432 0 0 0-.311-1.008 12.294 12.294 0 0 0-.688-1.239 12.556 12.556 0 0 0-.807-1.169 3.162 3.162 0 0 0-.773-.723 1.467 1.467 0 0 0-.794-.241c-.268.006-.556.106-.862.301-.303.193-.515.411-.638.655-.122.243-.165.52-.129.832.033.292.144.631.333 1.016.19.385.421.791.695 1.22.301.47.57.853.807 1.147.238.295.493.532.767.711.255.169.517.255.785.258.268.004.558-.095.872-.294.295-.188.502-.403.623-.646a1.36 1.36 0 0 0 .12-.82m6.3-6.612c.717 1.246 1.038 2.275.97 3.092-.065.818-.518 1.475-1.361 1.971-.856.504-1.656.58-2.399.232-.744-.343-1.482-1.118-2.213-2.324-.736-1.215-1.078-2.237-1.023-3.067.059-.828.527-1.498 1.4-2.012.884-.521 1.703-.603 2.456-.246.752.361 1.476 1.148 2.17 2.354m-.057 2.855a3.47 3.47 0 0 0-.284-1.019 12.509 12.509 0 0 0-.652-1.259 12.42 12.42 0 0 0-.773-1.19 3.127 3.127 0 0 0-.751-.743 1.437 1.437 0 0 0-.784-.259c-.269-.003-.56.087-.873.272-.309.182-.529.392-.659.631-.13.238-.182.513-.155.825.024.292.126.634.303 1.024.178.39.398.802.66 1.238.287.479.545.87.774 1.171.229.302.478.546.747.734.25.177.51.271.778.283.269.013.563-.075.883-.264.301-.178.516-.385.644-.623.128-.237.176-.511.142-.821" vector-effect="none" fill-rule="evenodd"/></g><g transform="translate(280 439)" font-size="11" font-weight="400" font-family="Verdana" fill="#000" fill-opacity="1" stroke="none"><path d="M-256.598 34.19l-.698-5.716 1.118-.123 1.096 1.078c.365.359.724.69 1.078.991.743.637 1.332 1.061 1.757 1.276.424.214.861.292 1.311.234.412-.052.716-.233.912-.544.197-.31.262-.716.204-1.22a3.919 3.919 0 0 0-.294-1.066 4.586 4.586 0 0 0-.654-1.087l-.006-.055 1.121-.125c.153.248.306.583.459 1.005.152.422.252.837.298 1.245.102.837-.008 1.518-.337 2.044-.329.528-.829.837-1.501.926a2.93 2.93 0 0 1-.859-.008 2.816 2.816 0 0 1-.79-.255 5.308 5.308 0 0 1-.717-.427 11.65 11.65 0 0 1-.801-.624c-.427-.352-.839-.721-1.237-1.107-.399-.387-.768-.75-1.11-1.09l.563 4.527-.913.121m5.036 6.705c-1.419.23-2.499.165-3.241-.198-.74-.366-1.182-1.048-1.33-2.043-.151-1.01.076-1.797.681-2.357.607-.558 1.613-.933 3.01-1.128 1.407-.196 2.477-.11 3.217.253.74.361 1.182 1.023 1.327 1.989.146.978-.088 1.746-.696 2.306-.605.561-1.595.955-2.968 1.178m-2.646-1.085c.305.088.655.124 1.049.109.395-.015.865-.066 1.41-.152a12.67 12.67 0 0 0 1.39-.29c.389-.107.712-.25.968-.425.252-.172.431-.38.535-.622.105-.242.132-.538.08-.887-.052-.344-.163-.618-.335-.822a1.45 1.45 0 0 0-.705-.444c-.281-.087-.636-.124-1.065-.11-.428.015-.895.058-1.398.13a13.09 13.09 0 0 0-1.378.261c-.366.095-.687.231-.962.409a1.433 1.433 0 0 0-.554.619c-.111.248-.139.56-.082.935.052.353.165.636.338.847.173.212.409.359.709.442m3.922 8.296c-1.412.272-2.491.237-3.238-.106-.747-.345-1.212-1.014-1.396-2.003-.186-1.004.027-1.798.621-2.376.594-.576 1.587-.98 2.979-1.215 1.4-.236 2.473-.182 3.219.161.746.34 1.199.991 1.377 1.951.181.972-.027 1.746-.621 2.323-.595.58-1.575 1.003-2.941 1.265m-2.668-1.01c.309.079.66.105 1.055.078.394-.026.862-.09 1.404-.192.535-.1.995-.21 1.381-.33.386-.118.704-.27.954-.452.246-.18.417-.391.514-.636.097-.245.113-.541.049-.888-.064-.342-.185-.613-.364-.812a1.445 1.445 0 0 0-.714-.424c-.282-.08-.637-.106-1.064-.08-.428.027-.892.084-1.393.17-.551.096-1.008.196-1.371.301-.364.105-.681.25-.953.436a1.441 1.441 0 0 0-.54.636c-.102.25-.119.563-.05.936.065.351.188.63.368.836.18.206.422.347.724.421m4.158 8.18c-1.402.312-2.483.308-3.243-.012-.76-.324-1.249-.977-1.457-1.962-.203-1-.018-1.8.557-2.394.575-.592 1.554-1.024 2.938-1.299 1.393-.276 2.469-.253 3.227.068.758.318 1.234.955 1.429 1.912.204.967.024 1.745-.551 2.339-.575.596-1.541 1.046-2.9 1.348m-2.704-.931c.312.07.664.085 1.058.047.394-.038.86-.115 1.399-.233a12.54 12.54 0 0 0 1.37-.368c.382-.13.695-.29.939-.48.24-.186.404-.402.493-.65.088-.247.097-.544.027-.89-.07-.34-.195-.608-.377-.802a1.44 1.44 0 0 0-.727-.404c-.285-.07-.641-.087-1.068-.048-.427.039-.89.108-1.388.21-.547.11-1.001.224-1.361.34-.36.115-.673.27-.938.463-.249.18-.422.396-.52.65-.098.254-.109.568-.034.94.072.35.2.625.388.826.187.2.434.333.739.399" vector-effect="none" fill-rule="evenodd"/></g><g transform="translate(280 439)" font-size="11" font-weight="400" font-family="Verdana" fill="#000" fill-opacity="1" stroke="none"><path d="M-73.004 248.358l-4.36-1.323.244-.779 1.666.525 1.568-5.126-1.632-.514.219-.697c.221.07.464.126.727.169.263.043.469.05.618.022.187-.034.347-.102.48-.206.135-.104.242-.265.324-.483l.812.241-2.078 6.902 1.642.486-.23.783m8.134-.379a2.738 2.738 0 0 1-.478.981 2.499 2.499 0 0 1-.786.686c-.327.174-.69.28-1.086.312a3.824 3.824 0 0 1-1.308-.153 6.25 6.25 0 0 1-1.244-.488 5.63 5.63 0 0 1-.95-.607l.31-1.092.076.021c.246.262.55.511.912.748.363.236.736.408 1.12.514a2.8 2.8 0 0 0 .774.104c.26-.003.507-.064.742-.185.2-.106.367-.254.504-.441.136-.186.24-.416.313-.688.071-.268.084-.505.038-.713a1.202 1.202 0 0 0-.28-.547 1.844 1.844 0 0 0-.602-.465 4.801 4.801 0 0 0-.87-.326 6.673 6.673 0 0 0-.928-.191 15.772 15.772 0 0 0-.787-.084l1.121-3.966 4.737 1.288-.239.911-3.733-1.01-.57 2.049a11.447 11.447 0 0 1 .898.205c.432.12.8.26 1.106.42.305.16.571.363.795.613.237.266.394.57.473.912.08.342.06.74-.058 1.192m7.457.341c-.324 1.4-.79 2.373-1.401 2.917-.614.544-1.405.7-2.373.467-.983-.236-1.617-.742-1.9-1.519-.28-.777-.245-1.849.103-3.216.351-1.376.833-2.335 1.444-2.879.608-.544 1.38-.704 2.32-.479.951.229 1.567.731 1.85 1.509.284.777.27 1.844-.043 3.2m-1.988 2.031c.195-.25.36-.561.495-.933.135-.371.266-.825.393-1.362.125-.53.211-.995.259-1.396.048-.401.04-.752-.025-1.055a1.436 1.436 0 0 0-.368-.727c-.182-.188-.443-.322-.783-.404-.334-.08-.628-.079-.88.004a1.45 1.45 0 0 0-.673.489c-.185.227-.352.541-.5.943-.15.401-.285.849-.409 1.342-.135.542-.229 1-.28 1.375-.052.375-.049.724.01 1.046.054.3.174.548.359.744.185.195.46.337.826.424.343.083.644.083.903.002.26-.082.483-.246.673-.492m9.072-.507c-.284 1.408-.723 2.395-1.319 2.96-.598.564-1.386.746-2.36.545-.987-.219-1.635-.711-1.94-1.477-.304-.765-.3-1.836.01-3.212.312-1.386.767-2.36 1.362-2.924.593-.564 1.36-.742 2.304-.533.958.198 1.588.678 1.893 1.444.308.767.325 1.832.05 3.197m-1.932 2.095a3.39 3.39 0 0 0 .47-.948c.124-.375.242-.833.353-1.373.11-.533.183-1 .22-1.402a3.236 3.236 0 0 0-.056-1.053 1.43 1.43 0 0 0-.389-.713c-.188-.181-.453-.306-.794-.378-.337-.075-.629-.068-.878.02-.25.088-.468.255-.658.501-.178.232-.336.551-.474.957-.137.406-.26.857-.37 1.354-.12.545-.2 1.006-.241 1.382-.04.376-.027.725.04 1.045.063.3.189.546.379.739.19.192.468.329.835.411.346.073.648.063.904-.027.257-.091.477-.262.66-.515" vector-effect="none" fill-rule="evenodd"/></g><g transform="translate(280 439)" font-size="11" font-weight="400" font-family="Verdana" fill="#000" fill-opacity="1" stroke="none"><path d="M197.64 167.186l-2.973 3.453-.614-.539 1.148-1.316-4.055-3.506-1.124 1.289-.549-.481c.153-.174.304-.373.45-.596.146-.223.234-.41.267-.559.043-.186.044-.361.002-.526-.041-.165-.145-.328-.31-.491l.55-.644 5.472 4.692 1.112-1.303.624.527m1.831-8.547c1.124.894 1.803 1.735 2.035 2.523.23.79.034 1.575-.594 2.347-.643.78-1.375 1.133-2.195 1.056-.819-.078-1.77-.569-2.854-1.472-1.091-.909-1.752-1.758-1.983-2.545-.232-.786-.042-1.551.572-2.296.618-.759 1.332-1.102 2.152-1.025.821.075 1.777.545 2.867 1.412m.987 2.675a3.416 3.416 0 0 0-.63-.849 12.434 12.434 0 0 0-1.062-.941 12.566 12.566 0 0 0-1.148-.834 3.207 3.207 0 0 0-.962-.43 1.414 1.414 0 0 0-.811.022c-.246.085-.482.261-.704.531-.219.265-.346.529-.381.791-.035.262.014.534.148.815.125.264.337.55.636.858.299.307.644.622 1.036.946.431.355.805.637 1.121.845.316.207.632.354.948.439.295.082.572.081.829 0 .258-.082.506-.268.745-.558.225-.273.357-.543.393-.813a1.371 1.371 0 0 0-.158-.822m3.446-8.407c1.149.862 1.853 1.684 2.108 2.466.248.78.069 1.566-.537 2.356-.615.802-1.333 1.178-2.153 1.127-.825-.058-1.791-.524-2.901-1.396-1.117-.877-1.799-1.705-2.048-2.483-.257-.78-.093-1.553.495-2.319.596-.776 1.306-1.135 2.132-1.079.822.052 1.79.493 2.904 1.328m1.058 2.643a3.362 3.362 0 0 0-.652-.829 12.272 12.272 0 0 0-1.087-.91 12.948 12.948 0 0 0-1.172-.801 3.263 3.263 0 0 0-.976-.405 1.446 1.446 0 0 0-.815.042c-.246.09-.475.274-.687.551-.21.273-.328.542-.354.805-.026.264.031.535.173.813.134.261.354.542.662.84.308.299.662.605 1.063.917.441.343.822.614 1.144.812.322.199.641.336.959.412.297.072.572.063.826-.027s.496-.284.725-.582c.215-.28.338-.555.368-.825a1.35 1.35 0 0 0-.177-.813m3.204-8.502c1.174.829 1.898 1.629 2.173 2.401.272.775.119 1.568-.459 2.378-.593.818-1.307 1.21-2.132 1.179-.824-.033-1.802-.47-2.935-1.309-1.142-.846-1.849-1.655-2.122-2.427-.275-.77-.126-1.542.441-2.324.568-.796 1.264-1.178 2.089-1.146.826.029 1.808.445 2.945 1.248m1.132 2.611a3.388 3.388 0 0 0-.676-.812 12.46 12.46 0 0 0-1.113-.878 12.8 12.8 0 0 0-1.194-.768 3.254 3.254 0 0 0-.986-.376 1.441 1.441 0 0 0-.811.067c-.241.099-.464.29-.666.574-.2.281-.311.552-.331.815-.021.263.043.531.191.803.14.258.367.531.683.82.316.29.679.585 1.089.886.45.33.839.59 1.166.78.328.189.652.318.973.386.3.064.576.049.83-.047.253-.095.49-.296.708-.602.205-.288.318-.567.34-.838a1.366 1.366 0 0 0-.203-.81" vector-effect="none" fill-rule="evenodd"/></g><g transform="translate(280 439)" font-size="11" font-weight="400" font-family="Verdana" fill="#000" fill-opacity="1" stroke="none"><path d="M225.403-118.242c-.33.173-.678.277-1.043.312a2.5 2.5 0 0 1-1.025-.103 2.78 2.78 0 0 1-.948-.558 3.607 3.607 0 0 1-.777-1.007 5.902 5.902 0 0 1-.49-1.191 5.393 5.393 0 0 1-.206-1.075l.994-.548.036.067c-.02.353.008.738.084 1.153.077.416.207.793.391 1.133.123.226.274.429.453.609.179.179.393.311.641.393.214.069.434.089.661.061.228-.028.466-.108.715-.24.245-.13.428-.282.551-.457.123-.175.194-.366.212-.574a1.808 1.808 0 0 0-.081-.749 4.767 4.767 0 0 0-.367-.849 6.82 6.82 0 0 0-.505-.795 14.814 14.814 0 0 0-.484-.62l3.611-1.986 2.383 4.439-.834.438-1.859-3.475-1.868 1.017a11.856 11.856 0 0 1 .478.791c.215.395.37.758.467 1.088.097.331.126.665.092 1.001a2.068 2.068 0 0 1-.359.966c-.201.289-.509.542-.923.759m4.582 5.799c-1.291.631-2.341.889-3.148.774-.807-.112-1.424-.596-1.852-1.454-.434-.871-.453-1.659-.054-2.368.398-.711 1.224-1.392 2.477-2.039 1.262-.653 2.302-.928 3.121-.825.82.105 1.454.602 1.897 1.491.449.9.467 1.71.055 2.429-.413.717-1.246 1.381-2.496 1.992m-2.835-.221a3.488 3.488 0 0 0 1.033-.22c.372-.133.806-.322 1.3-.567.488-.241.901-.471 1.24-.69a3.16 3.16 0 0 0 .794-.694c.188-.24.293-.492.318-.756.024-.264-.043-.555-.202-.874-.157-.315-.349-.543-.576-.685a1.417 1.417 0 0 0-.807-.201c-.294.008-.642.088-1.043.24a12.95 12.95 0 0 0-1.281.576c-.497.254-.904.485-1.22.692a3.371 3.371 0 0 0-.782.689 1.45 1.45 0 0 0-.34.748c-.033.264.032.558.194.884.153.307.343.53.568.67.226.14.494.203.804.188m5.903 6.744c-1.308.595-2.363.822-3.165.684-.8-.136-1.399-.639-1.802-1.509-.419-.879-.417-1.666.005-2.365.42-.701 1.266-1.359 2.537-1.971 1.279-.616 2.325-.861 3.139-.734.814.13 1.435.643 1.863 1.539.422.913.413 1.725-.022 2.434-.436.706-1.288 1.347-2.555 1.922m-2.819-.305a3.467 3.467 0 0 0 1.038-.189c.375-.123.813-.3 1.314-.53.495-.227.915-.446 1.26-.655.345-.209.617-.433.815-.672.195-.235.309-.485.342-.748.033-.264-.024-.558-.178-.88-.151-.317-.339-.55-.564-.697a1.442 1.442 0 0 0-.806-.221c-.294-.001-.643.069-1.048.21s-.837.32-1.296.539c-.504.24-.918.459-1.24.657a3.396 3.396 0 0 0-.802.668c-.2.229-.319.475-.357.736-.038.262.021.557.178.885.148.31.329.539.55.686.22.147.485.217.794.211" vector-effect="none" fill-rule="evenodd"/></g><g transform="translate(280 439)" font-size="9" font-weight="400" font-family="Sans Serif" fill="none" stroke="#fff" stroke-width="4" stroke-linecap="butt" stroke-linejoin="bevel" stroke-opacity="1"><path vector-effect="none" fill="none" d="M41-267l2-12"/></g><g transform="translate(280 439)" font-size="9" font-weight="400" font-family="Sans Serif" fill="none" stroke="#fff" stroke-width="4" stroke-linecap="butt" stroke-linejoin="bevel" stroke-opacity="1"><path vector-effect="none" fill="none" d="M218 127l26 15"/></g><g transform="translate(280 439)" font-size="9" font-weight="400" font-family="Sans Serif" fill="none" stroke="#fff" stroke-width="4" stroke-linecap="butt" stroke-linejoin="bevel" stroke-opacity="1"><path vector-effect="none" fill="none" d="M210 140l25 17"/></g><g transform="translate(280 439)" font-size="9" font-weight="400" font-family="Sans Serif" fill="none" stroke="#fff" stroke-width="4" stroke-linecap="butt" stroke-linejoin="bevel" stroke-opacity="1"><path vector-effect="none" fill="none" d="M220 157l10 7"/></g><g transform="translate(280 439)" font-size="9" font-weight="400" font-family="Sans Serif" fill="none" stroke="#7f7f7f" stroke-width="1" stroke-linecap="square" stroke-linejoin="bevel" stroke-opacity="1"><path vector-effect="none" d="M41-267l2-12M43-279l3-16"/></g><g transform="translate(280 439)" font-size="9" font-weight="400" font-family="Sans Serif" fill="none" stroke="#7f7f7f" stroke-width="1" stroke-linecap="square" stroke-linejoin="bevel" stroke-opacity="1"><path vector-effect="none" d="M220 157l10 7M230 164l10 14"/></g><g transform="translate(280 439)" font-size="12" font-weight="400" font-family="Verdana" fill="none" stroke="#000" stroke-width="1" stroke-linecap="square" stroke-linejoin="bevel" stroke-opacity="1"><text xml:space="preserve" x="47" y="-299" font-size="12" font-weight="400" font-style="normal" font-family="Verdana" fill="#000" fill-opacity="1" stroke="none">BsmBI</text></g><g transform="translate(280 439)" font-size="12" font-weight="400" font-family="Verdana" fill="none" stroke="#000" stroke-width="1" stroke-linecap="square" stroke-linejoin="bevel" stroke-opacity="1"><text xml:space="preserve" x="242" y="192" font-size="12" font-weight="400" font-style="normal" font-family="Verdana" fill="#000" fill-opacity="1" stroke="none">BsmBI</text></g><g transform="translate(280 439)" font-size="11" font-weight="400" font-family="Verdana" fill="none" stroke="#000" stroke-width="1" stroke-linecap="square" stroke-linejoin="bevel" stroke-opacity="1"><text xml:space="preserve" x="284" y="192" font-size="11" font-weight="400" font-style="normal" font-family="Verdana" fill="#000" fill-opacity="1" stroke="none">(949)</text></g><g transform="translate(280 439)" font-size="11" font-weight="400" font-family="Verdana" fill="#252525" fill-opacity="1" stroke="none"><path d="M0-270c149.117 0 270 120.883 270 270 0 149.117-120.883 270-270 270-149.117 0-270-120.883-270-270 0-149.117 120.883-270 270-270v3c-147.46 0-267 119.54-267 267 0 147.46 119.54 267 267 267 147.46 0 267-119.54 267-267 0-147.46-119.54-267-267-267v-3" vector-effect="none" fill-rule="evenodd"/></g><g transform="translate(280 439)" font-size="11" font-weight="400" font-family="Verdana" fill="#252525" fill-opacity="1" stroke="none"><path d="M0-266c146.908 0 266 119.092 266 266 0 146.908-119.092 266-266 266-146.908 0-266-119.092-266-266 0-146.908 119.092-266 266-266v3c-145.251 0-263 117.749-263 263S-145.251 263 0 263 263 145.251 263 0 145.251-263 0-263v-3" vector-effect="none" fill-rule="evenodd"/></g><g transform="translate(280 439)" font-size="12" font-weight="400" font-family="Verdana" fill="#936" fill-opacity="1" stroke="none"><path d="M-197.953 144.353l2.921 1.426 2.927 1.378 2.926 1.334 2.936 1.282 2.941 1.231 2.938 1.189 2.944 1.137 2.948 1.086-.678-3.048-.628-3.045-.578-3.041-.536-3.029-.488-3.023-.436-3.018-.396-3.005-.35-2.995-19.391 14.141" vector-effect="none" fill-rule="evenodd"/></g><g transform="translate(280 439)" font-size="12" font-weight="400" font-family="Verdana" fill="#936" fill-opacity="1" stroke="none"><path d="M-193.507 143.678C-223.345 103.555-241 53.839-241 0c0-107.685 70.627-198.874 168.034-229.757l5.147 16.207C-158.378-184.816-224-100.071-224 0c0 50.043 16.41 96.253 44.143 133.543l-13.65 10.135" vector-effect="none" fill-rule="evenodd"/></g><g transform="translate(280 439)" font-size="12" font-weight="400" font-family="Verdana" fill="none" stroke="#232323" stroke-width="1" stroke-linecap="square" stroke-linejoin="bevel" stroke-opacity="1"><path d="M-197.953 144.353l2.921 1.426 2.927 1.378 2.926 1.334 2.936 1.282 2.941 1.231 2.938 1.189 2.944 1.137 2.948 1.086m0 0l-.678-3.048-.628-3.045-.578-3.041-.536-3.029-.488-3.023-.436-3.018-.396-3.005-.35-2.995" vector-effect="none"/></g><g transform="translate(280 439)" font-size="12" font-weight="400" font-family="Verdana" fill="none" stroke="#232323" stroke-width="1" stroke-linecap="square" stroke-linejoin="bevel" stroke-opacity="1"><path d="M-197.953 144.353l3.232-2.357" vector-effect="none"/></g><g transform="translate(280 439)" font-size="12" font-weight="400" font-family="Verdana" fill="none" stroke="#232323" stroke-width="1" stroke-linecap="square" stroke-linejoin="bevel" stroke-opacity="1"><path d="M-180.986 131.98l2.424-1.768" vector-effect="none"/></g><g transform="translate(280 439)" font-size="12" font-weight="400" font-family="Verdana" fill="none" stroke="#232323" stroke-width="1" stroke-linecap="square" stroke-linejoin="bevel" stroke-opacity="1"><path d="M-194.734 142.014C-223.829 102.184-241 53.097-241 0c0-107.685 70.627-198.874 168.034-229.757m5.147 16.207C-158.378-184.816-224-100.071-224 0c0 49.353 15.961 94.979 43.003 131.996" vector-effect="none"/></g><g transform="translate(280 439)" font-size="12" font-weight="400" font-family="Verdana" fill="none" stroke="#232323" stroke-width="1" stroke-linecap="square" stroke-linejoin="bevel" stroke-opacity="1"><path d="M-72.966-229.757l5.147 16.207" vector-effect="none"/></g><g transform="translate(280 439)" font-size="12" font-weight="400" font-family="Verdana" fill="#ff0" fill-opacity="1" stroke="none"><path d="M-140.092 200.991l-1.487-2.892-1.443-2.893-1.396-2.898-1.341-2.911-1.297-2.91-1.251-2.912-1.196-2.923-1.153-2.921 3.065.609 3.054.568 3.053.512 3.044.467 3.03.427 3.026.373 3.015.327 3 .288-13.723 19.689" vector-effect="none" fill-rule="evenodd"/></g><g transform="translate(280 439)" font-size="12" font-weight="400" font-family="Verdana" fill="#ff0" fill-opacity="1" stroke="none"><path d="M146.75 191.184C106.107 222.427 55.222 241 0 241c-51.995 0-100.144-16.466-139.512-44.463l9.841-13.864C-93.076 208.697-48.325 224 0 224c51.328 0 98.624-17.264 136.398-46.302l10.352 13.486" vector-effect="none" fill-rule="evenodd"/></g><g transform="translate(280 439)" font-size="12" font-weight="400" font-family="Verdana" fill="none" stroke="#626262" stroke-width="1" stroke-linecap="square" stroke-linejoin="bevel" stroke-opacity="1"><path d="M-140.092 200.991l-1.487-2.892-1.443-2.893-1.396-2.898-1.341-2.911-1.297-2.91-1.251-2.912-1.196-2.923-1.153-2.921m0 0l3.065.609 3.054.568 3.053.512 3.044.467 3.03.427 3.026.373 3.015.327 3 .288" vector-effect="none"/></g><g transform="translate(280 439)" font-size="12" font-weight="400" font-family="Verdana" fill="none" stroke="#626262" stroke-width="1" stroke-linecap="square" stroke-linejoin="bevel" stroke-opacity="1"><path d="M-140.092 200.991l2.287-3.282" vector-effect="none"/></g><g transform="translate(280 439)" font-size="12" font-weight="400" font-family="Verdana" fill="none" stroke="#626262" stroke-width="1" stroke-linecap="square" stroke-linejoin="bevel" stroke-opacity="1"><path d="M-128.084 183.763l1.715-2.461" vector-effect="none"/></g><g transform="translate(280 439)" font-size="12" font-weight="400" font-family="Verdana" fill="none" stroke="#626262" stroke-width="1" stroke-linecap="square" stroke-linejoin="bevel" stroke-opacity="1"><path d="M146.75 191.184C106.107 222.427 55.222 241 0 241c-51.253 0-98.77-15.999-137.821-43.272m9.721-13.948C-91.798 209.131-47.636 224 0 224c51.328 0 98.624-17.264 136.398-46.302" vector-effect="none"/></g><g transform="translate(280 439)" font-size="12" font-weight="400" font-family="Verdana" fill="none" stroke="#626262" stroke-width="1" stroke-linecap="square" stroke-linejoin="bevel" stroke-opacity="1"><path d="M146.75 191.184l-10.352-13.486" vector-effect="none"/></g><g transform="translate(280 439)" font-size="12" font-weight="400" font-family="Verdana" fill="#a6acb3" fill-opacity="1" stroke="none"><path d="M70.257-230.599c60.46 18.413 110.805 59.895 140.804 114.17l-14.888 8.213c-27.9-50.469-74.71-89.027-130.872-106.116l4.956-16.267" vector-effect="none" fill-rule="evenodd"/></g><g transform="translate(280 439)" font-size="12" font-weight="400" font-family="Verdana" fill="none" stroke="#444" stroke-width="1" stroke-linecap="square" stroke-linejoin="bevel" stroke-opacity="1"><path d="M70.257-230.599c60.46 18.413 110.805 59.895 140.804 114.17m-14.888 8.213c-27.9-50.469-74.71-89.027-130.872-106.116" vector-effect="none"/></g><g transform="translate(280 439)" font-size="12" font-weight="400" font-family="Verdana" fill="none" stroke="#444" stroke-width="1" stroke-linecap="square" stroke-linejoin="bevel" stroke-opacity="1"><path d="M70.257-230.599l-4.956 16.267" vector-effect="none"/></g><g transform="translate(280 439)" font-size="12" font-weight="400" font-family="Verdana" fill="none" stroke="#444" stroke-width="1" stroke-linecap="square" stroke-linejoin="bevel" stroke-opacity="1"><path d="M211.061-116.429l-14.888 8.213" vector-effect="none"/></g><g transform="translate(280 439)" font-size="12" font-weight="400" font-family="Verdana" fill="#708090" fill-opacity="1" stroke="none"><path d="M211.061-116.429C230.143-81.904 241-42.22 241 0c0 16.655-1.689 32.916-4.892 48.547l-16.655-3.424A225.015 225.015 0 0 0 224 0c0-39.248-10.094-76.138-27.827-108.216l14.888-8.213" vector-effect="none" fill-rule="evenodd"/></g><g transform="translate(280 439)" font-size="12" font-weight="400" font-family="Verdana" fill="none" stroke="#323232" stroke-width="1" stroke-linecap="square" stroke-linejoin="bevel" stroke-opacity="1"><path d="M211.061-116.429C230.143-81.904 241-42.22 241 0c0 16.655-1.689 32.916-4.892 48.547m-16.655-3.424A225.015 225.015 0 0 0 224 0c0-39.248-10.094-76.138-27.827-108.216" vector-effect="none"/></g><g transform="translate(280 439)" font-size="12" font-weight="400" font-family="Verdana" fill="none" stroke="#323232" stroke-width="1" stroke-linecap="square" stroke-linejoin="bevel" stroke-opacity="1"><path d="M211.061-116.429l-14.888 8.213" vector-effect="none"/></g><g transform="translate(280 439)" font-size="12" font-weight="400" font-family="Verdana" fill="none" stroke="#323232" stroke-width="1" stroke-linecap="square" stroke-linejoin="bevel" stroke-opacity="1"><path d="M236.108 48.547l-16.655-3.424" vector-effect="none"/></g><g transform="translate(280 439)" font-size="12" font-weight="400" font-family="Verdana" fill="#fff" fill-opacity="1" stroke="none"><path d="M-51.717-239.474l-2.49 2.089-2.445 2.119-2.405 2.136-2.363 2.16-2.317 2.192-2.277 2.206-2.234 2.226-2.188 2.256 3.061.614 3.04.664 3.013.703 2.986.736 2.962.783 2.936.823 2.907.854 2.88.898-5.066-23.459" vector-effect="none" fill-rule="evenodd"/></g><g transform="translate(280 439)" font-size="12" font-weight="400" font-family="Verdana" fill="#fff" fill-opacity="1" stroke="none"><path d="M-53.014-235.15a240.803 240.803 0 0 1 36.262-5.277l1.181 16.96a223.743 223.743 0 0 0-33.704 4.904l-3.74-16.587" vector-effect="none" fill-rule="evenodd"/></g><g transform="translate(280 439)" font-size="12" font-weight="400" font-family="Verdana" fill="none" stroke="#666" stroke-width="1" stroke-linecap="square" stroke-linejoin="bevel" stroke-opacity="1"><path d="M-51.717-239.474l-2.49 2.089-2.445 2.119-2.405 2.136-2.363 2.16-2.317 2.192-2.277 2.206-2.234 2.226-2.188 2.256m0 0l3.061.614 3.04.664 3.013.703 2.986.736 2.962.783 2.936.823 2.907.854 2.88.898" vector-effect="none"/></g><g transform="translate(280 439)" font-size="12" font-weight="400" font-family="Verdana" fill="none" stroke="#666" stroke-width="1" stroke-linecap="square" stroke-linejoin="bevel" stroke-opacity="1"><path d="M-51.717-239.474l.844 3.91" vector-effect="none"/></g><g transform="translate(280 439)" font-size="12" font-weight="400" font-family="Verdana" fill="none" stroke="#666" stroke-width="1" stroke-linecap="square" stroke-linejoin="bevel" stroke-opacity="1"><path d="M-47.284-218.947l.633 2.932" vector-effect="none"/></g><g transform="translate(280 439)" font-size="12" font-weight="400" font-family="Verdana" fill="none" stroke="#666" stroke-width="1" stroke-linecap="square" stroke-linejoin="bevel" stroke-opacity="1"><path d="M-50.994-235.595a241.045 241.045 0 0 1 34.241-4.832m1.182 16.96a223.854 223.854 0 0 0-31.826 4.491" vector-effect="none"/></g><g transform="translate(280 439)" font-size="12" font-weight="400" font-family="Verdana" fill="none" stroke="#666" stroke-width="1" stroke-linecap="square" stroke-linejoin="bevel" stroke-opacity="1"><path d="M-16.753-240.427l1.182 16.96" vector-effect="none"/></g><g transform="translate(280 439)" font-size="12" font-weight="400" font-family="Verdana" fill="#fff" fill-opacity="1" stroke="none"><path d="M230.639 70.124a239.522 239.522 0 0 1-14.785 37.178l-15.227-7.569a222.512 222.512 0 0 0 13.743-34.555l16.269 4.946" vector-effect="none" fill-rule="evenodd"/></g><g transform="translate(280 439)" font-size="12" font-weight="400" font-family="Verdana" fill="none" stroke="#666" stroke-width="1" stroke-linecap="square" stroke-linejoin="bevel" stroke-opacity="1"><path d="M230.639 70.124a239.522 239.522 0 0 1-14.785 37.178m-15.227-7.569a222.512 222.512 0 0 0 13.743-34.555" vector-effect="none"/></g><g transform="translate(280 439)" font-size="12" font-weight="400" font-family="Verdana" fill="none" stroke="#666" stroke-width="1" stroke-linecap="square" stroke-linejoin="bevel" stroke-opacity="1"><path d="M230.639 70.124l-16.269-4.947" vector-effect="none"/></g><g transform="translate(280 439)" font-size="12" font-weight="400" font-family="Verdana" fill="none" stroke="#666" stroke-width="1" stroke-linecap="square" stroke-linejoin="bevel" stroke-opacity="1"><path d="M215.854 107.303l-15.227-7.57" vector-effect="none"/></g><g transform="translate(280 439)" font-size="12" font-weight="400" font-family="Verdana" fill="#fff" fill-opacity="1" stroke="none"><path d="M168.185 172.612a242.582 242.582 0 0 1-12.347 11.23l-10.993-12.968a224.983 224.983 0 0 0 11.476-10.438l11.864 12.176" vector-effect="none" fill-rule="evenodd"/></g><g transform="translate(280 439)" font-size="12" font-weight="400" font-family="Verdana" fill="none" stroke="#666" stroke-width="1" stroke-linecap="square" stroke-linejoin="bevel" stroke-opacity="1"><path d="M168.185 172.612a242.582 242.582 0 0 1-12.347 11.23m-10.993-12.968a224.983 224.983 0 0 0 11.476-10.438" vector-effect="none"/></g><g transform="translate(280 439)" font-size="12" font-weight="400" font-family="Verdana" fill="none" stroke="#666" stroke-width="1" stroke-linecap="square" stroke-linejoin="bevel" stroke-opacity="1"><path d="M168.185 172.612l-11.864-12.176" vector-effect="none"/></g><g transform="translate(280 439)" font-size="12" font-weight="400" font-family="Verdana" fill="none" stroke="#666" stroke-width="1" stroke-linecap="square" stroke-linejoin="bevel" stroke-opacity="1"><path d="M155.838 183.842l-10.993-12.968" vector-effect="none"/></g><g transform="translate(280 439)" font-size="12" font-weight="400" font-family="Verdana" fill="#fff" fill-opacity="1" stroke="none"><path d="M212.005 114.706a241.954 241.954 0 0 1-7.863 13.444l-14.4-9.04a224.212 224.212 0 0 0 7.308-12.496l14.955 8.092" vector-effect="none" fill-rule="evenodd"/></g><g transform="translate(280 439)" font-size="12" font-weight="400" font-family="Verdana" fill="none" stroke="#666" stroke-width="1" stroke-linecap="square" stroke-linejoin="bevel" stroke-opacity="1"><path d="M212.005 114.706a241.954 241.954 0 0 1-7.863 13.444m-14.4-9.04a224.212 224.212 0 0 0 7.308-12.496" vector-effect="none"/></g><g transform="translate(280 439)" font-size="12" font-weight="400" font-family="Verdana" fill="none" stroke="#666" stroke-width="1" stroke-linecap="square" stroke-linejoin="bevel" stroke-opacity="1"><path d="M212.005 114.706l-14.955-8.092" vector-effect="none"/></g><g transform="translate(280 439)" font-size="12" font-weight="400" font-family="Verdana" fill="none" stroke="#666" stroke-width="1" stroke-linecap="square" stroke-linejoin="bevel" stroke-opacity="1"><path d="M204.142 128.15l-14.4-9.04" vector-effect="none"/></g><g transform="translate(280 439)" font-size="12" font-weight="400" font-family="Verdana" fill="#fff" fill-opacity="1" stroke="none"><path d="M-160.454 179.824a242.947 242.947 0 0 1-11.282-10.744l12.114-11.927a226.196 226.196 0 0 0 10.486 9.986l-11.318 12.685" vector-effect="none" fill-rule="evenodd"/></g><g transform="translate(280 439)" font-size="12" font-weight="400" font-family="Verdana" fill="none" stroke="#666" stroke-width="1" stroke-linecap="square" stroke-linejoin="bevel" stroke-opacity="1"><path d="M-160.454 179.824a242.947 242.947 0 0 1-11.282-10.744m12.114-11.927a226.196 226.196 0 0 0 10.486 9.986" vector-effect="none"/></g><g transform="translate(280 439)" font-size="12" font-weight="400" font-family="Verdana" fill="none" stroke="#666" stroke-width="1" stroke-linecap="square" stroke-linejoin="bevel" stroke-opacity="1"><path d="M-160.454 179.824l11.318-12.685" vector-effect="none"/></g><g transform="translate(280 439)" font-size="12" font-weight="400" font-family="Verdana" fill="none" stroke="#666" stroke-width="1" stroke-linecap="square" stroke-linejoin="bevel" stroke-opacity="1"><path d="M-171.736 169.08l12.114-11.927" vector-effect="none"/></g><g transform="translate(280 439)" font-size="12" font-weight="400" font-family="Verdana" fill="#a6acb3" fill-opacity="1" stroke="none"><path d="M202.345 130.963a244.524 244.524 0 0 1-4.026 6.009l-13.989-9.662a226.316 226.316 0 0 0 3.742-5.585l14.273 9.238" vector-effect="none" fill-rule="evenodd"/></g><g transform="translate(280 439)" font-size="12" font-weight="400" font-family="Verdana" fill="none" stroke="#444" stroke-width="1" stroke-linecap="square" stroke-linejoin="bevel" stroke-opacity="1"><path d="M202.345 130.963a244.524 244.524 0 0 1-4.026 6.009m-13.989-9.662a226.316 226.316 0 0 0 3.742-5.585" vector-effect="none"/></g><g transform="translate(280 439)" font-size="12" font-weight="400" font-family="Verdana" fill="none" stroke="#444" stroke-width="1" stroke-linecap="square" stroke-linejoin="bevel" stroke-opacity="1"><path d="M202.345 130.963l-14.273-9.238" vector-effect="none"/></g><g transform="translate(280 439)" font-size="12" font-weight="400" font-family="Verdana" fill="none" stroke="#444" stroke-width="1" stroke-linecap="square" stroke-linejoin="bevel" stroke-opacity="1"><path d="M198.319 136.971l-13.989-9.661" vector-effect="none"/></g><g transform="translate(280 439)" font-size="12" font-weight="400" font-family="Verdana" fill="#a6acb3" fill-opacity="1" stroke="none"><path d="M42.218-241.332l-.466 1.442-.464 1.444-.461 1.443-.46 1.444-.455 1.445-.454 1.445-.451 1.445-.448 1.446-.051 1.512-.053 1.512-.056 1.511-.058 1.511-.06 1.511-.064 1.51-.066 1.51-.068 1.509 4.135-23.64" vector-effect="none" fill-rule="evenodd"/></g><g transform="translate(280 439)" font-size="12" font-weight="400" font-family="Verdana" fill="#a6acb3" fill-opacity="1" stroke="none"><path d="M39.53-237.774c1.307.216 2.535.429 3.686.638l-3.049 16.727c-1.139-.206-2.281-.404-3.426-.592l2.788-16.773" vector-effect="none" fill-rule="evenodd"/></g><g transform="translate(280 439)" font-size="12" font-weight="400" font-family="Verdana" fill="none" stroke="#444" stroke-width="1" stroke-linecap="square" stroke-linejoin="bevel" stroke-opacity="1"><path d="M42.218-241.332l-.466 1.442-.464 1.444-.461 1.443-.46 1.444-.455 1.445-.454 1.445-.451 1.445-.448 1.446m0 0l-.051 1.512-.053 1.512-.056 1.511-.058 1.511-.06 1.511-.064 1.51-.066 1.51-.068 1.509" vector-effect="none"/></g><g transform="translate(280 439)" font-size="12" font-weight="400" font-family="Verdana" fill="none" stroke="#444" stroke-width="1" stroke-linecap="square" stroke-linejoin="bevel" stroke-opacity="1"><path d="M42.218-241.332l-.689 3.94" vector-effect="none"/></g><g transform="translate(280 439)" font-size="12" font-weight="400" font-family="Verdana" fill="none" stroke="#444" stroke-width="1" stroke-linecap="square" stroke-linejoin="bevel" stroke-opacity="1"><path d="M38.6-220.647l-.517 2.955" vector-effect="none"/></g><g transform="translate(280 439)" font-size="12" font-weight="400" font-family="Verdana" fill="none" stroke="#444" stroke-width="1" stroke-linecap="square" stroke-linejoin="bevel" stroke-opacity="1"><path d="M41.57-237.428c.625.109 1.173.206 1.646.292m-3.049 16.727c-.509-.092-1.019-.182-1.529-.271" vector-effect="none"/></g><g transform="translate(280 439)" font-size="12" font-weight="400" font-family="Verdana" fill="none" stroke="#444" stroke-width="1" stroke-linecap="square" stroke-linejoin="bevel" stroke-opacity="1"><path d="M43.216-237.136l-3.049 16.727" vector-effect="none"/></g><g transform="translate(280 439)" font-size="12" font-weight="400" font-family="Verdana" fill="#a6acb3" fill-opacity="1" stroke="none"><path d="M198.319 136.971c-.637.921-1.277 1.832-1.919 2.733l-13.854-9.855c.6-.842 1.195-1.689 1.784-2.539l13.989 9.661" vector-effect="none" fill-rule="evenodd"/></g><g transform="translate(280 439)" font-size="12" font-weight="400" font-family="Verdana" fill="none" stroke="#444" stroke-width="1" stroke-linecap="square" stroke-linejoin="bevel" stroke-opacity="1"><path d="M198.319 136.971c-.637.921-1.277 1.832-1.919 2.733m-13.854-9.855c.6-.842 1.195-1.689 1.784-2.539" vector-effect="none"/></g><g transform="translate(280 439)" font-size="12" font-weight="400" font-family="Verdana" fill="none" stroke="#444" stroke-width="1" stroke-linecap="square" stroke-linejoin="bevel" stroke-opacity="1"><path d="M198.319 136.971l-13.989-9.661" vector-effect="none"/></g><g transform="translate(280 439)" font-size="12" font-weight="400" font-family="Verdana" fill="none" stroke="#444" stroke-width="1" stroke-linecap="square" stroke-linejoin="bevel" stroke-opacity="1"><path d="M196.4 139.704l-13.854-9.855" vector-effect="none"/></g><g transform="translate(280 439)" font-size="12" font-weight="400" font-family="Verdana" fill="#fff" fill-opacity="1" stroke="#fff" stroke-width=".5" stroke-linecap="square" stroke-linejoin="bevel" stroke-opacity="1"><path d="M-222.737-66.019c.524.155.974.37 1.349.642.376.272.669.577.879.913.219.353.355.71.41 1.07.055.362.032.735-.074 1.119-.099.359-.229.66-.388.903-.16.243-.347.475-.562.694l.275.148-.275.994-8.804-2.37.306-1.104 3.142.862a4.601 4.601 0 0 1-.333-1.139c-.06-.388-.03-.798.09-1.23.218-.765.681-1.284 1.381-1.557.7-.271 1.568-.252 2.604.055m-.298 1.114c-.75-.218-1.357-.257-1.821-.118-.463.14-.776.494-.933 1.06-.088.316-.11.655-.065 1.016.044.361.134.71.268 1.044l3.616.992a4.91 4.91 0 0 0 .498-.7c.113-.202.208-.442.285-.719.163-.59.099-1.106-.188-1.55-.287-.444-.84-.786-1.66-1.025m4.304-2.88l-.328 1.051-8.721-2.656.34-1.094 8.709 2.699m2.256-6.906l-.351 1.04-.662-.225.139.464c.059.197.097.38.114.55.029.203.034.426.017.671-.018.245-.077.52-.179.823-.187.56-.526.977-1.022 1.248-.497.273-1.034.318-1.609.135-.474-.15-.825-.376-1.051-.675-.226-.3-.364-.667-.412-1.103-.041-.44.001-.938.122-1.497.122-.559.271-1.153.448-1.782l-.162-.055a1.289 1.289 0 0 0-.631-.073.958.958 0 0 0-.488.242 1.653 1.653 0 0 0-.354.489c-.1.203-.19.42-.268.653a4.86 4.86 0 0 0-.206.975c-.044.37-.051.761-.029 1.174l-.018.058-1.067-.343c.011-.227.047-.55.107-.97a7.39 7.39 0 0 1 .293-1.207c.15-.45.317-.83.5-1.138.183-.309.402-.555.659-.74a1.71 1.71 0 0 1 .843-.322c.313-.032.669.021 1.068.159l4.199 1.449m-1.879.52l-1.723-.585c-.091.33-.191.72-.301 1.169-.109.45-.17.814-.184 1.093-.018.333.032.622.15.869.121.247.339.421.654.523.357.115.66.094.91-.065.253-.157.454-.457.602-.9.123-.367.164-.727.122-1.08a4.86 4.86 0 0 0-.23-1.023" vector-effect="none" fill-rule="evenodd"/></g><g transform="translate(280 439)" font-size="12" font-weight="400" font-family="Verdana" fill="#000" fill-opacity="1" stroke="none"><path d="M-.644 233.225c-.003 1.065-.3 1.904-.896 2.517-.598.614-1.398.916-2.398.907-1.006-.023-1.797-.353-2.373-.987-.573-.633-.842-1.482-.81-2.547.033-1.067.348-1.902.945-2.505.593-.603 1.377-.892 2.353-.87.97.009 1.742.325 2.316.948.578.624.866 1.469.863 2.537m-1.218-.011c.007-.849-.165-1.48-.515-1.895-.348-.414-.835-.624-1.462-.63-.632-.013-1.128.18-1.488.582-.362.402-.554 1.027-.576 1.876-.02.82.143 1.446.491 1.879.35.432.847.657 1.49.67.635.006 1.136-.199 1.502-.616.366-.416.551-1.038.558-1.866m7.37-2.132l-.062.002a4.84 4.84 0 0 0-.508-.073 5.274 5.274 0 0 0-.581-.012c-.362.009-.71.088-1.044.242-.335.154-.656.35-.964.59l.047 4.648-1.197.011-.033-6.547 1.164-.01.01.968c.46-.355.865-.608 1.215-.758.35-.15.71-.231 1.079-.241.2-.005.346-.004.437.004.091.008.228.023.41.044l.027 1.132m2.283-2.357l-1.306.034-.033-1.144 1.3-.034.039 1.144m.184 7.638l-1.197.032-.188-6.544 1.164-.031.22 6.543" vector-effect="none" fill-rule="evenodd"/></g><g transform="translate(280 439)" font-size="12" font-weight="400" font-family="Verdana" fill="#000" fill-opacity="1" stroke="none"><path d="M110.114-206.697l-.638.392-1.326-2.095-.94 1.888-.676-.352.994-1.861-2.48.145-.053-.747 2.57-.061-1.482-2.107.636-.403 1.369 2.095.93-1.885.692.361-1.007 1.845 2.509-.095.037.75-2.574.012 1.439 2.118m3.73 7.535a7.387 7.387 0 0 1-1.106-.155 3.536 3.536 0 0 1-.978-.383 3.983 3.983 0 0 1-1.024-.812 2.636 2.636 0 0 1-.58-1.032 2.852 2.852 0 0 1-.067-1.251c.067-.452.238-.931.512-1.437.51-.941 1.171-1.538 1.986-1.789.817-.249 1.66-.138 2.517.346.333.188.633.419.901.692.267.272.497.551.688.836l-.606 1.061-.052-.029a4.235 4.235 0 0 0-.621-1.042 2.916 2.916 0 0 0-.819-.706c-.552-.313-1.091-.372-1.616-.18-.524.192-.981.645-1.371 1.358-.379.692-.516 1.308-.41 1.849.105.539.435.965.989 1.278.191.109.401.194.629.255.228.062.445.098.652.107a5.535 5.535 0 0 0 .928-.05l.051.029-.603 1.055m5.339 3.149a7.334 7.334 0 0 1-1.097-.191 3.703 3.703 0 0 1-.971-.403 3.801 3.801 0 0 1-1.004-.834 2.658 2.658 0 0 1-.548-1.055 2.882 2.882 0 0 1-.031-1.256c.081-.451.264-.925.552-1.424.535-.927 1.211-1.504 2.03-1.729.821-.223 1.657-.085 2.506.415.329.194.625.43.885.71.259.282.479.569.661.861l-.635 1.045-.05-.031a4.287 4.287 0 0 0-.588-1.066 2.874 2.874 0 0 0-.804-.721c-.547-.322-1.085-.395-1.613-.22-.527.176-.995.615-1.405 1.317-.398.681-.551 1.295-.461 1.841.088.544.407.978.955 1.301.19.112.398.201.625.267.228.066.444.108.649.124.178.011.35.014.517.01.166-.005.303-.015.409-.029l.049.03-.631 1.038m5.424 3.884l-.92-.586.371-.579a4.028 4.028 0 0 1-1.174.011 2.646 2.646 0 0 1-1.056-.399c-.653-.414-1.018-.991-1.089-1.742-.073-.752.168-1.582.725-2.49.29-.472.617-.852.981-1.137a3.417 3.417 0 0 1 1.134-.604 2.757 2.757 0 0 1 1.165-.083c.388.061.744.195 1.068.402.296.188.539.385.729.591.189.206.369.454.539.744l1.531-2.387.957.61-4.961 7.649m-.049-1.944l2.028-3.159a4.264 4.264 0 0 0-.533-.666 3.696 3.696 0 0 0-.618-.484c-.528-.336-1.053-.416-1.577-.236-.523.183-.993.61-1.409 1.281-.409.659-.607 1.23-.595 1.712.011.482.262.881.753 1.193.262.167.564.277.907.331.344.054.692.063 1.044.028m8.84 4.653a2.554 2.554 0 0 1-.86.794c-.324.177-.66.274-1.012.294a3.07 3.07 0 0 1-1.198-.154c-.382-.13-.82-.365-1.315-.706l-2.544-1.707 4.82-7.275 2.21 1.477c.538.37.928.666 1.169.889.242.223.442.48.603.77.174.325.247.637.218.937-.029.299-.148.599-.359.9-.237.339-.528.568-.871.686a2.311 2.311 0 0 1-1.104.09l-.026.038c.423.439.662.918.717 1.439.051.522-.099 1.031-.448 1.528m.631-4.353c.12-.173.192-.34.215-.499a.808.808 0 0 0-.088-.485 1.666 1.666 0 0 0-.45-.548 10.865 10.865 0 0 0-.801-.596l-1.174-.79-1.402 2.093 1.26.849c.304.209.556.36.757.452.201.092.41.142.629.151a.973.973 0 0 0 .584-.149c.168-.109.325-.268.47-.478m-1.648 3.697c.201-.288.317-.547.348-.777.031-.231-.028-.485-.176-.764a1.991 1.991 0 0 0-.459-.545 9.087 9.087 0 0 0-.785-.594l-1.523-1.031-1.807 2.697 1.266.854a8.09 8.09 0 0 0 1.067.639c.295.14.569.21.82.212.267-.002.498-.055.693-.158.195-.103.38-.281.556-.533m10.709 7.012a4.419 4.419 0 0 1-1.077 1.007c-.39.254-.787.417-1.192.491-.38.073-.756.066-1.129-.019a2.613 2.613 0 0 1-1.017-.481 3.5 3.5 0 0 1-.657-.644 3.98 3.98 0 0 1-.458-.775l-1.645 2.194-.868-.642 5.341-7.195.902.667-.412.55c.386-.021.779.014 1.174.108.395.095.761.272 1.095.528.639.49.953 1.106.942 1.848-.012.74-.346 1.528-.999 2.363m-.922-.674c.483-.624.736-1.173.758-1.648.022-.476-.192-.886-.641-1.231a2.48 2.48 0 0 0-.894-.427 4.078 4.078 0 0 0-1.069-.126l-2.223 2.966c.165.298.322.533.468.709.146.176.332.351.558.524.482.37.985.495 1.509.375.525-.119 1.037-.499 1.534-1.142m6.729 2.789l-.046-.038a4.45 4.45 0 0 0-.318-.374 4.958 4.958 0 0 0-.411-.373 2.248 2.248 0 0 0-.916-.457 4.644 4.644 0 0 0-1.087-.121l-2.907 3.627-.854-.679 4.07-5.127.878.698-.606.756c.568.002 1.031.052 1.389.149.354.101.669.265.943.491.149.123.254.217.315.28.061.064.151.162.27.293l-.72.875m3.756 5.893c-.7.802-1.457 1.256-2.275 1.369-.817.116-1.57-.121-2.262-.712-.695-.594-1.053-1.3-1.074-2.119-.024-.821.303-1.642.982-2.463.68-.822 1.431-1.296 2.253-1.42.824-.122 1.596.123 2.312.735.713.609 1.079 1.328 1.097 2.158.016.828-.331 1.647-1.033 2.452m-.864-.747c.555-.642.839-1.228.852-1.758.013-.531-.21-.991-.666-1.381-.461-.393-.951-.542-1.471-.444-.522.103-1.055.48-1.599 1.131-.526.63-.797 1.213-.813 1.747-.021.539.192.999.641 1.383.443.378.927.516 1.453.414.528-.101 1.062-.465 1.603-1.092m6.932 10.737l-.791-.751 2.57-2.699a8.25 8.25 0 0 0 .533-.616 1.77 1.77 0 0 0 .315-.566.903.903 0 0 0-.023-.549c-.064-.18-.212-.38-.444-.6a2.097 2.097 0 0 0-.842-.478 5.577 5.577 0 0 0-1.087-.204 7.018 7.018 0 0 1-.425.517l-2.85 3.073-.804-.736 2.52-2.745c.196-.213.372-.424.53-.633.158-.209.258-.399.302-.571a.882.882 0 0 0-.033-.542c-.069-.177-.222-.375-.46-.593a2.08 2.08 0 0 0-.825-.454 5.29 5.29 0 0 0-1.066-.183l-3.257 3.644-.817-.723 4.339-4.902.841.743-.484.542c.45.02.86.085 1.225.199.363.115.691.307.983.574.334.307.555.636.661.987.105.351.103.701-.006 1.049.588.031 1.077.112 1.462.247.384.137.731.351 1.039.644.531.504.773 1.034.725 1.588-.048.553-.344 1.111-.885 1.674l-2.946 3.064m7.748 3.096c-.763.742-1.557 1.135-2.381 1.179-.822.047-1.55-.254-2.188-.902-.65-.643-.952-1.373-.904-2.193.046-.822.44-1.615 1.184-2.377.745-.765 1.531-1.175 2.358-1.229.83-.052 1.581.253 2.252.916.656.668.96 1.418.908 2.248-.053.828-.464 1.613-1.229 2.358m-.8-.815c.605-.595.937-1.156.995-1.684.057-.53-.125-1.009-.546-1.437-.43-.426-.911-.609-1.439-.552-.528.058-1.089.39-1.685.995-.576.584-.894 1.143-.955 1.676-.062.532.117 1.005.536 1.42.408.415.877.594 1.409.537.532-.056 1.094-.374 1.685-.955m1.985 6.711a7.446 7.446 0 0 1-.558-.397 4.626 4.626 0 0 1-.484-.434c-.454-.479-.669-.966-.646-1.464.022-.499.319-1.023.893-1.573l2.512-2.408-.521-.549.667-.643.523.551 1.356-1.3.778.82-1.362 1.294 1.591 1.682-.677.631-1.585-1.676-2.165 2.055c-.249.237-.438.427-.567.571a1.328 1.328 0 0 0-.281.492.786.786 0 0 0-.007.491c.051.157.182.347.394.57.123.13.27.247.442.352.172.106.3.178.384.216l.039.043-.726.676m6.847 2.958l-3.231-3.603a2.783 2.783 0 0 0-.654.845c-.138.29-.208.577-.208.862-.002.275.055.546.173.814.118.267.287.525.509.775.293.331.655.606 1.086.824.431.218.775.342 1.029.37l.039.044-.904.794a8.795 8.795 0 0 1-1.039-.582 4.54 4.54 0 0 1-.919-.8c-.72-.798-1.069-1.614-1.043-2.457.024-.845.432-1.636 1.225-2.369.786-.726 1.61-1.085 2.474-1.073.865.013 1.627.379 2.281 1.098.596.674.863 1.364.798 2.07-.065.704-.455 1.368-1.167 1.993l-.449.395m-.081-1.365c.43-.387.667-.794.711-1.221.044-.428-.132-.865-.526-1.311-.403-.444-.854-.679-1.351-.706a2.01 2.01 0 0 0-1.361.431l2.527 2.807m5.514 4.353l-.038-.046a4.433 4.433 0 0 0-.241-.428 4.412 4.412 0 0 0-.338-.44 2.313 2.313 0 0 0-.822-.614 4.57 4.57 0 0 0-1.042-.324l-3.53 3.024-.709-.83 4.953-4.282.728.853-.736.63c.556.11 1 .246 1.333.408.332.163.614.38.845.65.125.148.211.26.258.334.048.074.117.187.209.339l-.87.726m4.107 5.299l-.742.102-.363-2.457-1.621 1.35-.475-.597 1.659-1.303-2.334-.861.253-.706 2.38.977-.511-2.524.744-.111.415 2.464 1.611-1.351.486.611-1.665 1.283 2.327.93-.267.7-2.356-1.03.459 2.523" vector-effect="none" fill-rule="evenodd"/></g><g transform="translate(280 439)" font-size="12" font-weight="400" font-family="Verdana" fill="#fff" fill-opacity="1" stroke="#fff" stroke-width=".5" stroke-linecap="square" stroke-linejoin="bevel" stroke-opacity="1"><path d="M225.52-42.021a7.187 7.187 0 0 1-.59-.936c-.157-.3-.268-.629-.339-.985a3.75 3.75 0 0 1-.05-1.293c.059-.408.199-.775.419-1.103.22-.331.525-.616.915-.855.389-.24.866-.42 1.429-.537 1.048-.22 1.928-.104 2.643.35.715.459 1.17 1.167 1.364 2.124.074.371.09.747.053 1.125s-.104.73-.199 1.058l-1.202.224-.011-.058c.195-.38.328-.759.401-1.14a2.79 2.79 0 0 0 .01-1.072c-.126-.616-.43-1.062-.914-1.335-.483-.272-1.123-.326-1.918-.163-.773.158-1.333.452-1.679.88-.346.426-.457.948-.331 1.566.044.214.115.427.214.64.099.212.211.399.336.56a5.443 5.443 0 0 0 .633.67l.01.057-1.194.223m1.053 6.056a7.234 7.234 0 0 1-.575-.95 3.534 3.534 0 0 1-.317-.992 3.79 3.79 0 0 1-.005-1.297c.074-.406.224-.77.45-1.09.226-.325.536-.602.931-.83.394-.23.875-.395 1.441-.498 1.053-.192 1.933-.053 2.64.42.705.476 1.135 1.198 1.296 2.16.063.374.072.75.028 1.126a5.806 5.806 0 0 1-.218 1.051l-1.208.192-.009-.058c.201-.374.342-.75.421-1.127a2.89 2.89 0 0 0 .035-1.071c-.104-.62-.393-1.075-.866-1.362-.473-.285-1.112-.356-1.912-.215-.777.138-1.343.416-1.703.835-.36.418-.489.937-.384 1.56.036.215.101.43.197.644.095.215.204.404.326.57.109.14.219.272.332.395.113.122.21.22.29.29l.01.057-1.2.19m.528 6.594l-.142-1.072.682-.091a3.978 3.978 0 0 1-.762-.881 2.721 2.721 0 0 1-.383-1.053c-.113-.758.095-1.405.625-1.942.529-.539 1.319-.89 2.372-1.054a4.268 4.268 0 0 1 1.5.01 3.41 3.41 0 0 1 1.19.47 2.768 2.768 0 0 1 1.207 1.89c.05.344.055.654.019.93a4.281 4.281 0 0 1-.224.886l2.81-.377.147 1.115-9.041 1.17m1.457-1.287l3.721-.5c.092-.313.148-.59.168-.83.02-.241.011-.5-.027-.779-.092-.614-.376-1.061-.852-1.34-.476-.278-1.104-.358-1.885-.242-.767.115-1.332.332-1.694.652-.361.318-.5.762-.414 1.333.045.305.156.604.335.899.18.294.396.563.648.807m2.167 9.665a2.59 2.59 0 0 1-1.165-.138 2.351 2.351 0 0 1-.882-.576 3.02 3.02 0 0 1-.65-1.004c-.145-.372-.247-.855-.308-1.447l-.343-3.018 8.664-1.036.299 2.619c.073.643.098 1.128.082 1.454a3 3 0 0 1-.203.95c-.137.34-.329.597-.577.768-.248.17-.555.273-.92.307-.412.04-.774-.033-1.085-.217a2.28 2.28 0 0 1-.777-.776l-.046.004c-.065.602-.279 1.091-.64 1.467-.362.374-.845.588-1.449.643m3.728-2.32c.21-.02.384-.074.521-.159a.807.807 0 0 0 .314-.378 1.64 1.64 0 0 0 .132-.693 9.563 9.563 0 0 0-.072-.986l-.159-1.395-2.503.286.171 1.497c.041.364.093.65.151.862.059.21.155.401.289.572a.958.958 0 0 0 .488.346c.192.057.414.073.668.048m-3.89 1.131c.35-.033.623-.112.819-.237.196-.125.354-.333.472-.624.078-.196.119-.428.123-.697a7.927 7.927 0 0 0-.054-.974l-.207-1.812-3.225.369.172 1.504c.056.497.123.903.206 1.216.082.313.203.565.363.756.174.2.363.34.567.421.204.082.459.108.764.078" vector-effect="none" fill-rule="evenodd"/></g><g transform="translate(280 439)" font-size="12" font-weight="400" font-family="Verdana" fill="#000" fill-opacity="1" stroke="none"><path d="M-59.928-202.669c.15.51.214.997.191 1.461a3.209 3.209 0 0 1-.301 1.252c-.165.35-.392.651-.682.903a2.717 2.717 0 0 1-.99.56 3.566 3.566 0 0 1-.912.17 3.788 3.788 0 0 1-.907-.076l.837 2.611-1.038.331-2.777-8.519 1.082-.346.21.655c.21-.326.471-.624.78-.895a2.96 2.96 0 0 1 1.078-.6c.778-.242 1.472-.137 2.076.305.602.442 1.052 1.172 1.352 2.188m-1.099.354c-.228-.755-.53-1.281-.908-1.576-.379-.295-.842-.356-1.387-.184a2.547 2.547 0 0 0-.877.491 4.33 4.33 0 0 0-.733.799l1.13 3.53c.343.04.629.05.859.03.23-.019.482-.072.756-.158.586-.185.983-.527 1.193-1.023.212-.494.202-1.131-.033-1.909m6.262-3.876l-.059.015a4.275 4.275 0 0 0-.495.041c-.156.024-.339.066-.548.123a2.385 2.385 0 0 0-.915.489c-.272.233-.52.503-.743.811l1.257 4.475-1.061.294-1.805-6.293 1.095-.304.262.933c.339-.459.654-.805.946-1.039.292-.234.612-.399.959-.495.189-.052.327-.085.416-.098.088-.012.222-.028.4-.047l.29 1.095m7.055.381c.24 1.038.163 1.922-.23 2.652-.39.73-1.03 1.202-1.924 1.416-.896.224-1.683.109-2.367-.353-.686-.462-1.166-1.207-1.436-2.237-.271-1.033-.215-1.918.172-2.657.39-.74 1.047-1.229 1.973-1.461.923-.221 1.73-.097 2.42.373.688.471 1.15 1.227 1.392 2.267m-1.123.27c-.196-.826-.507-1.4-.933-1.721-.428-.32-.937-.409-1.528-.267-.595.146-1.006.464-1.234.948-.226.484-.233 1.136-.021 1.959.204.794.52 1.354.949 1.681.427.326.929.415 1.508.273.571-.137.971-.449 1.2-.935.23-.486.25-1.133.06-1.938m12.887.671l-1.084.198-.663-3.667a8.073 8.073 0 0 0-.185-.794 1.722 1.722 0 0 0-.273-.587.901.901 0 0 0-.46-.304c-.186-.053-.438-.05-.756.009-.313.058-.61.192-.893.402a5.45 5.45 0 0 0-.817.758 6.212 6.212 0 0 1 .168.647l.808 4.113-1.08.219-.737-3.652a8.594 8.594 0 0 0-.2-.801c-.077-.25-.173-.443-.287-.579a.884.884 0 0 0-.463-.291c-.186-.048-.439-.04-.758.025-.302.061-.59.196-.864.405a5.432 5.432 0 0 0-.785.758l1.04 4.775-1.076.238-1.426-6.389 1.11-.246.154.71c.285-.354.583-.647.893-.88.311-.227.664-.38 1.056-.46.45-.092.851-.077 1.201.043.35.12.635.326.854.619.376-.459.735-.805 1.076-1.036a2.977 2.977 0 0 1 1.146-.465c.73-.135 1.307-.021 1.73.343.423.364.701.934.836 1.703l.735 4.186m7.16-4.426c.146 1.055-.012 1.925-.47 2.613-.455.693-1.136 1.108-2.044 1.244-.913.136-1.688-.053-2.326-.574-.64-.519-1.05-1.304-1.226-2.355-.176-1.053-.04-1.93.412-2.633.455-.703 1.155-1.129 2.1-1.27.938-.14 1.73.054 2.375.583.642.536 1.034 1.335 1.18 2.392m-1.144.16c-.12-.84-.377-1.439-.772-1.796-.397-.357-.896-.49-1.497-.4-.606.09-1.045.364-1.316.824-.269.462-.335 1.112-.2 1.95.131.81.396 1.396.793 1.758.396.366.888.506 1.478.418.581-.087 1.008-.362 1.28-.827.273-.465.352-1.107.234-1.927m6.645 2.391c-.2.078-.42.148-.658.211a4.71 4.71 0 0 1-.644.126c-.662.076-1.186-.038-1.576-.349-.391-.311-.638-.86-.74-1.648l-.446-3.452-.76.1-.121-.917.763-.101-.24-1.863 1.136-.15.23 1.865 2.33-.269.103.92-2.319.268.367 2.961c.042.342.082.607.122.796.039.189.116.362.23.517a.8.8 0 0 0 .394.299c.159.054.392.064.701.029.18-.021.364-.068.552-.142.19-.074.325-.134.407-.18l.058-.007.111.986m6.529-3.742l-4.874.44c.042.402.138.745.29 1.03.153.285.344.513.575.684.221.167.476.284.764.35.287.067.599.084.935.052a3.86 3.86 0 0 0 1.322-.388c.438-.214.746-.414.923-.6l.059-.004.096 1.199a8.922 8.922 0 0 1-1.1.48 4.907 4.907 0 0 1-1.2.268c-1.081.104-1.954-.107-2.622-.634-.67-.52-1.065-1.315-1.181-2.39-.116-1.064.09-1.942.62-2.632.535-.683 1.294-1.072 2.273-1.167.907-.087 1.63.11 2.163.585.532.476.834 1.186.91 2.131l.047.596m-1.155-.756c-.054-.575-.24-1.009-.56-1.302-.32-.289-.781-.403-1.38-.346-.606.059-1.07.278-1.392.658-.32.38-.478.829-.473 1.347l3.805-.357m6.87-1.815l-.06.003a4 4 0 0 0-.493-.057 4.696 4.696 0 0 0-.562.007 2.36 2.36 0 0 0-.996.288c-.314.17-.612.383-.895.637l.307 4.639-1.099.073-.467-6.531 1.134-.075.064.967c.426-.378.806-.652 1.14-.819a2.658 2.658 0 0 1 1.04-.285c.196-.012.338-.016.427-.011.09.005.223.016.401.033l.059 1.131" vector-effect="none" fill-rule="evenodd"/></g><g transform="translate(280 439)" font-size="12" font-weight="400" font-family="Verdana" fill="#000" fill-opacity="1" stroke="none"><path d="M194.984 91.62a6.709 6.709 0 0 1-.437 1.351c-.303.636-.695 1.042-1.177 1.216-.484.17-1.084.08-1.797-.27l-3.125-1.531-.343.687-.829-.41.341-.685-1.687-.827.488-1.006 1.691.818 1.003-2.102.837.394-1.006 2.111 2.686 1.3c.31.149.555.258.735.328.181.069.368.095.563.08a.802.802 0 0 0 .468-.187c.132-.111.269-.314.409-.608.082-.17.143-.36.184-.568.042-.207.065-.36.071-.457l.027-.055.898.422m.096-7.78l-2.037 4.586c.367.168.712.256 1.036.265.324.009.619-.048.886-.17.26-.116.493-.289.7-.517.207-.228.384-.503.528-.826.187-.43.293-.898.319-1.406.026-.506 0-.885-.079-1.136l.025-.056 1.105.476c-.012.42-.051.838-.117 1.254-.067.417-.19.833-.37 1.247-.473 1.046-1.113 1.74-1.914 2.079-.8.336-1.69.276-2.67-.18-.971-.45-1.616-1.083-1.938-1.894-.323-.808-.282-1.655.122-2.542.362-.828.876-1.363 1.544-1.607.67-.246 1.44-.183 2.311.192l.549.236m-1.218.684c-.532-.226-1.002-.267-1.409-.123-.408.143-.731.49-.974 1.042-.252.553-.294 1.064-.126 1.534.167.472.474.837.923 1.096l1.586-3.549m1.474-7.025l-.022.056a4.504 4.504 0 0 0-.26.425c-.075.14-.152.312-.232.514-.131.326-.19.667-.175 1.025.015.359.074.722.178 1.091l4.295 1.777-.445 1.075-6.036-2.535.432-1.043.895.37c-.153-.549-.232-1.01-.238-1.38a2.748 2.748 0 0 1 .189-1.056c.071-.18.128-.31.17-.388.042-.078.107-.194.196-.349l1.053.418m8.821-8.53l-.369 1.104-3.524-1.212a7.952 7.952 0 0 0-.783-.226 1.735 1.735 0 0 0-.648-.048.923.923 0 0 0-.495.252c-.139.135-.262.355-.37.66-.107.3-.14.626-.1.978.04.351.118.717.235 1.096a6.337 6.337 0 0 1 .642.189l3.942 1.423-.398 1.094-3.498-1.285a8.45 8.45 0 0 0-.788-.248 1.644 1.644 0 0 0-.645-.06.89.89 0 0 0-.492.241c-.14.133-.267.352-.382.658a2.163 2.163 0 0 0-.117.95c.029.346.098.705.204 1.076l4.561 1.755-.427 1.082-6.097-2.383.413-1.05.678.261a5.196 5.196 0 0 1-.25-1.224 2.652 2.652 0 0 1 .167-1.133c.16-.427.383-.757.67-.99.288-.233.613-.368.976-.404-.2-.558-.315-1.043-.345-1.453-.03-.41.026-.815.168-1.217.246-.694.627-1.137 1.15-1.33.524-.193 1.156-.166 1.896.084l4.026 1.36m-6.186-5.643l-.386 1.205-1.088-.355.384-1.199 1.09.349m7.255 2.398l-.354 1.109-6.224-2.03.343-1.075 6.235 1.996m2.319-7.743l-.311 1.122-3.584-1.023a6.175 6.175 0 0 0-.83-.18c-.262-.037-.478-.03-.646.023a.941.941 0 0 0-.476.317c-.132.16-.24.382-.325.67-.088.298-.109.63-.063.996.047.366.137.73.271 1.094l4.677 1.416-.34 1.113-6.255-1.93.329-1.08.695.21a4.733 4.733 0 0 1-.327-1.24 2.918 2.918 0 0 1 .098-1.176c.206-.695.56-1.169 1.071-1.42.512-.251 1.153-.27 1.923-.055l4.093 1.143m1.918-7.367l-.271 1.128-.678-.168.173.471c.071.2.12.387.147.564.04.209.059.442.055.701a3.782 3.782 0 0 1-.133.88c-.156.606-.478 1.068-.965 1.386-.493.315-1.031.393-1.614.235-.481-.13-.839-.342-1.074-.636-.237-.294-.391-.661-.46-1.102-.065-.444-.056-.954.028-1.53.085-.576.195-1.188.324-1.84l-.167-.04a1.275 1.275 0 0 0-.634-.019.978.978 0 0 0-.469.284 1.689 1.689 0 0 0-.319.516c-.086.21-.161.435-.222.673a4.954 4.954 0 0 0-.14.992c-.018.373-.006.766.038 1.18l-.015.059-1.083-.29c-.001-.227.017-.55.053-.971.036-.42.105-.827.207-1.22.118-.456.257-.844.418-1.164.158-.32.355-.584.594-.789.234-.204.505-.337.813-.398.308-.062.667-.044 1.077.055l4.317 1.043m-1.837.74l-1.767-.437c-.063.344-.138.75-.218 1.216a6.408 6.408 0 0 0-.115 1.13c.003.343.071.637.204.883.132.245.359.41.678.495.363.096.666.053.909-.128.244-.183.427-.512.55-.986.101-.393.121-.771.059-1.134a4.756 4.756 0 0 0-.3-1.039m3.079-6.436c.006.227-.002.469-.023.728a5.12 5.12 0 0 1-.098.686c-.153.688-.444 1.172-.874 1.45-.429.278-1.031.327-1.805.148l-3.392-.782-.178.747-.901-.211.177-.744-1.83-.422.242-1.091 1.833.412.504-2.274.905.193-.506 2.284 2.911.655c.336.075.599.126.791.152.191.027.38.01.567-.049a.807.807 0 0 0 .414-.288c.104-.138.191-.367.262-.685.041-.185.058-.383.051-.594a3.773 3.773 0 0 0-.033-.461l.013-.06.97.206m-1.763-7.72c1.049.186 1.825.616 2.329 1.291.503.679.666 1.497.489 2.453-.191.958-.649 1.659-1.37 2.099-.72.437-1.601.546-2.644.328-1.045-.218-1.814-.666-2.308-1.341-.494-.672-.648-1.47-.463-2.398.172-.925.613-1.606 1.323-2.047.711-.443 1.593-.573 2.644-.385m-.215 1.162c-.835-.153-1.486-.098-1.953.163-.467.261-.756.69-.867 1.287-.118.602-.011 1.109.324 1.523.335.416.919.709 1.751.877.804.164 1.448.117 1.932-.14.485-.26.789-.696.91-1.31.113-.606-.005-1.12-.353-1.544-.349-.421-.93-.706-1.744-.856m-.871-7.408l-.009.06a4.483 4.483 0 0 0-.157.472 4.829 4.829 0 0 0-.111.553c-.052.347-.027.694.071 1.04.095.345.235.685.419 1.02l4.587.753-.192 1.147-6.455-1.093.187-1.113.956.156c-.273-.5-.454-.93-.544-1.29a2.633 2.633 0 0 1-.063-1.071c.029-.193.055-.332.078-.417.023-.086.061-.214.113-.384l1.12.167" vector-effect="none" fill-rule="evenodd"/></g><g transform="translate(280 439)" font-size="12" font-weight="400" font-family="Verdana" fill="#000" fill-opacity="1" stroke="none"><path d="M99.844 190.9c-.17.15-.36.3-.573.45a5.16 5.16 0 0 1-.589.366c-.625.326-1.185.407-1.675.251-.49-.158-.913-.592-1.269-1.301l-1.562-3.111-.687.343-.412-.829.684-.341-.843-1.679 1-.499.853 1.674 2.066-1.073.43.82-2.076 1.079 1.353 2.659c.156.307.285.542.387.707.102.164.236.3.4.405a.795.795 0 0 0 .485.133c.172-.009.403-.089.692-.239.168-.088.331-.202.49-.343.158-.141.268-.249.331-.323l.055-.028.46.879m4.783-6.135l-4.393 2.423c.19.356.411.635.664.838.252.202.521.335.807.399.277.063.566.066.868.009.303-.058.61-.171.92-.34a3.83 3.83 0 0 0 1.108-.92c.326-.39.533-.708.622-.956l.054-.03.592 1.047a9.854 9.854 0 0 1-.85.932 4.802 4.802 0 0 1-1.052.763c-1.009.548-1.935.717-2.778.504-.841-.217-1.515-.807-2.02-1.763-.5-.946-.63-1.836-.394-2.675.23-.841.773-1.493 1.63-1.959.794-.431 1.526-.548 2.205-.34.68.207 1.255.723 1.722 1.548l.295.52m-1.382-.188c-.287-.502-.636-.818-1.047-.949-.411-.131-.881-.055-1.41.233-.534.29-.876.673-1.026 1.15a2.02 2.02 0 0 0 .073 1.434l3.41-1.868m5.424-4.702l-.052.032a4.8 4.8 0 0 0-.962.444 2.398 2.398 0 0 0-.76.711 4.75 4.75 0 0 0-.517.98l2.346 4.013-1.003.59-3.273-5.67.973-.572.488.836c.21-.532.425-.947.645-1.248.219-.3.482-.54.79-.722.168-.098.292-.166.373-.203.08-.037.202-.09.366-.16l.586.969m12.184-1.456l-.967.649-2.073-3.097a7.71 7.71 0 0 0-.486-.654 1.73 1.73 0 0 0-.487-.43.915.915 0 0 0-.546-.098c-.192.024-.423.125-.693.304a2.172 2.172 0 0 0-.668.721 6.376 6.376 0 0 0-.477 1.014 5.583 5.583 0 0 1 .397.539l2.278 3.519-.981.625-2.009-3.139a8.924 8.924 0 0 0-.476-.674 1.649 1.649 0 0 0-.478-.436.879.879 0 0 0-.537-.105c-.191.021-.425.12-.7.295-.26.166-.482.395-.667.688-.188.29-.352.613-.494.972l2.571 4.156-.992.608-3.414-5.586.962-.59.382.618c.152-.426.334-.798.546-1.118.21-.323.482-.592.817-.805.384-.245.761-.373 1.13-.386.369-.013.71.077 1.022.27.182-.561.384-1.016.607-1.362.223-.346.512-.636.868-.872.613-.406 1.187-.525 1.723-.358.534.163 1.02.567 1.458 1.214l2.384 3.518m-1.512-8.235l-1.041.719-.652-.941 1.036-.715.657.937m4.327 6.299l-.958.66-3.728-5.381.929-.641 3.757 5.362m6.529-4.765l-.929.701-2.235-2.982a6.158 6.158 0 0 0-.552-.645c-.187-.189-.364-.314-.531-.376a.928.928 0 0 0-.57-.034c-.2.047-.421.16-.662.339-.25.184-.466.437-.65.758-.184.32-.332.667-.447 1.035l2.869 3.956-.948.676-3.814-5.321.919-.655.426.588c.12-.437.282-.833.49-1.186.207-.353.469-.646.787-.881.582-.431 1.154-.59 1.716-.476.559.107 1.08.479 1.563 1.116l2.568 3.387m5.984-4.706l-.9.731-.439-.544-.15.476a3.023 3.023 0 0 1-.223.539c-.094.192-.22.389-.379.594a3.739 3.739 0 0 1-.636.623c-.489.389-1.027.56-1.611.514-.583-.047-1.058-.31-1.427-.788-.304-.394-.461-.78-.471-1.157-.011-.378.091-.76.306-1.149.217-.393.532-.795.946-1.204.414-.409.87-.832 1.37-1.27l-.108-.133a1.285 1.285 0 0 0-.496-.4.965.965 0 0 0-.546-.059c-.181.031-.37.104-.565.22-.196.115-.39.25-.583.403a5.023 5.023 0 0 0-.708.708c-.239.287-.47.605-.689.957l-.048.037-.687-.886c.139-.179.351-.422.636-.734.282-.314.581-.597.899-.849.369-.294.714-.52 1.034-.679.321-.158.64-.245.956-.261.31-.021.606.036.888.173.283.137.557.369.824.696l2.807 3.442m-1.913-.524l-1.142-1.417a38.05 38.05 0 0 0-.911.834 6.523 6.523 0 0 0-.773.834 1.874 1.874 0 0 0-.369.828c-.043.276.036.543.239.804.231.295.499.446.803.448.304.002.648-.15 1.031-.456.318-.252.561-.542.731-.87.169-.327.299-.663.391-1.005m6.342-3.267a6.726 6.726 0 0 1-.948 1.057c-.536.457-1.059.668-1.572.628-.513-.043-1.023-.37-1.531-.98l-2.228-2.674-.592.488-.59-.713.589-.486-1.202-1.444.858-.716 1.211 1.437 1.77-1.513.605.702-1.779 1.519 1.923 2.282c.221.263.4.463.537.6.136.137.296.238.48.303a.8.8 0 0 0 .504.02c.166-.048.373-.177.621-.389a2.43 2.43 0 0 0 .399-.444c.122-.173.206-.302.251-.389l.046-.04.648.752m3.267-7.214c.722.783 1.081 1.596 1.075 2.44-.008.846-.371 1.599-1.095 2.247-.732.648-1.519.931-2.358.847-.836-.085-1.603-.532-2.302-1.336-.7-.806-1.042-1.628-1.028-2.466.011-.836.37-1.566 1.079-2.193.7-.628 1.462-.906 2.292-.828.834.075 1.613.504 2.337 1.289m-.872.799c-.572-.627-1.123-.977-1.653-1.05-.528-.074-1.016.094-1.471.497-.459.406-.68.876-.662 1.41.016.535.304 1.122.865 1.759.541.616 1.082.968 1.622 1.055.542.086 1.047-.079 1.515-.493.462-.408.679-.891.656-1.439-.023-.548-.314-1.127-.872-1.739m3.789-6.425l-.043.042a4.396 4.396 0 0 0-.831.658 2.378 2.378 0 0 0-.58.863c-.132.333-.226.69-.281 1.069l3.198 3.373-.845.801-4.478-4.775.819-.777.666.703c.084-.564.199-1.017.345-1.359a2.73 2.73 0 0 1 .604-.884c.139-.137.244-.232.314-.286.07-.055.177-.134.32-.239l.792.811" vector-effect="none" fill-rule="evenodd"/></g><g transform="translate(280 439)" font-size="12" font-weight="400" font-family="Verdana" fill="#000" fill-opacity="1" stroke="none"><path d="M-168.102 134.736a6.82 6.82 0 0 1-.551-.476 5.145 5.145 0 0 1-.472-.508c-.438-.552-.63-1.082-.571-1.594.061-.511.406-1.009 1.033-1.496l2.752-2.131-.468-.609.734-.564.466.606 1.485-1.151.684.885-1.479 1.158 1.45 1.823-.723.579-1.456-1.831-2.349 1.841c-.27.212-.477.383-.618.515a1.27 1.27 0 0 0-.32.47.804.804 0 0 0-.038.502c.042.167.165.379.368.634.117.148.26.286.429.414.169.129.295.217.38.265l.038.048-.774.62m6.942 3.512l-3.222-3.846a2.692 2.692 0 0 0-.695.813 1.994 1.994 0 0 0-.237.87c-.009.284.044.569.158.855.114.286.284.565.509.838.3.36.675.661 1.12.907.444.245.796.388 1.056.428l.04.047-.913.782a9.641 9.641 0 0 1-1.077-.656 4.885 4.885 0 0 1-.955-.882c-.73-.886-1.073-1.764-1.026-2.632.049-.866.497-1.639 1.337-2.319.833-.673 1.683-.972 2.554-.905.868.065 1.612.473 2.232 1.225.579.694.835 1.39.761 2.096-.073.709-.469 1.372-1.188 1.99l-.454.389m-.08-1.393c.437-.379.68-.782.73-1.211.05-.429-.12-.872-.503-1.336-.386-.469-.828-.731-1.325-.788a2.013 2.013 0 0 0-1.391.348l2.489 2.987m5.658 4.416l-.041-.045a4.366 4.366 0 0 0-.268-.419 5.675 5.675 0 0 0-.357-.436 2.367 2.367 0 0 0-.842-.61 4.776 4.776 0 0 0-1.059-.32l-3.487 3.075-.771-.872 4.934-4.303.748.845-.727.641c.562.104 1.01.235 1.347.393.336.158.622.37.86.637.131.144.223.252.275.324.051.072.127.181.227.328l-.839.762m3.775 11.675l-.825-.82 2.639-2.63c.199-.199.382-.4.549-.604.166-.204.276-.391.328-.56a.925.925 0 0 0-.009-.556c-.06-.183-.204-.391-.431-.622a2.156 2.156 0 0 0-.835-.518 5.981 5.981 0 0 0-1.089-.27 6.068 6.068 0 0 1-.452.493l-3.014 2.913-.802-.843 2.693-2.575c.209-.2.399-.399.569-.598.171-.198.283-.383.337-.553a.882.882 0 0 0 0-.547c-.058-.184-.199-.394-.424-.631a2.15 2.15 0 0 0-.803-.523 5.866 5.866 0 0 0-1.051-.294l-3.583 3.322-.786-.858 4.824-4.425.762.832-.533.494c.447.067.848.173 1.206.317.357.144.672.36.946.648.313.331.512.676.595 1.035.083.361.06.713-.07 1.057.589.068 1.075.177 1.457.33.382.153.722.381 1.021.685.515.525.742 1.066.684 1.621-.056.554-.359 1.11-.909 1.664l-2.994 3.016m7.791-3.069l-.91-.88.798-.821.905.876-.793.825m-5.348 5.458l-.836-.81 4.563-4.694.81.785-4.537 4.719m5.932 5.49l-.87-.772 2.496-2.768a6.26 6.26 0 0 0 .527-.667c.15-.219.238-.417.267-.593a.945.945 0 0 0-.076-.567c-.085-.187-.238-.382-.459-.585a2.413 2.413 0 0 0-.868-.493 4.961 4.961 0 0 0-1.103-.237l-3.33 3.576-.846-.799 4.487-4.767.82.775-.495.531c.454.031.873.115 1.26.251a2.92 2.92 0 0 1 1.014.604c.535.49.8 1.021.8 1.589.002.57-.263 1.154-.795 1.751l-2.829 3.171m5.771 4.966l-.895-.738.45-.536a78.281 78.281 0 0 0-.496-.056c-.21-.024-.4-.062-.571-.115a3.48 3.48 0 0 1-1.388-.765c-.475-.405-.749-.897-.817-1.479-.066-.581.101-1.098.5-1.552.328-.374.676-.602 1.044-.685.368-.083.763-.057 1.188.076.428.137.883.369 1.363.697.481.329.983.696 1.508 1.103l.11-.132c.161-.191.26-.379.297-.563a.98.98 0 0 0-.046-.548 1.711 1.711 0 0 0-.324-.513 5.088 5.088 0 0 0-.508-.495 4.923 4.923 0 0 0-.83-.56 8.397 8.397 0 0 0-1.074-.489l-.046-.04.737-.844c.202.101.483.262.846.479.362.217.697.456 1.005.72.359.306.647.601.863.886.218.285.365.58.444.885.08.3.081.601.001.905-.08.303-.255.617-.524.942l-2.837 3.417m.143-1.974l1.17-1.394a39.484 39.484 0 0 0-.993-.735 6.401 6.401 0 0 0-.966-.599 1.855 1.855 0 0 0-.882-.204c-.28.011-.528.142-.745.392-.245.283-.34.574-.284.872.057.298.272.607.645.926.309.263.64.447.994.55.353.103.707.167 1.061.192m4.427 5.593a6.865 6.865 0 0 1-.644-.339 5.26 5.26 0 0 1-.574-.39c-.551-.438-.858-.912-.92-1.42-.058-.51.165-1.074.666-1.69l2.195-2.701-.592-.488.586-.717.59.486 1.185-1.458.871.701-1.177 1.465 1.822 1.449-.572.728-1.83-1.456-1.87 2.326c-.215.268-.377.482-.485.643-.108.16-.176.337-.205.53a.8.8 0 0 0 .077.498c.078.154.245.333.501.536.148.118.318.22.511.307s.336.144.43.172l.048.038-.613.78m7.708 1.817c-.629.859-1.357 1.367-2.186 1.523-.832.155-1.639-.058-2.418-.64-.775-.595-1.204-1.313-1.282-2.153-.077-.838.213-1.677.868-2.517.656-.842 1.397-1.336 2.221-1.483.822-.149 1.607.063 2.358.639.754.563 1.172 1.258 1.255 2.088.086.833-.185 1.681-.816 2.543m-.951-.704c.506-.682.743-1.29.713-1.824-.029-.534-.287-.981-.773-1.345-.487-.374-.99-.5-1.51-.381-.521.119-1.041.514-1.559 1.187-.5.65-.742 1.248-.723 1.796.019.549.278 1.013.773 1.394.494.37 1.009.49 1.542.363.532-.128 1.044-.524 1.537-1.19m7.035 2.48l-.05-.034a4.283 4.283 0 0 0-.804-.69 2.476 2.476 0 0 0-.961-.399 4.705 4.705 0 0 0-1.103-.071l-2.694 3.787-.947-.675 3.823-5.315.919.656-.562.789c.57-.025 1.036.001 1.399.079s.693.216.987.418c.161.111.274.195.341.254.067.058.165.148.295.269l-.643.932" vector-effect="none" fill-rule="evenodd"/></g><g transform="translate(280 439)" font-size="14" font-weight="700" font-family="Verdana" fill="none" stroke="#000" stroke-width="1" stroke-linecap="square" stroke-linejoin="bevel" stroke-opacity="1"><text xml:space="preserve" x="-83" y="0" font-size="14" font-weight="700" font-style="normal" font-family="Verdana" fill="#000" fill-opacity="1" stroke="none">HC_Amp_ccdB(1-25)</text></g><g transform="translate(280 439)" font-size="11" font-weight="400" font-family="Verdana" fill="none" stroke="#000" stroke-width="1" stroke-linecap="square" stroke-linejoin="bevel" stroke-opacity="1"><text xml:space="preserve" x="-22" y="14" font-size="11" font-weight="400" font-style="normal" font-family="Verdana" fill="#000" fill-opacity="1" stroke="none">2721 bp</text></g><text xml:space="preserve" style="line-height:125%;-inkscape-font-specification:'Open Sans Bold'" x="323.85" y="127.653" font-variant="normal" font-weight="700" font-stretch="normal" font-size="24.657" font-family="Open Sans" letter-spacing="0" word-spacing="0" fill="#000" fill-opacity="1" stroke="none" stroke-width=".616" stroke-linecap="butt" stroke-linejoin="miter" stroke-opacity="1"><tspan x="323.85" y="127.653" style="-inkscape-font-specification:'Open Sans Bold'" font-style="normal" font-variant="normal" font-weight="700" font-stretch="normal" font-family="Open Sans" stroke-width=".616">TAGG</tspan></text><text xml:space="preserve" style="line-height:125%;-inkscape-font-specification:'Open Sans Bold'" x="519.964" y="651.049" font-variant="normal" font-weight="700" font-stretch="normal" font-size="21.925" font-family="Open Sans" letter-spacing="0" word-spacing="0" fill="#000" fill-opacity="1" stroke="none" stroke-width=".548" stroke-linecap="butt" stroke-linejoin="miter" stroke-opacity="1"><tspan x="519.964" y="651.049" style="-inkscape-font-specification:'Open Sans Bold'" font-style="normal" font-variant="normal" font-weight="700" font-stretch="normal" font-family="Open Sans" stroke-width=".548">ACGA</tspan></text></g></svg>