<?xml version="1.0" encoding="UTF-8" standalone="no"?>
<!-- Created with Inkscape (http://www.inkscape.org/) -->

<svg
   xmlns:dc="http://purl.org/dc/elements/1.1/"
   xmlns:cc="http://creativecommons.org/ns#"
   xmlns:rdf="http://www.w3.org/1999/02/22-rdf-syntax-ns#"
   xmlns:svg="http://www.w3.org/2000/svg"
   xmlns="http://www.w3.org/2000/svg"
   xmlns:sodipodi="http://sodipodi.sourceforge.net/DTD/sodipodi-0.dtd"
   xmlns:inkscape="http://www.inkscape.org/namespaces/inkscape"
   width="26.154446mm"
   height="26.154444mm"
   viewBox="0 0 92.673237 92.673225"
   id="svg201275"
   version="1.1"
   inkscape:version="0.91 r13725"
   sodipodi:docname="character_advisors.svg">
  <defs
     id="defs201277" />
  <sodipodi:namedview
     id="base"
     pagecolor="#ffffff"
     bordercolor="#666666"
     borderopacity="1.0"
     inkscape:pageopacity="0.0"
     inkscape:pageshadow="2"
     inkscape:zoom="3.959798"
     inkscape:cx="34.865627"
     inkscape:cy="27.729131"
     inkscape:document-units="px"
     inkscape:current-layer="layer1"
     showgrid="false"
     fit-margin-left="0.1"
     fit-margin-top="0.1"
     fit-margin-bottom="0.1"
     fit-margin-right="0.1"
     inkscape:window-width="1880"
     inkscape:window-height="2108"
     inkscape:window-x="81"
     inkscape:window-y="24"
     inkscape:window-maximized="0" />
  <metadata
     id="metadata201280">
    <rdf:RDF>
      <cc:Work
         rdf:about="">
        <dc:format>image/svg+xml</dc:format>
        <dc:type
           rdf:resource="http://purl.org/dc/dcmitype/StillImage" />
        <dc:title></dc:title>
      </cc:Work>
    </rdf:RDF>
  </metadata>
  <g
     inkscape:label="Layer 1"
     inkscape:groupmode="layer"
     id="layer1"
     transform="translate(-258.30216,-228.08717)">
    <g
       id="g543197"
       transform="matrix(1.4780809,0,0,1.4780809,-941.99954,60.615686)">
      <path
         inkscape:connector-curvature="0"
         d="m 835.6172,142.56877 2.72171,13.60857 -12.70132,0 2.72169,-13.60857 z"
         id="path6-6-3-7-4-0-8-3-9-0-3"
         style="fill:#ffffff;fill-opacity:1;stroke:#000000;stroke-width:0.90723884;stroke-linecap:round;stroke-linejoin:round;stroke-opacity:1" />
      <path
         inkscape:connector-curvature="0"
         d="m 814.75071,162.52802 c 0,-4.98981 4.08257,-13.15495 11.7941,-15.42307 l 4.5362,0.90726 0.90723,7.2579 0.90725,-7.2579 4.53618,-0.90726 c 7.71154,2.26812 11.79412,10.43326 11.79412,15.42307"
         id="path8-8-5-0-6-3-6-7-5-3-6"
         style="fill:#ffffff;fill-opacity:1;stroke:#000000;stroke-width:0.90723884;stroke-linecap:round;stroke-linejoin:round;stroke-opacity:1"
         sodipodi:nodetypes="ccccccc" />
      <path
         inkscape:connector-curvature="0"
         d="m 831.98824,125.33123 c 4.98981,0 9.07238,4.53619 9.07238,9.97964 0,5.44342 -4.08257,9.97962 -9.07238,9.97962 -4.98982,0 -9.07238,-4.5362 -9.07238,-9.97962 0,-5.44345 4.08256,-9.97964 9.07238,-9.97964 z"
         id="path10-9-3-2-7-7-2-0-1-7-1"
         style="fill:#ffffff;fill-opacity:1;stroke:#000000;stroke-width:0.90723884;stroke-linecap:round;stroke-linejoin:round;stroke-opacity:1" />
      <path
         style="fill:#b0b0b0;fill-opacity:1;stroke:#000000;stroke-width:0.90723884;stroke-linecap:round;stroke-linejoin:round;stroke-opacity:1"
         inkscape:connector-curvature="0"
         d="m 831.98824,123.51675 c 3.62896,0 5.44343,1.36088 6.35067,3.62896 2.72171,0.90723 3.62895,4.53619 2.72171,8.16516 -1.81447,-1.81448 -2.72171,-3.62897 -3.62895,-6.35068 -9.97962,7.2579 -9.07239,-2.72173 -14.51581,6.35068 -0.90726,-7.25793 3.62895,-11.79412 9.07238,-11.79412 z"
         id="path12-7-1-3-7-3-0-4-7-0-0" />
      <path
         inkscape:connector-curvature="0"
         d="m 837.43167,145.29049 c -0.90723,0.90723 -1.81447,1.81446 -4.53618,2.72172 1.81447,0.90724 1.81447,2.72171 1.81447,3.62894 1.81448,-0.90723 3.62895,-3.62894 3.62895,-5.44343 z"
         id="path14-0-8-4-1-7-8-6-1-6-5"
         style="fill:#ffffff;fill-opacity:1;stroke:#000000;stroke-width:0.90723884;stroke-linecap:round;stroke-linejoin:round;stroke-opacity:1" />
      <path
         inkscape:connector-curvature="0"
         d="m 826.54481,145.29049 c 0.90724,0.90723 1.81447,1.81446 4.5362,2.72172 -1.81448,0.90724 -1.81448,2.72171 -1.81448,3.62894 -1.81448,-0.90723 -3.62894,-3.62894 -3.62894,-5.44343 z"
         id="path16-8-8-3-0-0-1-7-8-9-7"
         style="fill:#ffffff;fill-opacity:1;stroke:#000000;stroke-width:0.90723884;stroke-linecap:round;stroke-linejoin:round;stroke-opacity:1" />
      <path
         inkscape:connector-curvature="0"
         d="m 822.0086,164.3425 0.90726,-7.25791"
         id="path18-4-1-7-0-1-6-9-5-2-4"
         style="fill:#ffffff;fill-opacity:1;stroke:#000000;stroke-width:0.90723884;stroke-linecap:round;stroke-linejoin:round;stroke-opacity:1"
         sodipodi:nodetypes="cc" />
      <path
         inkscape:connector-curvature="0"
         style="fill:#000000;fill-opacity:1;stroke:#000000;stroke-width:0.22898853;stroke-linecap:round;stroke-linejoin:round;stroke-opacity:1"
         d="m 830.43441,151.28999 a 1.5129599,1.5538507 0 0 0 1.51297,1.55385 1.5129599,1.5538507 0 0 0 1.51296,-1.55385 1.5129599,1.5538507 0 0 0 -1.51296,-1.55385 1.5129599,1.5538507 0 0 0 -1.51297,1.55385 z"
         id="path24228-9-1-2" />
      <path
         inkscape:connector-curvature="0"
         id="path24230-4-7-0"
         d="m 831.98825,152.10776 1.79922,10.38628 -1.96279,1.79919 -1.63561,-2.20808 z"
         style="fill:#000000;fill-opacity:1;stroke:#000000;stroke-width:0.98465079;stroke-linecap:butt;stroke-linejoin:round;stroke-miterlimit:4;stroke-dasharray:none;stroke-opacity:1" />
      <path
         id="path104515-8-1-8-7-2-8-6"
         d="m 836.73159,135.65233 a 0.69121337,1.3187623 0 0 1 -0.69122,1.31876 0.69121337,1.3187623 0 0 1 -0.69121,-1.31876 0.69121337,1.3187623 0 0 1 0.69121,-1.31877 0.69121337,1.3187623 0 0 1 0.69122,1.31877 z"
         style="opacity:1;fill:#000000;fill-opacity:1;stroke:#000000;stroke-width:0.69436312;stroke-linecap:round;stroke-linejoin:round;stroke-miterlimit:4;stroke-dasharray:none;stroke-dashoffset:0;stroke-opacity:1"
         inkscape:connector-curvature="0" />
      <path
         id="path104515-8-1-8-7-2-8-9-4"
         d="m 832.6982,135.71739 a 0.69121337,1.3187623 0 0 1 -0.69121,1.31876 0.69121337,1.3187623 0 0 1 -0.69122,-1.31876 0.69121337,1.3187623 0 0 1 0.69122,-1.31876 0.69121337,1.3187623 0 0 1 0.69121,1.31876 z"
         style="opacity:1;fill:#000000;fill-opacity:1;stroke:#000000;stroke-width:0.69436312;stroke-linecap:round;stroke-linejoin:round;stroke-miterlimit:4;stroke-dasharray:none;stroke-dashoffset:0;stroke-opacity:1"
         inkscape:connector-curvature="0" />
      <path
         inkscape:connector-curvature="0"
         d="m 836.0917,166.70044 0.90726,-7.25791"
         id="path18-4-1-7-0-1-6-9-5-2-4-3"
         style="fill:#ffffff;fill-opacity:1;stroke:#000000;stroke-width:0.90723884;stroke-linecap:round;stroke-linejoin:round;stroke-opacity:1"
         sodipodi:nodetypes="cc" />
    </g>
    <g
       id="g543185"
       transform="matrix(1.4780809,0,0,1.4780809,-946.29216,59.682499)">
      <path
         inkscape:connector-curvature="0"
         d="m 849.73204,161.54268 c 0,-5.02869 2.85838,-13.25746 8.2575,-15.54326 l 3.17597,0.91433 0.63517,7.31446 0.63523,-7.31446 3.1759,-0.91433 c 5.39913,2.2858 8.25751,10.51457 8.25751,15.54326"
         id="path8-8-5-0-6-3-6-7-5-3-6-7-7"
         style="fill:#ffffff;fill-opacity:1;stroke:#000000;stroke-width:0.76207644;stroke-linecap:round;stroke-linejoin:round;stroke-opacity:1"
         sodipodi:nodetypes="ccccccc" />
      <path
         inkscape:connector-curvature="0"
         d="m 865.61181,144.17083 c -0.63516,0.91429 -1.27033,1.82859 -3.1759,2.74292 1.27034,0.91431 1.27034,2.74293 1.27034,3.65723 1.2704,-0.9143 2.5408,-3.65723 2.5408,-5.48586 z"
         id="path14-0-8-4-1-7-8-6-1-6-5-4-5"
         style="fill:#ffffff;fill-opacity:1;stroke:#000000;stroke-width:0.76207644;stroke-linecap:round;stroke-linejoin:round;stroke-opacity:1" />
      <path
         inkscape:connector-curvature="0"
         d="m 857.98954,144.17083 c 0.63517,0.91429 1.2704,1.82859 3.17597,2.74292 -1.2704,0.91431 -1.2704,2.74293 -1.2704,3.65723 -1.2704,-0.9143 -2.54074,-3.65723 -2.54074,-5.48586 z"
         id="path16-8-8-3-0-0-1-7-8-9-7-5-7"
         style="fill:#ffffff;fill-opacity:1;stroke:#000000;stroke-width:0.76207644;stroke-linecap:round;stroke-linejoin:round;stroke-opacity:1" />
      <path
         inkscape:connector-curvature="0"
         id="path24230-4-7-0-7-8"
         d="m 861.80068,151.04122 1.2597,10.46722 -1.37419,1.8132 -1.14515,-2.22528 z"
         style="fill:#000000;fill-opacity:1;stroke:#000000;stroke-width:0.82710212;stroke-linecap:butt;stroke-linejoin:round;stroke-miterlimit:4;stroke-dasharray:none;stroke-opacity:1" />
      <g
         transform="matrix(0.50483404,0,0,0.50483404,500.44909,47.008357)"
         id="g102613-2-0-7-9-7">
        <path
           id="path102696-9-8-7-8"
           d="m 699.41365,178.62086 a 15.863017,19.086329 0 0 0 15.86302,19.08633 15.863017,19.086329 0 0 0 15.86301,-19.08633 15.863017,19.086329 0 0 0 -15.86301,-19.08633 15.863017,19.086329 0 0 0 -15.86302,19.08633 z"
           style="opacity:1;fill:#ffffff;fill-opacity:1;stroke:#000000;stroke-width:1.09534335;stroke-linecap:round;stroke-linejoin:round;stroke-miterlimit:4;stroke-dasharray:none;stroke-dashoffset:0;stroke-opacity:1"
           inkscape:connector-curvature="0" />
        <path
           style="fill:#7a7a7a;fill-opacity:1;fill-rule:evenodd;stroke:#000000;stroke-width:1.09534335;stroke-linecap:butt;stroke-linejoin:miter;stroke-miterlimit:4;stroke-dasharray:none;stroke-opacity:1"
           d="m 724.62249,191.78439 c 0,0 6.57815,0.16446 7.23595,-0.82226 0.65781,-0.98671 4.27579,-2.4668 5.09807,-4.76915 0.82226,-2.30234 1.97343,-5.59141 1.80898,-8.22266 -0.16446,-2.63124 1.15117,-6.41368 -0.98672,-8.05822 -2.1379,-1.64452 -1.89195,-2.87718 -3.37204,-4.68618 -1.48008,-1.80898 -1.64454,-2.13789 -1.80897,-4.76915 -0.16446,-2.63123 -0.73932,-3.20757 -2.21941,-4.68764 -1.48006,-1.48008 -0.32889,-2.4668 -3.28906,-3.78243 -2.96015,-1.31563 -2.7957,-3.1246 -5.42695,-3.1246 -2.63126,0 -3.45352,0 -4.27578,0.49334 -0.82228,0.49337 -0.32891,1.97343 -3.12463,0.49337 -2.79569,-1.48009 -3.78241,-1.97345 -5.92032,-1.31563 -2.13789,0.65781 -3.94687,3.28907 -4.93358,3.61798 -0.98672,0.32889 -4.44024,1.97343 -5.59141,2.79569 -1.15118,0.82228 -0.98674,0.65783 -2.63126,2.63126 -1.64455,1.97343 -2.63126,3.94689 -2.63126,4.76915 0,0.82226 0.65783,1.48009 0.32891,3.61798 -0.32891,2.13789 -0.49337,3.61797 -0.32891,5.09804 0.16445,1.48008 2.13789,2.96017 2.13789,2.96017 0,0 -1.67884,1.80897 -1.67884,2.63124 -0.6148,4.2506 2.14173,8.15743 3.98118,12.16955 2.30235,0.98672 2.96018,1.80898 2.63126,2.63126 -0.32891,0.82226 0.17171,1.70235 0.17171,1.70235 0,0 -0.25557,1.02231 0.97947,0.76443 6.77845,-1.41535 23.84572,-2.13789 23.84572,-2.13789 z"
           id="path6720-3-68-2-77-2-3-0"
           inkscape:connector-curvature="0"
           sodipodi:nodetypes="csssssssssssssssssscccscsc" />
        <path
           style="fill:#ffffff;fill-opacity:1;fill-rule:evenodd;stroke:#000000;stroke-width:1.09534335;stroke-linecap:butt;stroke-linejoin:miter;stroke-miterlimit:4;stroke-dasharray:none;stroke-opacity:1"
           d="m 705.24357,193.05937 -1.9352,-12.01439 c -3.16633,-1.82847 -2.63243,-4.6839 -0.9519,-6.54958 1.98792,1.16751 4.2599,-4.81816 6.16314,-7.64385 1.39497,-2.6096 1.87386,-6.53312 5.11866,-7.47515 3.76837,-0.45422 5.84002,3.44227 8.29324,5.56793 2.31593,2.71806 7.49962,2.00794 7.0109,6.74217 0.54623,3.7123 1.60858,7.46991 0.75206,11.24215 -0.68082,4.67144 -3.67688,8.83022 -6.55673,12.23164"
           id="path6737-6-7-2-5-5-6-3"
           inkscape:connector-curvature="0"
           sodipodi:nodetypes="ccccccccc" />
        <path
           id="path6748-6-3-4-7-4-3-1-1"
           d="m 727.25545,177.20955 a 1.2080287,1.5796493 0 0 1 -1.20803,1.57965 1.2080287,1.5796493 0 0 1 -1.20803,-1.57965 1.2080287,1.5796493 0 0 1 1.20803,-1.57965 1.2080287,1.5796493 0 0 1 1.20803,1.57965 z"
           style="opacity:1;fill:#000000;fill-opacity:1;stroke:#000000;stroke-width:0.22349097;stroke-linecap:round;stroke-linejoin:round;stroke-miterlimit:4;stroke-dasharray:none;stroke-dashoffset:0;stroke-opacity:1"
           inkscape:connector-curvature="0" />
        <path
           id="path6748-6-3-4-7-0-4-4-2-0"
           d="m 720.51845,177.13688 a 1.2080287,1.5796493 0 0 1 -1.20803,1.57965 1.2080287,1.5796493 0 0 1 -1.20803,-1.57965 1.2080287,1.5796493 0 0 1 1.20803,-1.57964 1.2080287,1.5796493 0 0 1 1.20803,1.57964 z"
           style="opacity:1;fill:#000000;fill-opacity:1;stroke:#000000;stroke-width:0.22349097;stroke-linecap:round;stroke-linejoin:round;stroke-miterlimit:4;stroke-dasharray:none;stroke-dashoffset:0;stroke-opacity:1"
           inkscape:connector-curvature="0" />
      </g>
    </g>
    <path
       style="fill:#ffffff;fill-opacity:1;stroke:#000000;stroke-width:1.34097242;stroke-linecap:round;stroke-linejoin:round;stroke-opacity:1"
       id="path6-6-3-7-4-0-8-3-9-0-3-7"
       d="m 310.94017,274.82911 4.0229,20.11457 -18.77357,0 4.02288,-20.11457 z"
       inkscape:connector-curvature="0" />
    <path
       sodipodi:nodetypes="ccccccc"
       style="fill:#ffffff;fill-opacity:1;stroke:#000000;stroke-width:1.34097242;stroke-linecap:round;stroke-linejoin:round;stroke-opacity:1"
       id="path8-8-5-0-6-3-6-7-5-3-6-7"
       d="m 280.09781,304.33049 c 0,-7.37534 6.03436,-19.44407 17.43263,-22.79654 l 6.70487,1.341 1.34096,10.72777 1.34099,-10.72777 6.70485,-1.341 c 11.39828,3.35247 17.43266,15.4212 17.43266,22.79654"
       inkscape:connector-curvature="0" />
    <path
       style="fill:#ffffff;fill-opacity:1;stroke:#000000;stroke-width:1.34097242;stroke-linecap:round;stroke-linejoin:round;stroke-opacity:1"
       id="path10-9-3-2-7-7-2-0-1-7-1-0"
       d="m 305.57627,249.35061 c 7.37534,0 13.40971,6.70486 13.40971,14.75073 0,8.04582 -6.03437,14.7507 -13.40971,14.7507 -7.37535,0 -13.40971,-6.70488 -13.40971,-14.7507 0,-8.04587 6.03436,-14.75073 13.40971,-14.75073 z"
       inkscape:connector-curvature="0" />
    <path
       id="path12-7-1-3-7-3-0-4-7-0-0-7"
       d="m 305.90999,246.66867 c -5.36389,0 -8.04584,2.01149 -9.38681,5.36389 -4.02291,1.34096 -5.36387,6.70486 -4.02291,12.06878 2.68195,-2.68195 4.02291,-5.36392 5.36388,-9.38683 14.75069,10.72778 13.40972,-4.02294 21.45554,9.38683 1.34101,-10.72782 -5.36387,-17.43267 -13.4097,-17.43267 z"
       inkscape:connector-curvature="0"
       style="fill:#cfcfcf;fill-opacity:1;stroke:#000000;stroke-width:1.34097242;stroke-linecap:round;stroke-linejoin:round;stroke-opacity:1" />
    <path
       style="fill:#ffffff;fill-opacity:1;stroke:#000000;stroke-width:1.34097242;stroke-linecap:round;stroke-linejoin:round;stroke-opacity:1"
       id="path14-0-8-4-1-7-8-6-1-6-5-4"
       d="m 313.62211,278.85204 c -1.34096,1.34095 -2.68194,2.68191 -6.70485,4.02291 2.68194,1.34097 2.68194,4.02291 2.68194,5.36387 2.68195,-1.34096 5.36387,-5.36387 5.36387,-8.04583 z"
       inkscape:connector-curvature="0" />
    <path
       style="fill:#ffffff;fill-opacity:1;stroke:#000000;stroke-width:1.34097242;stroke-linecap:round;stroke-linejoin:round;stroke-opacity:1"
       id="path16-8-8-3-0-0-1-7-8-9-7-5"
       d="m 297.53044,278.85204 c 1.34097,1.34095 2.68194,2.68191 6.70487,4.02291 -2.68195,1.34097 -2.68195,4.02291 -2.68195,5.36387 -2.68195,-1.34096 -5.36386,-5.36387 -5.36386,-8.04583 z"
       inkscape:connector-curvature="0" />
    <path
       id="path24228-9-1-2-0"
       d="m 303.27959,287.71977 a 2.2362773,2.2967172 0 0 0 2.23628,2.29672 2.2362773,2.2967172 0 0 0 2.23628,-2.29672 2.2362773,2.2967172 0 0 0 -2.23628,-2.29671 2.2362773,2.2967172 0 0 0 -2.23628,2.29671 z"
       style="fill:#000000;fill-opacity:1;stroke:#000000;stroke-width:0.33846357;stroke-linecap:round;stroke-linejoin:round;stroke-opacity:1"
       inkscape:connector-curvature="0" />
    <path
       style="fill:#000000;fill-opacity:1;stroke:#000000;stroke-width:1.45539355;stroke-linecap:butt;stroke-linejoin:round;stroke-miterlimit:4;stroke-dasharray:none;stroke-opacity:1"
       d="m 305.57629,288.9285 2.65939,15.35177 -2.90116,2.65935 -2.41756,-3.26372 z"
       id="path24230-4-7-0-7"
       inkscape:connector-curvature="0" />
    <path
       inkscape:connector-curvature="0"
       style="opacity:1;fill:#000000;fill-opacity:1;stroke:#000000;stroke-width:1.02632487;stroke-linecap:round;stroke-linejoin:round;stroke-miterlimit:4;stroke-dasharray:none;stroke-dashoffset:0;stroke-opacity:1"
       d="m 312.58743,264.60606 a 1.0216694,1.9492375 0 0 1 -1.02167,1.94922 1.0216694,1.9492375 0 0 1 -1.02168,-1.94922 1.0216694,1.9492375 0 0 1 1.02168,-1.94925 1.0216694,1.9492375 0 0 1 1.02167,1.94925 z"
       id="path104515-8-1-8-7-2-8-6-2" />
    <path
       inkscape:connector-curvature="0"
       style="opacity:1;fill:#000000;fill-opacity:1;stroke:#000000;stroke-width:1.02632487;stroke-linecap:round;stroke-linejoin:round;stroke-miterlimit:4;stroke-dasharray:none;stroke-dashoffset:0;stroke-opacity:1"
       d="m 306.62576,264.70222 a 1.0216694,1.9492375 0 0 1 -1.02167,1.94922 1.0216694,1.9492375 0 0 1 -1.02168,-1.94922 1.0216694,1.9492375 0 0 1 1.02168,-1.94924 1.0216694,1.9492375 0 0 1 1.02167,1.94924 z"
       id="path104515-8-1-8-7-2-8-9-4-9" />
    <path
       inkscape:connector-curvature="0"
       style="opacity:1;fill:#000000;fill-opacity:1;stroke:#000000;stroke-width:0.8652243;stroke-linecap:round;stroke-linejoin:round;stroke-miterlimit:4;stroke-dasharray:none;stroke-dashoffset:0;stroke-opacity:1"
       d="m 330.88425,261.39468 a 1.0448706,1.3545668 0 0 1 -1.04487,1.35455 1.0448706,1.3545668 0 0 1 -1.04488,-1.35455 1.0448706,1.3545668 0 0 1 1.04488,-1.35457 1.0448706,1.3545668 0 0 1 1.04487,1.35457 z"
       id="path104515-8-1-8-7-2-8-9-4-9-3" />
    <path
       inkscape:connector-curvature="0"
       style="opacity:1;fill:#000000;fill-opacity:1;stroke:#000000;stroke-width:0.8652243;stroke-linecap:round;stroke-linejoin:round;stroke-miterlimit:4;stroke-dasharray:none;stroke-dashoffset:0;stroke-opacity:1"
       d="m 336.04971,261.30693 a 1.0448706,1.3545668 0 0 1 -1.04487,1.35455 1.0448706,1.3545668 0 0 1 -1.04488,-1.35455 1.0448706,1.3545668 0 0 1 1.04488,-1.35457 1.0448706,1.3545668 0 0 1 1.04487,1.35457 z"
       id="path104515-8-1-8-7-2-8-9-4-9-6" />
  </g>
</svg>
