<?xml version="1.0" encoding="UTF-8" standalone="no"?>
<!-- Created with Inkscape (http://www.inkscape.org/) -->

<svg
   xmlns:dc="http://purl.org/dc/elements/1.1/"
   xmlns:cc="http://creativecommons.org/ns#"
   xmlns:rdf="http://www.w3.org/1999/02/22-rdf-syntax-ns#"
   xmlns:svg="http://www.w3.org/2000/svg"
   xmlns="http://www.w3.org/2000/svg"
   xmlns:xlink="http://www.w3.org/1999/xlink"
   xmlns:sodipodi="http://sodipodi.sourceforge.net/DTD/sodipodi-0.dtd"
   xmlns:inkscape="http://www.inkscape.org/namespaces/inkscape"
   width="26.154446mm"
   height="26.154444mm"
   viewBox="0 0 92.673237 92.673225"
   id="svg201275"
   version="1.1"
   inkscape:version="0.91 r13725"
   sodipodi:docname="plateform_specialist.svg">
  <defs
     id="defs201277">
    <radialGradient
       inkscape:collect="always"
       r="7.1406002"
       gradientTransform="matrix(0.80109,-0.788,0.8095,0.82295,-223.41,888.09)"
       cx="12.585"
       cy="188.34"
       gradientUnits="userSpaceOnUse"
       xlink:href="#linearGradient3381"
       id="radialGradient4378-6-3-9-7-0-9-6-2" />
    <linearGradient
       inkscape:collect="always"
       id="linearGradient3381">
      <stop
         offset="0"
         style="stop-color:#ffffff"
         id="stop3383" />
      <stop
         offset="1"
         style="stop-color:#ffffff;stop-opacity:0"
         id="stop3385" />
    </linearGradient>
    <linearGradient
       inkscape:collect="always"
       xlink:href="#linearGradient4380-8-0-4-1-0-7-1"
       id="linearGradient266076-8"
       gradientUnits="userSpaceOnUse"
       x1="11.464"
       y1="133.00999"
       x2="11.464"
       y2="138.60001" />
    <linearGradient
       inkscape:collect="always"
       x1="11.464"
       y1="133.00999"
       x2="11.464"
       gradientUnits="userSpaceOnUse"
       y2="138.60001"
       id="linearGradient4380-8-0-4-1-0-7-1">
      <stop
         offset="0"
         style="stop-color:#00a5d4;stop-opacity:1"
         id="stop3404-3-9-9-7-8-3-7" />
      <stop
         offset="1"
         style="stop-color:#008fff;stop-opacity:1"
         id="stop3406-3-9-9-0-1-6-5" />
    </linearGradient>
  </defs>
  <sodipodi:namedview
     id="base"
     pagecolor="#ffffff"
     bordercolor="#666666"
     borderopacity="1.0"
     inkscape:pageopacity="0.0"
     inkscape:pageshadow="2"
     inkscape:zoom="3.959798"
     inkscape:cx="5.8879387"
     inkscape:cy="52.810414"
     inkscape:document-units="px"
     inkscape:current-layer="layer1"
     showgrid="false"
     fit-margin-left="0.1"
     fit-margin-top="0.1"
     fit-margin-bottom="0.1"
     fit-margin-right="0.1"
     inkscape:window-width="1880"
     inkscape:window-height="2108"
     inkscape:window-x="81"
     inkscape:window-y="24"
     inkscape:window-maximized="0" />
  <metadata
     id="metadata201280">
    <rdf:RDF>
      <cc:Work
         rdf:about="">
        <dc:format>image/svg+xml</dc:format>
        <dc:type
           rdf:resource="http://purl.org/dc/dcmitype/StillImage" />
        <dc:title></dc:title>
      </cc:Work>
    </rdf:RDF>
  </metadata>
  <g
     inkscape:label="Layer 1"
     inkscape:groupmode="layer"
     id="layer1"
     transform="translate(-258.30216,-228.08717)">
    <g
       id="g195452"
       transform="matrix(1.2641163,0,0,1.2641163,-711.97561,-346.50278)">
      <g
         transform="matrix(0.68772125,0,0,0.68772125,497.28632,48.225637)"
         id="g103757-5-0-5-6"
         style="fill:#f4f6f8;stroke:#000000;stroke-linecap:round;stroke-linejoin:round;stroke-opacity:1">
        <path
           inkscape:connector-curvature="0"
           id="path6698-1-4-2-0-9-9-7-0-4-5-2-4-2-6"
           d="m 425.01098,620.8852 a 14.412521,16.988081 1.8770228 0 0 -15.47696,14.7024 l -0.0858,-0.76194 c 0,0 -0.57842,-3.31938 -1.13542,-2.69204 -0.55695,0.62738 -0.76696,6.35698 0.022,6.7644 0.3952,0.20402 0.78287,0.15272 1.07176,0.0506 a 14.412521,16.988081 1.8770228 0 0 13.1528,15.81371 14.412521,16.988081 1.8770228 0 0 14.83502,-11.55588 c 0.23851,-0.0166 0.62985,-0.0377 1.1646,-0.019 0.75774,0.0267 1.6078,-4.72016 1.5859,-5.9175 -0.0219,-1.19733 -1.33834,0.99825 -1.33834,0.99825 l -0.90024,2.68625 a 14.412521,16.988081 1.8770228 0 0 0.24214,-1.86974 14.412521,16.988081 1.8770228 0 0 -13.13764,-18.19989 z"
           style="opacity:1;fill:#ffffff;fill-opacity:1;stroke:#000000;stroke-width:1;stroke-linecap:round;stroke-linejoin:round;stroke-miterlimit:4;stroke-dasharray:none;stroke-dashoffset:0;stroke-opacity:1" />
        <path
           inkscape:connector-curvature="0"
           id="path103600-8-1-3-9-6-8-44-4"
           d="m 411.82017,647.01574 c 0,0 0.20597,2.35812 -1.59612,2.35812 -1.80208,0 -3.75862,-0.72187 -4.06755,-1.29936 -0.30893,-0.5775 -0.25744,-2.30999 -1.02977,-2.30999 -0.77232,0 -0.66934,0.24062 -0.66934,0.86624 0,0.62562 1.02976,2.88749 0.51488,2.59874 -0.51488,-0.28875 -1.18423,-0.67375 -1.95654,-1.68436 -0.77233,-1.01063 -1.95655,-2.21375 -2.21399,-3.94624 -0.25744,-1.7325 0.61786,-5.8231 0.61786,-6.15998 0,-0.33687 -1.3387,-1.63624 -0.97828,-2.30999 0.36042,-0.67374 1.02977,-2.55061 1.59613,-3.07999 0.56637,-0.52937 0.10297,-2.98374 1.39017,-3.41686 1.28721,-0.43312 2.05953,0.0481 2.16251,-1.15499 0.10297,-1.20312 0.56637,-1.58812 1.2357,-2.45436 0.66935,-0.86625 3.55268,-1.68437 3.65566,-2.30999 0.10297,-0.62563 -0.0515,-1.7325 1.33868,-2.1175 1.39019,-0.385 2.31698,-1.15499 2.36847,-2.02124 0.0515,-0.86625 3.29523,-3.12811 5.09731,-3.41686 1.80209,-0.28875 3.24375,0.81812 6.0756,0.81812 2.83184,0 7.51725,2.1175 7.98064,2.93562 0.4634,0.81811 2.88334,3.80186 3.75863,3.94623 0.87529,0.14438 1.13275,2.59874 1.64762,2.93561 0.51488,0.33687 0.30893,2.74311 1.2872,3.80185 0.97828,1.05876 3.60416,1.78063 3.4497,3.99438 -0.15445,2.21373 -1.44166,4.81247 -1.64761,5.34184 -0.20595,0.52938 0.51487,3.99436 0.41189,4.66811 -0.10297,0.67374 -0.30892,2.79124 -1.02975,2.88748 -0.72083,0.0963 0.97827,1.01063 0.82381,1.82875 -0.15447,0.81812 -0.0515,3.41686 -0.8753,3.56123 -0.82381,0.14438 -1.7506,0.72187 -2.41994,0.28875 -0.66935,-0.43312 -1.69911,-2.40623 -2.6259,-3.56123 l -0.72082,-1.155 c 0,0 1.13273,-3.07999 1.23571,-3.80185 0.10297,-0.72188 -0.51489,-4.76437 -0.51489,-5.67873 0,-0.91437 0.41191,-4.33124 0.15448,-4.47561 -0.25744,-0.14438 -0.92679,-1.82873 -0.92679,-1.82873 l 0.15445,-2.98375 c 0,0 -2.67736,-1.3475 -4.01606,-1.58812 -1.33869,-0.24062 -2.72887,-1.7325 -4.01608,-1.92499 -1.2872,-0.1925 -4.37648,-0.0481 -6.436,-0.0481 -2.05952,0 -3.81012,1.53998 -4.99434,1.68436 -1.18422,0.14438 -0.51488,2.1175 -0.4119,3.89811 0.10297,1.78062 -0.56637,3.03186 -0.82381,3.84999 -0.25744,0.81812 -3.50119,4.47561 -3.9131,5.10122 -0.4119,0.62563 0.10298,1.7325 0.10298,1.7325 0,0 -0.92677,-0.385 -1.18422,0.33688 -0.25745,0.72187 0.56636,1.87686 0.51487,2.40623 -0.0514,0.52938 1.54464,0.62562 1.59614,1.10687 0.0514,0.48124 -0.10299,1.78061 -0.10299,1.78061 z"
           style="fill:#ffffff;fill-opacity:1;fill-rule:evenodd;stroke:#000000;stroke-width:1;stroke-linecap:butt;stroke-linejoin:miter;stroke-miterlimit:4;stroke-dasharray:none;stroke-opacity:1" />
      </g>
      <g
         id="g103175-4-1-3-3-9"
         transform="matrix(1.0805159,0,0,0.92081125,443.74365,317.44048)"
         style="fill:#f4f6f8;stroke:#000000;stroke-linecap:round;stroke-linejoin:round;stroke-opacity:1">
        <path
           sodipodi:nodetypes="cccc"
           inkscape:connector-curvature="0"
           id="path87305-9-9-5-9-38-7-5-8-5"
           d="m 314.62291,197.30041 -5.97579,20.61566 c 7.03396,4.99045 14.32902,5.68959 22.01281,0 l -7.25629,-20.61566"
           style="fill:none;fill-rule:evenodd;stroke:#000000;stroke-width:0.75746042;stroke-linecap:butt;stroke-linejoin:miter;stroke-miterlimit:4;stroke-dasharray:none;stroke-opacity:1" />
        <g
           transform="matrix(0.75746044,0,0,0.75746044,454.23683,293.71508)"
           style="fill:#f4f6f8;stroke:#000000;stroke-linecap:round;stroke-linejoin:round;stroke-opacity:1"
           id="g4-4-2-5-2-5-8-2-6-0">
          <path
             style="fill:#f4f6f8;stroke:#000000;stroke-linecap:round;stroke-linejoin:round;stroke-opacity:1"
             d="m -183.91156,-130.85738 c 1,1 2,2 5,3 -2,1 -2,3 -2,4 -2,-1 -4,-4 -4,-6 z"
             inkscape:connector-curvature="0"
             id="path14-7-7-0-4-3-5-8-4-0-4" />
          <path
             style="fill:#f4f6f8;stroke:#000000;stroke-linecap:round;stroke-linejoin:round;stroke-opacity:1"
             d="m -171.91156,-130.85738 c -1,1 -2,2 -5,3 2,1 2,3 2,4 2,-1 4,-4 4,-6 z"
             inkscape:connector-curvature="0"
             id="path16-9-8-6-63-5-2-6-7-8-8" />
        </g>
        <path
           sodipodi:nodetypes="cc"
           inkscape:connector-curvature="0"
           id="path87307-4-8-1-4-8-7-4-9-7"
           d="m 319.59506,197.20795 3.22768,23.82999"
           style="fill:none;fill-rule:evenodd;stroke:#000000;stroke-width:0.75746042;stroke-linecap:butt;stroke-linejoin:miter;stroke-miterlimit:4;stroke-dasharray:none;stroke-opacity:1" />
        <g
           transform="matrix(0.7162193,-0.28668323,0.22489439,0.71105715,-74.972883,-228.13735)"
           id="g87503-5-9-2-8-3-7-7-2-1">
          <path
             id="path87311-3-2-0-26-06-1-1-4-5-2-7"
             d="m 318.64509,738.58374 a 0.91145116,0.91145116 0 0 1 -0.91145,0.91145 0.91145116,0.91145116 0 0 1 -0.91145,-0.91145 0.91145116,0.91145116 0 0 1 0.91145,-0.91145 0.91145116,0.91145116 0 0 1 0.91145,0.91145 z"
             style="opacity:1;fill:#000000;fill-opacity:1;stroke:#000000;stroke-width:0.17031255;stroke-linecap:round;stroke-linejoin:round;stroke-miterlimit:4;stroke-dasharray:none;stroke-dashoffset:0;stroke-opacity:0.97647059"
             inkscape:connector-curvature="0" />
          <path
             id="path87311-3-6-0-3-6-5-0-8-9-6-3-2"
             d="m 317.84837,741.41553 a 0.91145116,0.91145116 0 0 1 -0.91145,0.91145 0.91145116,0.91145116 0 0 1 -0.91145,-0.91145 0.91145116,0.91145116 0 0 1 0.91145,-0.91145 0.91145116,0.91145116 0 0 1 0.91145,0.91145 z"
             style="opacity:1;fill:#000000;fill-opacity:1;stroke:#000000;stroke-width:0.17031255;stroke-linecap:round;stroke-linejoin:round;stroke-miterlimit:4;stroke-dasharray:none;stroke-dashoffset:0;stroke-opacity:0.97647059"
             inkscape:connector-curvature="0" />
          <path
             id="path87311-3-0-2-6-49-1-7-2-0-5-1-7"
             d="m 317.05049,744.31445 a 0.91145116,0.91145116 0 0 1 -0.91145,0.91145 0.91145116,0.91145116 0 0 1 -0.91145,-0.91145 0.91145116,0.91145116 0 0 1 0.91145,-0.91145 0.91145116,0.91145116 0 0 1 0.91145,0.91145 z"
             style="opacity:1;fill:#000000;fill-opacity:1;stroke:#000000;stroke-width:0.17031255;stroke-linecap:round;stroke-linejoin:round;stroke-miterlimit:4;stroke-dasharray:none;stroke-dashoffset:0;stroke-opacity:0.97647059"
             inkscape:connector-curvature="0" />
        </g>
      </g>
      <path
         id="path6748-69-6-7-2-7-6-2-6-48-6-5-2-6-0-7-1-8-8-2"
         d="m 789.81168,485.14656 a 0.7834869,1.1033862 89.776464 0 1 -1.09766,0.78965 0.7834869,1.1033862 89.776464 0 1 -1.10906,-0.77729 0.7834869,1.1033862 89.776464 0 1 1.09766,-0.78965 0.7834869,1.1033862 89.776464 0 1 1.10906,0.77729 z"
         style="opacity:1;fill:#000000;fill-opacity:1;stroke:#000000;stroke-width:0.15042533;stroke-linecap:round;stroke-linejoin:round;stroke-miterlimit:4;stroke-dasharray:none;stroke-dashoffset:0;stroke-opacity:1"
         inkscape:connector-curvature="0" />
      <path
         id="path6748-69-6-7-2-7-6-2-6-48-6-5-2-6-0-7-0-0-7-3-2"
         d="m 794.91781,485.17693 a 0.7834869,1.1033862 89.776464 0 1 -1.09768,0.78965 0.7834869,1.1033862 89.776464 0 1 -1.10906,-0.77729 0.7834869,1.1033862 89.776464 0 1 1.09767,-0.78965 0.7834869,1.1033862 89.776464 0 1 1.10907,0.77729 z"
         style="opacity:1;fill:#000000;fill-opacity:1;stroke:#000000;stroke-width:0.15042533;stroke-linecap:round;stroke-linejoin:round;stroke-miterlimit:4;stroke-dasharray:none;stroke-dashoffset:0;stroke-opacity:1"
         inkscape:connector-curvature="0" />
      <path
         sodipodi:nodetypes="cccc"
         inkscape:connector-curvature="0"
         id="rect103254-9-2-6"
         d="m 812.93682,519.10743 0,-20.68618 21.81194,0 0,20.68618"
         style="opacity:1;fill:#f9f9f9;fill-opacity:1;stroke:#000000;stroke-width:0.63335633;stroke-linecap:round;stroke-linejoin:round;stroke-miterlimit:4;stroke-dasharray:none;stroke-dashoffset:0;stroke-opacity:1" />
      <path
         id="rect11683-2-8-6-9-6-7-0-8-2-1"
         d="m 815.8539,477.75673 -0.0593,0.0329 c -1.63167,0.90589 -2.25515,2.96977 -1.39795,4.62753 l 1.91485,3.70316 c 0.8572,1.65776 2.86087,2.26306 4.49253,1.35717 l 0.0593,-0.0329 c 1.63167,-0.90589 2.25516,-2.96977 1.39796,-4.62753 l -1.91485,-3.70317 c -0.8572,-1.65776 -2.86087,-2.26306 -4.49254,-1.35716 z"
         style="font-weight:bold;font-family:Raleway;letter-spacing:0px;word-spacing:0px;fill:#ffffff;fill-opacity:1;stroke:#1d2145;stroke-width:0.46305788;stroke-miterlimit:4;stroke-dasharray:none;stroke-opacity:1"
         inkscape:connector-curvature="0" />
      <g
         style="font-weight:bold;font-family:Raleway;letter-spacing:0px;word-spacing:0px;fill:#9aa8de;fill-opacity:1;stroke:#1d2145;stroke-width:1.76259995;stroke-miterlimit:4;stroke-dasharray:none;stroke-opacity:1"
         id="g83219-4-0"
         transform="matrix(-0.26271089,0,0,0.26271089,889.62608,424.40682)">
        <path
           style="stroke-linejoin:round"
           inkscape:connector-curvature="0"
           id="rect11815-2-0-3-5-2-6-3-5-6"
           d="m 235.26,250.93 -0.42239,29.324 0.0642,-0.0496 c 1.4699,2.35 9.7622,1.50381 18.661,1.50441 8.8928,-0.003 17.226,0.89379 18.695,-1.45461 l 0.031,0 -0.21126,-29.395 z"
           sodipodi:nodetypes="cccccccc" />
        <path
           id="path11813-6-6-8-3-0-1-1-1-1"
           d="m 271.889,251.08 a 18.219,4.8782001 0 0 1 -18.219,4.8782 18.219,4.8782001 0 0 1 -18.219,-4.8782 18.219,4.8782001 0 0 1 18.219,-4.8782 18.219,4.8782001 0 0 1 18.219,4.8782 z"
           inkscape:connector-curvature="0" />
      </g>
      <g
         style="font-weight:bold;font-family:Raleway;letter-spacing:0px;word-spacing:0px;fill:#ffffff;fill-opacity:1;stroke:#1d2145;stroke-width:0.04087463;stroke-miterlimit:4;stroke-dasharray:none;stroke-opacity:1"
         id="g83226-7-5"
         transform="matrix(-0.26271089,0,0,0.26271089,889.62608,424.40682)">
        <path
           id="rect11683-5-4-6-1-5-5-2-0-1-5-9"
           d="m 333.21301,81.192001 0.258,0 c 7.10395,0 12.823,5.719058 12.823,12.823 l 0,15.868999 c 0,7.10394 -5.71905,12.823 -12.823,12.823 l -0.258,0 c -7.10394,0 -12.823,-5.71906 -12.823,-12.823 l 0,-15.868999 c 0,-7.103942 5.71906,-12.823 12.823,-12.823 z"
           style="stroke-width:1.76300001"
           transform="matrix(0.90533,0.42472,-0.39774,0.9175,0,0)"
           inkscape:connector-curvature="0" />
        <path
           id="rect11683-4-3-4-5-6-6-3-6-0-7-4"
           d="m 196.1855,224.45 c 6.82278,0 12.3155,7.38397 12.3155,16.556 l 0,20.492 c 0,9.17202 -5.49272,16.556 -12.3155,16.556 -6.82279,0 -12.3155,-7.38398 -12.3155,-16.556 l 0,-20.492 c 0,-9.17203 5.49271,-16.556 12.3155,-16.556 z"
           style="stroke-width:1.77119994"
           transform="matrix(0.91838,-0.3957,0.26461,0.96436,0,0)"
           inkscape:connector-curvature="0" />
        <path
           id="rect11683-5-4-7-9-9-1-2-7-3-3-1-9"
           d="m 145.9355,260.60001 c 8.24657,0 14.8855,6.80016 14.8855,15.247 l 0,18.872 c 0,8.44684 -6.63893,15.247 -14.8855,15.247 -8.24656,0 -14.8855,-6.80016 -14.8855,-15.247 l 0,-18.872 c 0,-8.44684 6.63894,-15.247 14.8855,-15.247 z"
           style="stroke-width:1.76269996"
           transform="matrix(0.90502,-0.42538,0.41576,0.90947,0,0)"
           inkscape:connector-curvature="0" />
        <path
           id="rect11683-5-5-4-1-9-5-2-4-6-0"
           d="m 290.83301,-211.58 0.258,0 c 7.10394,0 12.823,5.71906 12.823,12.823 l 0,15.869 c 0,7.10394 -5.71906,12.823 -12.823,12.823 l -0.258,0 c -7.10394,0 -12.823,-5.71906 -12.823,-12.823 l 0,-15.869 c 0,-7.10394 5.71906,-12.823 12.823,-12.823 z"
           style="stroke-width:1.76300001"
           transform="matrix(0.28622,0.95816,-0.94927,0.31445,0,0)"
           inkscape:connector-curvature="0" />
        <path
           id="rect11683-0-9-5-1-9-0-0-9-9"
           d="m 327.17301,58.688999 0.258,0 c 7.10394,0 12.823,5.719058 12.823,12.823 l 0,15.869 c 0,7.103942 -5.71906,12.823001 -12.823,12.823001 l -0.258,0 c -7.10395,0 -12.823,-5.719059 -12.823,-12.823001 l 0,-15.869 c 0,-7.103942 5.71905,-12.823 12.823,-12.823 z"
           style="stroke-width:1.76300001"
           transform="matrix(0.87429,0.4854,-0.45931,0.88827,0,0)"
           inkscape:connector-curvature="0" />
      </g>
      <g
         id="g4586-3-8-1"
         transform="matrix(-0.66003485,-0.04397255,-0.04397255,0.66003485,1231.3868,471.54504)"
         style="font-weight:bold;font-family:Raleway;letter-spacing:0px;word-spacing:0px;fill:#020103;fill-opacity:1;stroke:#1d2145;stroke-width:0.04087463;stroke-miterlimit:4;stroke-dasharray:none;stroke-opacity:1">
        <path
           style="fill:#ffffff;stroke-width:0.69999999;stroke-linejoin:round"
           inkscape:connector-curvature="0"
           id="rect11683-5-4-7-0-4-0-9-2-6-1-2-6-9-1-7"
           d="m 605.49,26.997 -0.0287,-0.40398 c -0.0349,0.10869 -0.0819,0.21005 -0.10742,0.32422 l -0.25586,1.1426 c -0.45128,2.0199 4.8138,1.5621 6.7685,2.2424 l 19.046,6.629 c 1.9547,0.68032 3.9686,1.3887 4.4199,-0.63114 l 0.25391,-1.1426 c 0.23479,-1.0509 0.003,-2.1083 -0.54687,-2.9629 -0.0937,-0.127 -0.0557,-0.0754 -0.0937,-0.127 -0.50803,-0.72444 -1.2443,-1.2926 -2.1484,-1.5391 l -21.567,-6.1207 c -1.7471,-0.51431 -6.0634,1.1125 -7.9057,2.0146 z" />
        <path
           style="fill:#ffffff;stroke-width:0.57331997;stroke-linejoin:round"
           inkscape:connector-curvature="0"
           id="rect11683-5-4-7-0-4-0-9-2-6-2-1-1-3-7"
           d="m 602.27,27.505 0.0729,-0.16383 c 0.67435,-1.5148 2.4987,-1.8603 4.0904,-1.3958 l 23.951,6.9904 c 1.5917,0.46457 2.3303,1.5581 1.6559,3.0729 l -0.0729,0.16383 c -0.67436,1.5148 1.5019,3.4832 -3.9654,1.8958 l -24.08,-6.99 c -1.5922,-0.46266 -2.3303,-2.0581 -1.6559,-3.5729 z" />
        <g
           style="fill:#9aa8de;stroke-width:0.69999999"
           id="g83233-3-1">
          <path
             style="stroke-linejoin:round"
             inkscape:connector-curvature="0"
             id="path11796-7-7-1-4-0-9-5-9-3-1"
             d="m 634.16,31.899 c -0.76812,0.14998 -1.8189,0.97262 -2.4891,2.4298 -0.76048,1.6537 -0.7663,3.2751 -0.013,3.6217 0.0483,0.021 0.0991,0.0364 0.1522,0.0462 l 1.9174,0.97039 2.7723,-5.8733 -1.8288,-0.92629 c -0.0743,-0.0909 -0.16116,-0.15995 -0.25904,-0.20583 -0.0824,-0.0444 -0.17914,-0.0445 -0.25207,-0.0627 z" />
          <path
             id="path11796-1-7-8-9-7-4-6-7-5"
             d="m 593.30139,-232.64999 a 1.5014,3.2958 0 0 1 -1.5014,3.2958 1.5014,3.2958 0 0 1 -1.5014,-3.2958 1.5014,3.2958 0 0 1 1.5014,-3.2958 1.5014,3.2958 0 0 1 1.5014,3.2958 z"
             transform="matrix(0.90853735,0.41780365,-0.41780365,0.90853735,0,0)"
             inkscape:connector-curvature="0" />
          <path
             style="fill-rule:evenodd"
             inkscape:connector-curvature="0"
             id="path11966-0-2-5-1-3-3-7-9-9-9"
             d="m 643.2,34.773 1.0196,2.0977 4.047,0.86854 -0.18871,0.52317 -4.374,-0.98648 -0.50376,-1.398 z" />
        </g>
        <g
           style="fill:#9aa8de;fill-rule:evenodd;stroke-width:0.82072002;stroke-linejoin:round"
           id="g12144-0-6-6-6-3-8-7"
           transform="matrix(0.85067,-0.057433,-0.061876,0.85934,194.37,-94.718)">
          <path
             inkscape:connector-curvature="0"
             id="path11819-8-1-7-7-3-0-1-5-3-6-7"
             d="m 535.19,186.55 -3.664,2.243 -4.3447,0.81774 c -0.14161,0.53979 0.26961,1.6304 0.31395,1.7889 l 6.4991,2.5289 7.6645,-5.2796 -0.0321,-0.0103 0.0843,-0.0164 -0.13838,-1.7198 -3.3522,0.63092 -3.0305,-0.98335 z" />
          <path
             inkscape:connector-curvature="0"
             id="path11819-8-1-2-2-1-0-6-2-6-8-7-6"
             d="m 533.84,192.23 -6.6379,-2.5832 7.834,-4.7956 6.4685,2.0989 z" />
        </g>
        <path
           style="fill:#9aa8de;fill-rule:evenodd;stroke-width:0.69999999"
           inkscape:connector-curvature="0"
           id="path11966-7-1-4-2-9-9-0-0-7"
           d="m 636.22,39.515 0.51721,2.3888 4.0246,1.2852 -0.23794,0.50267 -4.2594,-1.4008 -0.19918,-1.4305 z" />
      </g>
      <path
         id="rect11683-4-8-9-8-7-8-5-5-4-3"
         d="m 831.24983,461.87794 c -1.71864,-0.77708 -3.63815,0.64695 -4.30386,3.19289 l -1.48726,5.68796 c -0.6657,2.54594 0.18197,5.22113 1.90061,5.99821 1.71865,0.77708 3.63816,-0.64695 4.30387,-3.19289 l 1.48726,-5.68796 c 0.6657,-2.54594 -0.18197,-5.22114 -1.90062,-5.99821 z"
         style="font-weight:bold;font-family:Raleway;letter-spacing:0px;word-spacing:0px;fill:#ffffff;fill-opacity:1;stroke:#1d2145;stroke-width:0.46306098;stroke-miterlimit:4;stroke-dasharray:none;stroke-opacity:1"
         inkscape:connector-curvature="0" />
      <path
         id="path5273-9-8-7-3-3-0-8-3-4-7-3-6-7-8-6"
         d="m 807.31767,467.7969 a 1.4752402,1.5343887 29.456443 0 1 -2.03909,0.61057 1.4752402,1.5343887 29.456443 0 1 -0.52999,-2.06151 1.4752402,1.5343887 29.456443 0 1 2.03909,-0.61057 1.4752402,1.5343887 29.456443 0 1 0.52999,2.06151 z"
         style="opacity:1;fill:#ffffff;fill-opacity:1;stroke:#000000;stroke-width:0.3942588;stroke-linecap:round;stroke-linejoin:round;stroke-miterlimit:4;stroke-dasharray:none;stroke-dashoffset:0;stroke-opacity:1"
         inkscape:connector-curvature="0" />
      <path
         id="path5273-9-8-7-3-3-0-8-0-0-43-6-4-9-5-8-5"
         d="m 810.74963,470.27792 a 1.4782406,1.5531189 29.456443 0 1 -2.05091,0.62541 1.4782406,1.5531189 29.456443 0 1 -0.52339,-2.0793 1.4782406,1.5531189 29.456443 0 1 2.05092,-0.6254 1.4782406,1.5531189 29.456443 0 1 0.52338,2.07929 z"
         style="opacity:1;fill:#ffffff;fill-opacity:1;stroke:#000000;stroke-width:0.3942588;stroke-linecap:round;stroke-linejoin:round;stroke-miterlimit:4;stroke-dasharray:none;stroke-dashoffset:0;stroke-opacity:1"
         inkscape:connector-curvature="0" />
      <g
         transform="matrix(-0.68772125,0,0,0.68772125,1210.8594,269.88532)"
         id="g105292-96-6">
        <path
           d="m 592.99708,315.96845 c 1.34709,2.62425 -0.9948,4.70063 -3.809,4.91847 -2.31524,0.17923 -3.05819,-0.31205 -3.75923,-2.39831 -0.36515,-1.80156 -0.71873,-3.6198 0.48381,-4.00822 1.56655,-0.50571 2.33842,-1.11958 3.6152,-1.36092 1.21429,-0.22928 3.11514,1.45471 3.46922,2.84898 z"
           style="fill:#ffffff;fill-opacity:1;stroke:#000000;stroke-width:0.70515829;stroke-linecap:round;stroke-miterlimit:4;stroke-dasharray:none"
           sodipodi:nodetypes="cscssc"
           id="path4559-4-2-7-0-3"
           inkscape:connector-curvature="0" />
        <g
           id="g96032-7-5-6-9"
           transform="matrix(0.33796884,-0.13931259,0.13931259,0.33796884,352.67307,1066.3371)">
          <path
             sodipodi:nodetypes="csscccccssscc"
             id="path3617-3-9-4-7-4-9-9-4-4"
             d="m 1372.3952,-1685.7701 c -0.5675,0 -1.0385,0.4498 -1.0385,1.0174 l 0,3.0096 c 0,0.4327 0.2793,0.782 0.657,0.9326 0,22.7417 -0.02,21.271 0,44.01 0.062,4.3928 4.8871,7.7467 9.0286,6.2948 3.299,-0.9368 5.2793,-4.4427 4.896,-7.7576 l 0,-42.5287 c 0.391,-0.1441 0.6782,-0.5116 0.6782,-0.9537 l 0,-3.0097 c 0,-0.5675 -0.4498,-1.0173 -1.0173,-1.0173 l -13.2044,0 z"
             style="color:#000000;fill:#ffffff;fill-opacity:0.85091744;stroke:none;stroke-width:2.01775551;stroke-miterlimit:4;stroke-dasharray:none;stroke-opacity:1"
             inkscape:connector-curvature="0" />
          <g
             transform="matrix(0.67822883,0,0,0.67822883,1420.1131,-2331.2336)"
             id="g3773-0-2-1-8-3-6-9-8">
            <path
               inkscape:connector-curvature="0"
               style="color:#000000;fill:#00a4ff;fill-opacity:1"
               sodipodi:nodetypes="cccccc"
               d="m -71.073,982.8 c 0.0063,33.52 -0.03003,9.0423 0,42.562 0.09069,6.4769 7.2057,11.422 13.312,9.2813 4.8642,-1.3812 7.784,-6.5504 7.2188,-11.438 l 0,-40.406 z"
               id="rect3359-3-5-9-5-2-2-9-1" />
            <path
               inkscape:connector-curvature="0"
               style="color:#000000;opacity:0.25;fill:url(#radialGradient4378-6-3-9-7-0-9-6-2)"
               d="m -53.948,1026.7 c -1.8243,1.1236 -4.2155,1.8125 -6.8438,1.8125 -2.6282,0 -5.0194,-0.6577 -6.8438,-1.7813 -0.19035,0.4476 -0.28125,0.9158 -0.28125,1.4063 0,2.744 3.1804,4.9687 7.125,4.9687 3.9446,0 7.1562,-2.2247 7.1562,-4.9687 0,-0.5043 -0.11177,-0.979 -0.3125,-1.4375 z"
               id="path3376-3-3-6-2-8-8-0-2" />
            <path
               id="path3396-7-7-3-8-7-8-8-9"
               d="M 22.859863,135.52966 A 10.221329,1.2776661 0 0 1 12.638535,136.80733 10.221329,1.2776661 0 0 1 2.4172058,135.52966 10.221329,1.2776661 0 0 1 12.638535,134.252 10.221329,1.2776661 0 0 1 22.859863,135.52966 Z"
               style="color:#000000;fill:url(#linearGradient266076-8);stroke:#000000;stroke-opacity:1"
               transform="translate(-73.448,847.35)"
               inkscape:connector-curvature="0" />
            <path
               inkscape:connector-curvature="0"
               style="color:#000000;fill:#4686b9;fill-opacity:1;stroke:#000000;stroke-opacity:1"
               d="m -57.486,979.95 c -0.9917,0 -1.8125,0.78955 -1.8125,1.7812 0,0.42125 0.16336,0.81873 0.40625,1.125 l 2.7812,0 c 0.24289,-0.30627 0.40625,-0.70375 0.40625,-1.125 0,-0.9917 -0.78955,-1.7812 -1.7812,-1.7812 z"
               id="path3389-3-6-6-3-5-7-9-3" />
            <path
               id="path3408-2-8-8-6-6-5-31-9"
               d="m 18.301702,130.03915 a 1.7956388,1.7956388 0 0 1 -1.795639,1.79564 1.7956388,1.7956388 0 0 1 -1.795638,-1.79564 1.7956388,1.7956388 0 0 1 1.795638,-1.79563 1.7956388,1.7956388 0 0 1 1.795639,1.79563 z"
               style="color:#000000;fill:#4686b9;fill-opacity:1;stroke:#000000;stroke-opacity:1"
               transform="matrix(1.2308,0,0,1.2308,-82.437,816.72)"
               inkscape:connector-curvature="0" />
            <path
               id="path3410-6-1-4-7-0-7-4-0"
               d="m 18.301702,130.03915 a 1.7956388,1.7956388 0 0 1 -1.795639,1.79564 1.7956388,1.7956388 0 0 1 -1.795638,-1.79564 1.7956388,1.7956388 0 0 1 1.795638,-1.79563 1.7956388,1.7956388 0 0 1 1.795639,1.79563 z"
               style="color:#000000;fill:#4686b9;fill-opacity:1;stroke:#000000;stroke-opacity:1"
               transform="matrix(0.88462,0,0,0.88462,-71.819,857.66)"
               inkscape:connector-curvature="0" />
            <path
               id="path3412-5-3-6-8-4-0-8-8"
               d="m 18.301702,130.03915 a 1.7956388,1.7956388 0 0 1 -1.795639,1.79564 1.7956388,1.7956388 0 0 1 -1.795638,-1.79564 1.7956388,1.7956388 0 0 1 1.795638,-1.79563 1.7956388,1.7956388 0 0 1 1.795639,1.79563 z"
               style="color:#000000;fill:#4686b9;fill-opacity:1;stroke:#000000;stroke-opacity:1"
               transform="matrix(0.69231,0,0,0.69231,-72.167,878.38)"
               inkscape:connector-curvature="0" />
            <path
               id="path3414-2-6-6-7-6-2-9-8"
               d="m 18.301702,130.03915 a 1.7956388,1.7956388 0 0 1 -1.795639,1.79564 1.7956388,1.7956388 0 0 1 -1.795638,-1.79564 1.7956388,1.7956388 0 0 1 1.795638,-1.79563 1.7956388,1.7956388 0 0 1 1.795639,1.79563 z"
               style="color:#000000;fill:#4686b9;fill-opacity:1;stroke:#000000;stroke-opacity:1"
               transform="translate(-83.048,849.28)"
               inkscape:connector-curvature="0" />
            <path
               id="path3416-6-4-7-2-9-2-6-5"
               d="m 18.301702,130.03915 a 1.7956388,1.7956388 0 0 1 -1.795639,1.79564 1.7956388,1.7956388 0 0 1 -1.795638,-1.79564 1.7956388,1.7956388 0 0 1 1.795638,-1.79563 1.7956388,1.7956388 0 0 1 1.795639,1.79563 z"
               style="color:#000000;fill:#4686b9;fill-opacity:1;stroke:#000000;stroke-opacity:1"
               transform="matrix(0.69231,0,0,0.69231,-67.333,875.83)"
               inkscape:connector-curvature="0" />
            <path
               id="rect3374-5-0-2-6-6-9-7-0"
               d="m -67.857853,989.04114 c 0.688149,0 1.242146,0.76177 1.242146,1.708 l 0,32.70276 c 0,0.9462 -0.553997,1.708 -1.242146,1.708 -0.688149,0 -1.242145,-0.7618 -1.242145,-1.708 l 0,-32.70276 c 0,-0.94623 0.553996,-1.708 1.242145,-1.708 z"
               style="color:#000000;opacity:0.2;fill:#ffffff"
               inkscape:connector-curvature="0" />
            <path
               inkscape:connector-curvature="0"
               style="color:#000000;fill:none;stroke:#000000;stroke-width:2.97503638;stroke-miterlimit:4;stroke-dasharray:none;stroke-opacity:1"
               d="m -70.51,950.92915 c -0.83676,0 -1.5312,0.66323 -1.5312,1.5 l 0,4.4375 c 0,0.63803 0.41176,1.153 0.96875,1.375 0.0063,33.531 -0.03004,33.59385 0,67.12085 0.09069,6.4769 7.2057,11.422 13.312,9.2813 4.8642,-1.3812 7.784,-6.5504 7.2188,-11.438 l 0,-64.93685 c 0.57644,-0.21243 1,-0.75428 1,-1.4062 l 0,-4.4375 c 0,-0.83677 -0.66324,-1.5 -1.5,-1.5 l -19.469,0 z"
               id="rect3327-3-3-7-6-8-1-73-9"
               sodipodi:nodetypes="csscccccssscc" />
          </g>
        </g>
        <g
           style="fill:#ffffff;fill-opacity:1;stroke-width:10.1742382;stroke-miterlimit:4;stroke-dasharray:none"
           id="g4561-0-98-9-7-6"
           transform="matrix(-0.02068288,-0.06154472,0.07047014,-0.02255797,551.32461,337.82908)">
          <path
             inkscape:connector-curvature="0"
             id="path4563-9-8-1-1-3"
             sodipodi:nodetypes="ccscscscscccc"
             style="fill:#ffffff;fill-opacity:1;stroke:#000000;stroke-width:10.1742382;stroke-linecap:round;stroke-miterlimit:4;stroke-dasharray:none"
             d="m 89.487,526.47 c -29.223,10.42 -22.518,25.34 -19.536,40.48 3.133,15.83 12.461,17.85 20.892,16.47 6.284,-1.02 6.769,-2.78 7.095,-13.36 2.862,6.64 7.072,10.91 11.942,10.91 5.25,0 9.73,-4.95 12.28,-12.5 2.03,7.22 5.88,12.25 10.78,12.97 5.6,0.82 11.15,-4.18 14.78,-12.32 1.09,9.99 5.27,17.51 11.25,18.6 8.4,1.53 17.12,-10.19 19.47,-26.16 7.06,-15.21 11.38,-43.96 -24.91,-39.65 -6.6,-5.5 -21.08,-4.23 -29.9,-1 -16.71,-3.49 -25.872,0.62 -34.143,5.56 z" />
          <path
             inkscape:connector-curvature="0"
             id="path4567-7-8-3-2-8"
             sodipodi:nodetypes="cc"
             style="fill:#ffffff;fill-opacity:1;stroke:#000000;stroke-width:10.1742382;stroke-miterlimit:4;stroke-dasharray:none"
             d="m 90,526.65 7.552,43.66" />
          <path
             inkscape:connector-curvature="0"
             id="path4569-7-2-9-2-5"
             sodipodi:nodetypes="cc"
             style="fill:#ffffff;fill-opacity:1;stroke:#000000;stroke-width:10.1742382;stroke-miterlimit:4;stroke-dasharray:none"
             d="m 122.86,520.93 -0.38,47.12" />
          <path
             inkscape:connector-curvature="0"
             id="path4571-1-0-6-1-6"
             sodipodi:nodetypes="cc"
             style="fill:#ffffff;fill-opacity:1;stroke:#000000;stroke-width:10.1742382;stroke-miterlimit:4;stroke-dasharray:none"
             d="m 154.29,522.36 -7.08,51.2" />
        </g>
        <path
           inkscape:connector-curvature="0"
           id="path4577-9-2-9-5-1"
           sodipodi:nodetypes="csscscsscscc"
           style="fill:#ffffff;fill-opacity:1;stroke:#000000;stroke-width:0.70515829;stroke-linecap:round;stroke-miterlimit:4;stroke-dasharray:none"
           d="m 592.86453,315.61838 c -0.46407,-1.80104 -2.15966,-2.48479 -2.39619,-2.58493 -0.57705,-0.24452 -1.82247,-0.33787 -2.67613,0.50268 -1.24647,1.22737 -1.17759,1.7407 -0.90485,2.03219 0.0105,0.0705 0.031,0.1404 0.0631,0.20982 0.30158,0.64709 0.27963,1.21415 0.38086,1.50343 0.0461,0.1314 0.11752,0.20538 0.25632,0.20351 0.55018,-0.008 1.15691,-0.78546 1.35581,-1.7356 0.0596,-0.28545 0.0138,-0.24058 -0.008,-0.47656 0.12988,-0.11349 0.5463,-0.55754 0.54532,-0.55339 -1.8e-4,7.6e-4 -0.0254,0.0497 -0.058,0.0854 0.44449,0.6524 0.97575,0.86375 1.7296,0.647" />
      </g>
      <circle
         style="opacity:1;fill:#000000;fill-opacity:1;stroke:#000000;stroke-width:0.27376994;stroke-linecap:round;stroke-linejoin:round;stroke-miterlimit:4;stroke-dasharray:none;stroke-dashoffset:0;stroke-opacity:1"
         id="path364094-5-49-1-9-1"
         cx="805.58459"
         cy="467.09946"
         r="0.71940219" />
      <circle
         style="opacity:1;fill:#000000;fill-opacity:1;stroke:#000000;stroke-width:0.27376994;stroke-linecap:round;stroke-linejoin:round;stroke-miterlimit:4;stroke-dasharray:none;stroke-dashoffset:0;stroke-opacity:1"
         id="path364094-5-49-1-3-5"
         cx="809.06427"
         cy="469.66702"
         r="0.71940219" />
    </g>
  </g>
</svg>
