<?xml version="1.0" encoding="UTF-8" standalone="no"?>
<!-- Created with Inkscape (http://www.inkscape.org/) -->

<svg
   xmlns:dc="http://purl.org/dc/elements/1.1/"
   xmlns:cc="http://creativecommons.org/ns#"
   xmlns:rdf="http://www.w3.org/1999/02/22-rdf-syntax-ns#"
   xmlns:svg="http://www.w3.org/2000/svg"
   xmlns="http://www.w3.org/2000/svg"
   xmlns:sodipodi="http://sodipodi.sourceforge.net/DTD/sodipodi-0.dtd"
   xmlns:inkscape="http://www.inkscape.org/namespaces/inkscape"
   width="26.154446mm"
   height="26.154444mm"
   viewBox="0 0 92.673237 92.673225"
   id="svg201275"
   version="1.1"
   inkscape:version="0.91 r13725"
   sodipodi:docname="character_materials_agents.svg">
  <defs
     id="defs201277" />
  <sodipodi:namedview
     id="base"
     pagecolor="#ffffff"
     bordercolor="#666666"
     borderopacity="1.0"
     inkscape:pageopacity="0.0"
     inkscape:pageshadow="2"
     inkscape:zoom="3.959798"
     inkscape:cx="35.197426"
     inkscape:cy="52.810414"
     inkscape:document-units="px"
     inkscape:current-layer="layer1"
     showgrid="false"
     fit-margin-left="0.1"
     fit-margin-top="0.1"
     fit-margin-bottom="0.1"
     fit-margin-right="0.1"
     inkscape:window-width="1880"
     inkscape:window-height="2108"
     inkscape:window-x="81"
     inkscape:window-y="24"
     inkscape:window-maximized="0" />
  <metadata
     id="metadata201280">
    <rdf:RDF>
      <cc:Work
         rdf:about="">
        <dc:format>image/svg+xml</dc:format>
        <dc:type
           rdf:resource="http://purl.org/dc/dcmitype/StillImage" />
        <dc:title></dc:title>
      </cc:Work>
    </rdf:RDF>
  </metadata>
  <g
     inkscape:label="Layer 1"
     inkscape:groupmode="layer"
     id="layer1"
     transform="translate(-258.30216,-228.08717)">
    <path
       inkscape:connector-curvature="0"
       id="path102964-1-3-7-7"
       d="m 301.06895,283.65341 6.53949,2.40657 3.41948,2.21732 4.90934,3.54281 4.11746,7.80889 -52.00601,0.9413 c -9.59173,0.60916 -0.15887,-6.11873 -0.2383,-9.1781 l 9.5581,-6.04011 4.42284,-1.17999 c 7.18295,2.38555 12.58193,1.93045 19.2776,-0.51869 z"
       style="fill:#afafaf;fill-opacity:1;fill-rule:evenodd;stroke:none;stroke-width:1px;stroke-linecap:butt;stroke-linejoin:miter;stroke-opacity:1"
       sodipodi:nodetypes="cccccccccc" />
    <path
       sodipodi:nodetypes="csc"
       inkscape:connector-curvature="0"
       id="path102753-5-6-56-4"
       d="m 285.71166,280.44051 c 0,0 -1.76003,2.29683 -2.73054,2.66207 -4.40162,1.65651 -15.46252,4.5525 -19.16351,16.29346"
       style="fill:none;fill-rule:evenodd;stroke:#000000;stroke-width:1.25310659px;stroke-linecap:butt;stroke-linejoin:miter;stroke-opacity:1" />
    <path
       sodipodi:nodetypes="csc"
       inkscape:connector-curvature="0"
       id="path102753-5-8-0-5-4"
       d="m 298.25935,280.45338 c 0,0 1.76002,2.29681 2.73053,2.66205 4.40163,1.65651 15.46251,4.5525 19.16351,16.29346"
       style="fill:none;fill-rule:evenodd;stroke:#000000;stroke-width:1.25310659px;stroke-linecap:butt;stroke-linejoin:miter;stroke-opacity:1" />
    <path
       inkscape:connector-curvature="0"
       style="opacity:1;fill:#ffffff;fill-opacity:1;stroke:#000000;stroke-width:1.10017419;stroke-linecap:round;stroke-linejoin:round;stroke-miterlimit:4;stroke-dasharray:none;stroke-dashoffset:0;stroke-opacity:1"
       d="m 277.44839,264.81481 a 14.664913,18.910261 0 0 0 14.66491,18.91026 14.664913,18.910261 0 0 0 14.6649,-18.91026 14.664913,18.910261 0 0 0 -14.6649,-18.91027 14.664913,18.910261 0 0 0 -14.66491,18.91027 z"
       id="path104511-2-0-9-4-3" />
    <path
       style="fill:#4d4d4d;fill-opacity:1;fill-rule:evenodd;stroke:#4d4d4d;stroke-width:0.80749291px;stroke-linecap:butt;stroke-linejoin:miter;stroke-opacity:1"
       d="m 301.21862,252.02756 c 0,0 3.70316,5.09666 4.03551,5.63316 0.33233,0.53645 0.37979,3.11161 0.4273,3.59445 0.0477,0.48284 0.28483,3.48716 0.28483,3.75542 0,0.26824 -0.33231,6.86704 0.28489,7.40352 0.61719,0.53651 -0.76219,0.80474 -0.76219,0.80474 l 0.85456,-0.16096 c 0,0 -0.0949,-1.50216 0.0949,-1.93134 0.1899,-0.4292 0.997,-1.34122 1.04447,-1.71676 0.0474,-0.37555 -0.28488,-0.69743 -0.56971,-0.64377 -0.28485,0.0537 1.80667,-0.10732 1.94909,-0.91204 0.14246,-0.80474 1.42428,-1.39488 1.42428,-1.39488 l -0.66466,-0.53649 c 0,0 1.13944,-1.01934 0.94954,-1.87771 -0.18992,-0.85837 -0.71214,-2.30689 -0.71214,-2.30689 l 0.33232,-1.01933 -1.4243,-1.6631 c 0,0 0.14245,-2.14596 -0.0949,-3.59447 -0.2374,-1.44853 -0.80708,-3.05799 -1.32934,-3.54083 -0.52224,-0.48284 -0.71213,-0.26825 -0.94952,-1.60944 -0.23741,-1.34125 0.28487,-2.14597 -0.8071,-1.77043 -1.09196,0.37555 -2.23139,-1.60946 -3.13344,-2.52148 -0.90203,-0.91205 -0.90203,-1.28759 -1.94653,-2.03866 -1.04448,-0.75109 -2.51625,-1.66311 -3.22839,-1.55583 -0.71216,0.10732 -1.37682,-0.37553 -2.32634,-0.37553 -0.94952,0 -2.23141,-0.16094 -3.41831,0 -1.1869,0.16096 -3.94052,0.64378 -5.12745,1.6631 -1.18692,1.01933 -3.18091,1.77042 -4.17793,2.9507 -0.99699,1.18028 -1.04447,1.44852 -1.3768,1.77041 -0.33233,0.32189 -0.99703,-0.42919 -1.32934,-0.42919 -0.33233,0 -0.52222,0.75108 -0.71215,1.07297 -0.18992,0.32188 -0.4273,0.64378 -0.61718,0.69744 -0.1899,0.0537 0.0949,-0.7511 -0.61722,0 -0.71212,0.75106 -0.94952,0.21459 -0.80708,1.01932 0.14244,0.80472 0.52223,1.07296 -0.47478,1.34124 -0.997,0.26822 -1.04448,0.59012 -1.09195,1.18024 -0.0474,0.59013 1.32934,-0.42918 -0.0474,1.23394 -1.3768,1.6631 -2.18392,1.6631 -2.18392,2.46785 0,0.80472 -0.0949,1.07294 0.18993,1.50214 0.28485,0.4292 0.3798,-0.3219 0.42728,1.23392 0.0477,1.55582 0,1.98502 -0.23739,2.41421 -0.23738,0.42919 -1.1869,0.0537 -0.18989,1.71676 0.99698,1.66312 1.13943,-0.0536 1.32933,1.77041 0.18989,1.82406 0.92847,0.80473 1.0709,3.64811 0.14246,2.8434 0.96248,2.87839 1.53537,3.77769 0.30568,0.47982 0.35338,1.07299 0.92311,0.42921 0.56972,-0.6438 -0.12272,-1.3106 -0.3679,-2.11459 -0.71749,-2.3535 0.44674,-2.78974 0.82653,-5.04298 0.37982,-2.25324 0.66466,-1.50217 0.4273,-4.45286 -0.23737,-2.95068 -0.99702,-2.30689 -0.28487,-3.86271 0.71217,-1.5558 0.8546,-2.09231 1.18692,-2.52149 0.33234,-0.42919 0.61721,-0.91203 2.65868,-2.78973 2.04148,-1.87772 1.23438,-1.985 3.51326,-2.3069 2.27886,-0.32188 4.65269,-0.59015 4.65269,-0.59015 0,0 2.27887,-0.37553 5.83958,-0.32189 3.56073,0.0537 4.8426,2.78974 4.8426,2.78974"
       id="path104513-5-0-0-2-0"
       inkscape:connector-curvature="0"
       sodipodi:nodetypes="cscsscccccsccscccsssssscssssssccscsccsccssssscsssscsscsc" />
    <path
       inkscape:connector-curvature="0"
       style="opacity:1;fill:#000000;fill-opacity:1;stroke:#000000;stroke-width:1.06245673;stroke-linecap:round;stroke-linejoin:round;stroke-miterlimit:4;stroke-dasharray:none;stroke-dashoffset:0;stroke-opacity:1"
       d="m 288.92662,263.94064 a 1.4362769,1.4859003 0 0 0 1.43628,1.4859 1.4362769,1.4859003 0 0 0 1.43629,-1.4859 1.4362769,1.4859003 0 0 0 -1.43629,-1.4859 1.4362769,1.4859003 0 0 0 -1.43628,1.4859 z"
       id="path104515-8-1-8-7-2-7" />
    <path
       inkscape:connector-curvature="0"
       style="opacity:1;fill:#000000;fill-opacity:1;stroke:#000000;stroke-width:1.06245673;stroke-linecap:round;stroke-linejoin:round;stroke-miterlimit:4;stroke-dasharray:none;stroke-dashoffset:0;stroke-opacity:1"
       d="m 298.00734,263.95323 a 1.4362769,1.4859003 0 0 0 1.43628,1.48589 1.4362769,1.4859003 0 0 0 1.43629,-1.48589 1.4362769,1.4859003 0 0 0 -1.43629,-1.48591 1.4362769,1.4859003 0 0 0 -1.43628,1.48591 z"
       id="path104515-8-6-0-2-0-1-8" />
    <path
       inkscape:connector-curvature="0"
       style="opacity:1;fill:#ffffff;fill-opacity:1;stroke:#ffffff;stroke-width:0.77364767;stroke-linecap:round;stroke-linejoin:round;stroke-miterlimit:4;stroke-dasharray:none;stroke-dashoffset:0;stroke-opacity:1"
       d="m 304.51703,264.03302 a 1.3813477,3.8996529 0 0 0 1.38136,3.89964 1.3813477,3.8996529 0 0 0 1.38134,-3.89964 1.3813477,3.8996529 0 0 0 -1.38134,-3.89966 1.3813477,3.8996529 0 0 0 -1.38136,3.89966 z"
       id="path104595-2-7-6" />
    <path
       inkscape:connector-curvature="0"
       style="opacity:1;fill:#ffffff;fill-opacity:1;stroke:#ffffff;stroke-width:0.85729533;stroke-linecap:round;stroke-linejoin:round;stroke-miterlimit:4;stroke-dasharray:none;stroke-dashoffset:0;stroke-opacity:1"
       d="m 275.83949,264.14016 a 1.7145908,3.8578292 0 0 0 1.71457,3.85782 1.7145908,3.8578292 0 0 0 1.71461,-3.85782 1.7145908,3.8578292 0 0 0 -1.71461,-3.85784 1.7145908,3.8578292 0 0 0 -1.71457,3.85784 z"
       id="path104595-8-0-2-8" />
    <g
       id="g103383-5-1-1-8"
       transform="matrix(1.1001741,0,0,1.1001741,77.679156,-105.0518)">
      <path
         style="fill:#f9f9f9;fill-opacity:1;fill-rule:evenodd;stroke:#000000;stroke-width:1.02814472;stroke-linecap:butt;stroke-linejoin:miter;stroke-miterlimit:4;stroke-dasharray:none;stroke-opacity:1"
         d="m 203.5387,338.20704 41.34482,-3.8728 1.04671,0.41868 -1.36073,25.95826 -42.39152,5.12883 z"
         id="path6287-2-5-0-5-4-6-4"
         inkscape:connector-curvature="0" />
      <path
         style="fill:#fefefe;fill-opacity:1;fill-rule:evenodd;stroke:#000000;stroke-width:1.02814472;stroke-linecap:butt;stroke-linejoin:miter;stroke-miterlimit:4;stroke-dasharray:none;stroke-opacity:1"
         d="m 222.06377,354.02731 1.61624,13.87473 10.04383,-0.11598 -5.2115,-14.26795 z"
         id="path6289-5-6-0-8-6-5-3"
         inkscape:connector-curvature="0"
         sodipodi:nodetypes="ccccc" />
    </g>
    <path
       sodipodi:nodetypes="ccsssc"
       inkscape:connector-curvature="0"
       id="path105998-4-6-1"
       d="m 273.6241,298.90436 10.51991,0 c 0,0 -0.99225,-3.71656 -2.08582,-2.17797 -0.46872,0.65947 -1.74724,-2.53271 -3.29688,0 -0.49375,0.80702 -1.79217,-2.54098 -2.89317,0.13623 -0.55113,1.34005 -1.25731,-2.82975 -2.20814,2.20556"
       style="fill:#ffffff;fill-opacity:1;fill-rule:evenodd;stroke:#000000;stroke-width:1.08273494px;stroke-linecap:butt;stroke-linejoin:miter;stroke-opacity:1" />
    <path
       sodipodi:nodetypes="ccsssc"
       inkscape:connector-curvature="0"
       id="path105998-4-60-4"
       d="m 295.38362,298.90436 10.5199,0 c 0,0 -0.99224,-3.71656 -2.08581,-2.17797 -0.46872,0.65947 -1.74725,-2.53271 -3.29688,0 -0.49373,0.80702 -1.79217,-2.54098 -2.89316,0.13623 -0.55113,1.34005 -1.2573,-2.82975 -2.20816,2.20556"
       style="fill:#ffffff;fill-opacity:1;fill-rule:evenodd;stroke:#000000;stroke-width:1.08273494px;stroke-linecap:butt;stroke-linejoin:miter;stroke-opacity:1" />
    <path
       inkscape:connector-curvature="0"
       style="opacity:1;fill:#e8e8e8;fill-opacity:1;stroke:#000000;stroke-width:0.88299507;stroke-linecap:round;stroke-linejoin:round;stroke-miterlimit:4;stroke-dasharray:none;stroke-dashoffset:0;stroke-opacity:1"
       d="m 270.49597,298.50555 38.57725,0 c 0.55593,0 1.00347,0.44754 1.00347,1.00345 0,0.55592 -0.44754,1.00346 -1.00347,1.00346 l -38.57725,0 c -0.55591,0 -1.00345,-0.44754 -1.00345,-1.00346 0,-0.55591 0.44754,-1.00345 1.00345,-1.00345 z"
       id="rect266395-9" />
  </g>
</svg>
