<svg xmlns="http://www.w3.org/2000/svg" width="669.48" height="168.689" viewBox="0 0 177.133 44.632" version="1.1"><defs><clipPath clipPathUnits="userSpaceOnUse" id="ravencad.o.svga"><path d="M45.614 453.681h502.772v271.626H45.614z"/></clipPath></defs><g transform="translate(-4.416 -25.976)"><path opacity="1" fill="#fff" fill-opacity="1" stroke="none" stroke-width=".497" stroke-linecap="round" stroke-linejoin="round" stroke-miterlimit="4" stroke-dasharray="none" stroke-dashoffset="0" stroke-opacity="1" d="M4.321 26.007h177.46v44.885H4.321z"/><g transform="matrix(.34976 0 0 -.34976 106.626 56.174)"><path d="M0 0h-55.818v16.481H0z" fill="none" stroke="#cc2229" stroke-width="1.026" stroke-linecap="butt" stroke-linejoin="miter" stroke-miterlimit="10" stroke-dasharray="none" stroke-opacity="1"/></g><g transform="matrix(.34976 0 0 -.34976 94.977 52.49)"><path d="M0 0c-1.398-.356-2.794-.709-4.192-1.066-.247-.063-.295.068-.271.261.046.374-.175.388-.457.387a150.8 150.8 0 0 0-3.922.005c-.374.005-.444-.133-.434-.465.023-.642-.024-1.287.018-1.928.032-.462-.225-.43-.534-.432-.293-.004-.505-.015-.49.403.032.972.03 1.951 0 2.924-.01.407.1.53.515.525C-8.19.589-6.614.603-5.035.606c.274 0 .574-.098.591.388.013.34.32.144.49.102C-2.631.773-1.309.437.013.105.008.068.003.033 0 0" fill="#304296" fill-opacity="1" fill-rule="evenodd" stroke="none"/></g><g transform="matrix(.34976 0 0 -.34976 101.642 53.594)"><path d="M0 0v3.71h-2.128c.002.067.006.137.01.204h4.884l.011-.172H.636c0-1.18-.008-2.235.003-3.289C.646.053.591-.228 0 0" fill="#cc2229" fill-opacity="1" fill-rule="evenodd" stroke="none"/></g><g transform="matrix(.34976 0 0 -.34976 89.995 53.656)"><path d="M0 0h38.672" fill="none" stroke="#272525" stroke-width=".317" stroke-linecap="butt" stroke-linejoin="miter" stroke-miterlimit="10" stroke-dasharray="none" stroke-opacity="1"/></g><g transform="matrix(.34976 0 0 -.34976 95.485 54.51)"><path d="M0 0v5.181c.138.01.248.027.359.027 2.904.001 5.81.003 8.712-.004.166 0 .368-.017.488-.109 1.035-.806 2.056-1.632 3.13-2.489-1.075-.858-2.098-1.68-3.128-2.491a.647.647 0 0 0-.375-.109C6.149 0 3.11 0 0 0" fill="#90aa72" fill-opacity="1" fill-rule="evenodd" stroke="none"/></g><g transform="matrix(.34976 0 0 -.34976 95.485 54.51)"><path d="M0 0v5.181c.138.01.248.027.359.027 2.904.001 5.81.003 8.712-.004.166 0 .368-.017.488-.109 1.035-.806 2.056-1.632 3.13-2.489-1.075-.858-2.098-1.68-3.128-2.491a.647.647 0 0 0-.375-.109C6.149 0 3.11 0 0 0z" fill="none" stroke="#272525" stroke-width=".211" stroke-linecap="butt" stroke-linejoin="miter" stroke-miterlimit="8" stroke-dasharray="none" stroke-opacity="1"/></g><g transform="matrix(.34976 0 0 -.34976 88.635 53.492)"><path d="M0 0c-.877 0-1.755.007-2.632-.004-.294-.003-.567.043-.576.378-.011.349.263.458.575.458C-.861.833.912.835 2.685.83c.282-.001.545-.091.547-.431.001-.348-.252-.406-.547-.402C1.79.004.894 0 0 0" fill="#272525" fill-opacity="1" fill-rule="evenodd" stroke="none"/></g><g transform="matrix(.34976 0 0 -.34976 88.888 54.09)"><path d="M0 0c-.631 0-1.264.003-1.896 0-.295 0-.605.014-.622.396-.017.393.292.419.588.419C-.631.817.668.814 1.966.818c.295.001.554-.068.545-.412C2.502.066 2.238 0 1.949 0 1.299.003.65 0 0 0" fill="#272525" fill-opacity="1" fill-rule="evenodd" stroke="none"/></g><g transform="matrix(.34976 0 0 -.34976 104.901 53.798)"><path d="M0 0c-.898 0-1.797-.007-2.695.004-.28.002-.519-.064-.539-.366-.021-.33.227-.466.518-.467A879.73 879.73 0 0 1 2.672-.83c.295 0 .552.13.545.448-.008.334-.281.388-.576.385C1.76-.007.881 0 0 0" fill="#272525" fill-opacity="1" fill-rule="evenodd" stroke="none"/></g><g transform="matrix(.34976 0 0 -.34976 104.652 53.2)"><path d="M0 0c-.649 0-1.297-.004-1.947.002-.292.002-.563-.067-.574-.395-.013-.371.28-.425.588-.425 1.281.006 2.562.002 3.843.004.289.002.612.013.6.408-.008.376-.318.407-.615.406z" fill="#272525" fill-opacity="1" fill-rule="evenodd" stroke="none"/></g><g transform="matrix(.34976 0 0 -.34976 171.775 56.174)"><path d="M0 0h-53.071v16.481H0z" fill="none" stroke="#cc2229" stroke-width="1.026" stroke-linecap="butt" stroke-linejoin="miter" stroke-miterlimit="10" stroke-dasharray="none" stroke-opacity="1"/></g><g transform="matrix(.34976 0 0 -.34976 166.434 53.5)"><path d="M0 0v3.71h-2.128c.001.068.005.136.009.204h4.884l.011-.172H.635c0-1.18-.008-2.236.004-3.289C.645.052.591-.227 0 0" fill="#cc2229" fill-opacity="1" fill-rule="evenodd" stroke="none"/></g><g transform="matrix(.34976 0 0 -.34976 160.373 53.5)"><path d="M0 0v3.71h-2.129l.009.204h4.886l.009-.172H.635c0-1.18-.009-2.236.003-3.289C.644.052.59-.227 0 0" fill="#cc2229" fill-opacity="1" fill-rule="evenodd" stroke="none"/></g><g transform="matrix(.34976 0 0 -.34976 156.115 53.562)"><path d="M0 0h36.192" fill="none" stroke="#272525" stroke-width=".317" stroke-linecap="butt" stroke-linejoin="miter" stroke-miterlimit="10" stroke-dasharray="none" stroke-opacity="1"/></g><g transform="matrix(.34976 0 0 -.34976 162.174 53.08)"><path d="M0 0h5.468v1.307l2.607-2.614L5.468-3.92v1.307H0z" fill="#4978b1" fill-opacity="1" fill-rule="nonzero" stroke="none"/></g><g transform="matrix(.34976 0 0 -.34976 162.174 53.08)"><path d="M0 0h5.468v1.307l2.607-2.614L5.468-3.92v1.307H0z" fill="none" stroke="#272525" stroke-width=".148" stroke-linecap="butt" stroke-linejoin="miter" stroke-miterlimit="10" stroke-dasharray="none" stroke-opacity="1"/></g><g transform="matrix(.34976 0 0 -.34976 157.755 53.55)"><path d="M0 0a1.25 1.25 0 1 0 2.498 0c0-.691-.559-1.253-1.248-1.253C.559-1.253 0-.691 0 0" fill="#fff" fill-opacity="1" fill-rule="evenodd" stroke="none"/></g><g transform="matrix(.34976 0 0 -.34976 157.755 53.55)"><path d="M0 0a1.25 1.25 0 1 0 2.498 0c0-.691-.559-1.253-1.248-1.253C.559-1.253 0-.691 0 0z" fill="none" stroke="#272525" stroke-width=".845" stroke-linecap="butt" stroke-linejoin="miter" stroke-miterlimit="10" stroke-dasharray="none" stroke-opacity="1"/></g><g transform="matrix(.34976 0 0 -.34976 154.876 53.423)"><path d="M0 0c-.877 0-1.756.006-2.632-.003-.293-.004-.567.042-.577.379-.009.348.265.457.576.457C-.86.834.912.835 2.686.831c.282-.001.546-.091.547-.432 0-.348-.253-.405-.547-.402C1.789.005.895 0 0 0" fill="#272525" fill-opacity="1" fill-rule="evenodd" stroke="none"/></g><g transform="matrix(.34976 0 0 -.34976 155.13 54.02)"><path d="M0 0c-.633 0-1.265.003-1.896 0-.295-.002-.605.013-.623.395-.017.394.292.421.588.421C-.633.817.667.814 1.965.818c.296 0 .553-.068.545-.413C2.502.067 2.237-.002 1.947 0 1.298.003.649 0 0 0" fill="#272525" fill-opacity="1" fill-rule="evenodd" stroke="none"/></g><g transform="matrix(.34976 0 0 -.34976 170.108 53.73)"><path d="M0 0c-.898 0-1.796-.006-2.695.004-.28.003-.519-.064-.538-.366-.022-.33.226-.466.517-.466C-.92-.836.877-.833 2.673-.83c.295 0 .552.13.544.448-.008.334-.279.388-.575.385C1.761-.006.881 0 0 0" fill="#272525" fill-opacity="1" fill-rule="evenodd" stroke="none"/></g><g transform="matrix(.34976 0 0 -.34976 169.86 53.132)"><path d="M0 0c-.649 0-1.298-.004-1.947.003-.291.003-.564-.067-.574-.395-.014-.372.28-.426.588-.424 1.282.003 2.561 0 3.843.002.287.001.611.013.601.408-.01.377-.319.408-.616.406z" fill="#272525" fill-opacity="1" fill-rule="evenodd" stroke="none"/></g><g transform="matrix(.34976 0 0 -.34976 72.912 56.174)"><path d="M0 0h-93.717v16.481H0z" fill="none" stroke="#59a052" stroke-width="1.026" stroke-linecap="butt" stroke-linejoin="miter" stroke-miterlimit="10" stroke-dasharray="none" stroke-opacity="1"/></g><g transform="matrix(.34976 0 0 -.34976 48.343 52.472)"><path d="M0 0c-1.397-.355-2.795-.709-4.191-1.065-.247-.063-.296.066-.272.261.047.375-.175.387-.457.387-1.308-.01-2.615-.02-3.921.004-.374.005-.446-.133-.434-.464.022-.642-.025-1.288.017-1.93.031-.461-.224-.429-.534-.43-.292-.005-.504-.017-.49.403.032.972.029 1.951 0 2.925-.011.405.1.529.516.524C-8.189.59-6.613.603-5.034.606c.274 0 .573-.097.59.388.013.34.321.144.491.103C-2.631.774-1.309.437.014.105L0 0" fill="#59a052" fill-opacity="1" fill-rule="evenodd" stroke="none"/></g><g transform="matrix(.34976 0 0 -.34976 55.009 53.56)"><path d="M0 0v3.71h-2.128l.009.204h4.884l.01-.172H.634c0-1.18-.007-2.235.003-3.289C.644.053.59-.228 0 0" fill="#cc2229" fill-opacity="1" fill-rule="evenodd" stroke="none"/></g><g transform="matrix(.34976 0 0 -.34976 60.65 52.472)"><path d="M0 0c-1.398-.355-2.794-.709-4.19-1.065-.248-.063-.297.066-.273.261.047.375-.175.387-.457.387a150.73 150.73 0 0 0-3.921.004c-.374.005-.446-.133-.435-.464.023-.642-.023-1.288.018-1.93.031-.461-.224-.429-.534-.43-.293-.005-.504-.017-.489.403.031.972.028 1.951 0 2.925-.012.405.099.529.515.524C-8.189.59-6.613.603-5.034.606c.274 0 .573-.097.591.388.012.34.32.144.49.103C-2.631.774-1.309.437.014.105L0 0" fill="#d5652c" fill-opacity="1" fill-rule="evenodd" stroke="none"/></g><g transform="matrix(.34976 0 0 -.34976 67.315 53.576)"><path d="M0 0v3.71h-2.128l.009.203h4.885c.002-.058.007-.116.009-.172H.634c0-1.179-.007-2.235.004-3.288C.644.051.591-.228 0 0" fill="#cc2229" fill-opacity="1" fill-rule="evenodd" stroke="none"/></g><g transform="matrix(.34976 0 0 -.34976 43.471 53.637)"><path d="M0 0h74.101" fill="none" stroke="#272525" stroke-width=".317" stroke-linecap="butt" stroke-linejoin="miter" stroke-miterlimit="10" stroke-dasharray="none" stroke-opacity="1"/></g><g transform="matrix(.34976 0 0 -.34976 48.85 54.529)"><path d="M0 0v5.18c.139.01.249.027.361.027 2.904.001 5.808.003 8.711-.003.165 0 .369-.018.489-.11 1.035-.806 2.055-1.632 3.13-2.489C11.616 1.746 10.593.924 9.563.114a.65.65 0 0 0-.375-.109C6.15-.002 3.111 0 0 0" fill="#b1cde1" fill-opacity="1" fill-rule="evenodd" stroke="none"/></g><g transform="matrix(.34976 0 0 -.34976 48.85 54.529)"><path d="M0 0v5.18c.139.01.249.027.361.027 2.904.001 5.808.003 8.711-.003.165 0 .369-.018.489-.11 1.035-.806 2.055-1.632 3.13-2.489C11.616 1.746 10.593.924 9.563.114a.65.65 0 0 0-.375-.109C6.15-.002 3.111 0 0 0z" fill="none" stroke="#272525" stroke-width=".211" stroke-linecap="butt" stroke-linejoin="miter" stroke-miterlimit="8" stroke-dasharray="none" stroke-opacity="1"/></g><g transform="matrix(.34976 0 0 -.34976 61.158 54.529)"><path d="M0 0v5.18c.139.01.249.027.361.027 2.904.001 5.808.003 8.711-.003.165 0 .369-.018.489-.11 1.035-.806 2.055-1.632 3.13-2.489C11.615 1.746 10.593.924 9.563.114a.652.652 0 0 0-.375-.109C6.15-.002 3.112 0 0 0" fill="#bdb39b" fill-opacity="1" fill-rule="evenodd" stroke="none"/></g><g transform="matrix(.34976 0 0 -.34976 61.158 54.529)"><path d="M0 0v5.18c.139.01.249.027.361.027 2.904.001 5.808.003 8.711-.003.165 0 .369-.018.489-.11 1.035-.806 2.055-1.632 3.13-2.489C11.615 1.746 10.593.924 9.563.114a.652.652 0 0 0-.375-.109C6.15-.002 3.112 0 0 0z" fill="none" stroke="#272525" stroke-width=".211" stroke-linecap="butt" stroke-linejoin="miter" stroke-miterlimit="8" stroke-dasharray="none" stroke-opacity="1"/></g><g transform="matrix(.34976 0 0 -.34976 42.268 53.498)"><path d="M0 0c-.878 0-1.755.007-2.633-.004-.292-.003-.566.044-.576.379-.009.35.264.458.576.458C-.861.833.911.836 2.684.83c.284-.001.547-.09.548-.43.001-.349-.252-.405-.548-.403C1.79.006.894 0 0 0" fill="#272525" fill-opacity="1" fill-rule="evenodd" stroke="none"/></g><g transform="matrix(.34976 0 0 -.34976 42.521 54.095)"><path d="M0 0c-.632 0-1.265.002-1.896-.001-.296-.001-.605.013-.623.395-.017.393.292.422.587.422 1.3 0 2.599-.003 3.897 0 .295.002.553-.067.545-.412-.009-.339-.274-.406-.563-.405C1.297.002.648 0 0 0" fill="#272525" fill-opacity="1" fill-rule="evenodd" stroke="none"/></g><g transform="matrix(.34976 0 0 -.34976 70.775 53.803)"><path d="M0 0c-.899 0-1.797-.009-2.694.003-.281.003-.52-.065-.54-.366-.022-.33.227-.466.518-.466C-.919-.837.877-.836 2.673-.831c.295 0 .551.131.544.447-.008.335-.281.39-.576.387C1.76-.009.881 0 0 0" fill="#272525" fill-opacity="1" fill-rule="evenodd" stroke="none"/></g><g transform="matrix(.34976 0 0 -.34976 70.526 53.206)"><path d="M0 0c-.65 0-1.298-.004-1.947.002-.292.002-.564-.067-.575-.396-.012-.372.281-.425.588-.424 1.282.005 2.563 0 3.843.004.289 0 .613.012.602.407C2.5-.031 2.192 0 1.894 0H0" fill="#272525" fill-opacity="1" fill-rule="evenodd" stroke="none"/></g><g transform="matrix(.34976 0 0 -.34976 20.456 29.231)"><path d="M0 0c-1.398-.354-2.794-.708-4.191-1.065-.247-.063-.296.068-.272.263.047.372-.175.386-.457.386-1.307-.011-2.614-.02-3.921.004-.375.004-.445-.134-.435-.464.023-.643-.023-1.288.018-1.93.031-.461-.225-.43-.534-.432-.293-.003-.504-.015-.489.404a47.51 47.51 0 0 1 0 2.924c-.013.406.1.531.515.525C-8.189.59-6.612.605-5.034.607c.273 0 .573-.098.59.387.013.341.321.145.491.103C-2.631.774-1.308.438.014.105L0 0" fill="#59a052" fill-opacity="1" fill-rule="evenodd" stroke="none"/></g><g transform="matrix(.34976 0 0 -.34976 22.135 32.472)"><path d="M0 0h-19.866v16.482H0z" fill="none" stroke="#272525" stroke-width=".317" stroke-linecap="butt" stroke-linejoin="miter" stroke-miterlimit="10" stroke-dasharray="none" stroke-opacity="1"/></g><g transform="matrix(.34976 0 0 -.34976 29.474 30.5)"><path d="M0 0v5.18c.139.01.249.027.361.027 2.904.001 5.808.004 8.711-.004.166 0 .369-.016.489-.109 1.035-.806 2.055-1.631 3.129-2.489-1.074-.859-2.097-1.68-3.127-2.491a.656.656 0 0 0-.375-.108C6.15-.002 3.111 0 0 0" fill="#b1cde1" fill-opacity="1" fill-rule="evenodd" stroke="none"/></g><g transform="matrix(.34976 0 0 -.34976 29.474 30.5)"><path d="M0 0v5.18c.139.01.249.027.361.027 2.904.001 5.808.004 8.711-.004.166 0 .369-.016.489-.109 1.035-.806 2.055-1.631 3.129-2.489-1.074-.859-2.097-1.68-3.127-2.491a.656.656 0 0 0-.375-.108C6.15-.002 3.111 0 0 0z" fill="none" stroke="#272525" stroke-width=".211" stroke-linecap="butt" stroke-linejoin="miter" stroke-miterlimit="8" stroke-dasharray="none" stroke-opacity="1"/></g><g transform="matrix(.34976 0 0 -.34976 35.168 32.472)"><path d="M0 0h-19.865v16.482H0z" fill="none" stroke="#272525" stroke-width=".317" stroke-linecap="butt" stroke-linejoin="miter" stroke-miterlimit="10" stroke-dasharray="none" stroke-opacity="1"/></g><g transform="matrix(.34976 0 0 -.34976 122.81 30.26)"><path d="M0 0v3.711h-2.129l.011.203h4.883l.01-.172H.634c0-1.181-.007-2.235.004-3.29C.644.052.591-.227 0 0" fill="#cc2229" fill-opacity="1" fill-rule="evenodd" stroke="none"/></g><g transform="matrix(.34976 0 0 -.34976 126.397 32.472)"><path d="M0 0h-19.866v16.482H0zm37.262 0H17.397v16.482h19.865z" fill="none" stroke="#272525" stroke-width=".317" stroke-linecap="butt" stroke-linejoin="miter" stroke-miterlimit="10" stroke-dasharray="none" stroke-opacity="1"/></g><g transform="matrix(.34976 0 0 -.34976 135.52 29.59)"><path d="M0 0a1.25 1.25 0 1 0 2.497 0 1.25 1.25 0 0 0-1.248-1.253A1.25 1.25 0 0 0 0 0" fill="#fff" fill-opacity="1" fill-rule="evenodd" stroke="none"/></g><g transform="matrix(.34976 0 0 -.34976 135.52 29.59)"><path d="M0 0a1.25 1.25 0 1 0 2.497 0 1.25 1.25 0 0 0-1.248-1.253A1.25 1.25 0 0 0 0 0z" fill="none" stroke="#272525" stroke-width=".845" stroke-linecap="butt" stroke-linejoin="miter" stroke-miterlimit="10" stroke-dasharray="none" stroke-opacity="1"/></g><g transform="matrix(.34976 0 0 -.34976 160.62 29.132)"><path d="M0 0h5.468v1.306l2.606-2.613-2.606-2.614v1.307H0z" fill="#4978b1" fill-opacity="1" fill-rule="nonzero" stroke="none"/></g><g transform="matrix(.34976 0 0 -.34976 160.62 29.132)"><path d="M0 0h5.468v1.306l2.606-2.613-2.606-2.614v1.307H0z" fill="none" stroke="#272525" stroke-width=".148" stroke-linecap="butt" stroke-linejoin="miter" stroke-miterlimit="10" stroke-dasharray="none" stroke-opacity="1"/></g><g transform="matrix(.34976 0 0 -.34976 165.507 32.472)"><path d="M0 0h-19.865v16.481H0z" fill="none" stroke="#272525" stroke-width=".317" stroke-linecap="butt" stroke-linejoin="miter" stroke-miterlimit="10" stroke-dasharray="none" stroke-opacity="1"/></g><g transform="matrix(.34976 0 0 -.34976 68.572 30.5)"><path d="M0 0v5.18c.139.01.25.027.361.027 2.904.001 5.808.004 8.711-.004.166 0 .368-.016.489-.109 1.036-.806 2.055-1.631 3.129-2.489-1.074-.859-2.097-1.68-3.127-2.491a.656.656 0 0 0-.375-.108C6.15-.002 3.111 0 0 0" fill="#bdb39b" fill-opacity="1" fill-rule="evenodd" stroke="none"/></g><g transform="matrix(.34976 0 0 -.34976 68.572 30.5)"><path d="M0 0v5.18c.139.01.25.027.361.027 2.904.001 5.808.004 8.711-.004.166 0 .368-.016.489-.109 1.036-.806 2.055-1.631 3.129-2.489-1.074-.859-2.097-1.68-3.127-2.491a.656.656 0 0 0-.375-.108C6.15-.002 3.111 0 0 0z" fill="none" stroke="#272525" stroke-width=".211" stroke-linecap="butt" stroke-linejoin="miter" stroke-miterlimit="8" stroke-dasharray="none" stroke-opacity="1"/></g><g transform="matrix(.34976 0 0 -.34976 74.266 32.472)"><path d="M0 0h-19.866v16.482H0z" fill="none" stroke="#272525" stroke-width=".317" stroke-linecap="butt" stroke-linejoin="miter" stroke-miterlimit="10" stroke-dasharray="none" stroke-opacity="1"/></g><g transform="matrix(.34976 0 0 -.34976 94.646 30.5)"><path d="M0 0v5.18c.139.01.249.027.361.027 2.904.001 5.808.004 8.711-.004.166 0 .369-.016.489-.109 1.036-.806 2.055-1.631 3.13-2.489-1.076-.859-2.098-1.68-3.128-2.491a.656.656 0 0 0-.375-.108C6.151-.002 3.112 0 0 0" fill="#90aa72" fill-opacity="1" fill-rule="evenodd" stroke="none"/></g><g transform="matrix(.34976 0 0 -.34976 94.646 30.5)"><path d="M0 0v5.18c.139.01.249.027.361.027 2.904.001 5.808.004 8.711-.004.166 0 .369-.016.489-.109 1.036-.806 2.055-1.631 3.13-2.489-1.076-.859-2.098-1.68-3.128-2.491a.656.656 0 0 0-.375-.108C6.151-.002 3.112 0 0 0z" fill="none" stroke="#272525" stroke-width=".211" stroke-linecap="butt" stroke-linejoin="miter" stroke-miterlimit="8" stroke-dasharray="none" stroke-opacity="1"/></g><g transform="matrix(.34976 0 0 -.34976 100.34 32.472)"><path d="M0 0h-19.866v16.482H0zm-217.259-32.91h-32.54v16.481h32.54z" fill="none" stroke="#272525" stroke-width=".317" stroke-linecap="butt" stroke-linejoin="miter" stroke-miterlimit="10" stroke-dasharray="none" stroke-opacity="1"/></g><g transform="matrix(.34976 0 0 -.34976 20.456 40.445)"><path d="M0 0c-1.398-.354-2.794-.708-4.191-1.065-.247-.063-.296.067-.272.262.047.373-.175.387-.457.386-1.307-.01-2.614-.019-3.921.005-.375.005-.445-.134-.435-.464.023-.643-.023-1.288.018-1.931.031-.46-.225-.429-.534-.431-.293-.003-.504-.016-.489.405.031.971.029 1.95 0 2.923-.013.407.1.53.515.525C-8.189.59-6.612.604-5.034.607c.274 0 .573-.098.59.387.013.341.322.145.491.103C-2.631.774-1.308.438.014.106L0 0" fill="#59a052" fill-opacity="1" fill-rule="evenodd" stroke="none"/></g><g transform="matrix(.34976 0 0 -.34976 14.57 41.402)"><path d="M0 0c-.878 0-1.755.007-2.633-.004-.293-.004-.566.042-.576.378-.009.35.264.458.576.458C-.86.833.912.835 2.685.83c.283-.001.545-.091.547-.43.001-.349-.252-.406-.547-.403C1.79.005.895 0 0 0" fill="#272525" fill-opacity="1" fill-rule="evenodd" stroke="none"/></g><g transform="matrix(.34976 0 0 -.34976 14.822 42)"><path d="M0 0c-.631 0-1.263.001-1.895-.001-.296-.001-.605.013-.623.396-.017.393.292.42.588.42C-.631.816.667.813 1.966.817c.295.001.554-.068.545-.413-.009-.338-.273-.406-.563-.405C1.299.001.65 0 0 0" fill="#272525" fill-opacity="1" fill-rule="evenodd" stroke="none"/></g><g transform="matrix(.34976 0 0 -.34976 22.75 41.661)"><path d="M0 0c-.898 0-1.797-.007-2.694.004-.281.003-.519-.064-.54-.367-.022-.329.228-.465.518-.466C-.92-.836.876-.834 2.673-.83c.295 0 .551.13.543.447-.008.335-.279.389-.574.386C1.761-.007.88 0 0 0" fill="#272525" fill-opacity="1" fill-rule="evenodd" stroke="none"/></g><g transform="matrix(.34976 0 0 -.34976 22.5 41.064)"><path d="M0 0c-.649 0-1.298-.005-1.947.002-.292.002-.564-.067-.575-.395-.012-.372.281-.426.589-.424 1.281.004 2.561 0 3.842.002.289.002.613.013.602.408-.01.377-.319.407-.616.407z" fill="#272525" fill-opacity="1" fill-rule="evenodd" stroke="none"/></g><g transform="matrix(.34976 0 0 -.34976 15.746 41.555)"><path d="M0 0h16.272m45.594-6.939h-32.54V9.542h32.54z" fill="none" stroke="#272525" stroke-width=".317" stroke-linecap="butt" stroke-linejoin="miter" stroke-miterlimit="10" stroke-dasharray="none" stroke-opacity="1"/></g><g transform="matrix(.34976 0 0 -.34976 27.602 41.392)"><path d="M0 0c-.877 0-1.755.007-2.633-.004-.292-.003-.566.043-.575.379-.01.349.263.457.575.457C-.86.833.912.835 2.684.83c.284-.001.546-.092.547-.431.002-.348-.251-.404-.546-.402C1.79.004.895 0 0 0" fill="#272525" fill-opacity="1" fill-rule="evenodd" stroke="none"/></g><g transform="matrix(.34976 0 0 -.34976 27.855 41.989)"><path d="M0 0c-.631 0-1.264.001-1.895-.001-.295-.001-.605.013-.622.395-.018.393.292.42.586.42C-.631.815.667.813 1.966.815c.295.001.554-.066.545-.412-.009-.338-.274-.405-.563-.404C1.299.002.65 0 0 0" fill="#272525" fill-opacity="1" fill-rule="evenodd" stroke="none"/></g><g transform="matrix(.34976 0 0 -.34976 35.782 41.672)"><path d="M0 0c-.898 0-1.796-.007-2.694.003-.281.003-.519-.064-.54-.366-.022-.328.228-.464.518-.466 1.796-.007 3.593-.005 5.389 0 .295 0 .551.13.543.446-.007.334-.279.389-.575.386C1.761-.007.881 0 0 0" fill="#272525" fill-opacity="1" fill-rule="evenodd" stroke="none"/></g><g transform="matrix(.34976 0 0 -.34976 35.533 41.075)"><path d="M0 0c-.649 0-1.298-.004-1.947.002-.292.003-.564-.067-.575-.395-.012-.371.282-.425.589-.423 1.281.003 2.562 0 3.842.003.289 0 .613.012.602.407-.01.376-.319.406-.616.406H0" fill="#272525" fill-opacity="1" fill-rule="evenodd" stroke="none"/></g><g transform="matrix(.34976 0 0 -.34976 28.778 41.545)"><path d="M0 0h16.273" fill="none" stroke="#272525" stroke-width=".317" stroke-linecap="butt" stroke-linejoin="miter" stroke-miterlimit="10" stroke-dasharray="none" stroke-opacity="1"/></g><g transform="matrix(.34976 0 0 -.34976 29.387 42.443)"><path d="M0 0v5.18c.139.011.249.027.361.027 2.904.001 5.807.004 8.712-.004.165 0 .368-.016.488-.108 1.036-.807 2.055-1.632 3.13-2.489-1.075-.86-2.098-1.681-3.128-2.492a.655.655 0 0 0-.376-.108C6.15-.002 3.112 0 0 0" fill="#b1cde1" fill-opacity="1" fill-rule="evenodd" stroke="none"/></g><g transform="matrix(.34976 0 0 -.34976 29.387 42.443)"><path d="M0 0v5.18c.139.011.249.027.361.027 2.904.001 5.807.004 8.712-.004.165 0 .368-.016.488-.108 1.036-.807 2.055-1.632 3.13-2.489-1.075-.86-2.098-1.681-3.128-2.492a.655.655 0 0 0-.376-.108C6.15-.002 3.112 0 0 0z" fill="none" stroke="#272525" stroke-width=".211" stroke-linecap="butt" stroke-linejoin="miter" stroke-miterlimit="8" stroke-dasharray="none" stroke-opacity="1"/></g><g transform="matrix(.34976 0 0 -.34976 50.417 43.982)"><path d="M0 0h-32.54v16.481H0z" fill="none" stroke="#272525" stroke-width=".317" stroke-linecap="butt" stroke-linejoin="miter" stroke-miterlimit="10" stroke-dasharray="none" stroke-opacity="1"/></g><g transform="matrix(.34976 0 0 -.34976 44.498 41.51)"><path d="M0 0v3.709h-2.128l.009.204h4.885c.002-.058.007-.116.01-.171H.635c0-1.18-.008-2.236.004-3.29C.645.053.591-.228 0 0" fill="#cc2229" fill-opacity="1" fill-rule="evenodd" stroke="none"/></g><g transform="matrix(.34976 0 0 -.34976 40.635 41.402)"><path d="M0 0c-.877 0-1.754.007-2.633-.004-.292-.004-.566.042-.575.378-.01.35.264.458.575.458C-.86.833.912.835 2.685.83c.283-.001.546-.091.547-.43.002-.349-.251-.406-.547-.403C1.79.005.895 0 0 0" fill="#272525" fill-opacity="1" fill-rule="evenodd" stroke="none"/></g><g transform="matrix(.34976 0 0 -.34976 40.888 42)"><path d="M0 0c-.631 0-1.264.001-1.895-.001-.296-.001-.605.013-.623.396-.017.393.292.42.587.42C-.631.816.667.813 1.965.817c.295.001.554-.068.545-.413-.008-.338-.273-.406-.562-.405C1.298.001.649 0 0 0" fill="#272525" fill-opacity="1" fill-rule="evenodd" stroke="none"/></g><g transform="matrix(.34976 0 0 -.34976 48.815 41.661)"><path d="M0 0c-.898 0-1.796-.007-2.694.004-.28.003-.519-.064-.539-.367-.022-.329.228-.465.517-.466C-.919-.836.877-.834 2.673-.83c.295 0 .552.13.544.447-.007.335-.279.389-.575.386C1.762-.007.881 0 0 0" fill="#272525" fill-opacity="1" fill-rule="evenodd" stroke="none"/></g><g transform="matrix(.34976 0 0 -.34976 48.566 41.064)"><path d="M0 0c-.65 0-1.299-.005-1.948.002-.292.002-.564-.067-.574-.395-.012-.372.281-.426.589-.424 1.281.004 2.562 0 3.842.002.288.002.613.013.601.408C2.5-.03 2.191 0 1.895 0z" fill="#272525" fill-opacity="1" fill-rule="evenodd" stroke="none"/></g><g transform="matrix(.34976 0 0 -.34976 41.81 41.555)"><path d="M0 0h16.274m343.693-6.939h-32.54V9.542h32.54z" fill="none" stroke="#272525" stroke-width=".317" stroke-linecap="butt" stroke-linejoin="miter" stroke-miterlimit="10" stroke-dasharray="none" stroke-opacity="1"/></g><g transform="matrix(.34976 0 0 -.34976 157.93 41.355)"><path d="M0 0c-.877 0-1.755.006-2.632-.004-.293-.004-.567.043-.576.379-.01.349.263.457.576.457C-.86.833.912.835 2.685.83c.284-.001.546-.092.547-.431.001-.348-.252-.405-.547-.402C1.791.005.895 0 0 0" fill="#272525" fill-opacity="1" fill-rule="evenodd" stroke="none"/></g><g transform="matrix(.34976 0 0 -.34976 158.183 41.952)"><path d="M0 0c-.632 0-1.264.002-1.896-.001-.296-.001-.606.013-.622.396-.019.393.291.419.588.419C-.632.816.667.813 1.965.817c.295.001.555-.068.544-.413C2.502.066 2.238-.002 1.948 0 1.298.002.65 0 0 0" fill="#272525" fill-opacity="1" fill-rule="evenodd" stroke="none"/></g><g transform="matrix(.34976 0 0 -.34976 166.11 41.709)"><path d="M0 0c-.898 0-1.796-.007-2.694.004-.281.003-.518-.064-.539-.366-.022-.329.228-.466.517-.467C-.919-.836.876-.834 2.673-.83c.295.001.551.132.544.448-.008.334-.281.389-.575.385C1.762-.007.881 0 0 0" fill="#272525" fill-opacity="1" fill-rule="evenodd" stroke="none"/></g><g transform="matrix(.34976 0 0 -.34976 165.861 41.111)"><path d="M0 0c-.649 0-1.297-.004-1.946.001-.293.003-.565-.067-.576-.394-.012-.372.282-.425.589-.425 1.281.005 2.562.001 3.842.004.289 0 .613.012.602.407-.01.377-.318.407-.615.407H0" fill="#272525" fill-opacity="1" fill-rule="evenodd" stroke="none"/></g><g transform="matrix(.34976 0 0 -.34976 159.106 41.508)"><path d="M0 0h16.273" fill="none" stroke="#272525" stroke-width=".317" stroke-linecap="butt" stroke-linejoin="miter" stroke-miterlimit="10" stroke-dasharray="none" stroke-opacity="1"/></g><g transform="matrix(.34976 0 0 -.34976 160.548 41.075)"><path d="M0 0h5.469v1.307l2.606-2.614L5.469-3.92v1.307H0z" fill="#4978b1" fill-opacity="1" fill-rule="nonzero" stroke="none"/></g><g transform="matrix(.34976 0 0 -.34976 160.548 41.075)"><path d="M0 0h5.469v1.307l2.606-2.614L5.469-3.92v1.307H0z" fill="none" stroke="#272525" stroke-width=".148" stroke-linecap="butt" stroke-linejoin="miter" stroke-miterlimit="10" stroke-dasharray="none" stroke-opacity="1"/></g><g transform="matrix(.34976 0 0 -.34976 141.646 43.982)"><path d="M0 0h-32.539v16.481H0z" fill="none" stroke="#272525" stroke-width=".317" stroke-linecap="butt" stroke-linejoin="miter" stroke-miterlimit="10" stroke-dasharray="none" stroke-opacity="1"/></g><g transform="matrix(.34976 0 0 -.34976 131.864 41.385)"><path d="M0 0c-.878 0-1.755.006-2.632-.003-.292-.004-.566.042-.576.377-.009.349.263.457.576.457C-.86.834.912.835 2.684.831c.284-.002.548-.092.548-.432.002-.348-.251-.405-.546-.402C1.79.005.895 0 0 0" fill="#272525" fill-opacity="1" fill-rule="evenodd" stroke="none"/></g><g transform="matrix(.34976 0 0 -.34976 132.117 41.983)"><path d="M0 0c-.631 0-1.263.001-1.895-.001-.295-.001-.604.014-.622.396-.017.394.292.419.587.419C-.631.816.668.813 1.967.818c.295 0 .554-.069.545-.413-.009-.338-.274-.407-.564-.406C1.3.002.65 0 0 0" fill="#272525" fill-opacity="1" fill-rule="evenodd" stroke="none"/></g><g transform="matrix(.34976 0 0 -.34976 140.044 41.679)"><path d="M0 0c-.898 0-1.796-.005-2.694.005-.281.003-.519-.065-.539-.367-.022-.328.227-.463.516-.465C-.919-.834.877-.833 2.674-.829c.294.001.551.131.543.447-.007.335-.278.39-.575.386C1.762-.005.881 0 0 0" fill="#272525" fill-opacity="1" fill-rule="evenodd" stroke="none"/></g><g transform="matrix(.34976 0 0 -.34976 139.796 41.081)"><path d="M0 0c-.649 0-1.299-.004-1.947.002-.292.003-.566-.067-.575-.394-.013-.371.28-.425.589-.425 1.281.005 2.561 0 3.842.004.289.001.612.012.602.407C2.5-.03 2.192.001 1.895 0z" fill="#272525" fill-opacity="1" fill-rule="evenodd" stroke="none"/></g><g transform="matrix(.34976 0 0 -.34976 133.04 41.539)"><path d="M0 0h16.272" fill="none" stroke="#272525" stroke-width=".317" stroke-linecap="butt" stroke-linejoin="miter" stroke-miterlimit="10" stroke-dasharray="none" stroke-opacity="1"/></g><g transform="matrix(.34976 0 0 -.34976 135.375 41.562)"><path d="M0 0a1.25 1.25 0 1 0 2.498 0A1.25 1.25 0 0 0 1.25-1.253C.559-1.253 0-.691 0 0" fill="#fff" fill-opacity="1" fill-rule="evenodd" stroke="none"/></g><g transform="matrix(.34976 0 0 -.34976 135.375 41.562)"><path d="M0 0a1.25 1.25 0 1 0 2.498 0A1.25 1.25 0 0 0 1.25-1.253C.559-1.253 0-.691 0 0z" fill="none" stroke="#272525" stroke-width=".845" stroke-linecap="butt" stroke-linejoin="miter" stroke-miterlimit="10" stroke-dasharray="none" stroke-opacity="1"/></g><g transform="matrix(.34976 0 0 -.34976 76.482 43.982)"><path d="M0 0h-32.539v16.481H0z" fill="none" stroke="#272525" stroke-width=".317" stroke-linecap="butt" stroke-linejoin="miter" stroke-miterlimit="10" stroke-dasharray="none" stroke-opacity="1"/></g><g transform="matrix(.34976 0 0 -.34976 66.7 41.392)"><path d="M0 0c-.877 0-1.754.007-2.632-.004-.292-.003-.566.043-.576.379-.009.349.265.457.576.457C-.859.833.912.835 2.685.83c.284-.001.546-.092.548-.431.001-.348-.252-.404-.548-.402C1.791.004.896 0 0 0" fill="#272525" fill-opacity="1" fill-rule="evenodd" stroke="none"/></g><g transform="matrix(.34976 0 0 -.34976 66.953 41.989)"><path d="M0 0c-.631 0-1.263.001-1.896-.001-.295-.001-.604.013-.621.395-.018.393.291.42.587.42C-.631.815.668.813 1.966.815c.295.001.554-.066.545-.412-.009-.338-.274-.405-.563-.404C1.299.002.65 0 0 0" fill="#272525" fill-opacity="1" fill-rule="evenodd" stroke="none"/></g><g transform="matrix(.34976 0 0 -.34976 74.88 41.672)"><path d="M0 0c-.898 0-1.796-.007-2.695.003-.281.003-.518-.064-.538-.366-.022-.328.227-.464.517-.466 1.797-.007 3.593-.005 5.388 0 .296 0 .553.13.545.446-.007.334-.28.389-.576.386C1.761-.007.881 0 0 0" fill="#272525" fill-opacity="1" fill-rule="evenodd" stroke="none"/></g><g transform="matrix(.34976 0 0 -.34976 74.632 41.075)"><path d="M0 0c-.649 0-1.298-.004-1.947.002-.291.003-.564-.067-.575-.395-.013-.371.281-.425.589-.423 1.281.003 2.562 0 3.842.003.289 0 .613.012.602.407-.01.376-.319.406-.615.406H0" fill="#272525" fill-opacity="1" fill-rule="evenodd" stroke="none"/></g><g transform="matrix(.34976 0 0 -.34976 67.876 41.545)"><path d="M0 0h16.273" fill="none" stroke="#272525" stroke-width=".317" stroke-linecap="butt" stroke-linejoin="miter" stroke-miterlimit="10" stroke-dasharray="none" stroke-opacity="1"/></g><g transform="matrix(.34976 0 0 -.34976 68.485 42.443)"><path d="M0 0v5.18c.139.011.249.027.361.027 2.904.001 5.808.004 8.711-.004.166 0 .369-.016.489-.108 1.035-.807 2.056-1.632 3.13-2.489-1.075-.86-2.098-1.681-3.128-2.492a.655.655 0 0 0-.376-.108C6.151-.002 3.112 0 0 0" fill="#bdb39b" fill-opacity="1" fill-rule="evenodd" stroke="none"/></g><g transform="matrix(.34976 0 0 -.34976 68.485 42.443)"><path d="M0 0v5.18c.139.011.249.027.361.027 2.904.001 5.808.004 8.711-.004.166 0 .369-.016.489-.108 1.035-.807 2.056-1.632 3.13-2.489-1.075-.86-2.098-1.681-3.128-2.492a.655.655 0 0 0-.376-.108C6.151-.002 3.112 0 0 0z" fill="none" stroke="#272525" stroke-width=".211" stroke-linecap="butt" stroke-linejoin="miter" stroke-miterlimit="8" stroke-dasharray="none" stroke-opacity="1"/></g><g transform="matrix(.34976 0 0 -.34976 115.58 43.982)"><path d="M0 0h-32.54v16.481H0z" fill="none" stroke="#272525" stroke-width=".317" stroke-linecap="butt" stroke-linejoin="miter" stroke-miterlimit="10" stroke-dasharray="none" stroke-opacity="1"/></g><g transform="matrix(.34976 0 0 -.34976 109.662 41.51)"><path d="M0 0v3.709h-2.129l.01.204h4.885c.001-.058.006-.116.009-.171H.635c0-1.18-.008-2.236.004-3.29C.644.053.591-.228 0 0" fill="#cc2229" fill-opacity="1" fill-rule="evenodd" stroke="none"/></g><g transform="matrix(.34976 0 0 -.34976 105.799 41.402)"><path d="M0 0c-.877 0-1.754.007-2.633-.004-.292-.004-.566.042-.575.378-.01.35.265.458.575.458C-.859.833.912.835 2.685.83c.283-.001.546-.091.547-.43 0-.349-.252-.406-.547-.403C1.79.005.895 0 0 0" fill="#272525" fill-opacity="1" fill-rule="evenodd" stroke="none"/></g><g transform="matrix(.34976 0 0 -.34976 106.051 42)"><path d="M0 0c-.631 0-1.263.001-1.895-.001-.296-.001-.604.013-.622.396-.018.393.292.42.588.42C-.631.816.668.813 1.966.817c.295.001.554-.068.544-.413-.007-.338-.272-.406-.561-.405C1.3.001.65 0 0 0" fill="#272525" fill-opacity="1" fill-rule="evenodd" stroke="none"/></g><g transform="matrix(.34976 0 0 -.34976 113.979 41.661)"><path d="M0 0c-.899 0-1.797-.007-2.696.004-.28.003-.518-.064-.539-.367-.021-.329.228-.465.518-.466C-.921-.836.876-.834 2.672-.83c.294 0 .551.13.543.447-.007.335-.279.389-.575.386C1.759-.007.88 0 0 0" fill="#272525" fill-opacity="1" fill-rule="evenodd" stroke="none"/></g><g transform="matrix(.34976 0 0 -.34976 113.73 41.064)"><path d="M0 0c-.649 0-1.298-.005-1.948.002-.292.002-.563-.067-.575-.395-.011-.372.282-.426.59-.424 1.28.004 2.562 0 3.842.002.289.002.613.013.602.408-.01.377-.32.407-.616.407z" fill="#272525" fill-opacity="1" fill-rule="evenodd" stroke="none"/></g><g transform="matrix(.34976 0 0 -.34976 106.975 41.555)"><path d="M0 0h16.274m-28.909-6.939h-32.541V9.542h32.541z" fill="none" stroke="#272525" stroke-width=".317" stroke-linecap="butt" stroke-linejoin="miter" stroke-miterlimit="10" stroke-dasharray="none" stroke-opacity="1"/></g><g transform="matrix(.34976 0 0 -.34976 92.774 41.392)"><path d="M0 0c-.878 0-1.755.007-2.633-.004-.292-.003-.566.043-.576.379-.009.349.264.457.576.457C-.862.833.912.835 2.683.83c.284-.001.547-.092.548-.431.002-.348-.252-.404-.548-.402C1.79.004.894 0 0 0" fill="#272525" fill-opacity="1" fill-rule="evenodd" stroke="none"/></g><g transform="matrix(.34976 0 0 -.34976 93.026 41.989)"><path d="M0 0c-.631 0-1.263.001-1.894-.001-.296-.001-.607.013-.623.395-.018.393.291.42.588.42C-.63.815.667.813 1.966.815c.294.001.553-.066.545-.412-.01-.338-.273-.405-.562-.404C1.298.002.649 0 0 0" fill="#272525" fill-opacity="1" fill-rule="evenodd" stroke="none"/></g><g transform="matrix(.34976 0 0 -.34976 100.953 41.672)"><path d="M0 0c-.897 0-1.795-.007-2.693.003-.281.003-.518-.064-.539-.366-.022-.328.227-.464.517-.466 1.796-.007 3.593-.005 5.389 0 .294 0 .551.13.544.446-.008.334-.281.389-.576.386C1.762-.007.881 0 0 0" fill="#272525" fill-opacity="1" fill-rule="evenodd" stroke="none"/></g><g transform="matrix(.34976 0 0 -.34976 100.705 41.075)"><path d="M0 0c-.649 0-1.297-.004-1.947.002-.291.003-.564-.067-.574-.395-.013-.371.281-.425.589-.423 1.28.003 2.562 0 3.842.003.289 0 .613.012.602.407C2.501-.03 2.194 0 1.896 0H0" fill="#272525" fill-opacity="1" fill-rule="evenodd" stroke="none"/></g><g transform="matrix(.34976 0 0 -.34976 93.95 41.545)"><path d="M0 0h16.272" fill="none" stroke="#272525" stroke-width=".317" stroke-linecap="butt" stroke-linejoin="miter" stroke-miterlimit="10" stroke-dasharray="none" stroke-opacity="1"/></g><g transform="matrix(.34976 0 0 -.34976 94.559 42.443)"><path d="M0 0v5.18c.139.011.249.027.36.027 2.904.001 5.809.004 8.712-.004.166 0 .369-.016.489-.108 1.035-.807 2.054-1.632 3.13-2.489-1.076-.86-2.098-1.681-3.128-2.492a.656.656 0 0 0-.375-.108C6.15-.002 3.112 0 0 0" fill="#90aa72" fill-opacity="1" fill-rule="evenodd" stroke="none"/></g><g transform="matrix(.34976 0 0 -.34976 94.559 42.443)"><path d="M0 0v5.18c.139.011.249.027.36.027 2.904.001 5.809.004 8.712-.004.166 0 .369-.016.489-.108 1.035-.807 2.054-1.632 3.13-2.489-1.076-.86-2.098-1.681-3.128-2.492a.656.656 0 0 0-.375-.108C6.15-.002 3.112 0 0 0z" fill="none" stroke="#272525" stroke-width=".211" stroke-linecap="butt" stroke-linejoin="miter" stroke-miterlimit="8" stroke-dasharray="none" stroke-opacity="1"/></g><g transform="matrix(.34976 0 0 -.34976 128.613 43.982)"><path d="M0 0h-32.54v16.481H0z" fill="none" stroke="#272525" stroke-width=".317" stroke-linecap="butt" stroke-linejoin="miter" stroke-miterlimit="10" stroke-dasharray="none" stroke-opacity="1"/></g><g transform="matrix(.34976 0 0 -.34976 122.695 41.51)"><path d="M0 0v3.709h-2.128c.001.068.005.136.008.204h4.885c.002-.058.006-.116.01-.171H.634c0-1.18-.008-2.236.003-3.29C.643.053.589-.228 0 0" fill="#cc2229" fill-opacity="1" fill-rule="evenodd" stroke="none"/></g><g transform="matrix(.34976 0 0 -.34976 118.831 41.402)"><path d="M0 0c-.877 0-1.755.007-2.632-.004-.292-.004-.568.042-.576.378-.009.35.263.458.576.458C-.86.833.913.835 2.685.83c.282-.001.545-.091.547-.43.002-.349-.252-.406-.546-.403C1.79.005.895 0 0 0" fill="#272525" fill-opacity="1" fill-rule="evenodd" stroke="none"/></g><g transform="matrix(.34976 0 0 -.34976 119.084 42)"><path d="M0 0c-.632 0-1.263.001-1.896-.001-.295-.001-.604.013-.621.396-.019.393.292.42.587.42C-.632.816.668.813 1.966.817c.295.001.554-.068.545-.413-.009-.338-.272-.406-.562-.405C1.299.001.65 0 0 0" fill="#272525" fill-opacity="1" fill-rule="evenodd" stroke="none"/></g><g transform="matrix(.34976 0 0 -.34976 127.011 41.661)"><path d="M0 0c-.897 0-1.796-.007-2.693.004-.28.003-.52-.064-.538-.367-.023-.329.226-.465.517-.466C-.919-.836.877-.834 2.673-.83c.295 0 .553.13.545.447-.008.335-.28.389-.575.386C1.763-.007.882 0 0 0" fill="#272525" fill-opacity="1" fill-rule="evenodd" stroke="none"/></g><g transform="matrix(.34976 0 0 -.34976 126.762 41.064)"><path d="M0 0c-.649 0-1.296-.005-1.945.002-.293.002-.565-.067-.575-.395-.013-.372.281-.426.588-.424 1.281.004 2.562 0 3.843.002.288.002.612.013.601.408C2.501-.03 2.194 0 1.896 0z" fill="#272525" fill-opacity="1" fill-rule="evenodd" stroke="none"/></g><g transform="matrix(.34976 0 0 -.34976 120.007 41.555)"><path d="M0 0h16.272M99.13-6.939H66.59V9.542h32.54z" fill="none" stroke="#272525" stroke-width=".317" stroke-linecap="butt" stroke-linejoin="miter" stroke-miterlimit="10" stroke-dasharray="none" stroke-opacity="1"/></g><g transform="matrix(.34976 0 0 -.34976 148.76 41.51)"><path d="M0 0v3.709h-2.129c.002.068.006.136.01.204h4.885l.008-.171H.635c0-1.18-.008-2.236.004-3.29C.645.053.591-.228 0 0" fill="#cc2229" fill-opacity="1" fill-rule="evenodd" stroke="none"/></g><g transform="matrix(.34976 0 0 -.34976 144.897 41.402)"><path d="M0 0c-.878 0-1.755.007-2.633-.004-.292-.004-.566.042-.576.378-.009.35.265.458.576.458C-.861.833.912.835 2.684.83c.283-.001.547-.091.548-.43 0-.349-.252-.406-.547-.403C1.79.005.895 0 0 0" fill="#272525" fill-opacity="1" fill-rule="evenodd" stroke="none"/></g><g transform="matrix(.34976 0 0 -.34976 145.15 42)"><path d="M0 0c-.631 0-1.264.001-1.895-.001-.297-.001-.604.013-.622.396-.018.393.291.42.587.42C-.631.816.668.813 1.967.817c.293.001.552-.068.544-.413-.009-.338-.274-.406-.562-.405C1.299.001.649 0 0 0" fill="#272525" fill-opacity="1" fill-rule="evenodd" stroke="none"/></g><g transform="matrix(.34976 0 0 -.34976 153.077 41.661)"><path d="M0 0c-.899 0-1.796-.007-2.694.004-.281.003-.519-.064-.54-.367-.022-.329.228-.465.518-.466C-.92-.836.876-.834 2.673-.83c.295 0 .551.13.544.447-.007.335-.28.389-.576.386C1.761-.007.88 0 0 0" fill="#272525" fill-opacity="1" fill-rule="evenodd" stroke="none"/></g><g transform="matrix(.34976 0 0 -.34976 152.828 41.064)"><path d="M0 0c-.649 0-1.298-.005-1.947.002-.292.002-.565-.067-.575-.395-.012-.372.281-.426.589-.424 1.28.004 2.562 0 3.842.002.289.002.613.013.602.408C2.5-.03 2.192 0 1.895 0z" fill="#272525" fill-opacity="1" fill-rule="evenodd" stroke="none"/></g><g transform="matrix(.34976 0 0 -.34976 -11.003 265.518)"><g clip-path="url(#ravencad.o.svga)"><g transform="translate(449.099 640.338)"><path d="M0 0h16.273m82.856-6.939h-32.54V9.542h32.54z" fill="none" stroke="#272525" stroke-width=".317" stroke-linecap="butt" stroke-linejoin="miter" stroke-miterlimit="10" stroke-dasharray="none" stroke-opacity="1"/></g></g></g><g transform="matrix(.34976 0 0 -.34976 174.825 41.51)"><path d="M0 0v3.709h-2.128l.008.204h4.886l.01-.171H.635c0-1.18-.008-2.236.003-3.29C.644.053.591-.228 0 0" fill="#cc2229" fill-opacity="1" fill-rule="evenodd" stroke="none"/></g><g transform="matrix(.34976 0 0 -.34976 170.962 41.402)"><path d="M0 0c-.877 0-1.754.007-2.632-.004-.292-.004-.567.042-.576.378-.009.35.264.458.576.458C-.86.833.914.835 2.685.83c.284-.001.546-.091.548-.43.001-.349-.252-.406-.548-.403C1.791.005.896 0 0 0" fill="#272525" fill-opacity="1" fill-rule="evenodd" stroke="none"/></g><g transform="matrix(.34976 0 0 -.34976 171.215 42)"><path d="M0 0c-.632 0-1.264.001-1.895-.001-.296-.001-.606.013-.623.396-.017.393.294.42.587.42C-.632.816.667.813 1.965.817c.297.001.555-.068.545-.413-.008-.338-.274-.406-.563-.405C1.299.001.65 0 0 0" fill="#272525" fill-opacity="1" fill-rule="evenodd" stroke="none"/></g><g transform="matrix(.34976 0 0 -.34976 179.142 41.661)"><path d="M0 0c-.897 0-1.796-.007-2.695.004-.28.003-.518-.064-.538-.367-.021-.329.227-.465.517-.466C-.92-.836.877-.834 2.674-.83c.294 0 .551.13.544.447-.009.335-.28.389-.575.386C1.761-.007.881 0 0 0" fill="#272525" fill-opacity="1" fill-rule="evenodd" stroke="none"/></g><g transform="matrix(.34976 0 0 -.34976 178.894 41.064)"><path d="M0 0c-.65 0-1.3-.005-1.948.002-.291.002-.563-.067-.573-.395-.015-.372.28-.426.587-.424 1.282.004 2.561 0 3.842.002.289.002.613.013.602.408C2.5-.03 2.192 0 1.895 0z" fill="#272525" fill-opacity="1" fill-rule="evenodd" stroke="none"/></g><g transform="matrix(.34976 0 0 -.34976 172.139 41.555)"><path d="M0 0h16.272m-455.085 26.133V11.996" fill="none" stroke="#272525" stroke-width=".317" stroke-linecap="butt" stroke-linejoin="miter" stroke-miterlimit="10" stroke-dasharray="none" stroke-opacity="1"/></g><g transform="matrix(.34976 0 0 -.34976 18.66 38.142)"><path d="M0 0l-1.289 3.153L0 2.405l1.289.748z" fill="#272525" fill-opacity="1" fill-rule="nonzero" stroke="none"/></g><g transform="matrix(.34976 0 0 -.34976 31.693 32.415)"><path d="M0 0v-13.764" fill="none" stroke="#272525" stroke-width=".37" stroke-linecap="butt" stroke-linejoin="miter" stroke-miterlimit="10" stroke-dasharray="none" stroke-opacity="1"/></g><g transform="matrix(.34976 0 0 -.34976 31.693 38.142)"><path d="M0 0l-1.503 3.679L0 2.806l1.504.873z" fill="#272525" fill-opacity="1" fill-rule="nonzero" stroke="none"/></g><g transform="matrix(.34976 0 0 -.34976 70.792 32.415)"><path d="M0 0v-13.764" fill="none" stroke="#272525" stroke-width=".37" stroke-linecap="butt" stroke-linejoin="miter" stroke-miterlimit="10" stroke-dasharray="none" stroke-opacity="1"/></g><g transform="matrix(.34976 0 0 -.34976 70.792 38.142)"><path d="M0 0l-1.503 3.679L0 2.806l1.504.873z" fill="#272525" fill-opacity="1" fill-rule="nonzero" stroke="none"/></g><g transform="matrix(.34976 0 0 -.34976 85.62 29.231)"><path d="M0 0c-1.399-.354-2.795-.708-4.192-1.065-.247-.063-.296.068-.273.263.048.372-.174.386-.457.386a146.35 146.35 0 0 0-3.92.004c-.375.004-.445-.134-.435-.464.023-.643-.023-1.288.018-1.93.031-.461-.225-.43-.534-.432-.293-.003-.504-.015-.49.404.033.972.029 1.951 0 2.924-.012.406.1.531.515.525C-8.191.59-6.613.605-5.035.607c.273 0 .572-.098.59.387.013.341.321.145.49.103C-2.632.774-1.31.438.012.105.007.069.002.035 0 0" fill="#304296" fill-opacity="1" fill-rule="evenodd" stroke="none"/></g><g transform="matrix(.34976 0 0 -.34976 87.298 32.472)"><path d="M0 0h-19.865v16.482H0zm6.338-32.91h-32.541v16.481H6.338z" fill="none" stroke="#272525" stroke-width=".317" stroke-linecap="butt" stroke-linejoin="miter" stroke-miterlimit="10" stroke-dasharray="none" stroke-opacity="1"/></g><g transform="matrix(.34976 0 0 -.34976 85.62 40.445)"><path d="M0 0a1977.16 1977.16 0 0 1-4.192-1.065c-.247-.063-.295.067-.272.262.047.373-.175.387-.457.386-1.308-.01-2.615-.019-3.921.005-.375.005-.445-.134-.435-.464.023-.643-.023-1.288.018-1.931.031-.46-.225-.429-.534-.431-.293-.003-.504-.016-.49.405.033.971.029 1.95 0 2.923-.012.407.1.53.515.525C-8.19.59-6.613.604-5.035.607c.274 0 .572-.098.59.387.013.341.322.145.49.103C-2.632.774-1.31.438.012.106.007.069.002.034 0 0" fill="#304296" fill-opacity="1" fill-rule="evenodd" stroke="none"/></g><g transform="matrix(.34976 0 0 -.34976 79.733 41.402)"><path d="M0 0c-.878 0-1.755.007-2.633-.004-.292-.004-.567.042-.576.378-.009.35.264.458.576.458C-.861.833.912.835 2.684.83c.283-.001.547-.091.547-.43.002-.349-.251-.406-.546-.403C1.79.005.895 0 0 0" fill="#272525" fill-opacity="1" fill-rule="evenodd" stroke="none"/></g><g transform="matrix(.34976 0 0 -.34976 79.986 42)"><path d="M0 0c-.632 0-1.264.001-1.895-.001-.297-.001-.606.013-.623.396-.017.393.292.42.587.42C-.632.816.667.813 1.966.817c.295.001.553-.068.545-.413-.01-.338-.274-.406-.564-.405C1.298.001.65 0 0 0" fill="#272525" fill-opacity="1" fill-rule="evenodd" stroke="none"/></g><g transform="matrix(.34976 0 0 -.34976 87.913 41.661)"><path d="M0 0c-.898 0-1.796-.007-2.694.004-.28.003-.519-.064-.539-.367-.023-.329.227-.465.517-.466C-.92-.836.877-.834 2.673-.83c.295 0 .552.13.544.447-.008.335-.279.389-.575.386C1.762-.007.881 0 0 0" fill="#272525" fill-opacity="1" fill-rule="evenodd" stroke="none"/></g><g transform="matrix(.34976 0 0 -.34976 87.664 41.064)"><path d="M0 0c-.649 0-1.297-.005-1.946.002-.292.002-.564-.067-.575-.395-.012-.372.281-.426.589-.424 1.28.004 2.562 0 3.842.002.289.002.613.013.602.408C2.501-.03 2.193 0 1.896 0z" fill="#272525" fill-opacity="1" fill-rule="evenodd" stroke="none"/></g><g transform="matrix(.34976 0 0 -.34976 80.91 41.555)"><path d="M0 0h16.273" fill="none" stroke="#272525" stroke-width=".317" stroke-linecap="butt" stroke-linejoin="miter" stroke-miterlimit="10" stroke-dasharray="none" stroke-opacity="1"/></g><g transform="matrix(.34976 0 0 -.34976 83.824 32.415)"><path d="M0 0v-13.764" fill="none" stroke="#272525" stroke-width=".37" stroke-linecap="butt" stroke-linejoin="miter" stroke-miterlimit="10" stroke-dasharray="none" stroke-opacity="1"/></g><g transform="matrix(.34976 0 0 -.34976 83.824 38.142)"><path d="M0 0l-1.504 3.679L0 2.806l1.504.873z" fill="#272525" fill-opacity="1" fill-rule="nonzero" stroke="none"/></g><g transform="matrix(.34976 0 0 -.34976 96.865 32.415)"><path d="M0 0v-13.764" fill="none" stroke="#272525" stroke-width=".37" stroke-linecap="butt" stroke-linejoin="miter" stroke-miterlimit="10" stroke-dasharray="none" stroke-opacity="1"/></g><g transform="matrix(.34976 0 0 -.34976 96.865 38.142)"><path d="M0 0l-1.504 3.679L0 2.806l1.504.873z" fill="#272525" fill-opacity="1" fill-rule="nonzero" stroke="none"/></g><g transform="matrix(.34976 0 0 -.34976 135.956 32.415)"><path d="M0 0v-13.764" fill="none" stroke="#272525" stroke-width=".37" stroke-linecap="butt" stroke-linejoin="miter" stroke-miterlimit="10" stroke-dasharray="none" stroke-opacity="1"/></g><g transform="matrix(.34976 0 0 -.34976 135.956 38.142)"><path d="M0 0l-1.504 3.679L0 2.806l1.503.873z" fill="#272525" fill-opacity="1" fill-rule="nonzero" stroke="none"/></g><g transform="matrix(.34976 0 0 -.34976 122.923 32.415)"><path d="M0 0v-13.764" fill="none" stroke="#272525" stroke-width=".37" stroke-linecap="butt" stroke-linejoin="miter" stroke-miterlimit="10" stroke-dasharray="none" stroke-opacity="1"/></g><g transform="matrix(.34976 0 0 -.34976 122.923 38.142)"><path d="M0 0l-1.502 3.679L0 2.806l1.504.873z" fill="#272525" fill-opacity="1" fill-rule="nonzero" stroke="none"/></g><g transform="matrix(.34976 0 0 -.34976 162.033 32.415)"><path d="M0 0v-13.764" fill="none" stroke="#272525" stroke-width=".37" stroke-linecap="butt" stroke-linejoin="miter" stroke-miterlimit="10" stroke-dasharray="none" stroke-opacity="1"/></g><g transform="matrix(.34976 0 0 -.34976 162.033 38.142)"><path d="M0 0l-1.503 3.679L0 2.806l1.503.873z" fill="#272525" fill-opacity="1" fill-rule="nonzero" stroke="none"/></g><g transform="matrix(.34976 0 0 -.34976 123.012 32.859)"><path d="M0 0c-9.671-24.389-193.33.729-226.98-13.59" fill="none" stroke="#272525" stroke-width=".37" stroke-linecap="butt" stroke-linejoin="miter" stroke-miterlimit="10" stroke-dasharray="none" stroke-opacity="1"/></g><g transform="matrix(.34976 0 0 -.34976 42.814 38.032)"><path d="M0 0l2.615 2.994-.106-1.735L3.963.307z" fill="#272525" fill-opacity="1" fill-rule="nonzero" stroke="none"/></g><g transform="matrix(.34976 0 0 -.34976 122.943 32.607)"><path d="M0 0c0-10.047-34.216-5.944-40.075-13.568" fill="none" stroke="#272525" stroke-width=".37" stroke-linecap="butt" stroke-linejoin="miter" stroke-miterlimit="10" stroke-dasharray="none" stroke-opacity="1"/></g><g transform="matrix(.34976 0 0 -.34976 108.63 38.217)"><path d="M0 0l-.068 3.974 1.084-1.358 1.718.269z" fill="#272525" fill-opacity="1" fill-rule="nonzero" stroke="none"/></g><g transform="matrix(.34976 0 0 -.34976 122.906 32.644)"><path d="M0 0c0-10.129 61.372-5.877 70.98-13.754" fill="none" stroke="#272525" stroke-width=".37" stroke-linecap="butt" stroke-linejoin="miter" stroke-miterlimit="10" stroke-dasharray="none" stroke-opacity="1"/></g><g transform="matrix(.34976 0 0 -.34976 148.172 38.253)"><path d="M0 0l-3.211 2.344 1.739.045.822 1.532z" fill="#272525" fill-opacity="1" fill-rule="nonzero" stroke="none"/></g><g transform="matrix(.34976 0 0 -.34976 122.91 32.644)"><path d="M0 0c0-10.281 130.992-5.744 147.82-14.122" fill="none" stroke="#272525" stroke-width=".37" stroke-linecap="butt" stroke-linejoin="miter" stroke-miterlimit="10" stroke-dasharray="none" stroke-opacity="1"/></g><g transform="matrix(.34976 0 0 -.34976 175.232 38.254)"><path d="M0 0l-3.676 1.513 1.677.457.433 1.684z" fill="#272525" fill-opacity="1" fill-rule="nonzero" stroke="none"/></g><g transform="matrix(.34976 0 0 -.34976 18.208 43.951)"><path d="M0 0c0-10.264 108.073-4.718 108.073-14.983M36.35 0c0-10.047 71.723-4.619 71.723-14.665M71.432-.212c0-10.626 36.747-4.884 36.747-15.51" fill="none" stroke="#272525" stroke-width=".37" stroke-linecap="butt" stroke-linejoin="miter" stroke-miterlimit="10" stroke-dasharray="none" stroke-opacity="1"/></g><g transform="matrix(.34976 0 0 -.34976 59.555 29.231)"><path d="M0 0c-1.397-.354-2.794-.708-4.19-1.065-.247-.063-.297.068-.273.263.047.372-.175.386-.457.386-1.307-.011-2.614-.02-3.921.004-.375.004-.445-.134-.435-.464.023-.643-.023-1.288.018-1.93.031-.461-.225-.43-.534-.432-.293-.003-.504-.015-.49.404.033.972.03 1.951.001 2.924-.012.406.1.531.515.525C-8.189.59-6.612.605-5.034.607c.274 0 .574-.098.591.387.012.341.321.145.49.103C-2.631.774-1.308.438.014.105.008.069.005.035 0 0" fill="#d5652c" fill-opacity="1" fill-rule="evenodd" stroke="none"/></g><g transform="matrix(.34976 0 0 -.34976 61.233 32.472)"><path d="M0 0h-19.865v16.482H0zm6.338-32.91h-32.541v16.481H6.338z" fill="none" stroke="#272525" stroke-width=".317" stroke-linecap="butt" stroke-linejoin="miter" stroke-miterlimit="10" stroke-dasharray="none" stroke-opacity="1"/></g><g transform="matrix(.34976 0 0 -.34976 59.555 40.445)"><path d="M0 0c-1.397-.354-2.794-.708-4.19-1.065-.247-.063-.297.067-.273.262.047.373-.175.387-.457.386-1.307-.01-2.614-.019-3.921.005-.375.005-.445-.134-.435-.464.023-.643-.023-1.288.018-1.931.031-.46-.225-.429-.534-.431-.293-.003-.504-.016-.49.405.033.971.03 1.95.001 2.923-.012.407.1.53.515.525C-8.189.59-6.612.604-5.034.607c.274 0 .574-.098.591.387.012.341.321.145.49.103C-2.631.774-1.308.438.014.106.008.069.005.034 0 0" fill="#d5652c" fill-opacity="1" fill-rule="evenodd" stroke="none"/></g><g transform="matrix(.34976 0 0 -.34976 53.668 41.402)"><path d="M0 0c-.877 0-1.755.007-2.633-.004-.293-.004-.566.042-.575.378-.01.35.263.458.575.458C-.861.833.912.835 2.684.83c.284-.001.547-.091.548-.43.002-.349-.252-.406-.547-.403C1.79.005.895 0 0 0" fill="#272525" fill-opacity="1" fill-rule="evenodd" stroke="none"/></g><g transform="matrix(.34976 0 0 -.34976 53.92 42)"><path d="M0 0c-.631 0-1.263.001-1.895-.001-.295-.001-.605.013-.622.396-.018.393.292.42.587.42C-.631.816.667.813 1.966.817c.296.001.554-.068.545-.413-.008-.338-.273-.406-.562-.405C1.299.001.65 0 0 0" fill="#272525" fill-opacity="1" fill-rule="evenodd" stroke="none"/></g><g transform="matrix(.34976 0 0 -.34976 61.848 41.661)"><path d="M0 0c-.898 0-1.797-.007-2.695.004-.28.003-.519-.064-.539-.367-.023-.329.228-.465.518-.466C-.92-.836.877-.834 2.673-.83c.295 0 .551.13.544.447-.008.335-.28.389-.576.386C1.762-.007.881 0 0 0" fill="#272525" fill-opacity="1" fill-rule="evenodd" stroke="none"/></g><g transform="matrix(.34976 0 0 -.34976 61.599 41.064)"><path d="M0 0c-.65 0-1.298-.005-1.947.002-.292.002-.564-.067-.576-.395-.011-.372.283-.426.59-.424 1.281.004 2.562 0 3.842.002.289.002.613.013.602.408-.01.377-.318.407-.617.407z" fill="#272525" fill-opacity="1" fill-rule="evenodd" stroke="none"/></g><g transform="matrix(.34976 0 0 -.34976 54.844 41.555)"><path d="M0 0h16.273" fill="none" stroke="#272525" stroke-width=".317" stroke-linecap="butt" stroke-linejoin="miter" stroke-miterlimit="10" stroke-dasharray="none" stroke-opacity="1"/></g><g transform="matrix(.34976 0 0 -.34976 57.76 32.415)"><path d="M0 0v-13.764" fill="none" stroke="#272525" stroke-width=".37" stroke-linecap="butt" stroke-linejoin="miter" stroke-miterlimit="10" stroke-dasharray="none" stroke-opacity="1"/></g><g transform="matrix(.34976 0 0 -.34976 57.76 38.142)"><path d="M0 0l-1.503 3.679L0 2.806l1.504.873z" fill="#272525" fill-opacity="1" fill-rule="nonzero" stroke="none"/></g><g transform="matrix(.34976 0 0 -.34976 56.028 44.092)"><path d="M0 0v-14.715" fill="none" stroke="#272525" stroke-width=".37" stroke-linecap="butt" stroke-linejoin="miter" stroke-miterlimit="10" stroke-dasharray="none" stroke-opacity="1"/></g><g transform="matrix(.34976 0 0 -.34976 56.028 50.152)"><path d="M0 0l-1.504 3.679L0 2.806l1.504.873z" fill="#272525" fill-opacity="1" fill-rule="nonzero" stroke="none"/></g><g transform="matrix(.34976 0 0 -.34976 68.693 43.951)"><path d="M0 0c0-10.047-35.952-4.619-35.952-14.665M116.867 0c0-10.047-153.241-4.619-153.241-14.665M43.112 0c0-10.047 37.593-4.619 37.593-14.665M155.119-.423c0-9.467-74.414-4.352-74.414-13.819M266.871-.509v-14.715" fill="none" stroke="#272525" stroke-width=".37" stroke-linecap="butt" stroke-linejoin="miter" stroke-miterlimit="10" stroke-dasharray="none" stroke-opacity="1"/></g><g transform="matrix(.34976 0 0 -.34976 162.033 50.19)"><path d="M0 0l-1.503 3.679L0 2.806l1.503.873z" fill="#272525" fill-opacity="1" fill-rule="nonzero" stroke="none"/></g><g transform="matrix(.34976 0 0 -.34976 174.834 44.1)"><path d="M0 0c0-10.046-36.481-4.618-36.481-14.665M-74.073-.106c0-10.047 37.376-4.619 37.376-14.666M-111.586.104c0-10.047 75.098-4.618 75.098-14.665" fill="none" stroke="#272525" stroke-width=".37" stroke-linecap="butt" stroke-linejoin="miter" stroke-miterlimit="10" stroke-dasharray="none" stroke-opacity="1"/></g><g transform="matrix(.34976 0 0 -.34976 73.49 63.787)"><path d="M0 0a1975.18 1975.18 0 0 1-4.19-1.064c-.247-.063-.297.067-.273.262.047.374-.174.387-.457.386-1.307-.01-2.614-.019-3.92.005-.375.004-.446-.136-.436-.464.023-.643-.023-1.288.019-1.929.031-.463-.225-.431-.535-.434-.293-.002-.503-.015-.489.404.031.973.029 1.952 0 2.926-.012.405.1.529.515.524C-8.189.591-6.612.605-5.033.607c.273 0 .573-.097.59.388.012.34.32.144.489.102C-2.63.774-1.308.439.014.106L0 0" fill="#59a052" fill-opacity="1" fill-rule="evenodd" stroke="none"/></g><g transform="matrix(.34976 0 0 -.34976 80.155 64.874)"><path d="M0 0v3.71h-2.127c.001.067.005.134.008.202h4.885c.002-.058.006-.115.01-.171H.634c0-1.18-.006-2.236.004-3.289C.645.052.591-.23 0 0" fill="#cc2229" fill-opacity="1" fill-rule="evenodd" stroke="none"/></g><g transform="matrix(.34976 0 0 -.34976 117.426 64.815)"><path d="M0 0c-.044.206.068.248.271.248C1.076.241 1.884.245 2.69.244c.421-.001.609-.205.609-.582v-10.145c0-.402-.19-.618-.655-.58-.124.011-.251.002-.376.002h-143.809c-.913 0-.915.002-.915.814v4.284c0 1.839-.002 3.678 0 5.516.001.586.107.704.745.687.832-.023 1.668.098 2.495-.067.122-.242.207-.486.054-.745-.368-.302-.818-.178-1.235-.185-1.005-.019-1.007-.008-1.007-.927v-7.534c0-.878.002-.879.945-.879H1.053c1.194 0 1.143-.079 1.144 1.042.001 2.512.002 5.024-.001 7.535 0 .734-.023.75-.804.757-.323.002-.646-.012-.968.013-.265.02-.502.084-.544.378A.48.48 0 0 0 0 0" fill="#272525" fill-opacity="1" fill-rule="evenodd" stroke="none"/></g><g transform="matrix(.34976 0 0 -.34976 85.797 63.787)"><path d="M0 0a2144.23 2144.23 0 0 1-4.192-1.064c-.246-.063-.296.067-.272.262.047.374-.175.387-.457.386-1.307-.01-2.614-.019-3.92.005-.375.004-.446-.136-.435-.464.022-.643-.024-1.288.018-1.929.031-.463-.225-.431-.535-.434-.293-.002-.503-.015-.489.404.031.973.029 1.952 0 2.926-.012.405.1.529.515.524C-8.19.591-6.613.605-5.035.607c.274 0 .574-.097.591.388.013.34.321.144.49.102C-2.631.774-1.309.439.013.106.009.07.003.035 0 0" fill="#d5652c" fill-opacity="1" fill-rule="evenodd" stroke="none"/></g><g transform="matrix(.34976 0 0 -.34976 92.462 64.89)"><path d="M0 0v3.711h-2.128a7 7 0 0 0 .01.202h4.884l.009-.171H.635c0-1.18-.007-2.236.004-3.29C.646.052.592-.229 0 0" fill="#cc2229" fill-opacity="1" fill-rule="evenodd" stroke="none"/></g><g transform="matrix(.34976 0 0 -.34976 98.289 63.787)"><path d="M0 0c-1.397-.353-2.795-.708-4.191-1.064-.247-.063-.296.067-.274.262.048.374-.172.387-.455.386-1.306-.01-2.615-.019-3.922.005-.374.004-.444-.136-.433-.464.022-.643-.025-1.288.016-1.929.032-.463-.224-.431-.535-.434-.293-.002-.503-.015-.488.404.032.973.029 1.952 0 2.926-.012.405.101.529.516.524C-8.189.591-6.612.605-5.034.607c.273 0 .572-.097.59.388.014.34.321.144.491.102C-2.631.774-1.308.439.014.106.008.07.004.035 0 0" fill="#304296" fill-opacity="1" fill-rule="evenodd" stroke="none"/></g><g transform="matrix(.34976 0 0 -.34976 104.954 64.89)"><path d="M0 0v3.711h-2.128c.001.066.005.135.009.202h4.884l.009-.171H.635c0-1.18-.008-2.236.003-3.29C.644.052.591-.229 0 0" fill="#cc2229" fill-opacity="1" fill-rule="evenodd" stroke="none"/></g><g transform="matrix(.34976 0 0 -.34976 115.413 64.89)"><path d="M0 0v3.711h-2.129l.009.202h4.884c.005-.059.008-.116.011-.171H.635c0-1.18-.009-2.236.003-3.29C.644.052.59-.229 0 0" fill="#cc2229" fill-opacity="1" fill-rule="evenodd" stroke="none"/></g><g transform="matrix(.34976 0 0 -.34976 109.352 64.89)"><path d="M0 0v3.711h-2.129a7 7 0 0 0 .01.202h4.885l.009-.171H.635c0-1.18-.007-2.236.003-3.29C.645.052.591-.229 0 0" fill="#cc2229" fill-opacity="1" fill-rule="evenodd" stroke="none"/></g><g transform="matrix(.34976 0 0 -.34976 68.618 64.952)"><path d="M0 0h140.481" fill="none" stroke="#272525" stroke-width=".317" stroke-linecap="butt" stroke-linejoin="miter" stroke-miterlimit="10" stroke-dasharray="none" stroke-opacity="1"/></g><g transform="matrix(.34976 0 0 -.34976 73.998 65.843)"><path d="M0 0v5.18c.138.009.249.027.36.027 2.904.001 5.809.003 8.711-.004.166 0 .369-.017.49-.109 1.035-.806 2.054-1.632 3.128-2.49-1.074-.858-2.097-1.678-3.127-2.49a.655.655 0 0 0-.375-.109C6.149-.001 3.111 0 0 0" fill="#b1cde1" fill-opacity="1" fill-rule="evenodd" stroke="none"/></g><g transform="matrix(.34976 0 0 -.34976 73.998 65.843)"><path d="M0 0v5.18c.138.009.249.027.36.027 2.904.001 5.809.003 8.711-.004.166 0 .369-.017.49-.109 1.035-.806 2.054-1.632 3.128-2.49-1.074-.858-2.097-1.678-3.127-2.49a.655.655 0 0 0-.375-.109C6.149-.001 3.111 0 0 0z" fill="none" stroke="#272525" stroke-width=".211" stroke-linecap="butt" stroke-linejoin="miter" stroke-miterlimit="8" stroke-dasharray="none" stroke-opacity="1"/></g><g transform="matrix(.34976 0 0 -.34976 111.153 64.471)"><path d="M0 0h5.466v1.308l2.609-2.614-2.609-2.613v1.306H0z" fill="#4978b1" fill-opacity="1" fill-rule="nonzero" stroke="none"/></g><g transform="matrix(.34976 0 0 -.34976 111.153 64.471)"><path d="M0 0h5.466v1.308l2.609-2.614-2.609-2.613v1.306H0z" fill="none" stroke="#272525" stroke-width=".148" stroke-linecap="butt" stroke-linejoin="miter" stroke-miterlimit="10" stroke-dasharray="none" stroke-opacity="1"/></g><g transform="matrix(.34976 0 0 -.34976 86.304 65.843)"><path d="M0 0v5.18c.138.009.249.027.359.027 2.905.001 5.809.003 8.713-.004.166 0 .368-.017.489-.109 1.034-.806 2.055-1.632 3.128-2.49-1.073-.858-2.098-1.678-3.127-2.49a.657.657 0 0 0-.375-.109C6.15-.001 3.11 0 0 0" fill="#bdb39b" fill-opacity="1" fill-rule="evenodd" stroke="none"/></g><g transform="matrix(.34976 0 0 -.34976 86.304 65.843)"><path d="M0 0v5.18c.138.009.249.027.359.027 2.905.001 5.809.003 8.713-.004.166 0 .368-.017.489-.109 1.034-.806 2.055-1.632 3.128-2.49-1.073-.858-2.098-1.678-3.127-2.49a.657.657 0 0 0-.375-.109C6.15-.001 3.11 0 0 0z" fill="none" stroke="#272525" stroke-width=".211" stroke-linecap="butt" stroke-linejoin="miter" stroke-miterlimit="8" stroke-dasharray="none" stroke-opacity="1"/></g><g transform="matrix(.34976 0 0 -.34976 98.796 65.806)"><path d="M0 0v5.18c.139.01.25.026.362.026 2.903.002 5.807.004 8.711-.004.165 0 .369-.015.489-.108 1.034-.806 2.055-1.632 3.129-2.489-1.074-.86-2.097-1.68-3.127-2.492a.658.658 0 0 0-.375-.108C6.151-.002 3.113 0 0 0" fill="#90aa72" fill-opacity="1" fill-rule="evenodd" stroke="none"/></g><g transform="matrix(.34976 0 0 -.34976 98.796 65.806)"><path d="M0 0v5.18c.139.01.25.026.362.026 2.903.002 5.807.004 8.711-.004.165 0 .369-.015.489-.108 1.034-.806 2.055-1.632 3.129-2.489-1.074-.86-2.097-1.68-3.127-2.492a.658.658 0 0 0-.375-.108C6.151-.002 3.113 0 0 0z" fill="none" stroke="#272525" stroke-width=".211" stroke-linecap="butt" stroke-linejoin="miter" stroke-miterlimit="8" stroke-dasharray="none" stroke-opacity="1"/></g><g transform="matrix(.34976 0 0 -.34976 106.733 64.94)"><path d="M0 0a1.249 1.249 0 1 0 2.497 0c0-.69-.558-1.253-1.248-1.253C.558-1.253 0-.69 0 0" fill="#fff" fill-opacity="1" fill-rule="evenodd" stroke="none"/></g><g transform="matrix(.34976 0 0 -.34976 106.733 64.94)"><path d="M0 0a1.249 1.249 0 1 0 2.497 0c0-.69-.558-1.253-1.248-1.253C.558-1.253 0-.69 0 0z" fill="none" stroke="#272525" stroke-width=".845" stroke-linecap="butt" stroke-linejoin="miter" stroke-miterlimit="10" stroke-dasharray="none" stroke-opacity="1"/></g><g transform="matrix(.34976 0 0 -.34976 120.3 70.13)"><path d="M0 0h-155.598v23.455H0z" fill="none" stroke="#e0922f" stroke-width="1.026" stroke-linecap="butt" stroke-linejoin="miter" stroke-miterlimit="10" stroke-dasharray="none" stroke-opacity="1"/></g><g transform="matrix(.34976 0 0 -.34976 96.865 56.223)"><path d="M0 0v-13.628" fill="none" stroke="#272525" stroke-width=".357" stroke-linecap="butt" stroke-linejoin="miter" stroke-miterlimit="10" stroke-dasharray="none" stroke-opacity="1"/></g><g transform="matrix(.34976 0 0 -.34976 96.865 61.871)"><path d="M0 0l-1.451 3.551L0 2.709l1.452.842z" fill="#272525" fill-opacity="1" fill-rule="nonzero" stroke="none"/></g><g transform="matrix(.34976 0 0 -.34976 52.705 56.072)"><path d="M0 0c0-9.506 126.565-4.369 126.565-13.876M306.434 0c0-9.298-180.081-4.273-180.081-13.574" fill="none" stroke="#272525" stroke-width=".361" stroke-linecap="butt" stroke-linejoin="miter" stroke-miterlimit="10" stroke-dasharray="none" stroke-opacity="1"/></g><g transform="matrix(.34976 0 0 -.34976 96.865 44.018)"><path d="M0 0v-14.715" fill="none" stroke="#272525" stroke-width=".37" stroke-linecap="butt" stroke-linejoin="miter" stroke-miterlimit="10" stroke-dasharray="none" stroke-opacity="1"/></g><g transform="matrix(.34976 0 0 -.34976 96.865 50.078)"><path d="M0 0l-1.504 3.679L0 2.806l1.504.873z" fill="#272525" fill-opacity="1" fill-rule="nonzero" stroke="none"/></g><text y="75.518" x="-56.327" transform="rotate(-90)" style="-inkscape-font-specification:'Open Sans'" font-style="normal" font-variant="normal" font-weight="400" font-stretch="normal" font-size="2.099" font-family="Open Sans" writing-mode="lr-tb" fill="#272525" fill-opacity="1" fill-rule="nonzero" stroke="none" stroke-width=".35"><tspan style="-inkscape-font-specification:'Open Sans'" x="-56.326782 -54.927052 -54.343655 -53.176865 -52.010075 -51.426678" y="75.518" font-style="normal" font-variant="normal" font-weight="400" font-stretch="normal" font-family="Open Sans" stroke-width=".35">Step 1</tspan> <tspan style="-inkscape-font-specification:'Open Sans'" x="-56.326782 -54.927052 -54.343655 -53.176865 -52.010075 -51.426678" y="109.157" font-style="normal" font-variant="normal" font-weight="400" font-stretch="normal" font-family="Open Sans" stroke-width=".35">Step 2</tspan> <tspan style="-inkscape-font-specification:'Open Sans'" x="-56.326782 -54.927052 -54.343655 -53.176865 -52.010075 -51.426678" y="174.372" font-style="normal" font-variant="normal" font-weight="400" font-stretch="normal" font-family="Open Sans" stroke-width=".35">Step 3</tspan> <tspan style="-inkscape-font-specification:'Open Sans'" x="-69.106911 -67.707176 -67.123787 -65.957001 -64.790199 -64.20681" y="122.882" font-style="normal" font-variant="normal" font-weight="400" font-stretch="normal" font-family="Open Sans" stroke-width=".35">Step 4</tspan></text><g transform="matrix(.34976 0 0 -.34976 38.32 57.553)"><path d="M0 0s-1.923.64-2.517 1.922c-.587 1.264-.688 3.349-.688 5.77 0 4.616-1.924 4.488-1.924 4.488s1.924-.128 1.924 4.487c0 2.42.101 4.506.688 5.77C-1.923 23.719 0 24.36 0 24.36m73.224-60.902s-1.923.641-2.518 1.922c-.586 1.264-.688 3.35-.688 5.77 0 4.616-1.924 4.488-1.924 4.488s1.924-.128 1.924 4.487c0 2.42.102 4.505.688 5.77.595 1.283 2.518 1.924 2.518 1.924" fill="none" stroke="#272525" stroke-width=".513" stroke-linecap="butt" stroke-linejoin="miter" stroke-miterlimit="4" stroke-dasharray="none" stroke-opacity="1"/></g><text y="35.48" x="-56.91" transform="rotate(-90)" style="-inkscape-font-specification:'Open Sans'" font-style="normal" font-variant="normal" font-weight="400" font-stretch="normal" font-size="2.099" font-family="Open Sans" writing-mode="lr-tb" fill="#272525" fill-opacity="1" fill-rule="nonzero" stroke="none" stroke-width=".35"><tspan style="-inkscape-font-specification:'Open Sans'" x="-56.910206 -55.510483 -54.927086 -53.760296 -52.593506 -51.426712 -50.843319" y="35.48" font-style="normal" font-variant="normal" font-weight="400" font-stretch="normal" font-family="Open Sans" stroke-width=".35">Stage 1</tspan> <tspan style="-inkscape-font-specification:'Open Sans'" x="-69.690338 -68.290611 -67.707214 -66.540421 -65.373634 -64.206848 -63.623451" y="61.196" font-style="normal" font-variant="normal" font-weight="400" font-stretch="normal" font-family="Open Sans" stroke-width=".35">Stage 2</tspan></text><g transform="matrix(.34976 0 0 -.34976 11.625 45.433)"><path d="M0 0s-1.924.642-2.518 1.923c-.587 1.264-.688 3.349-.688 5.77 0 4.616-1.924 4.488-1.924 4.488s1.924-.128 1.924 4.487c0 2.42.102 4.506.688 5.77C-1.924 23.72 0 24.361 0 24.361" fill="none" stroke="#272525" stroke-width=".513" stroke-linecap="butt" stroke-linejoin="miter" stroke-miterlimit="4" stroke-dasharray="none" stroke-opacity="1"/></g><text y="8.784" x="-46.188" transform="rotate(-90)" style="-inkscape-font-specification:'Open Sans'" font-style="normal" font-variant="normal" font-weight="400" font-stretch="normal" font-size="2.099" font-family="Open Sans" writing-mode="lr-tb" fill="#272525" fill-opacity="1" fill-rule="nonzero" stroke="none" stroke-width=".35"><tspan style="-inkscape-font-specification:'Open Sans'" x="-46.187668 -44.787937 -43.272789 -41.757641 -41.174248 -40.124973 -39.54158 -38.374786 -37.208" y="8.784" font-style="normal" font-variant="normal" font-weight="400" font-stretch="normal" font-family="Open Sans" stroke-width=".35">PCR steps</tspan></text></g></svg>