<?xml version="1.0" encoding="UTF-8" standalone="no"?>
<!-- Created with Inkscape (http://www.inkscape.org/) -->

<svg
   xmlns:dc="http://purl.org/dc/elements/1.1/"
   xmlns:cc="http://creativecommons.org/ns#"
   xmlns:rdf="http://www.w3.org/1999/02/22-rdf-syntax-ns#"
   xmlns:svg="http://www.w3.org/2000/svg"
   xmlns="http://www.w3.org/2000/svg"
   xmlns:sodipodi="http://sodipodi.sourceforge.net/DTD/sodipodi-0.dtd"
   xmlns:inkscape="http://www.inkscape.org/namespaces/inkscape"
   id="svg2"
   version="1.1"
   inkscape:version="0.91 r13725"
   xml:space="preserve"
   width="303.20206"
   height="302.65701"
   viewBox="0 0 303.20206 302.65701"
   sodipodi:docname="egf-logo-shadow.svg"><metadata
     id="metadata8"><rdf:RDF><cc:Work
         rdf:about=""><dc:format>image/svg+xml</dc:format><dc:type
           rdf:resource="http://purl.org/dc/dcmitype/StillImage" /><dc:title></dc:title></cc:Work></rdf:RDF></metadata><defs
     id="defs6"><clipPath
       clipPathUnits="userSpaceOnUse"
       id="clipPath18"><path
         d="M 107.867,3.602 C 81.219,6.391 56.266,18.61 36.848,38.376 16.832,58.743 5.508,83.993 3.145,113.524 c -1.879,23.465 4.871,50.004 18.046,70.965 13.161,20.93 33.497,37.859 56.414,46.961 6.012,2.387 17.629,5.73 18.84,5.422 0.575,-0.145 0.891,-0.024 0.707,0.273 -0.183,0.297 0.293,0.539 1.055,0.539 0.922,0 2.676,-1.301 5.211,-3.855 l 3.82,-3.86 15.867,0 3.016,2.641 c 1.66,1.453 3.281,2.48 3.602,2.281 0.316,-0.195 0.414,-0.09 0.211,0.235 -0.2,0.324 0.492,1.394 1.543,2.379 l 1.902,1.785 5.641,-0.825 c 19.218,-2.816 38.914,-11.343 55.168,-23.894 10.406,-8.035 21.921,-21.156 28.996,-33.043 5.445,-9.148 10.539,-21.941 13.082,-32.848 3.683,-15.808 4.351,-27.851 2.363,-42.722 C 234.57,75.606 218.66,47.383 195.09,28.719 182.102,18.434 169.77,12.09 153.555,7.356 145.641,5.044 143.113,4.563 133.676,3.575 124.184,2.579 117.535,2.587 107.867,3.602 Z M 93.273,60.356 c 0.848,2.438 0.832,7.172 -0.035,9.074 l -0.683,1.504 -19.938,0.156 -19.933,0.157 -0.196,11.718 -0.191,11.719 14.07,0 c 16.403,0 15.641,-0.301 15.668,6.121 0.035,6.75 1.039,6.34 -15.437,6.34 l -14.235,0 0.16,13.199 0.161,13.203 28.183,0 0.5,12.774 -21.762,-0.156 -21.757,-0.157 -0.153,-43.019 c -0.086,-23.66 -0.035,-43.352 0.133,-43.758 0.219,-0.582 6.281,-0.742 27.539,-0.742 l 27.254,0 0.652,1.867 z m 84.77,16.379 0.156,17.949 13.863,0 c 10.376,0 14.012,0.184 14.461,0.742 1.481,1.84 1.559,8.825 0.125,11.153 -0.433,0.699 -3.179,0.918 -14.648,1.156 l -14.113,0.297 0,25.515 19.875,0.153 c 17.843,0.137 19.953,0.254 20.621,1.152 0.879,1.184 0.988,7.762 0.164,9.93 l -0.578,1.523 -46.934,0 0.406,-4.836 c 0.493,-5.918 0.043,-6.437 -5.535,-6.437 l -3.742,0 0,-37.875 c 0,-20.832 0.188,-38.063 0.41,-38.289 0.231,-0.231 3.766,-0.34 7.864,-0.25 l 7.449,0.164 0.16,17.953 -0.004,0 z m -60.668,1.352 c 0.207,0.339 6.43,4.64 13.828,9.562 7.399,4.918 13.817,9.289 14.262,9.711 0.992,0.934 1.168,0.637 -10.867,18.539 -7.95,11.824 -9.043,13.199 -10.496,13.199 -2.18,0 -9.356,-4.621 -9.778,-6.297 -0.238,-0.953 0.66,-2.781 3.281,-6.679 1.989,-2.957 3.614,-5.68 3.614,-6.055 0,-0.965 -2.461,-0.277 -7.563,2.117 -4.965,2.332 -10.074,7.149 -12.355,11.653 -4.793,9.457 -4.199,20.941 1.519,29.359 1.305,1.922 2.375,3.66 2.375,3.863 0,0.203 -0.793,0.531 -1.765,0.727 -1.364,0.273 -2.278,1.183 -4.004,3.98 -1.231,1.996 -2.516,4.028 -2.86,4.512 -0.882,1.269 -5.543,-4.816 -8.558,-11.18 -5.57,-11.769 -5.492,-24.242 0.226,-35.789 5.493,-11.094 14.25,-18.762 25.715,-22.515 1.711,-0.563 3.113,-1.223 3.113,-1.469 0,-0.246 -2.136,-1.856 -4.746,-3.574 -5.773,-3.797 -5.902,-4.461 -1.972,-10.215 2.476,-3.621 2.984,-4.063 4.711,-4.063 1.066,0 2.109,0.278 2.316,0.614 l 0.004,0 z m 50.918,63.175 c -0.582,17.352 -15.867,34.493 -33.645,37.719 -5.082,0.922 -13.144,0.781 -17.847,-0.309 -6.629,-1.535 -6.363,-1.082 -4.707,-8.171 1.824,-7.793 1.847,-7.852 2.754,-7.125 1.484,1.191 7.558,2.511 11.547,2.511 12.171,0 22.902,-7.816 26.859,-19.566 0.656,-1.945 1.191,-4.438 1.191,-5.535 0,-1.098 0.192,-2.184 0.414,-2.41 0.227,-0.227 3.368,-0.34 6.973,-0.246 l 6.559,0.164 -0.098,2.968 z m -57.914,20.899 c 0.781,1.187 0.683,2.097 -0.969,9.101 -1.012,4.282 -1.84,8.262 -1.84,8.844 0,0.973 3.192,3.566 10.489,8.527 l 2.472,1.68 5.535,-1.289 c 3.047,-0.707 5.852,-1.383 6.243,-1.5 0.386,-0.117 0.789,-1.336 0.89,-2.711 l 0.184,-2.5 4.152,-1.008 c 2.285,-0.558 4.926,-1.324 5.867,-1.703 0.946,-0.383 1.801,-0.613 1.903,-0.512 0.101,0.102 0.976,3.754 1.945,8.114 2.004,9 1.891,9.886 -1.512,11.945 -1.246,0.754 -4.508,2.832 -7.246,4.617 -4.051,2.641 -5.156,3.121 -5.933,2.571 -2.247,-1.59 -5.09,-2.348 -14.774,-3.918 -6.336,-1.032 -11.148,-1.528 -12.578,-1.297 -2.492,0.398 -2.371,0.519 -8.91,-8.848 -5.352,-7.664 -5.84,-8.617 -5.336,-10.375 0.523,-1.824 10.238,-19.113 11.73,-20.875 1.7,-2.004 6.039,-1.363 7.688,1.137 z m 7.199,42.285 c 11.332,1.812 13.731,2.672 13.723,4.918 0,2.57 -1.258,5.793 -2.586,6.664 -1.192,0.781 -2.145,0.781 -8.133,0.016 -9.934,-1.27 -15.816,-2.411 -16.848,-3.266 -1.718,-1.426 -0.875,-8.723 1.106,-9.523 1.644,-0.665 0.441,-0.778 12.738,1.191 z m -0.43,13.129 c 5.012,0.722 9.18,1.355 9.258,1.41 0.082,0.059 -0.297,2.32 -0.84,5.035 l -0.992,4.93 -8.89,-0.352 c -4.887,-0.195 -9.075,-0.566 -9.297,-0.828 -0.414,-0.476 -1.793,-9.031 -1.785,-11.078 0,-0.906 0.312,-1.047 1.718,-0.77 0.942,0.192 5.817,0.934 10.828,1.653 z"
         id="path20"
         inkscape:connector-curvature="0" /></clipPath><linearGradient
       x1="1108.772"
       y1="118.09727"
       x2="1216.3668"
       y2="62.013294"
       gradientUnits="userSpaceOnUse"
       gradientTransform="matrix(2.025717,0,0,-2.025717,-2221.1333,303.48935)"
       spreadMethod="pad"
       id="linearGradient24"><stop
         style="stop-opacity:1;stop-color:#302db2"
         offset="0"
         id="stop26" /><stop
         style="stop-opacity:1;stop-color:#7774dc"
         offset="1"
         id="stop28" /></linearGradient><filter
       inkscape:collect="always"
       style="color-interpolation-filters:sRGB"
       id="filter86974"
       x="-0.0492"
       width="1.0984"
       y="-0.0492"
       height="1.0984"><feGaussianBlur
         inkscape:collect="always"
         stdDeviation="4.7901224"
         id="feGaussianBlur86976" /></filter></defs><sodipodi:namedview
     pagecolor="#ffffff"
     bordercolor="#666666"
     borderopacity="1"
     objecttolerance="10"
     gridtolerance="10"
     guidetolerance="10"
     inkscape:pageopacity="0"
     inkscape:pageshadow="2"
     inkscape:window-width="1661"
     inkscape:window-height="781"
     id="namedview4"
     showgrid="false"
     inkscape:zoom="0.77976055"
     inkscape:cx="41.183115"
     inkscape:cy="177.6833"
     inkscape:window-x="1775"
     inkscape:window-y="468"
     inkscape:window-maximized="0"
     inkscape:current-layer="g10" /><g
     id="g10"
     inkscape:groupmode="layer"
     inkscape:label="egf-logo"
     transform="matrix(1.25,0,0,-1.25,0,302.65701)"><circle
       style="opacity:1;fill:#8c8c8c;fill-opacity:1;stroke:none;stroke-width:1.53376806;stroke-linecap:round;stroke-linejoin:round;stroke-miterlimit:4;stroke-dasharray:none;stroke-dashoffset:0;stroke-opacity:1;filter:url(#filter86974)"
       id="path86953-3"
       cx="119.27601"
       cy="-117.2392"
       r="116.83225"
       transform="matrix(0.94346851,0,0,-0.94346851,8.1937717,5.1767858)" /><circle
       style="opacity:1;fill:#ffffff;fill-opacity:1;stroke:none;stroke-width:1.53376806;stroke-linecap:round;stroke-linejoin:round;stroke-miterlimit:4;stroke-dasharray:none;stroke-dashoffset:0;stroke-opacity:1"
       id="path86953"
       cx="121.12788"
       cy="-119.47978"
       r="110.22755"
       transform="scale(1,-1)" /><g
       id="g12"
       transform="matrix(0.86009865,0,0,0.86009865,16.814207,15.354382)"><g
         id="g14"><g
           id="g16"
           clip-path="url(#clipPath18)"><g
             id="g22"><path
               d="M 107.867,3.602 C 81.219,6.391 56.266,18.61 36.848,38.376 16.832,58.743 5.508,83.993 3.145,113.524 c -1.879,23.465 4.871,50.004 18.046,70.965 13.161,20.93 33.497,37.859 56.414,46.961 6.012,2.387 17.629,5.73 18.84,5.422 0.575,-0.145 0.891,-0.024 0.707,0.273 -0.183,0.297 0.293,0.539 1.055,0.539 0.922,0 2.676,-1.301 5.211,-3.855 l 3.82,-3.86 15.867,0 3.016,2.641 c 1.66,1.453 3.281,2.48 3.602,2.281 0.316,-0.195 0.414,-0.09 0.211,0.235 -0.2,0.324 0.492,1.394 1.543,2.379 l 1.902,1.785 5.641,-0.825 c 19.218,-2.816 38.914,-11.343 55.168,-23.894 10.406,-8.035 21.921,-21.156 28.996,-33.043 5.445,-9.148 10.539,-21.941 13.082,-32.848 3.683,-15.808 4.351,-27.851 2.363,-42.722 C 234.57,75.606 218.66,47.383 195.09,28.719 182.102,18.434 169.77,12.09 153.555,7.356 145.641,5.044 143.113,4.563 133.676,3.575 124.184,2.579 117.535,2.587 107.867,3.602 Z M 93.273,60.356 c 0.848,2.438 0.832,7.172 -0.035,9.074 l -0.683,1.504 -19.938,0.156 -19.933,0.157 -0.196,11.718 -0.191,11.719 14.07,0 c 16.403,0 15.641,-0.301 15.668,6.121 0.035,6.75 1.039,6.34 -15.437,6.34 l -14.235,0 0.16,13.199 0.161,13.203 28.183,0 0.5,12.774 -21.762,-0.156 -21.757,-0.157 -0.153,-43.019 c -0.086,-23.66 -0.035,-43.352 0.133,-43.758 0.219,-0.582 6.281,-0.742 27.539,-0.742 l 27.254,0 0.652,1.867 z m 84.77,16.379 0.156,17.949 13.863,0 c 10.376,0 14.012,0.184 14.461,0.742 1.481,1.84 1.559,8.825 0.125,11.153 -0.433,0.699 -3.179,0.918 -14.648,1.156 l -14.113,0.297 0,25.515 19.875,0.153 c 17.843,0.137 19.953,0.254 20.621,1.152 0.879,1.184 0.988,7.762 0.164,9.93 l -0.578,1.523 -46.934,0 0.406,-4.836 c 0.493,-5.918 0.043,-6.437 -5.535,-6.437 l -3.742,0 0,-37.875 c 0,-20.832 0.188,-38.063 0.41,-38.289 0.231,-0.231 3.766,-0.34 7.864,-0.25 l 7.449,0.164 0.16,17.953 -0.004,0 z m -60.668,1.352 c 0.207,0.339 6.43,4.64 13.828,9.562 7.399,4.918 13.817,9.289 14.262,9.711 0.992,0.934 1.168,0.637 -10.867,18.539 -7.95,11.824 -9.043,13.199 -10.496,13.199 -2.18,0 -9.356,-4.621 -9.778,-6.297 -0.238,-0.953 0.66,-2.781 3.281,-6.679 1.989,-2.957 3.614,-5.68 3.614,-6.055 0,-0.965 -2.461,-0.277 -7.563,2.117 -4.965,2.332 -10.074,7.149 -12.355,11.653 -4.793,9.457 -4.199,20.941 1.519,29.359 1.305,1.922 2.375,3.66 2.375,3.863 0,0.203 -0.793,0.531 -1.765,0.727 -1.364,0.273 -2.278,1.183 -4.004,3.98 -1.231,1.996 -2.516,4.028 -2.86,4.512 -0.882,1.269 -5.543,-4.816 -8.558,-11.18 -5.57,-11.769 -5.492,-24.242 0.226,-35.789 5.493,-11.094 14.25,-18.762 25.715,-22.515 1.711,-0.563 3.113,-1.223 3.113,-1.469 0,-0.246 -2.136,-1.856 -4.746,-3.574 -5.773,-3.797 -5.902,-4.461 -1.972,-10.215 2.476,-3.621 2.984,-4.063 4.711,-4.063 1.066,0 2.109,0.278 2.316,0.614 l 0.004,0 z m 50.918,63.175 c -0.582,17.352 -15.867,34.493 -33.645,37.719 -5.082,0.922 -13.144,0.781 -17.847,-0.309 -6.629,-1.535 -6.363,-1.082 -4.707,-8.171 1.824,-7.793 1.847,-7.852 2.754,-7.125 1.484,1.191 7.558,2.511 11.547,2.511 12.171,0 22.902,-7.816 26.859,-19.566 0.656,-1.945 1.191,-4.438 1.191,-5.535 0,-1.098 0.192,-2.184 0.414,-2.41 0.227,-0.227 3.368,-0.34 6.973,-0.246 l 6.559,0.164 -0.098,2.968 z m -57.914,20.899 c 0.781,1.187 0.683,2.097 -0.969,9.101 -1.012,4.282 -1.84,8.262 -1.84,8.844 0,0.973 3.192,3.566 10.489,8.527 l 2.472,1.68 5.535,-1.289 c 3.047,-0.707 5.852,-1.383 6.243,-1.5 0.386,-0.117 0.789,-1.336 0.89,-2.711 l 0.184,-2.5 4.152,-1.008 c 2.285,-0.558 4.926,-1.324 5.867,-1.703 0.946,-0.383 1.801,-0.613 1.903,-0.512 0.101,0.102 0.976,3.754 1.945,8.114 2.004,9 1.891,9.886 -1.512,11.945 -1.246,0.754 -4.508,2.832 -7.246,4.617 -4.051,2.641 -5.156,3.121 -5.933,2.571 -2.247,-1.59 -5.09,-2.348 -14.774,-3.918 -6.336,-1.032 -11.148,-1.528 -12.578,-1.297 -2.492,0.398 -2.371,0.519 -8.91,-8.848 -5.352,-7.664 -5.84,-8.617 -5.336,-10.375 0.523,-1.824 10.238,-19.113 11.73,-20.875 1.7,-2.004 6.039,-1.363 7.688,1.137 z m 7.199,42.285 c 11.332,1.812 13.731,2.672 13.723,4.918 0,2.57 -1.258,5.793 -2.586,6.664 -1.192,0.781 -2.145,0.781 -8.133,0.016 -9.934,-1.27 -15.816,-2.411 -16.848,-3.266 -1.718,-1.426 -0.875,-8.723 1.106,-9.523 1.644,-0.665 0.441,-0.778 12.738,1.191 z m -0.43,13.129 c 5.012,0.722 9.18,1.355 9.258,1.41 0.082,0.059 -0.297,2.32 -0.84,5.035 l -0.992,4.93 -8.89,-0.352 c -4.887,-0.195 -9.075,-0.566 -9.297,-0.828 -0.414,-0.476 -1.793,-9.031 -1.785,-11.078 0,-0.906 0.312,-1.047 1.718,-0.77 0.942,0.192 5.817,0.934 10.828,1.653 z"
               style="fill:url(#linearGradient24);stroke:none"
               id="path30"
               inkscape:connector-curvature="0" /></g></g></g></g></g></svg>