<svg xmlns="http://www.w3.org/2000/svg" width="1460.717" height="434.531" viewBox="0 0 386.481 114.97" version="1.1"><g transform="translate(105.657 -117.372)"><g transform="translate(0 -415.774)"><g stroke-opacity="1"><rect width="386.481" height="114.97" x="-105.657" y="533.146" rx=".927" opacity="1" fill="#fff" fill-opacity="1" stroke="none" stroke-width=".398" stroke-linecap="round" stroke-linejoin="round" stroke-miterlimit="4" stroke-dasharray="none" stroke-dashoffset="0"/><g transform="matrix(.92687 0 0 .92687 6.41 43.318)" stroke-miterlimit="4" stroke-dasharray="none"><path d="M33.155 585.265c-40.26-.067-80.52.087-120.777.66 3.256 3.734 55.613-.246 83.387 1.103 85.253-.155 183.859.986 269.113.644-2.59-4.132-39.397-.446-57.663-1.722-53.57-.091-120.491-.478-174.06-.685z" style="line-height:normal;font-variant-ligatures:normal;font-variant-position:normal;font-variant-caps:normal;font-variant-numeric:normal;font-variant-alternates:normal;font-feature-settings:normal;text-indent:0;text-align:start;text-decoration-line:none;text-decoration-style:solid;text-decoration-color:#000;text-transform:none;text-orientation:mixed;shape-padding:0;isolation:auto;mix-blend-mode:normal" color="#000" font-style="normal" font-variant="normal" font-weight="400" font-stretch="normal" font-size="medium" font-family="sans-serif" text-decoration="none" letter-spacing="normal" word-spacing="normal" writing-mode="lr-tb" direction="ltr" dominant-baseline="auto" baseline-shift="baseline" text-anchor="start" white-space="normal" clip-rule="nonzero" display="inline" overflow="visible" visibility="visible" opacity="1" color-interpolation="sRGB" color-interpolation-filters="linearRGB" solid-color="#000" solid-opacity="1" vector-effect="none" fill="#000" fill-opacity="1" fill-rule="evenodd" stroke="none" stroke-width="1.747" stroke-linecap="butt" stroke-linejoin="miter" stroke-dashoffset="0" color-rendering="auto" image-rendering="auto" shape-rendering="auto" text-rendering="auto"/><path d="M24.955 569.596s.479 17.722.827 16.817c.347-.905 1.678-17.932 1.678-17.932l16.805-.293-6.837-4.152 9.32 5.166-8.331 4.195" display="inline" fill="none" fill-rule="evenodd" stroke="#000" stroke-width="1.865" stroke-linecap="round" stroke-linejoin="round"/><path d="M45.779 577.964h94.985l6.564 8.349c-2.927 1.86-5.94 3.74-8.174 6.444-.258 1.142-1.623.82-2.481.846H45.779z" display="inline" opacity="1" fill="#e2e57a" fill-opacity="1" stroke="#000" stroke-width="2.055" stroke-linecap="round" stroke-linejoin="round" stroke-dashoffset="0"/><path d="M31.344 586.14c.336 8.206-14.777 2.836-8.333-3.106 2.63-2.611 9.147-1.468 8.333 3.106z" display="inline" opacity="1" fill="#fff" fill-opacity="1" stroke="#050505" stroke-width="1.865" stroke-linecap="round" stroke-linejoin="round" stroke-dashoffset="0"/><path d="M148.84 568.02h24.937l-12.469 1.207v17.295" display="inline" fill="none" fill-rule="evenodd" stroke="#000" stroke-width="1.858" stroke-linecap="butt" stroke-linejoin="miter"/><g transform="matrix(.57928 0 0 1.48473 93.94 -155.134)" stroke-width="1.077" fill-rule="evenodd" stroke="#000" stroke-linecap="butt" stroke-linejoin="miter"><path d="M-134.645 496.357v5.747h-20.58v-5.88z" fill="none"/><path d="M-134.645 496.357v5.747h-20.58v-5.88l20.58.133z" fill="#fff" fill-opacity="1"/><path d="M-134.645 496.39l-20.513-.4-.234 5.947.602.434 20.379-.468-.501-5.713-20.68.368.167 5.312 20.613.568z" fill="none"/></g><g transform="matrix(.57928 0 0 1.48473 78.634 -154.68)" stroke-width="1.077" fill-rule="evenodd" stroke="#000" stroke-linecap="butt" stroke-linejoin="miter"><path d="M-134.645 496.357v5.747h-20.58v-5.88z" fill="none"/><path d="M-134.645 496.357v5.747h-20.58v-5.88l20.58.133z" fill="#fff" fill-opacity="1"/><path d="M-134.645 496.39l-20.513-.4-.234 5.947.602.434 20.379-.468-.501-5.713-20.68.368.167 5.312 20.613.568z" fill="none"/></g><g transform="matrix(.5694 0 0 1.48596 272.198 -155.887)" stroke-width="1.077" fill-rule="evenodd" stroke="#000" stroke-linecap="butt" stroke-linejoin="miter"><path d="M-134.645 496.357v5.747h-20.58v-5.88z" fill="none"/><path d="M-134.645 496.357v5.747h-20.58v-5.88l20.58.133z" fill="#fff" fill-opacity="1"/><path d="M-134.645 496.39l-20.513-.4-.234 5.947.602.434 20.379-.468-.501-5.713-20.68.368.167 5.312 20.613.568z" fill="none"/></g><g transform="matrix(.5694 0 0 1.48596 257.153 -155.433)" stroke-width="1.077" fill-rule="evenodd" stroke="#000" stroke-linecap="butt" stroke-linejoin="miter"><path d="M-134.645 496.357v5.747h-20.58v-5.88z" fill="none"/><path d="M-134.645 496.357v5.747h-20.58v-5.88l20.58.133z" fill="#fff" fill-opacity="1"/><path d="M-134.645 496.39l-20.513-.4-.234 5.947.602.434 20.379-.468-.501-5.713-20.68.368.167 5.312 20.613.568z" fill="none"/></g><path d="M-66.712 581.347c-6.885-.067-13.77.088-20.654.66.556 3.734 9.51-.245 14.26 1.103 14.58-.155 29.158.986 43.738.645-.443-4.133-6.738-.447-9.861-1.723-9.161-.09-18.322-.477-27.483-.685zM226.716 581.824c-6.885-.067-13.77.088-20.654.66.556 3.734 9.341.598 14.26 1.103 14.58-.155 29.158.986 43.738.645-.443-4.133-6.738-.447-9.861-1.723-9.161-.09-18.322-.477-27.483-.685z" style="line-height:normal;font-variant-ligatures:normal;font-variant-position:normal;font-variant-caps:normal;font-variant-numeric:normal;font-variant-alternates:normal;font-feature-settings:normal;text-indent:0;text-align:start;text-decoration-line:none;text-decoration-style:solid;text-decoration-color:#000;text-transform:none;text-orientation:mixed;shape-padding:0;isolation:auto;mix-blend-mode:normal" color="#000" font-style="normal" font-variant="normal" font-weight="400" font-stretch="normal" font-size="medium" font-family="sans-serif" text-decoration="none" letter-spacing="normal" word-spacing="normal" writing-mode="lr-tb" direction="ltr" dominant-baseline="auto" baseline-shift="baseline" text-anchor="start" white-space="normal" clip-rule="nonzero" display="inline" overflow="visible" visibility="visible" opacity="1" color-interpolation="sRGB" color-interpolation-filters="linearRGB" solid-color="#000" solid-opacity="1" vector-effect="none" fill="#000" fill-opacity="1" fill-rule="evenodd" stroke="none" stroke-width=".722" stroke-linecap="butt" stroke-linejoin="miter" stroke-dashoffset="0" color-rendering="auto" image-rendering="auto" shape-rendering="auto" text-rendering="auto"/></g><text steps="1" y="610.913" x="35.712" style="line-height:125%;-inkscape-font-specification:'Walter Turncoat'" xml:space="preserve" font-style="normal" font-variant="normal" font-weight="400" font-stretch="normal" font-size="12.377" font-family="Walter Turncoat" letter-spacing="0" word-spacing="0" fill="#256385" fill-opacity="1" stroke="none" stroke-width=".309" stroke-linecap="butt" stroke-linejoin="miter"><tspan y="610.913" x="35.712" fill="#256385" fill-opacity="1" stroke-width=".309">&quot;new&quot; gene sequence</tspan></text><g steps="2" transform="matrix(.92687 0 0 .92687 6.41 43.318)" fill-opacity="1"><text xml:space="preserve" style="line-height:125%;-inkscape-font-specification:'Walter Turncoat'" x="27.117" y="626.284" font-style="normal" font-variant="normal" font-weight="400" font-stretch="normal" font-size="13.354" font-family="Walter Turncoat" letter-spacing="0" word-spacing="0" fill="#256385" stroke="none" stroke-width=".334" stroke-linecap="butt" stroke-linejoin="miter"><tspan x="27.117" y="626.284" fill="#256385" fill-opacity="1" stroke-width=".334">standard emma parts</tspan></text><path d="M-10.287 599.615l41.808.743-42.314 1.237 41.808.743M159.206 599.576l41.807.743-42.313 1.237 41.807.743" fill="none" fill-rule="evenodd" stroke="#256385" stroke-width="1.036" stroke-linecap="round" stroke-linejoin="round" stroke-miterlimit="4" stroke-dasharray="none"/><path d="M14.288 608.174s-.256-3.362-1.255-3.033c-1.252.413-2.746 1.063-3.123 1.896-.237.521 2.405-.403 2.207.248-1.792 5.897-3.786 15.984 9.758 15.472M180.37 608.993s.255-3.363 1.255-3.033c1.252.412 2.745 1.062 3.123 1.896.236.52-2.406-.404-2.208.248 1.793 5.897 3.787 15.984-9.758 15.471" fill="none" fill-rule="evenodd" stroke="#256385" stroke-width="1.036" stroke-linecap="butt" stroke-linejoin="miter" stroke-miterlimit="4" stroke-dasharray="none"/></g><g steps="3" transform="matrix(.92687 0 0 .92687 6.678 43.318)" fill-opacity="1" stroke-linecap="butt" stroke-linejoin="miter"><text xml:space="preserve" style="line-height:125%;-inkscape-font-specification:'Walter Turncoat'" x="46.338" y="640.177" font-style="normal" font-variant="normal" font-weight="400" font-stretch="normal" font-size="13.354" font-family="Walter Turncoat" letter-spacing="0" word-spacing="0" fill="#256385" stroke="none" stroke-width=".334"><tspan x="46.338" y="640.177" fill="#256385" fill-opacity="1" stroke-width=".334">homology arms</tspan></text><path d="M-56.02 594.924s-1.09-4.973-2.089-4.643c-1.252.413-1.91 2.672-2.288 3.506-.236.52 2.205-.434 2.207.248.116 39.52 83.491 42.215 97.036 41.702M243.561 596.577s1.09-4.436 2.09-4.106c1.252.412 1.91 2.135 2.289 2.969.236.52-2.206-.433-2.208.248-.115 39.52-83.49 42.215-97.035 41.702" fill="none" fill-rule="evenodd" stroke="#256385" stroke-width="1.036" stroke-miterlimit="4" stroke-dasharray="none"/></g></g></g></g></svg>