<svg xmlns="http://www.w3.org/2000/svg" version="1.1" viewBox="0 0 534.195 253.992" height="959.969" width="2019.004"><g transform="translate(164.288 29.567)"><path d="M124.244 176.26l-1.514 1.579h-2.552v-2.326l1.979-1.276h2.087zm4.38-6.814v2.293l-1.946-1.168v-1.785h1.947v-6.457h-4.976l-11.832 7.928-2.91-3.342v6.565h-7.192l4.175 11.432h13.704l10.545-12.2.476-3.299zM-56.97 40.308l2.726-1.86h3.288l-2.715 1.86zm24.844-9.872l-3.483 3.02h-8.069l-2.498 1.711h1.925l-2.682 1.83h-1.914l2.671-1.83h-5.267l-2.282 1.774-2.326.232.466-4.007h-1.796l-2.098 1.394-3.894 5.749h-2.293l4.413-7.143 5.202-1.113-.292-.976-3.428-.117-1.622-.988-2.034.988h-2.38l.974-2.104-4.922-2.252h-41.975l-13.823 14.58v11.205l5.047 5.047 17.651 2.27 2.355 3.57 4.964-.173 4.097 8.047 7.634-9.584 18.148.057 1.2 9.072 2.878.076.075-11.291 29.375-25.114 2.001-.346 1.136-3.577h-3.137zm17.37-1.552h10.253l-2.131-3.394-1.925-.46v-2.434zm-76.013 54.9l-3.955-8.522 3.284-4.121-4.096-8.05-4.964.175-2.355-3.57-17.651-2.27.033.035.752 7.948 5.43 10.274 2.224-1.72-4.282-9.129v-5.138h2.526l.098 4.78 8.112 19.056 13.227 5.516 3.301-.876 2.905 2.964 1.448-2.574h3.047l-.434-3.342h2.612l3.397-2.531.144-3.688-3.716-.065-2.953 4.845zM41.304 7.122l4.91-2.39V4.06l-2.433-2.468-3.407 1.131-4.088-.086-.865 1.179-2.326-.054v2.184zM99.38 53.025l.011-2.32-2.628-.068-.022 1.709zM-.21-21.127v2.444l12.2.175 3.126 5.393v4.878L9.264-4.913l.173 6.619 3.677 3.717h4.348l6.64-7.018 9.378-2.766 3.515-2.692 7.095-.438 4.964-1.465 9.356-14.872 5.764-1.178 2.034-2.045-16.624-1.672-14.363 1.672H17.83L7.804-23.567zm282.936 94.15l-1.417-1.482-2.325 3.31 2.325 2.174zm-22.323-41.024l.465-2.613-4.878-.784-1.86-3.049h-9.291l-18.992-4.702-2.088 4.702-7.722-2.351-5.765 4.391 18.776 10.967 21.718.233 2.617-5.326zm4.12 49.73l-2.79.617v1.644l1.136 1.373 1.654-2.065zM254.13 25.553l1.86 3.05 4.878.783-.465 2.613-7.009 1.468-2.628 5.326-21.718-.233-18.776-10.967-8.122 6.192 1.352 6.285-8.133 3.02 2.325 5.69 8.652 3.947.346 6.969 22.648 7.832 4.175-3.826 8.89 3.826-1.222 3.31 4.705 7.841 8.242-4.174 5.386 4.607 2.282-1.298.086 2.217 13.498-4.823 4.413-9.877-7.874-12.957 4.045-4.412h-4.65l-1.493.966-2.92-4.797 3.72-3.252 2.553 4.871 3.58-2.463 6.868-4.73v-9.175l-11.378-2.903-8.36-8.188h-8.123l1.85 6.561zm46.928 13.8l3.18-.042 1.352-2.308-7.062-2.962.14 5.835 1.395.828zm-8.782 13.488l-.519 1.794 6.998-1.033.54 2.702 1.59-.675.173-2.126 4.694-1.206-.248-6.136-2.131-3.72-2.12-.614 1.211 5.575-4.337 3.933zm-1.233 3.463l2.531-.319.822 1.22-.908 2.874zm6.75-1.19l-1.223 2.22-1.612-1.828zm-7.658 37.898l-3.84-.4-1.395-1.741 1.395-3.202-1.384-3.071-2.531-.054-.617 5.407 3.58 4.316 4.197.53zm-12.092 9.594l1.698.335 3.017-2.51-.064-2.054zm13.249 3.882v2.412l2.52-.757-.854-1.557 2.033-.52-1.73-5.396-1.277 3.33h-4.175zm-7.43-12.037l1.795 1.763-.584 1.081-1.45-1.417zm1.795 4.315l1.276.865 1.395-2.109-1.86-.227zm4.759-2.206l1.752 2.26h1.914l-1.827-2.942zm0 1.903l.984 1.72-.79 1.049-1.384-2.087zm-2.088 1.742l.898 1.351-.898 1.082-1.027-1.255zm3.407 35.431l1.18 1.623 3.309-.4v-1.223zm-26.595-19.078l.162 4.672 2.66 4.65h8.459l4.185-5.342v-9.69l-3.017.313-2.445 4.618-8.187 1.828-1.763-1.07zm-6.014 12.2v-3.57l-13.94-14.46-4.77-1.828 16.147 21.988zm16.289 6.36l.26 1.21-17.425-2.952 2.618-2.098 4.348 1.654 3.926-.865zm11.14 0h-2.693l.519 1.74h2.574l1.081-.876zm-4.705 2.822l.79.963h1.87l-.648-1.396zm9.885-2.304l-2.693 3.007 2.044.26 1.828-1.644zm-8.966-5.31l2.001-.617-.606-3.525 1.18-1.31.994 2.618 2.401.833v-1.882l-1.351-2.985 2.563-2.152-4.088.173-.844-1.168 1.622-1.785 3.007 1.038 1.482-.13 2.217-2.617-1.947-.043-1.265.833-4.186-1.017-2.769 2.499.195 3.958-1.612 2.141zm15.023-5.613l-.465 1.633 4.532-.465v-1.168zm1.05-10.546l-1.515 1.493-.573 3.72 2.087.509-.465-3.299 1.212-1.514zm10.263 9.897l-.605-3.223-4.965.703zm-.335 2.682l6.922 2.888 1.244 3.536-2.304 1.406 5.927 2.055v-11.67l-4.813-2.509-4.488 3.645-4.749-1.871-.53 2.617zm-20.615-76.985l-4.672-3.824-2.066 1.908 2.79 6.04 3.375-.233zm-4.672-3.824l-2.066-1.691 2.672-.349-.465-5.341-6.868 4.73 2.012 3.818 2.65.741zm-5.98 61.628l-3.721 5.007-8.588 3.97 1.763 1.07 8.187-1.828 2.445-4.618 3.017-.314v-3.547zm-28.468 0l1.493 4.845 6.143 5.235.476-1.86-5.797-8.567zm73.676 29.829l4.121-3.786 5.343 5.214 4.878.995-6.035-6.036.292-3.19-10.751-5.624v11.67zm11.313-6.252l2.174 1.298 3.753-2.109v-2.184zm3.029-6.132l4.38 3.137 1.752-.595-4.445-2.65zm-91.165-46.334l-4.705-7.841 1.212-3.31-2.726-1.168-3.655 2.628-1.72 11.887 2.715 2.27 1.038 5.43 1.914.574 1.374-1.72 2.552 2.877 1.417 5.256-.335 5.43 2.195-4.305-3.947-14.233 2.671-1.936zm7.896 6.684l3.158 4.294-2.953 2.963h6.62V90.93l-6.447-6.857-1.428-4.413-4.477-2.184-2.369 1.2v1.839l2.315 1.352v3.493zm-5.581 0v-3.493l-2.315-1.352-2.671 1.936 3.947 14.233-2.195 4.305-.13 2.141 3.829 3.245.367 1.19 2.315-.347-3.72-5.483.865-8.48 4.185 4.143v-3.472l4.262-4.272-3.158-4.294zm4.477 8.566v3.472l2.088 2.076 2.347-.324 3.493-2.617v-3.916h-6.619zm1.482-9.853l6.446 6.857v5.603l-3.493 2.617.086 3.742 6.684-4.413-.227-6.565-6.976-7.365.346-4.034 2.488-1.406-5.386-4.608-5.873 2.975 4.477 2.184zM226.29 69.796l-1.481.693 2.098 6.63 1.352-1.309 6.035 5.062.39-2.704-3.17-2.964-.519-3.547-2.53 1.038zm2.174-.454l-3.655-.908.508-2.293-1.05-.364-2.238 3.565-12.297-4.657.032-3.928-3.072-1.064-.346-6.969-2.682-1.222h-2.477l-3.677 2.613-.097 2.225 2.228 1.262 1.06 4.349-4.835 4.45h-3.093v3.287l2.314.876v2.834l-4.174 1.114.356.422 3.45 1.092-1.61 1.655 1.524 1.98 2.736.324.487-2.271 1.082.01 8.793 25.287 5.58-3.428.866-10.167 12.73-12.297-2.098-6.63 1.481-.693 2.174 2.9 2.531-1.04.52 3.548 3.168 2.964 1.33-9.183 3.656-2.628-6.154-2.658-4.175 3.826zm-18.7-8.585l-.032 3.928 12.297 4.657 2.239-3.565zm15.553 5.384l-.508 2.293 3.655.908.876-1.817zm-69.663-29.386l2.606 2.165 3.32-.917 2.942 2.455-.508-6.375 4.532-1.044 5.97 4.093 4.997-.958 3.656 4.82 3.525-.156 3.45-2.835 8.145-.354 5.213 2.415-1.352-6.284 8.122-6.19-4.683-2.739-27.298-9.627-10.762 2.426v4.865H148.45v6.286l2.552 3.193 5.462-2.207 3.255 2.207-3.947 1.915zm20.895 15.012l-1.827-2.96-7.139-2.265-4.218 1.406-.075 1.879-5.376-.004-2.963-5.229-7.084.7v2.09l8.598 14.59 2.552.245 5.927 6.183 10.913 3.256h3.029l2.195-3.775-2.433-3.05-3.483-10.104zm-12.027-11.302l-2.941-2.456-3.32.918 5.299 4.389-.195 4.635 4.218-1.406 7.15 2.265 1.827 2.96 6.792-3.484-11.194-8.958h-4.748zm28.25 25.935h3.094l4.835-4.45-1.06-4.348-2.228-1.262.097-2.225 3.677-2.613h2.477l-5.159-2.357-5.494.793-1.742 7.547-6.348 5.87-6.814-.068.54 1.544 2.434 3.051-2.195 3.775h9.517l2.51 2.855 4.174-1.114v-2.834l-2.314-.876zm-18.256-29.267l-5.97-4.093-4.532 1.045.508 6.374 2.888-1.136h4.748l11.194 8.958 3.667.981-1.666-4.9 5.203-1.492.292-2.215-7.68.34-3.655-4.82zm2.033 14.634l-1.384 2.962 2.942 8.559 6.814.068 6.348-5.87 1.742-7.547-1.125-3.18-4.867 2.505-3.667-.98zm14.872-6.473l-4.37-1.418-1.698.489 1.666 4.9 4.867-2.506 1.125 3.18 5.494-.793-.811-.369-1.6-3.927zm-1.276-7.288l-3.45 2.835 4.153-.184-.292 2.215-3.505 1.004 4.37 1.418 4.672-.444-.724-1.762 8.133-3.02-5.213-2.415zm-41.694 4.08l3.114 2.842 3.386-.334-2.358-4.154-2.553-.632zm-6.695-1.176l4.618 1.176h2.077l1.59-2.278-5.895-2.672-2.39.517zm6.11 4.384l3.7-.366-3.115-2.842h-2.077zM112.661 9.873l-1.222.289.313.234-.346 1.568-3.428-1.568.01 2.036 4.673 1.192 3.364 1.539 1.297-1.11-.465-3.305-1.709.519zm-4.662 4.885l2.607.869.714 1.475.562 1.574 4.142-3.513-3.363-1.54-4.673-1.191zm13.239-.705h-3.916l-5.44 4.623.865 2.384 7.798 1.244 4.867-1.062-2.898-1.179 1.741-1.11zm-10.86-6.044l-.41 1.045 1.47 1.108 1.223-.29 2.487 1.395 1.71-.52-.53-3.764-.974.914zm10.167 14.298l-7.798-1.243.487 1.354-2.79 3.48v1.968h10.545l1.016 1.927-1.827 2.865 1.6.67.433-1.329h6.251l-1.384 1.437 1.925 1.089 2.596-.204-2.466-3.15 6.49-1.378 1.654-3.716-11.865-4.832zm-14.85-30.456L94.773-.137v7.126l-1.504 2.355 4.11 4.732 6.706-5.938-3.137-3.894 7.063-7.719h1.395l-1.925-4.674zM86.434 9.88l6.392-1.045.443.509 1.504-2.355V-.136l10.934-8.012h6.046v-1.996l-6.197.316-21.253 14.71zm25.32-18.03h-4.262l1.914 4.674h1.125l-3.396 7.693 3.97 2.003h6.045l3.396-3.92-5.635-12.61-3.158.16zm183.215 35.042h2.088l-7.366-7.548-2.087-.06 5.916 7.317 2.899 5.4h2.152zM110.563 15.634l-2.607-.868.01 1.733 3.31.61zm155.852-26.098l-2-2.718-12.374-2.022-3.482 3.135h-10.016l-4.174-3.135H211.72l-1.396-4.993H189.42l-18.43 8.244 4.034 4.995-3.482 3.599-3.148-10.287-5.559-.44 2.672 6.082-21.49.58L123.93.821l-2.65-5.049 7.636.288 3.72-1.858-14.633-4.666-3.115.16 5.635 12.61-3.396 3.92-.822.768.53 3.765.465 3.305h3.915l3.017 4.9-1.74 1.11 2.898 1.179 11.864 4.831-1.654 3.716.778 1.858-1.914.522.335 3.054 6.933 2.428 2.39-.517 5.895 2.673 2.552.631-1.59-2.787v-5.655l-2.552-3.193v-6.286h19.079v-4.865l10.761-2.426 27.299 9.627 4.683 2.737 5.764-4.392 7.723 2.352 2.087-4.703 18.992 4.703h9.291l3.483-.697-1.86-6.562h8.133l8.36 8.189 11.378 2.903v9.175l4.986-.876 2.682-4.002v-7.433l-7.668-8.71-7.43-.115 1.276-9.174 15.326.116 1.665-5.207 6.468 2.448.022-2.4 1.6.165 2.79 2.67-2.692 1.834-.325 5.482 10.913 10.337v-9.987l-6.154-5.924 14.58-4.616.183-1.488-7.333-1.996 2.856-2.225 6.554 1.354 4.445.088-3.569-3.83-22.886-4.533zM102.992 28.407l-2.693 2.208 3.915 1.455 4.175-.72 3.31-3.481h-1.31v-.823zm-2.001-1.892l2 1.892 7.398-1.361V25.9l-6.705-.814-.281-.11zm-14.125 5.383l2.4.172 2.175-.502-.78-2.353h-2.043l-1.33.614zm9.193-5.383h4.932l2.412-1.54-4.716-1.857-4.218 1.306zm-33.14 22.67l.974.073 1.125-9.449-3.656-.61-.183 6.908zm57.205-16.527l1.827-2.865-1.016-1.927h-3.126zm-8.858-15.553l-3.31-.61-3.483.115-.79-.724-4.996 1.22-.443-.006.443 6.014 4.726 1.858.27.11 6.706.815 2.79-3.48-.486-1.353-.865-2.385zm.432 10.76l-3.31 3.481 2.964 4.921 7.398-.842 2.109.58.865-2.678-1.6-.67-2.315-4.791zM98.233 17.1l-6.414-.074-.292-1.14h-2.25l.455 1.098-3.375 2.021-.303 5.825 2.045 1.067-.812 3.928 1.33-.613h4.76l.41-.12 3.45-1.012-1.178-1.569-1.59-2.09 4.218-1.307zm-8.956-1.214h2.25l-.119-.482.736-4.134-2.023-.028-1.438 3.243zm6.003-1.447l-1.265-1.253-1.125.461-.346 1.777 2.098-.02zm1.958 13.639l-3.861 1.132h-2.715l.779 2.352 4.12-.953h4.738l1.979-1.626.714-.581-2.001-1.893h-4.932zm2.358 18.808H95.41v1.046l1.568 1.074 2.618.405zm-10.978-5.894v4.297h2v-3.716zm-1.752-9.104l-.379 1.846 2.423 1.104h2.812l8.652 8.634.444 3.674 1.59-.929.497-2.64 1.969-.395-10.556-9.136 2.995-.18-1.752-3.26-6.294 1.454zm2.758 6.144v1.772l.995.375.443-2.147zM69.658 27.173v1.278l3.59 1.94.477 6.363 5.32 3.403 1.645-2.125 7.787.056.227-3.25h.206l-2.423-1.104 1.612-7.843-7.085-3.696-8.306 4.978zm13.336-6.16l-1.98 1.182 3.97 2.07 1.135-.612.044-.958zm3.169 1.682l.194-3.696-3.363 2.014zm-1.18 1.57l1.071.558.055-1.17zm-13-9.053l.044 2.67-1.828 1.002 1.611 2.346-3.266 3.098 4.315-.784 4.392-.697.28-1.611h.898l.195-1.799-2.844-.6-3.559-8.177-2.714-.083v4.403zm-3.439 1.93v-1.745l-3.18-.215 1.828 2.439zm-6.403.403v4.762l1.828-.011V20.67l3.483.48-.26-3.529-1.828-2.439zm1.752 31.712l7.625.57 7.528-9.665-5.321-3.404-12.308.089-.055 2.35 3.656.611zm16.894-4.067v-2.045L78.43 45.19zm27.861-2.378l4.835-1.564-1.114-2.598-3.98.778zm-3.06-10.989l.886 4.932 1.915 2.67 3.98-.778-1.017-2.385-2.963-4.921zm-8.275 2.044l.444-.026 2.271-1.188 1.028-1.763-.757-.284H95.56zm24.14 9.565l-3.6-.029 2.963 5.955 13.617.752 13.378-2.729v-2.09l-1.492-3.208-4.618-1.176-18.646.61zm-3.612-1.35h3.32l-1.34-2.887-2.012.65zm-14.871-3.86l1.2.297 2.304-1.764-.649-3.628-4.92.667zm3.883 5.166l1.536 1.774 2.963.828-1.806.766 2.39 3.005 1.503-2.38-1.676-3.659 3.331-1.64h2.747l-.032-2.237zm-2.64-11.324l-3.157-1.171-1.028 1.763-2.271 1.188.79-.047 3.666 4.24.757.188-2.066-4.428 4.921-.666-.238-1.305zm1.396 6.814l1.73-.92-.865-1.2-2.303 1.764zm0 0l.973 4.198.27.315 1.796-.58-.26-3.383-1.049-1.47zm7.874 2.37l6.338-2.05 1.038-3.195-2.11-.58-7.397.842zm47.296 30.435l1.471.973.963-.995-1.687-2.38zM131.437 51.64l-3.883 1.438 2.78.696zm2.498 4.968v6.98l1.46.173 2.174-1.016.67-3.92 1.699-.718.086-.037-.497-2.082-3.494 2.082zm26.368 14.763l-3.84-6.273h-1.676l-1.2-1.556-3.277-.01-10.372-5.423-1.71.718-.659 3.92-2.185 1.017-1.449-.174 13.53 23.513.27.876 1.407-2.412 4.802.605-.444 1.828 6.803-3.569 9.572-2.563v-4.986l-4.986-.703-1.514-2.78zm-8.23-7.834l1.525.005 1.19 1.556h1.676l-2.033-3.31h-1.915zM142.36 54.3l-2.833 1.691.519 2.176 10.264 5.365 1.763.006.443-1.748 3.775-.023-8.48-14.374-3.893.795zm24.65 19.814l-3.635-.714 1.514 2.78 2.812.4 4.002-4.067-1.828-1.622zm.691 2.466l2.174.303v4.986l-4.813 1.287v2.898l2.683 1.818 8.868-10.99-4.91-4.369zm-32.187-22.897l-1.579 2.922 2.098 1.462 6.327-3.774 1.558-6.114-9.485 1.934-.639 2.974zm24.79 30.75L153.5 88l.444-1.828-4.802-.605-1.406 2.412 2.4 7.83 17.609-7.938-2.683-1.818v-2.898zm-26.369-27.83l1.58-2.92-1.72-.597-.628 2.973zm-.043 7.083l.043-.103v-6.98l-.768-.544-1.211 4.472zm14.471 99.654l1.839 4.348 4.402.195 7.495-24.043h-2.672l-8.706 9.042-.876 6.273zm-48.389-59.053l-1.276-3.774h2.552l-3.147-6.684v3.699l-4.521 9.366-3.948.227-.551 3.85h1.709l-.087 3.937h10.891l.487-1.395h-.022l-3.255-4.586zm-6.273 13.487h-3.06l-.098 4.684 3.926 5.245v-4.488h5.04l-2.574-8.307H93.7zm0 0v-2.866h-2.985l-.076 2.866zm-10.22-9.885l.691 3.082h4.91l.552-3.85 3.948-.227 4.52-9.366v-3.7H81.178l-2.748 13.326zm-24.974-2.552l1.244 1.395v5.808l9.215-2.66v-8.524l-8.999-1.773v4.477zm1.244 7.203v-5.808l-3.331-3.753-2.953 2.78zm55.473 27.104l-3.18-1.569v-5.797h-3.59l-.725 2.553-3.58.119-.93-3.213-5.69.044v12.686l-3.244 5.343.281 3.483h20.063l-3.277-4.067v-4.532h4.002zm-40.007-31.571l-1.492-9.129h-4.76v10.935zm21.718 6.835l2.574 8.307h-5.04v4.488l1.98 2.64 4.801-2.196 5.051-8.382.8-6.252h-5.018l-.487 1.395zm46.94-23.026l2.974 4.705 1.135-.952-7.538-12.946-3.894 9.193zm-90.397 13.876l2.942-2.78-3.018-3.395-2.93 2.941zm94.16-6.1l1.893-1.362-1.547-2.661-2.26 1.893zm-13.995 42.246v2.79l2.444 1.634v3.482l-2.325 2.034v-4.078l-2.325-1.903-.065.043-4.391 3.06 4.39 2.878v4.023l-2.746 6.424v7.117l1.99-.032.13-.963 4.12-2.877-.303-8.663 9.67-7.928-.963-9.042zm15.888-43.608l-1.893 1.362 1.925 2.163 7.669 2.715-11.973 9.972v8.674l18.765-21.826-.768-3.828-13.044 1.936zm-47.816 75.146h7.204v-18.419h9.56l-1.243-1.73h-22.67zm35.67-63.044l-3.288.465.941 4.045-.465 3.429-1.47 2.596 8.998 5.937 3.158-3.688v-8.674l3.483-2.91h-10.21zm-4.283 10.535l-.562.984h-3.234l.833-1.428h-1.471l-3.31 8.198 6.014 8.469h2.271v4.748l9.626-2-1.168-13.034zM59.437 69.559h-5.343v6.132l-1.968 2.985h-6.598l-.238 6.89 8.112 5.83v-2.088h9.756l-.93-16.635h5.137l-7.928-5.85zm67.89 54.261l1.34-3.33h-2.854l-.909 3.839zm-1.969 4.867l1.969-4.867-2.423.509-.66 2.78zM47.345 99.15l3.126 3.374 2.931-2.941 3.018 3.396 2.087 2.358 1.46-1.277v-4.477l-.703-3.191h-9.29zm15.813-9.842h-9.756v2.087l2.207 4.997h3.655l.703 3.19 4.5.887v-4.51l17.272-6.997v-5.7L67.365 72.673h-5.137zm60.037 51.558l3.483 1.395-1.212 2.433-10.242-5.05.13 5.05h-4.002v4.532l3.277 4.067h6.133l10.61-7.387v-8.75l-1.33-1.871-5.798.876zm-14.276 26.011l2.898 3.342 11.832-7.928-5.17-7.268h-9.56zM64.467 100.47l4.499.887v-2.412h4.759l5.526-2.033-5.278-4.802-9.506 3.85zm66.905 36.687v8.75l.065-.044 2.325 1.904v4.077l2.325-2.033v-3.482l-2.444-1.634v-7.538zm15.477-40.57l-2.974-4.704h-7.323l-5.18 12.232 7.16 7.485h10.21l8.49-7.063-7.668-2.715-3.84-4.293zm-21.036 23.903h4.326l1.233-2.152h3.201l.465-3.429-.94-4.045-6.198.866zM81.739 83.262v5.7l-7.766 3.147 5.29 4.802 1.384-.508.53-2.574h16.926l3.818-7.83-1.503-10.308H92.89zm-36.2-4.586h6.587l1.98-2.985v-6.132h5.342v-3.72h-5.884l-7.938 10.339zm-.486 13.595l5.332 1.558h-5.387l-.097 2.563H55.61l-2.207-4.997-8.111-5.83zm5.332 1.558l-5.332-1.558-.055 1.558zm51.525-7.83l-3.807 7.83 3.147 6.684h-2.552l1.276 3.774 12.633-5.97v-6.5l2.812-2.769.28-6.316-10.966-7.041h-4.315zm.032-25.612l-2.303-2.793-4.943-1.186-4.597 4.944 2.986 14.341h11.648l10.967 7.041 1.07-24.27-6.38-.865-2.64 3.948zm-43.424 5.449h.93v-.79l13.238-7.227v-5.185l-9.755 1.017-9.367 12.19zM72.686 52.64v5.185l-13.238 7.226v1.773l22.291 16.44 11.15-7.57h.196l-5.44-26.142-6.404-.185zm14.958-3.092l2.455 11.81 4.597-4.944-1.806-.432.227-6.273zm29.592 103.743l6.413 8.998h4.976l2.747-6.424v-4.024l-4.391-2.877-6.22 4.327zm2.942 24.508h2.552l1.514-1.58v-2.022h-2.087l-1.98 1.276zm8.447-9.053h-1.947v1.785l1.947 1.168zm5.234-104.976l.033-.09-1.936-3.156-15.185-2.063-.811 18.408h16.645l3.353-1.914-6.9-11.854 3.774 3.077zm2.099 11.194l-3.353 1.915h-16.656l-.53 12.167-2.812 2.769v6.5l9.96 11.465 5.333 1.946 9.474-1.33-6.002-6.284 5.18-12.232 3.894-9.193zm-11.714 52.142l3.656-15.38-5.332-1.946-15.045.421-1.222 9.561-5.05 8.382-4.803 2.196 1.082 1.439 5.689-.044.93 3.212 3.58-.118.724-2.553h3.591v5.797l13.422 6.62 1.212-2.434-3.483-1.395 1.05-4.705 5.796-.876zm-25.438-18.18l3.255 4.585h5.04l.422-3.31 15.045-.421-9.961-11.465-12.633 5.97zm-18.16-12.525l-4.715 1.73 1.547 9.29.951-.27zm-4.715 1.73l-2.206.811 1.492 9.129 2.26-.65zM47.345 99.15l2.629-2.758h-5.062l-.01.119zM-100.07-9.331l-3.948-1.627-20.668.117-8.36 3.368v3.716l-9.406-.116-1.784 2.491 7.937-.285-10.218 3.833-4.938 6.689 4.241-.07-8.13 5.342 2.972.232 15.564-7.431 17.964-.628 5.458 5.459 2.061-2.22-1.8-1.859h-2.032l-1.983-2.273 17.078-14.742zm-13.509 34.566l-2.845-2.323-1.22 1.046 1.983 2.593h2.082zm109.021 3.596l-2.13-3.394-1.925-.46v-2.434l-6.198 6.288zM-7.803-10.45l-12.481-5.097-1.86-.02-4.338 3.563 1.45-3.584-2.099-.017-5.05 5.37 12.275-.667 7.495 6.707-5.04-.087-2.541 2.082h-5.722v1.636h5.808l4.921 4.07 1.341-.587-1.168-2.585 3.386 1.612 1.103-.48v-5.051l3.893 1.385 2.24-1.493-1.266-2.364-2.25-.82zm-42.03 45.566h3.602l2.498-1.71h8.069l3.482-3.02h3.137l-1.136 3.573 5.57-.96-3.655 1.74.346 1.512 9.929-3.488-4.846-.23-2.26-2.037 2.238-3.472-1.092-1.043-7.02 3.186v-1.83l6.717-3.222 10.762-.464 8.09-4.306.043-1.965-5.894-1.021-.714-9.637-7.712 3.035.054-4.534-3.72-3.165h-5.051l-13.66 19.88-3.31.01.065-6.538-11.767-6.386 11.767-8.71 6.673-1.218-1.395-2.064L-29.748-4.1l4.186-4.354-3.926-.435-5.397 3.57.605-3.048-2.52-.261-.595-3.683-4.37 1.94 1.137 2.353-5.84 2.786-10.19-1.916-5.385 2.526-13.076-5.225-24.995.522-17.078 14.742 1.984 2.273h2.03l1.802 1.86-2.062 2.219-2.09 9.567 3.745 3.397v1.83h41.986l4.932 2.25 8.35-1.773 1.049 3.702 1.687 1.246 2.833-.2zm15.067-37.314L-37.968.405l6.327.67.67-1.638zM-47.118-8.82l1.179 1.522 2.985-1.522-.887-1.412zm2.26-5.111l1.904 1.93 4.088-1.366 1.071-2.857zm7.799-1.149l.519 1.829 5.57-1.48-1.125-1.493zm14.2-3.789l-3.05-1.263-2.963 2.526 12.016.946 3.137-2.209zm29.257-6.75l6.273-3.54-24.909 1.848v1.344l8.404-.174-1.179 1.568-8.706.173 1.135 2.004-3.753-.61 1.482 1.916h-6.446l.963.958h7.051l1.136.958 10.275-4.79zm-30.479 1.454l4.64.877 2.66-1.703-1.924-1.438zM-73.086-12l10.902-3.708-2.51-1.163L-75-14.245zm12.308-3.031l-5.874 1.998 3.462 1.457-5.4 1.376 6.709 2.613 4.618-2.004 5.138 1.22 3.85-.884-3.764-1.738 2.899-3.742h-2.899l-1.741 2.252-.703-2.252-3.072 1.192zm-8.509 91.748h5.35l4.316 2.877-1.644 1.828h7.485l-8.945-6.446h-4.733zm7.492 8.015l1.125.962h3.223V84.56l-1.125-1.136h-3.223zm19.847-.887l-.66 1.092h1.806l.66-1.092zm-39.79 4.672h-3.048l-1.448 2.574 4.316 2.174 2.923-5.278-.566-2.812h-2.612zm3.397 4.272l-.525 1.85.785.357 7.209-6.035-8.687.086-1.433 2.564zm-.525 1.85l.525-1.85-2.651-1.178-.926 1.654zm2.702-11.995l-3.397 2.531.566 2.812zm.826 16.05l4.7.498-.234-10.231-7.209 6.035zm7.571 28.489l3.845 1.839 6.857-8.415-6.987-3.99-3.315 4.174zm14.125-29.786l-1.86-.01-3.883 5.245-1.98.13.563 1.903-1.038 1.47.8 2.662-.757 4.964-2.26 2.855 15.964 9.118v-10.232l3.71-.249v-8.122l-6.09-.627-2.65-2.931zM-28.29 221.56l2.38 2.185 7.332.27-7.917-4.132zm11.27-52.726l-3.202 1.947h-4.304v-3.83l-8.793-5.948-.498.909h-7.333l-1.968 18.278 4.142 18.116 3.742 6.663.173 4.996 5.56 8.512 2.022.206-1.049-21.772 11.789-5.105-5.343-7.441v-8.187l5.202-5.343zm1.298 17.867l2.552-4.423-8.912-6.1v8.187zm-24.822-86.406l-3.948-2.812-9.15-.086.52 6.176 2.65 2.93 6.088.628v8.122l.974-.064 1.233 2.758 3.958-1.277-.324-4.283 5.3-1.947 1.568-7.743-1.785-1.71zm-34.805-1.6l3.13 4.229 1.128.4 1.586-2.055-1.11-.617-.034-1.46zm49.19 9.258l-5.527-5.256-1.568 7.743 2.303-.843-.313 6.608 5.288-.595-1.806-4.629zm-13.671 31.895l-5.397 1.525v12.34l4.066 8.199h7.333l2.856-5.235 5.526-.032-.13-4.132-9.409-7.69zm18.602-24.757l3.548-.4 1.05-2.974-1.396-3.061-2.964-.249zm-4.218 41.554l-5.526.032-2.358 4.326 8.793 5.949v3.829h4.305l3.2-1.947-.215-3.028-8.047-4.294zm-.53-41.035l4.748-.519.238-6.684-5.17-.454-1.622 3.028zm22.226 6.63l-4.023-1.741-4.023 2.358 1.308-3.526-2.671-1.157-3.796 2.92 2.758-4.067-2.434-5.31-1.049 2.974-13.584 1.514.313-6.608-2.303.843-5.3 1.947.324 4.283-3.958 1.276-1.233-2.757-4.683.313v12.081l-4.76.584-2.097 6.846 7.96 6.858 7.17-2.023 4.846 4.975 9.41 7.69.28 8.999 8.048 4.293.357 5.03-5.203 5.343 8.912 6.1 5.192-9.053 1.222-7.841 12.61-5.581 2.348-17.435 5.44-7.117v-4.304L4.73 125.15l-8.707-.53zm-62.319-21.123l-1.477 1.233-1.96-1.081-1.586 2.055 4.665 1.665 1.13-1.687 2.672.26.778 2.574 1.039-1.471-.487-1.785-.584-2.13zm13.206 27.05l4.759-.584v-1.85l-8.977-5.126-6.857 8.415-3.845-1.839-.124 1.968 11.681 19.89 10.091 6.76.909-2.087v-12.341l-1.774.498-7.96-6.858zm13.876 70.14l-4.142-18.117 1.968-18.278-4.066-8.198-.909 2.087 1.698 41.37 4.467 3.612.206 7.42 7.744 10.015 2.509.26-5.56-8.513-.173-4.996zm-5.408-115.944l-5.267-.584v2.91l1.763-1.31h2.812zm-5.267 1.612V81.78h-3.288l1.071 1.514h-1.914v.682zM346.505 195.944l-1.082 3.461 7.895-5.624-2.27-3.028v-3.461l-1.299.54v4.867zM325.739 207.3l16.44-8.328v2.164l-12.655 8.328zm-67.381-42.721l13.843-6.49 10.275-11.356 5.624 2.488 2.488-5.192 9.41-.216-2.38 4.326 7.787 6.706 5.192-5.192v-7.246l2.38.757 2.703 12.979 8.436 11.897-.865 8.977-15.358 15.899-13.303-.757-1.623-8.977-4.542 1.946-4.326-3.785-26.282 5.732-1.623-1.947 2.163-5.191z" fill="#f6f5f8" fill-opacity="1" stroke="#c8c7d7" stroke-width=".818" stroke-linejoin="bevel" stroke-miterlimit="4" stroke-dasharray="none" stroke-opacity="1"/><g steps="2--"><path d="M88.447 30.293l-4.22-2.074 7.719.722-5.459 4.793" fill="none" stroke="#000" stroke-width="1.082" stroke-linecap="round" stroke-linejoin="round" stroke-miterlimit="4" stroke-dasharray="none" stroke-opacity="1"/><path d="M-44.13 45.628c54.36 4.668 98.906-1.579 132.577-15.335" fill="none" stroke="#000" stroke-width="1.082" stroke-linecap="round" stroke-linejoin="round" stroke-miterlimit="4" stroke-dasharray="1.0815585,2.163117" stroke-dashoffset="0" stroke-opacity="1"/><path d="M92.469 24.094h50.26v16.238h-50.26z" opacity="1" fill="#f6f5f8" fill-opacity="1"/><g transform="matrix(.75465 0 0 .75465 -90.852 67.173)" stroke="#000" stroke-width=".25" stroke-linejoin="bevel" fill="#b72323" fill-opacity=".973"><path d="M251.697-53.446a4.353 4.353 0 0 1-4.353 4.353 4.353 4.353 0 0 1-4.353-4.353 4.353 4.353 0 0 1 4.353-4.353 4.353 4.353 0 0 1 4.353 4.353z" opacity="1" stroke="none"/><path d="M250-53.446a2.656 2.656 0 0 1-2.656 2.656 2.656 2.656 0 0 1-2.656-2.656 2.656 2.656 0 0 1 2.656-2.656A2.656 2.656 0 0 1 250-53.446z" opacity="1" stroke="#fff" stroke-width=".845" stroke-linecap="round" stroke-linejoin="round" stroke-miterlimit="4" stroke-dasharray="none" stroke-dashoffset="0" stroke-opacity="1"/></g><g aria-label="GeneFastDNA synthesis" style="line-height:125%;-inkscape-font-specification:inconsolata;text-align:center" font-style="normal" font-variant="normal" font-weight="400" font-stretch="normal" font-size="7.21" font-family="Open Sans" letter-spacing="0" word-spacing="0" text-anchor="middle" fill="#000" fill-opacity="1" stroke="none" stroke-width=".155" stroke-linecap="butt" stroke-linejoin="miter" stroke-opacity="1"><path d="M103.3 28.722h2.042v2.669q-.497.162-.937.225-.436.067-.894.067-1.165 0-1.782-.683-.612-.687-.612-1.968 0-1.246.711-1.944.715-.697 1.979-.697.792 0 1.528.317l-.363.873q-.563-.281-1.172-.281-.708 0-1.134.475-.426.475-.426 1.278 0 .838.341 1.281.345.44 1 .44.342 0 .694-.07V29.63h-.975zM108.116 28.366q-.342 0-.535.219-.194.214-.222.612h1.507q-.007-.398-.208-.612-.2-.219-.542-.219zm.151 3.317q-.95 0-1.485-.525-.536-.524-.536-1.485 0-.99.493-1.528.497-.543 1.37-.543.834 0 1.3.476.464.475.464 1.313v.521h-2.539q.018.458.271.715.254.257.712.257.355 0 .672-.074.317-.074.662-.236v.83q-.282.142-.602.209-.32.07-.782.07zM114.386 31.613h-1.073v-2.3q0-.426-.152-.637-.151-.215-.482-.215-.45 0-.652.303-.2.3-.2.997v1.852h-1.074v-3.937h.82l.145.504h.06q.179-.285.492-.43.317-.148.719-.148.686 0 1.042.374.355.37.355 1.07zM117.129 28.366q-.342 0-.535.219-.194.214-.222.612h1.507q-.007-.398-.208-.612-.2-.219-.542-.219zm.151 3.317q-.95 0-1.485-.525-.536-.524-.536-1.485 0-.99.493-1.528.497-.543 1.37-.543.834 0 1.3.476.464.475.464 1.313v.521h-2.539q.018.458.271.715.254.257.712.257.355 0 .672-.074.317-.074.662-.236v.83q-.282.142-.602.209-.32.07-.782.07zM120.924 31.613h-1.074v-5.148h2.95v.895h-1.876v1.327h1.747v.89h-1.747zM126.223 31.613l-.208-.536h-.028q-.271.342-.56.476-.285.13-.746.13-.567 0-.894-.324-.324-.324-.324-.922 0-.627.436-.923.44-.3 1.324-.33l.683-.022v-.172q0-.599-.613-.599-.471 0-1.109.285l-.355-.725q.68-.356 1.507-.356.792 0 1.214.345.423.345.423 1.05v2.623zm-.317-1.824l-.415.014q-.469.014-.697.169-.23.155-.23.472 0 .454.522.454.373 0 .595-.215.225-.215.225-.57zM130.821 30.444q0 .605-.423.922-.418.317-1.256.317-.43 0-.733-.06-.303-.056-.567-.169v-.887q.3.14.673.236.377.095.662.095.584 0 .584-.338 0-.127-.077-.204-.078-.081-.268-.18-.19-.102-.507-.236-.454-.19-.669-.352-.211-.162-.31-.37-.095-.21-.095-.517 0-.525.405-.81.409-.289 1.155-.289.711 0 1.384.31l-.324.775q-.296-.127-.553-.208-.257-.08-.525-.08-.475 0-.475.256 0 .144.151.25.155.106.673.313.461.187.676.349.215.162.317.373.102.211.102.504zM133.324 30.827q.282 0 .676-.123v.8q-.401.179-.986.179-.644 0-.94-.324-.292-.327-.292-.979v-1.897h-.514v-.455l.592-.359.31-.83h.686v.837h1.102v.807h-1.102v1.897q0 .23.127.338.13.11.341.11z" style="line-height:30.79999983%;-inkscape-font-specification:'Open Sans Bold';text-align:center" font-weight="700"/><path d="M98.114 35.84q0 1.274-.694 1.95-.69.672-1.99.672h-1.425v-5.147h1.577q1.2 0 1.866.666.666.665.666 1.858zm-.634.02q0-1.006-.507-1.517-.504-.51-1.5-.51h-.87v4.112h.73q1.07 0 1.608-.525.539-.528.539-1.56zM103.279 38.462h-.683l-2.814-4.32h-.028q.057.761.057 1.395v2.925h-.553v-5.147h.676l2.806 4.302h.028q-.007-.095-.032-.609-.024-.517-.017-.739v-2.954h.56zM107.93 38.462l-.641-1.637h-2.064l-.633 1.637h-.606l2.035-5.168h.504l2.024 5.168zm-.828-2.175l-.599-1.595q-.116-.303-.239-.743-.077.338-.222.743l-.605 1.595zM113.53 37.41q0 .538-.4.83-.402.293-1.127.293-.768 0-1.197-.243v-.542q.278.14.595.221.32.081.616.081.458 0 .704-.144.246-.148.246-.447 0-.225-.197-.384-.193-.162-.76-.38-.539-.2-.768-.349-.225-.15-.338-.341-.109-.19-.109-.454 0-.472.384-.743.384-.275 1.053-.275.623 0 1.218.254l-.208.475q-.58-.24-1.053-.24-.415 0-.626.13-.212.131-.212.36 0 .155.078.264.08.11.257.208.176.098.676.285.686.25.926.503.243.254.243.638zM113.865 34.604h.627l.845 2.2q.278.754.345 1.088h.028q.046-.18.19-.613.148-.436.958-2.675h.627l-1.659 4.394q-.246.65-.577.922-.327.275-.806.275-.268 0-.528-.06v-.469q.193.043.433.043.602 0 .859-.676l.214-.55zM120.752 38.462v-2.496q0-.472-.215-.704-.215-.232-.672-.232-.606 0-.888.327-.281.328-.281 1.081v2.024h-.585v-3.858h.476l.095.528h.028q.18-.285.503-.44.324-.159.722-.159.697 0 1.05.338.351.335.351 1.074v2.517zM123.78 38.05q.154 0 .299-.02.144-.025.229-.05v.447q-.095.046-.282.074-.183.032-.33.032-1.12 0-1.12-1.18v-2.295h-.553v-.282l.552-.243.247-.824h.338v.895h1.12v.454h-1.12v2.27q0 .35.165.536.166.186.455.186zM127.723 38.462v-2.496q0-.472-.215-.704-.215-.232-.672-.232-.61 0-.891.33-.278.332-.278 1.085v2.017h-.585v-5.478h.585v1.658q0 .3-.029.497h.036q.172-.278.489-.437.32-.162.729-.162.707 0 1.06.338.355.335.355 1.067v2.517zM131.134 38.533q-.855 0-1.352-.521-.493-.521-.493-1.447 0-.933.458-1.482.461-.55 1.236-.55.725 0 1.148.48.422.474.422 1.256v.37h-2.658q.018.68.342 1.031.327.352.918.352.624 0 1.233-.26v.52q-.31.135-.588.19-.275.06-.666.06zm-.158-3.51q-.465 0-.743.302-.275.303-.324.838h2.017q0-.552-.246-.845-.246-.295-.704-.295zM136.035 37.41q0 .538-.401.83-.402.293-1.127.293-.767 0-1.197-.243v-.542q.278.14.595.221.32.081.616.081.458 0 .704-.144.247-.148.247-.447 0-.225-.197-.384-.194-.162-.76-.38-.54-.2-.768-.349-.226-.15-.338-.341-.11-.19-.11-.454 0-.472.384-.743.384-.275 1.053-.275.623 0 1.218.254l-.208.475q-.58-.24-1.052-.24-.416 0-.627.13-.211.131-.211.36 0 .155.077.264.081.11.257.208.176.098.676.285.687.25.926.503.243.254.243.638zM137.567 38.462h-.585v-3.858h.585zm-.634-4.904q0-.2.098-.292.1-.095.247-.095.14 0 .243.095.102.095.102.292 0 .197-.102.296-.102.095-.243.095-.148 0-.247-.095-.098-.099-.098-.296zM141.302 37.41q0 .538-.401.83-.402.293-1.127.293-.767 0-1.197-.243v-.542q.278.14.595.221.32.081.616.081.458 0 .704-.144.247-.148.247-.447 0-.225-.197-.384-.194-.162-.76-.38-.54-.2-.768-.349-.226-.15-.338-.341-.11-.19-.11-.454 0-.472.384-.743.384-.275 1.053-.275.623 0 1.218.254l-.208.475q-.58-.24-1.052-.24-.416 0-.627.13-.211.131-.211.36 0 .155.077.264.081.11.257.208.176.098.676.285.687.25.926.503.243.254.243.638z" style="line-height:30.79999983%;-inkscape-font-specification:'Open Sans';text-align:center" font-weight="400"/></g><g aria-label="designs" transform="rotate(-6.55)" style="line-height:125%;-inkscape-font-specification:inconsolata" font-style="normal" font-variant="normal" font-weight="400" font-stretch="normal" font-size="6.7" font-family="Laffayette Comic Pro" letter-spacing="0" word-spacing="0" fill="#454545" fill-opacity="1" stroke="none" stroke-width=".168" stroke-linecap="butt" stroke-linejoin="miter" stroke-opacity="1"><path d="M13.224 50.825h.2q1.423 0 1.743 1.128l.04.36q0 2.248-3.331 3.704l-.196.046h-.043q-.088 0-.157-.318l.396-3.883q-.239 0-.239-.134v-.092q0-.72.635-.72zm-.792.948q-.357 2.317-.357 3.115v.226q2.497-1.247 2.497-2.35v-.042q0-.634-.357-.634-.442-.315-1.426-.315zM18.707 50.834q.226.05.226.344-.072.556-.448.556-2.467 0-2.467.687l-.046.386v.213q1.61-.386 2.199-.386h.088q.226.098.226.428 0 .472-.628.472-2.065.268-2.065.644l-.042.429v.17q0 .386.49.428.772-.085 1.93-.386h.135q.18.07.18.301v.128q0 .527-2.245.815h-.134q-.808 0-.896-1.028 0-.755.314-2.872l-.088-.259q0-.87 2.689-1.027zM21.71 50.834h.07q.45.056.45.439v.088q0 .661-.45 1.23h-.07q-.071-.02-.14-.219l.177-.657-.138-.089q-.48.043-1.766 1.054v.042l2.283.442q.347.275.347.923v.261q0 .887-1.142 1.538-.448.177-.867.177h-.072q-1.19 0-1.452-1.054v-.265q0-.484.242-.484.238.837.867.837 0 .086.52.086.769 0 1.488-.789 0-.523-2.215-.66-.798-.223-.798-.658 0-1.07 2.146-2.153zM23.929 50.812h.307q.154 0 .154.18-.36 2.937-.36 4.076v.497q-.101.498-.51.498h-.102l-.206-.18q.206-3.082.514-4.892zM27.57 50.825h.033q.435 0 .582.85l-.068.089h-.033l-.275-.089q-1.125.167-2.359 1.567-.343.609-.343.851v.18q0 .717 1.472.893.923 0 1.4-.985l-.409-.176q-.229 0-1.266.536-.101-.229-.101-.448v-.046q0-.713 1.367-.985h.069q.785 0 .785 1.031 0 1.063-1.744 1.881l-.409.089q-1.109 0-1.505-.94l-.068-.582q0-2.028 2.084-3.448.527-.268.788-.268zM29.353 50.825q.298 0 .714 1.119.804 1.648 1.79 2.82.33-3.23.49-3.805l.18-.134h.134q.134 0 .134.18-.402 4.613-.49 4.923l-.269.089q-.716 0-2.414-3.043l-.18-.18-.046.134-.134 2.062v.268l.046.268q-.06.537-.357.537-.275-.099-.314-.269.343-4.835.49-4.835zM35.831 50.834h.069q.452.056.452.439v.088q0 .661-.452 1.23h-.069q-.072-.02-.14-.219l.176-.657-.137-.089q-.481.043-1.767 1.054v.042l2.284.442q.347.275.347.923v.261q0 .887-1.142 1.538-.448.177-.867.177h-.072q-1.191 0-1.453-1.054v-.265q0-.484.242-.484.24.837.867.837 0 .086.52.086.77 0 1.49-.789 0-.523-2.216-.66-.798-.223-.798-.658 0-1.07 2.146-2.153z" style="-inkscape-font-specification:'Laffayette Comic Pro'"/></g></g><g transform="matrix(1.08156 0 0 1.08156 -164.377 -50.597)" stroke="#000" stroke-width=".25" stroke-linejoin="bevel"><g transform="matrix(.69775 0 0 .69775 -61.978 126.066)" fill="#b72323" fill-opacity=".973"><path d="M251.697-53.446a4.353 4.353 0 0 1-4.353 4.353 4.353 4.353 0 0 1-4.353-4.353 4.353 4.353 0 0 1 4.353-4.353 4.353 4.353 0 0 1 4.353 4.353z" opacity="1" stroke="none"/><path d="M250-53.446a2.656 2.656 0 0 1-2.656 2.656 2.656 2.656 0 0 1-2.656-2.656 2.656 2.656 0 0 1 2.656-2.656A2.656 2.656 0 0 1 250-53.446z" opacity="1" stroke="#fff" stroke-width=".845" stroke-linecap="round" stroke-linejoin="round" stroke-miterlimit="4" stroke-dasharray="none" stroke-dashoffset="0" stroke-opacity="1"/></g><path d="M77.15 80.607h29.59v7.46H77.15z" opacity="1" fill="#f6f5f8" fill-opacity="1" stroke="none"/><g aria-label="Cybergenoffices" style="line-height:125%;-inkscape-font-specification:inconsolata;text-align:center" font-style="normal" font-variant="normal" font-weight="400" font-stretch="normal" font-size="6.667" font-family="Open Sans" letter-spacing="0" word-spacing="0" text-anchor="middle" fill="#000" fill-opacity="1" stroke="none" stroke-width=".143" stroke-linecap="butt" stroke-linejoin="miter" stroke-opacity="1"><path d="M79.168 82.373q-.57 0-.882.43-.312.427-.312 1.192 0 1.591 1.194 1.591.502 0 1.215-.25v.846q-.586.244-1.309.244-1.038 0-1.588-.628-.55-.632-.55-1.81 0-.742.27-1.299.27-.56.774-.856.508-.3 1.188-.3.694 0 1.394.336l-.326.82q-.267-.127-.537-.221-.27-.095-.53-.095zM80.793 82.722h1.087l.687 2.047q.088.267.12.632h.02q.036-.336.14-.632l.674-2.047h1.064l-1.54 4.105q-.211.57-.605.852-.39.284-.915.284-.257 0-.504-.056v-.787q.179.042.39.042.264 0 .46-.163.198-.16.309-.485l.058-.179zM87.127 82.653q.645 0 1.01.505.364.501.364 1.377 0 .902-.377 1.396-.375.495-1.023.495-.64 0-1.005-.465h-.069l-.166.4h-.758v-5.065h.993v1.178q0 .225-.04.72h.04q.348-.54 1.031-.54zm-.319.795q-.367 0-.537.227-.169.225-.175.746v.107q0 .586.172.84.176.254.553.254.306 0 .485-.28.183-.283.183-.82 0-.537-.183-.804-.182-.27-.498-.27zM90.829 83.36q-.316 0-.495.202-.18.198-.205.566h1.393q-.007-.368-.192-.566-.186-.202-.501-.202zm.14 3.066q-.88 0-1.374-.485-.495-.485-.495-1.374 0-.914.456-1.412.459-.502 1.266-.502.772 0 1.201.44.43.44.43 1.214v.482h-2.347q.016.423.25.66.235.238.658.238.329 0 .622-.068.293-.069.612-.218v.768q-.26.13-.557.192-.296.065-.722.065zM95.298 82.653q.202 0 .335.03l-.075.93q-.12-.032-.293-.032-.475 0-.742.244-.263.244-.263.684v1.852h-.993v-3.64h.752l.146.613h.049q.17-.306.456-.492.29-.189.628-.189zM99.468 82.722v.504l-.57.147q.157.244.157.547 0 .586-.41.914-.408.326-1.133.326l-.18-.01-.146-.016q-.153.117-.153.26 0 .215.547.215h.618q.6 0 .912.257.316.257.316.755 0 .638-.534.99-.53.352-1.527.352-.762 0-1.165-.267-.4-.264-.4-.743 0-.328.204-.55.205-.221.603-.315-.153-.066-.267-.212-.114-.15-.114-.316 0-.208.12-.345.12-.14.348-.273-.286-.124-.455-.397-.166-.274-.166-.645 0-.596.387-.921.387-.326 1.107-.326.153 0 .361.03.212.026.27.039zm-2.81 4.153q0 .205.196.323.199.117.553.117.534 0 .837-.147.303-.146.303-.4 0-.205-.18-.283-.178-.078-.553-.078H97.3q-.273 0-.459.127-.182.13-.182.341zm.362-2.962q0 .296.133.469.137.172.414.172.28 0 .41-.172.13-.173.13-.469 0-.657-.54-.657-.547 0-.547.657zM101.57 83.36q-.315 0-.494.202-.179.198-.205.566h1.393q-.007-.368-.192-.566-.185-.202-.501-.202zm.14 3.066q-.878 0-1.373-.485t-.495-1.374q0-.914.456-1.412.459-.502 1.266-.502.772 0 1.201.44.43.44.43 1.214v.482h-2.347q.016.423.25.66.235.238.658.238.33 0 .622-.068.293-.069.612-.218v.768q-.26.13-.557.192-.296.065-.722.065zM107.368 86.361h-.993v-2.126q0-.393-.14-.589-.14-.198-.445-.198-.417 0-.603.28-.185.276-.185.92v1.713h-.993v-3.64h.758l.134.466h.055q.166-.263.456-.397.293-.137.664-.137.635 0 .964.345.328.342.328.99z" style="line-height:30.79999983%;-inkscape-font-specification:'Open Sans Bold';text-align:center" font-weight="700"/><path d="M85.702 90.907q0 .873-.44 1.364-.44.488-1.214.488-.479 0-.85-.224-.37-.225-.573-.645-.201-.42-.201-.983 0-.872.436-1.357.436-.488 1.21-.488.75 0 1.189.498.443.498.443 1.347zm-2.718 0q0 .684.273 1.042t.804.358q.53 0 .804-.355.277-.358.277-1.045 0-.68-.277-1.032-.273-.354-.81-.354-.531 0-.801.348t-.27 1.038zM90.493 89.547h-.908v3.147h-.54v-3.147h-.638v-.245l.638-.195v-.198q0-1.316 1.149-1.316.283 0 .664.114l-.14.433q-.313-.1-.534-.1-.306 0-.452.205-.147.201-.147.65v.232h.908zm-2.24 0h-.907v3.147h-.54v-3.147h-.639v-.245l.638-.195v-.198q0-1.316 1.15-1.316.282 0 .663.114l-.14.433q-.312-.1-.534-.1-.306 0-.452.205-.146.201-.146.65v.232h.908zm3.455 3.147h-.54v-3.567h.54zm-.586-4.534q0-.186.09-.27.092-.088.229-.088.13 0 .224.088.095.088.095.27 0 .182-.095.273-.094.088-.224.088-.137 0-.228-.088-.091-.09-.091-.273zM94.282 92.76q-.774 0-1.2-.476-.424-.478-.424-1.35 0-.896.43-1.384.433-.488 1.23-.488.257 0 .515.055.257.055.403.13l-.166.46q-.179-.073-.39-.118-.212-.049-.375-.049-1.087 0-1.087 1.387 0 .657.264 1.009.267.351.787.351.446 0 .915-.192v.479q-.358.185-.902.185zM97.54 92.76q-.79 0-1.25-.482-.455-.482-.455-1.338 0-.863.423-1.37.427-.508 1.143-.508.67 0 1.061.442.39.44.39 1.162v.342h-2.457q.016.628.316.954.302.325.85.325.576 0 1.139-.24v.481q-.287.124-.544.176-.254.055-.615.055zm-.146-3.246q-.43 0-.686.28-.254.28-.3.775h1.865q0-.511-.228-.782-.227-.273-.65-.273zM102.072 91.721q0 .498-.371.768t-1.042.27q-.71 0-1.106-.224v-.501q.257.13.55.205.296.075.57.075.423 0 .65-.134.228-.137.228-.413 0-.209-.182-.355-.18-.15-.703-.352-.498-.185-.71-.322-.208-.14-.312-.316-.101-.176-.101-.42 0-.436.355-.687.354-.253.973-.253.576 0 1.126.234l-.192.44q-.537-.222-.973-.222-.384 0-.58.12-.195.12-.195.333 0 .143.072.244.075.1.237.192.163.09.625.263.635.231.856.466.225.234.225.59z" style="line-height:30.79999983%;-inkscape-font-specification:'Open Sans';text-align:center" font-weight="400"/></g></g><g transform="matrix(1.08156 0 0 1.08156 -164.377 -50.597)" steps="4--" stroke="#000" stroke-width=".25" stroke-linejoin="bevel"><g transform="matrix(.69775 0 0 .69775 -136.79 123.663)" fill="#b72323" fill-opacity=".973"><path d="M251.697-53.446a4.353 4.353 0 0 1-4.353 4.353 4.353 4.353 0 0 1-4.353-4.353 4.353 4.353 0 0 1 4.353-4.353 4.353 4.353 0 0 1 4.353 4.353z" opacity="1" stroke="none"/><path d="M250-53.446a2.656 2.656 0 0 1-2.656 2.656 2.656 2.656 0 0 1-2.656-2.656 2.656 2.656 0 0 1 2.656-2.656A2.656 2.656 0 0 1 250-53.446z" opacity="1" stroke="#fff" stroke-width=".845" stroke-linecap="round" stroke-linejoin="round" stroke-miterlimit="4" stroke-dasharray="none" stroke-dashoffset="0" stroke-opacity="1"/></g><path d="M219.57 58.771c-50.26-4.317-145 11.578-176.132 24.297l3.901 1.918-7.136-.668 5.047-4.432" fill="none" stroke="#000" stroke-width="1" stroke-linecap="round" stroke-linejoin="round" stroke-miterlimit="4" stroke-dasharray="none" stroke-opacity="1"/><g aria-label="ScreenXscreening" style="line-height:125%;-inkscape-font-specification:inconsolata;text-align:center" font-style="normal" font-variant="normal" font-weight="400" font-stretch="normal" font-size="6.667" font-family="Open Sans" letter-spacing="0" word-spacing="0" text-anchor="middle" fill="#000" fill-opacity="1" stroke="none" stroke-width=".143" stroke-linecap="butt" stroke-linejoin="miter" stroke-opacity="1"><path d="M10.689 72.58q0 .644-.466 1.015-.462.37-1.289.37-.761 0-1.347-.286v-.937q.481.215.814.303.335.088.611.088.333 0 .508-.127.18-.127.18-.378 0-.14-.079-.247-.078-.111-.23-.212-.15-.1-.616-.322-.436-.205-.654-.394-.219-.189-.349-.44-.13-.25-.13-.585 0-.632.426-.993.43-.362 1.185-.362.371 0 .707.088.338.088.706.248l-.325.784q-.381-.156-.632-.218-.247-.062-.488-.062-.287 0-.44.134-.153.133-.153.348 0 .133.062.234.062.098.196.192.136.092.64.332.668.32.916.642.247.319.247.784zM12.951 73.966q-1.699 0-1.699-1.865 0-.928.462-1.416.463-.492 1.325-.492.632 0 1.133.248l-.293.768q-.234-.095-.436-.153-.202-.062-.404-.062-.775 0-.775 1.1 0 1.068.775 1.068.287 0 .53-.075.245-.078.49-.24v.849q-.242.153-.49.211-.243.059-.618.059zM16.93 70.193q.201 0 .334.03l-.074.93q-.12-.032-.293-.032-.476 0-.743.244-.263.244-.263.684V73.9h-.993v-3.64h.752l.146.613h.05q.168-.306.455-.492.29-.189.628-.189zM19.439 70.9q-.316 0-.495.201-.179.199-.205.567h1.393q-.006-.368-.192-.567-.185-.201-.501-.201zm.14 3.066q-.879 0-1.374-.485-.495-.485-.495-1.374 0-.914.456-1.413.46-.5 1.266-.5.772 0 1.202.439.43.44.43 1.214v.482h-2.348q.017.423.25.66.235.238.658.238.33 0 .622-.068.293-.069.612-.218v.768q-.26.13-.556.192-.297.065-.723.065zM23.384 70.9q-.316 0-.495.201-.179.199-.205.567h1.394q-.007-.368-.192-.567-.186-.201-.502-.201zm.14 3.066q-.879 0-1.373-.485-.495-.485-.495-1.374 0-.914.455-1.413.46-.5 1.267-.5.771 0 1.2.439.43.44.43 1.214v.482h-2.346q.016.423.25.66.235.238.658.238.329 0 .622-.068.292-.069.612-.218v.768q-.26.13-.557.192-.296.065-.723.065zM29.182 73.9h-.993v-2.125q0-.394-.14-.589-.14-.199-.446-.199-.417 0-.602.28-.186.277-.186.922V73.9h-.993v-3.64h.759l.133.466h.056q.166-.264.455-.397.293-.137.664-.137.635 0 .964.345.329.342.329.99zM34.136 73.9h-1.152l-1.107-1.8-1.107 1.8h-1.08l1.578-2.454-1.478-2.304h1.114l1.025 1.712 1.006-1.712h1.087l-1.494 2.36z" style="line-height:30.79999983%;-inkscape-font-specification:'Open Sans Bold';text-align:center" font-weight="700"/><path d="M8.547 79.26q0 .499-.371.77-.371.27-1.042.27-.71 0-1.107-.225v-.502q.258.13.55.205.297.075.57.075.423 0 .651-.133.228-.137.228-.414 0-.208-.182-.354-.18-.15-.703-.352-.498-.185-.71-.322-.208-.14-.312-.316-.101-.176-.101-.42 0-.436.355-.687.354-.254.973-.254.576 0 1.126.235l-.192.44q-.537-.222-.973-.222-.384 0-.58.12-.195.12-.195.332 0 .144.072.244.075.101.237.193.163.09.625.263.635.231.856.466.225.234.225.589zM10.848 80.3q-.774 0-1.2-.476-.424-.478-.424-1.35 0-.896.43-1.384.433-.489 1.23-.489.257 0 .515.056.257.055.403.13l-.166.459q-.179-.072-.39-.117-.212-.05-.375-.05-1.087 0-1.087 1.388 0 .657.264 1.009.267.351.787.351.446 0 .915-.192v.479q-.358.185-.902.185zM14.227 76.601q.238 0 .427.04l-.075.5q-.221-.048-.39-.048-.434 0-.743.351-.306.352-.306.876v1.914h-.54v-3.568h.446l.062.661h.026q.198-.348.478-.537.28-.189.615-.189zM16.828 80.3q-.79 0-1.25-.482-.455-.482-.455-1.338 0-.863.423-1.37.426-.509 1.142-.509.67 0 1.061.443.391.44.391 1.162v.342h-2.458q.017.628.316.954.303.325.85.325.576 0 1.14-.24v.481q-.287.124-.545.176-.253.055-.615.055zm-.146-3.246q-.43 0-.687.28-.254.28-.3.775h1.866q0-.512-.228-.782-.228-.273-.651-.273zM20.565 80.3q-.79 0-1.25-.482-.456-.482-.456-1.338 0-.863.424-1.37.426-.509 1.142-.509.67 0 1.061.443.391.44.391 1.162v.342H19.42q.017.628.316.954.303.325.85.325.576 0 1.14-.24v.481q-.287.124-.545.176-.253.055-.615.055zm-.146-3.246q-.43 0-.687.28-.254.28-.3.775h1.866q0-.512-.228-.782-.228-.273-.651-.273zM25.236 80.234v-2.308q0-.436-.198-.65-.199-.216-.622-.216-.56 0-.82.303-.26.303-.26 1v1.871h-.541v-3.568h.44l.087.489h.026q.166-.264.466-.407.3-.147.667-.147.645 0 .97.313.326.31.326.993v2.327zM27.424 80.234h-.54v-3.568h.54zm-.586-4.534q0-.186.091-.27.091-.088.228-.088.13 0 .225.087.094.088.094.27 0 .183-.094.274-.095.088-.225.088-.137 0-.228-.088-.091-.091-.091-.273zM31.018 80.234v-2.308q0-.436-.199-.65-.198-.216-.622-.216-.56 0-.82.303-.26.303-.26 1v1.871h-.54v-3.568h.439l.088.489h.026q.166-.264.465-.407.3-.147.667-.147.645 0 .97.313.326.31.326.993v2.327zM35.585 76.666v.342l-.661.078q.091.114.163.3.071.182.071.413 0 .524-.358.837-.358.312-.983.312-.16 0-.3-.026-.344.183-.344.46 0 .146.12.217.12.069.413.069h.632q.58 0 .889.244.312.244.312.71 0 .592-.475.901-.475.313-1.387.313-.7 0-1.08-.26-.378-.261-.378-.736 0-.326.208-.563.209-.238.586-.323-.137-.062-.231-.192-.091-.13-.091-.303 0-.195.104-.341.104-.147.329-.284-.277-.113-.453-.387-.172-.273-.172-.625 0-.586.351-.902.352-.319.996-.319.28 0 .505.065zm-2.845 4.167q0 .29.244.44.244.15.7.15.68 0 1.006-.206.328-.202.328-.55 0-.29-.179-.404-.179-.11-.674-.11h-.647q-.368 0-.573.176-.205.175-.205.504zm.293-3.024q0 .374.211.566.212.193.59.193.79 0 .79-.769 0-.804-.8-.804-.381 0-.586.205-.205.205-.205.609z" style="line-height:30.79999983%;-inkscape-font-specification:'Open Sans';text-align:center" font-weight="400"/></g><g aria-label="dna" transform="rotate(-6.55)" style="line-height:125%;-inkscape-font-specification:inconsolata" font-style="normal" font-variant="normal" font-weight="400" font-stretch="normal" font-size="6.195" font-family="Laffayette Comic Pro" letter-spacing="0" word-spacing="0" fill="#454545" fill-opacity="1" stroke="none" stroke-width=".155" stroke-linecap="butt" stroke-linejoin="miter" stroke-opacity="1"><path d="M160.885 80.21h.184q1.316 0 1.613 1.044l.036.332q0 2.079-3.08 3.425l-.181.042h-.04q-.081 0-.145-.293l.366-3.591q-.22 0-.22-.124v-.085q0-.665.586-.665zm-.732.877q-.33 2.142-.33 2.88v.209q2.308-1.153 2.308-2.172v-.04q0-.586-.33-.586-.408-.29-1.319-.29zM163.383 80.21q.276 0 .66 1.035.744 1.524 1.654 2.607.306-2.985.454-3.518l.167-.124h.124q.124 0 .124.166-.372 4.266-.454 4.553l-.248.082q-.663 0-2.233-2.813l-.166-.167-.042.124-.124 1.906v.248l.042.248q-.055.496-.33.496-.254-.09-.29-.248.317-4.47.454-4.47zM168.677 80.22h.145q.3 0 .76 2.767.362 1.307.362 1.776-.075.248-.29.248-.278 0-.4-1.322l-.035-.04h-.037q-.472.007-1.99.578-.145.826-.472.826-.218-.085-.218-.33 0-.478 1.994-4.38zm-.073 1.155q-.435.786-.798 1.654h.254q.369 0 .944-.166l-.327-1.488z" style="-inkscape-font-specification:'Laffayette Comic Pro'"/></g></g><g steps="3--"><path d="M100.07 24.854c10.292-4.473-4.415-12.072-19.342-11.218l2.713 3.84-6.432-4.326 7.087-1.598" fill="none" stroke="#000" stroke-width="1.082" stroke-linecap="round" stroke-linejoin="round" stroke-miterlimit="4" stroke-dasharray="none" stroke-opacity="1"/><g transform="matrix(.75465 0 0 .75465 -114.353 53.741)" stroke="#000" stroke-width=".25" stroke-linejoin="bevel" fill="#b72323" fill-opacity=".973"><path d="M251.697-53.446a4.353 4.353 0 0 1-4.353 4.353 4.353 4.353 0 0 1-4.353-4.353 4.353 4.353 0 0 1 4.353-4.353 4.353 4.353 0 0 1 4.353 4.353z" opacity="1" stroke="none"/><path d="M250-53.446a2.656 2.656 0 0 1-2.656 2.656 2.656 2.656 0 0 1-2.656-2.656 2.656 2.656 0 0 1 2.656-2.656A2.656 2.656 0 0 1 250-53.446z" opacity="1" stroke="#fff" stroke-width=".845" stroke-linecap="round" stroke-linejoin="round" stroke-miterlimit="4" stroke-dasharray="none" stroke-dashoffset="0" stroke-opacity="1"/></g><g aria-label="EGFDNAassembly" style="line-height:125%;-inkscape-font-specification:inconsolata;text-align:center" font-style="normal" font-variant="normal" font-weight="400" font-stretch="normal" font-size="7.21" font-family="Open Sans" letter-spacing="0" word-spacing="0" text-anchor="middle" fill="#000" fill-opacity="1" stroke="none" stroke-width=".155" stroke-linecap="butt" stroke-linejoin="miter" stroke-opacity="1"><path d="M63.58-6.633h-2.965v-5.147h2.965v.894h-1.873v1.13h1.743v.894h-1.743v1.328h1.873zM66.611-9.524h2.042v2.67q-.496.161-.936.225-.437.066-.895.066-1.165 0-1.781-.683-.613-.686-.613-1.968 0-1.246.712-1.943.714-.697 1.978-.697.792 0 1.528.317l-.362.873q-.564-.282-1.173-.282-.707 0-1.133.475-.426.476-.426 1.278 0 .838.341 1.282.345.44 1 .44.341 0 .693-.07v-1.074h-.975zM70.956-6.633h-1.074v-5.147h2.95v.894h-1.876v1.327h1.746v.891h-1.746z" style="line-height:30.79999983%;-inkscape-font-specification:'Open Sans Bold';text-align:center" font-weight="700"/><path d="M63.77-2.406q0 1.274-.694 1.95-.69.673-1.989.673h-1.426V-4.93h1.578q1.2 0 1.866.665.665.665.665 1.859zm-.634.021q0-1.007-.507-1.517-.503-.51-1.5-.51h-.87v4.111h.73q1.07 0 1.609-.524.538-.528.538-1.56zM68.935.217h-.683l-2.813-4.32h-.028q.056.76.056 1.394V.217h-.553V-4.93h.676l2.806 4.302h.028q-.007-.095-.031-.61-.025-.517-.018-.739V-4.93h.56zM73.586.217l-.641-1.637h-2.063L70.248.217h-.605l2.035-5.169h.503L74.205.217zm-.828-2.176l-.598-1.595q-.116-.303-.24-.743-.077.338-.221.743l-.606 1.595zM53.814 7.067l-.117-.55h-.028q-.289.363-.577.493-.285.127-.715.127-.574 0-.901-.296-.324-.295-.324-.841 0-1.169 1.87-1.225l.654-.021v-.24q0-.454-.197-.669-.194-.218-.623-.218-.482 0-1.092.296l-.18-.447q.286-.155.624-.243.342-.088.683-.088.69 0 1.021.306.335.306.335.982v2.634zm-1.32-.412q.545 0 .855-.3.313-.299.313-.837v-.349l-.584.025q-.697.024-1.007.218-.307.19-.307.595 0 .317.19.482.194.166.54.166zM57.943 6.014q0 .539-.401.83-.401.293-1.127.293-.767 0-1.197-.243v-.542q.278.14.595.222.32.08.616.08.458 0 .705-.144.246-.147.246-.447 0-.225-.197-.383-.194-.162-.76-.38-.54-.201-.768-.35-.225-.15-.338-.34-.11-.19-.11-.455 0-.472.384-.743.384-.274 1.053-.274.623 0 1.218.253l-.207.475q-.581-.239-1.053-.239-.416 0-.627.13-.211.13-.211.36 0 .154.077.263.081.11.257.208.176.099.676.285.687.25.926.504.243.253.243.637zM61.38 6.014q0 .539-.402.83-.401.293-1.126.293-.768 0-1.198-.243v-.542q.279.14.595.222.32.08.617.08.457 0 .704-.144.246-.147.246-.447 0-.225-.197-.383-.194-.162-.76-.38-.54-.201-.768-.35-.225-.15-.338-.34-.11-.19-.11-.455 0-.472.385-.743.383-.274 1.052-.274.624 0 1.219.253l-.208.475q-.581-.239-1.053-.239-.415 0-.627.13-.21.13-.21.36 0 .154.077.263.08.11.257.208.176.099.676.285.686.25.926.504.242.253.242.637zM63.957 7.137q-.856 0-1.352-.52-.493-.522-.493-1.448 0-.933.457-1.482.462-.55 1.236-.55.726 0 1.148.48.422.475.422 1.256v.37h-2.658q.018.68.342 1.032.327.352.919.352.623 0 1.232-.26v.52q-.31.134-.588.19-.275.06-.665.06zm-.159-3.51q-.465 0-.743.303-.274.303-.324.838h2.018q0-.553-.247-.845-.246-.296-.704-.296zM71.287 7.067v-2.51q0-.462-.197-.69-.198-.233-.613-.233-.546 0-.806.313-.26.314-.26.965v2.155h-.585v-2.51q0-.462-.197-.69-.198-.233-.617-.233-.549 0-.806.331-.253.327-.253 1.077v2.025h-.585V3.208h.476l.095.528h.028q.165-.282.465-.44.302-.158.676-.158.904 0 1.182.654h.029q.172-.302.5-.478.327-.176.746-.176.655 0 .979.338.327.334.327 1.073v2.518zM74.867 3.145q.76 0 1.18.52.422.518.422 1.469 0 .95-.426 1.479-.422.524-1.176.524-.376 0-.69-.137-.31-.141-.52-.43h-.043l-.123.497h-.42V1.589h.585v1.33q0 .447-.028.803h.028q.409-.577 1.211-.577zm-.084.489q-.599 0-.863.345-.264.342-.264 1.155t.271 1.165q.271.349.87.349.539 0 .803-.391.264-.394.264-1.13 0-.754-.264-1.123-.264-.37-.817-.37zM78.078 7.067h-.584V1.589h.584zM78.712 3.208h.627l.845 2.2q.278.754.345 1.088h.028q.046-.18.19-.612.148-.437.957-2.676h.627l-1.658 4.394q-.247.651-.577.922-.328.275-.807.275-.267 0-.528-.06v-.468q.194.042.433.042.602 0 .86-.676l.214-.55z" style="line-height:30.79999983%;-inkscape-font-specification:'Open Sans';text-align:center" font-weight="400"/></g></g><g steps="7--" stroke-opacity="1"><path d="M-38.393 51.133l5.046-.835-7.636-1.26 2.485 5.784" fill="none" stroke="#000" stroke-width="1.082" stroke-linecap="round" stroke-linejoin="round" stroke-miterlimit="4" stroke-dasharray="none"/><path d="M261.475 92.741c-3.806 83.64-263.84-12.95-298.68-40.492" fill="none" stroke="#000" stroke-width="1.082" stroke-linecap="round" stroke-linejoin="round" stroke-miterlimit="4" stroke-dasharray="1.0815585,2.163117" stroke-dashoffset="0"/><g aria-label="data" transform="rotate(-6.55)" style="line-height:125%;-inkscape-font-specification:inconsolata" font-style="normal" font-variant="normal" font-weight="400" font-stretch="normal" font-size="6.7" font-family="Laffayette Comic Pro" letter-spacing="0" word-spacing="0" fill="#454545" fill-opacity="1" stroke="none" stroke-width=".168" stroke-linecap="butt" stroke-linejoin="miter"><path d="M202.062 152.72h.2q1.422 0 1.743 1.128l.04.36q0 2.248-3.331 3.704l-.196.045h-.043q-.088 0-.157-.317l.396-3.883q-.239 0-.239-.135v-.091q0-.72.635-.72zm-.792.948q-.357 2.317-.357 3.115v.226q2.497-1.247 2.497-2.35v-.042q0-.635-.357-.635-.442-.314-1.426-.314z" style="-inkscape-font-specification:'Laffayette Comic Pro'"/><path d="M206.066 152.73h.157q.324 0 .822 2.993.392 1.413.392 1.92-.082.269-.314.269-.3 0-.432-1.43l-.04-.043h-.038q-.51.007-2.153.625-.157.894-.51.894-.236-.092-.236-.357 0-.517 2.156-4.738zm-.078 1.25q-.471.85-.864 1.789h.275q.399 0 1.02-.18l-.353-1.61zM211.409 152.716q.425 0 .425.354v.088q0 .487-.759.487l-.945.046q-.426 2.267-.426 3.9-.114.353-.235.353h-.144q-.245 0-.285-.134.24-2.51.52-4.076l-1.42.222q-.199 0-.235-.399 0-.664 1.184-.664.71-.177 2.32-.177zM213.722 152.73h.157q.324 0 .821 2.993.393 1.413.393 1.92-.082.269-.314.269-.301 0-.432-1.43l-.04-.043h-.039q-.51.007-2.152.625-.157.894-.51.894-.236-.092-.236-.357 0-.517 2.156-4.738zm-.078 1.25q-.472.85-.864 1.789h.275q.399 0 1.02-.18l-.353-1.61z" style="-inkscape-font-specification:'Laffayette Comic Pro'"/></g></g><g transform="matrix(1.08156 0 0 1.08156 -164.377 -50.597)" steps="6--" stroke="#000" stroke-width=".25" stroke-linejoin="bevel"><path d="M397.854 125.909h42.651v14.097h-42.65z" opacity="1" fill="#fff" fill-opacity="1" stroke="none"/><g transform="matrix(.69775 0 0 .69775 221.216 169.485)" fill="#b72323" fill-opacity=".973"><path d="M251.697-53.446a4.353 4.353 0 0 1-4.353 4.353 4.353 4.353 0 0 1-4.353-4.353 4.353 4.353 0 0 1 4.353-4.353 4.353 4.353 0 0 1 4.353 4.353z" opacity="1" stroke="none"/><path d="M250-53.446a2.656 2.656 0 0 1-2.656 2.656 2.656 2.656 0 0 1-2.656-2.656 2.656 2.656 0 0 1 2.656-2.656A2.656 2.656 0 0 1 250-53.446z" opacity="1" stroke="#fff" stroke-width=".845" stroke-linecap="round" stroke-linejoin="round" stroke-miterlimit="4" stroke-dasharray="none" stroke-dashoffset="0" stroke-opacity="1"/></g><path d="M405.01 107.97c-9.28-3.273-10.04 2.332-11.033 16.468l3.582-1.43-3.775 4.892-2.22-5.545" fill="none" stroke="#000" stroke-width="1" stroke-linecap="round" stroke-linejoin="round" stroke-miterlimit="4" stroke-dasharray="none" stroke-opacity="1"/><g aria-label="SmartOmicsNGS analysis" style="line-height:125%;-inkscape-font-specification:inconsolata;text-align:center" font-style="normal" font-variant="normal" font-weight="400" font-stretch="normal" font-size="6.667" font-family="Open Sans" letter-spacing="0" word-spacing="0" text-anchor="middle" fill="#000" fill-opacity="1" stroke="none" stroke-width=".143" stroke-linecap="butt" stroke-linejoin="miter" stroke-opacity="1"><path d="M402.477 130.846q0 .644-.466 1.015-.462.371-1.289.371-.762 0-1.347-.286v-.938q.481.215.813.303.336.088.612.088.332 0 .508-.127.18-.127.18-.378 0-.14-.079-.247-.078-.11-.231-.212-.15-.1-.615-.322-.437-.205-.655-.394-.218-.189-.348-.44-.13-.25-.13-.585 0-.632.426-.993.43-.361 1.185-.361.371 0 .707.088.338.088.706.247l-.326.785q-.38-.157-.631-.219-.247-.061-.488-.061-.287 0-.44.133-.153.134-.153.348 0 .134.062.235.062.097.195.192.137.09.642.332.667.319.914.641.248.32.248.785zM406.52 132.167h-.993v-2.125q0-.394-.134-.59-.13-.198-.413-.198-.38 0-.553.28-.173.28-.173.921v1.712h-.993v-3.64h.759l.133.466h.055q.147-.25.424-.39.276-.143.634-.143.817 0 1.107.533h.088q.147-.254.43-.394.286-.14.644-.14.619 0 .935.32.319.315.319 1.015v2.373h-.997v-2.125q0-.394-.133-.59-.13-.198-.413-.198-.365 0-.547.26-.18.26-.18.827zM412.122 132.167l-.192-.495h-.026q-.25.316-.518.44-.263.12-.69.12-.524 0-.827-.3-.3-.299-.3-.852 0-.58.405-.853.406-.277 1.223-.306l.632-.02v-.159q0-.553-.566-.553-.437 0-1.026.263l-.329-.67q.629-.329 1.394-.329.732 0 1.123.319.39.319.39.97v2.425zm-.293-1.686l-.384.013q-.433.013-.645.156-.211.143-.211.436 0 .42.481.42.346 0 .55-.198.209-.199.209-.528zM415.865 128.46q.202 0 .336.029l-.075.93q-.12-.032-.293-.032-.475 0-.742.244-.264.244-.264.684v1.852h-.993v-3.64h.752l.147.613h.048q.17-.306.456-.492.29-.189.628-.189zM418.401 131.441q.26 0 .625-.114v.74q-.37.165-.911.165-.596 0-.87-.3-.27-.302-.27-.904v-1.755h-.475v-.42l.547-.332.287-.768h.634v.775h1.02v.745h-1.02v1.755q0 .211.117.312.12.101.316.101zM424.156 129.781q0 1.182-.586 1.817-.585.634-1.68.634-1.093 0-1.679-.634-.586-.635-.586-1.823 0-1.189.586-1.814.59-.628 1.686-.628 1.097 0 1.677.632.582.631.582 1.816zm-3.473 0q0 .798.303 1.201.303.404.905.404 1.207 0 1.207-1.605 0-1.608-1.2-1.608-.603 0-.909.407-.306.404-.306 1.201zM428.33 132.167h-.993v-2.125q0-.394-.134-.59-.13-.198-.413-.198-.381 0-.554.28-.172.28-.172.921v1.712h-.993v-3.64h.759l.133.466h.055q.147-.25.424-.39.276-.143.634-.143.817 0 1.107.533h.088q.146-.254.43-.394.286-.14.644-.14.619 0 .934.32.32.315.32 1.015v2.373h-.997v-2.125q0-.394-.133-.59-.13-.198-.414-.198-.364 0-.546.26-.18.26-.18.827zM431.578 127.587q0-.485.54-.485.541 0 .541.485 0 .231-.137.361-.133.127-.403.127-.54 0-.54-.488zm1.035 4.58h-.992v-3.64h.992zM435.13 132.232q-1.7 0-1.7-1.865 0-.928.463-1.416.462-.491 1.325-.491.631 0 1.132.247l-.293.768q-.234-.094-.436-.153-.202-.062-.403-.062-.775 0-.775 1.1 0 1.068.775 1.068.286 0 .53-.075.244-.078.488-.24v.85q-.24.152-.488.21-.244.06-.618.06zM439.615 131.086q0 .56-.39.853-.388.293-1.162.293-.397 0-.677-.055-.28-.052-.525-.156v-.82q.277.13.622.218.349.087.612.087.54 0 .54-.312 0-.117-.071-.189-.072-.075-.247-.166-.176-.094-.47-.218-.42-.176-.618-.326-.195-.15-.286-.341-.088-.196-.088-.479 0-.485.374-.749.378-.266 1.068-.266.658 0 1.28.286l-.3.716q-.274-.117-.511-.192-.238-.075-.485-.075-.44 0-.44.238 0 .133.14.23.144.099.622.29.426.173.625.323.199.15.293.345.094.195.094.465z" style="line-height:30.79999983%;-inkscape-font-specification:'Open Sans Bold';text-align:center" font-weight="700"/><path d="M403.903 138.5h-.632l-2.6-3.994h-.027q.052.704.052 1.29v2.705h-.51v-4.76h.624l2.595 3.978h.026q-.007-.088-.03-.563-.023-.478-.016-.683v-2.732h.518zM407.304 136.007h1.618v2.314q-.378.12-.768.183-.39.062-.905.062-1.08 0-1.683-.642-.602-.644-.602-1.803 0-.742.296-1.299.3-.56.86-.853.56-.296 1.311-.296.762 0 1.42.28l-.215.488q-.645-.273-1.24-.273-.87 0-1.358.517-.488.518-.488 1.436 0 .963.468 1.461.472.499 1.384.499.495 0 .967-.114v-1.465h-1.065zM412.753 137.234q0 .628-.455.98-.456.352-1.237.352-.847 0-1.302-.218v-.534q.293.123.638.195.345.072.683.072.554 0 .834-.209.28-.211.28-.586 0-.247-.101-.403-.098-.16-.332-.293-.232-.134-.707-.303-.664-.238-.95-.563-.284-.326-.284-.85 0-.55.414-.875.413-.326 1.094-.326.71 0 1.305.26l-.173.482q-.589-.247-1.145-.247-.44 0-.687.189-.248.188-.248.524 0 .247.091.407.092.156.306.29.219.13.665.289.748.267 1.028.573.283.306.283.794zM417.571 138.5l-.107-.507h-.026q-.267.335-.534.455-.264.118-.661.118-.53 0-.833-.274-.3-.273-.3-.778 0-1.08 1.729-1.133l.605-.02v-.22q0-.42-.182-.619-.18-.202-.576-.202-.446 0-1.01.274l-.165-.414q.263-.143.576-.224.316-.082.631-.082.638 0 .944.283.31.284.31.909v2.435zm-1.22-.38q.504 0 .79-.277.29-.277.29-.775v-.322l-.54.023q-.645.023-.931.202-.283.175-.283.55 0 .293.175.446.18.153.498.153zM421.53 138.5v-2.307q0-.437-.2-.651-.198-.215-.62-.215-.56 0-.821.302-.26.303-.26 1v1.872h-.541v-3.568h.44l.087.488h.026q.166-.264.466-.407.3-.146.667-.146.645 0 .97.312.326.31.326.993v2.328zM425.37 138.5l-.107-.507h-.026q-.267.335-.534.455-.263.118-.66.118-.531 0-.834-.274-.3-.273-.3-.778 0-1.08 1.73-1.133l.605-.02v-.22q0-.42-.183-.619-.179-.202-.576-.202-.446 0-1.009.274l-.166-.414q.264-.143.576-.224.316-.082.632-.082.638 0 .944.283.309.284.309.909v2.435zm-1.22-.38q.504 0 .79-.277.29-.277.29-.775v-.322l-.54.023q-.644.023-.93.202-.284.175-.284.55 0 .293.176.446.179.153.498.153zM427.428 138.5h-.54v-5.065h.54zM428.014 134.933h.58l.78 2.034q.258.697.32 1.006h.026q.042-.166.175-.566.137-.404.886-2.474h.58l-1.534 4.062q-.228.603-.534.853-.303.254-.745.254-.248 0-.489-.055v-.433q.18.039.4.039.557 0 .795-.625l.199-.508zM434.241 137.527q0 .498-.371.768t-1.042.27q-.71 0-1.106-.224v-.501q.257.13.55.205.296.075.57.075.422 0 .65-.134.228-.136.228-.413 0-.209-.182-.355-.18-.15-.703-.352-.498-.185-.71-.322-.208-.14-.312-.316-.101-.175-.101-.42 0-.436.355-.686.354-.254.973-.254.576 0 1.126.234l-.192.44q-.537-.222-.973-.222-.384 0-.58.12-.195.121-.195.333 0 .143.072.244.075.1.237.192.163.091.625.264.635.23.856.465.225.234.225.59zM435.657 138.5h-.54v-3.567h.54zm-.586-4.534q0-.186.091-.27.091-.088.228-.088.13 0 .225.088.094.088.094.27 0 .182-.094.273-.095.088-.225.088-.137 0-.228-.088-.09-.09-.09-.273zM439.11 137.527q0 .498-.37.768-.371.27-1.042.27-.71 0-1.107-.224v-.501q.257.13.55.205.297.075.57.075.423 0 .651-.134.228-.136.228-.413 0-.209-.182-.355-.18-.15-.703-.352-.498-.185-.71-.322-.208-.14-.313-.316-.1-.175-.1-.42 0-.436.354-.686.355-.254.974-.254.576 0 1.126.234l-.192.44q-.537-.222-.973-.222-.385 0-.58.12-.195.121-.195.333 0 .143.071.244.075.1.238.192.163.091.625.264.635.23.856.465.225.234.225.59z" style="line-height:30.79999983%;-inkscape-font-specification:'Open Sans';text-align:center" font-weight="400"/></g></g><g transform="matrix(1.08156 0 0 1.08156 -164.377 -50.597)" steps="5--" stroke="#000" stroke-width=".25" stroke-linejoin="bevel"><path d="M36.338 86.575C23.825 91.59 11.874 94.949.163 96.87" fill="none" stroke="#000" stroke-width="1" stroke-linecap="butt" stroke-linejoin="miter" stroke-opacity="1"/><g transform="matrix(.69775 0 0 .69775 236.8 147.021)" fill="#b72323" fill-opacity=".973"><path d="M251.697-53.446a4.353 4.353 0 0 1-4.353 4.353 4.353 4.353 0 0 1-4.353-4.353 4.353 4.353 0 0 1 4.353-4.353 4.353 4.353 0 0 1 4.353 4.353z" opacity="1" stroke="none"/><path d="M250-53.446a2.656 2.656 0 0 1-2.656 2.656 2.656 2.656 0 0 1-2.656-2.656 2.656 2.656 0 0 1 2.656-2.656A2.656 2.656 0 0 1 250-53.446z" opacity="1" stroke="#fff" stroke-width=".845" stroke-linecap="round" stroke-linejoin="round" stroke-miterlimit="4" stroke-dasharray="none" stroke-dashoffset="0" stroke-opacity="1"/></g><path d="M493.487 124.982c-25.509.929-48.658-2.46-77.046-12-.203-.07 1.187 4.281.984 4.213l-4.048-5.796 6.373.027" fill="none" stroke="#000" stroke-width="1" stroke-linecap="round" stroke-linejoin="round" stroke-miterlimit="4" stroke-dasharray="none" stroke-opacity="1"/><g aria-label="GenZensequencing" style="line-height:125%;-inkscape-font-specification:inconsolata;text-align:center" font-style="normal" font-variant="normal" font-weight="400" font-stretch="normal" font-size="6.667" font-family="Open Sans" letter-spacing="0" word-spacing="0" text-anchor="middle" fill="#000" fill-opacity="1" stroke="none" stroke-width=".143" stroke-linecap="butt" stroke-linejoin="miter" stroke-opacity="1"><path d="M378.582 95.312h1.888v2.467q-.46.15-.866.209-.404.061-.827.061-1.078 0-1.647-.631-.567-.635-.567-1.82 0-1.152.658-1.797.66-.644 1.83-.644.732 0 1.412.293l-.335.807q-.521-.26-1.084-.26-.655 0-1.048.44-.394.439-.394 1.18 0 .775.315 1.186.32.407.925.407.316 0 .641-.066v-.992h-.901zM383.035 94.983q-.316 0-.495.202-.18.198-.205.566h1.393q-.007-.368-.192-.566-.186-.202-.501-.202zm.14 3.066q-.88 0-1.374-.485-.495-.485-.495-1.373 0-.915.456-1.413.459-.501 1.266-.501.772 0 1.201.439.43.44.43 1.214v.482h-2.347q.016.423.25.66.235.238.658.238.329 0 .622-.068t.612-.218v.768q-.26.13-.557.192-.296.065-.722.065zM388.832 97.984h-.993V95.86q0-.394-.14-.59-.14-.198-.446-.198-.416 0-.602.28-.185.277-.185.921v1.712h-.993v-3.639h.758l.134.465h.055q.166-.263.456-.397.293-.136.664-.136.635 0 .963.345.33.341.33.99zM393.041 97.984H389.5v-.654l2.281-3.272h-2.22v-.833h3.418v.651l-2.278 3.275h2.34zM395.235 94.983q-.316 0-.495.202-.179.198-.205.566h1.394q-.007-.368-.192-.566-.186-.202-.502-.202zm.14 3.066q-.879 0-1.374-.485-.494-.485-.494-1.373 0-.915.455-1.413.46-.501 1.267-.501.771 0 1.2.439.43.44.43 1.214v.482h-2.346q.016.423.25.66.235.238.658.238.329 0 .621-.068.293-.068.612-.218v.768q-.26.13-.556.192-.296.065-.723.065zM401.033 97.984h-.993V95.86q0-.394-.14-.59-.14-.198-.446-.198-.417 0-.602.28-.186.277-.186.921v1.712h-.993v-3.639h.759l.133.465h.056q.166-.263.455-.397.293-.136.664-.136.635 0 .964.345.329.341.329.99z" style="line-height:30.79999983%;-inkscape-font-specification:'Open Sans Bold';text-align:center" font-weight="700"/><path d="M373.966 103.344q0 .498-.371.769-.372.27-1.042.27-.71 0-1.107-.225v-.501q.257.13.55.205.296.075.57.075.423 0 .651-.134.228-.136.228-.413 0-.208-.182-.355-.18-.15-.704-.351-.498-.186-.71-.323-.208-.14-.312-.315-.1-.176-.1-.42 0-.437.354-.687.355-.254.974-.254.576 0 1.126.234l-.192.44q-.537-.222-.974-.222-.384 0-.579.12-.195.121-.195.333 0 .143.071.244.075.1.238.192.163.091.625.264.635.23.856.465.225.235.225.59zM376.348 104.383q-.79 0-1.25-.482-.455-.482-.455-1.338 0-.863.423-1.37.426-.508 1.143-.508.67 0 1.06.443.391.439.391 1.162v.341h-2.457q.016.629.315.954.303.326.85.326.576 0 1.14-.241v.482q-.287.123-.544.175-.254.056-.616.056zm-.146-3.246q-.43 0-.687.28-.254.28-.3.775h1.866q0-.511-.228-.781-.228-.274-.651-.274zM379.926 103.93q.54 0 .788-.29.247-.29.263-.976v-.12q0-.75-.254-1.078-.253-.329-.804-.329-.475 0-.729.371-.25.368-.25 1.042t.247 1.029q.25.351.739.351zm-.081.453q-.69 0-1.078-.485-.387-.485-.387-1.354 0-.876.39-1.368.391-.491 1.088-.491.732 0 1.126.553h.03l.077-.488h.427v5.17h-.54v-1.528q0-.325.035-.553h-.042q-.375.544-1.126.544zM383.175 100.75v2.314q0 .437.198.651.199.215.622.215.56 0 .817-.306.26-.306.26-1v-1.874h.54v3.568h-.445l-.078-.479h-.03q-.166.264-.462.404-.293.14-.67.14-.651 0-.977-.31-.322-.309-.322-.99v-2.333zM388.263 104.383q-.791 0-1.25-.482-.456-.482-.456-1.338 0-.863.423-1.37.426-.508 1.143-.508.67 0 1.06.443.391.439.391 1.162v.341h-2.457q.016.629.315.954.303.326.85.326.576 0 1.14-.241v.482q-.287.123-.544.175-.254.056-.615.056zm-.147-3.246q-.43 0-.687.28-.254.28-.3.775h1.866q0-.511-.228-.781-.228-.274-.65-.274zM392.934 104.318v-2.308q0-.437-.199-.651-.198-.215-.622-.215-.56 0-.82.303-.26.302-.26.999v1.872h-.54v-3.568h.439l.088.488h.026q.166-.263.465-.407.3-.146.668-.146.644 0 .97.312.325.31.325.993v2.328zM396.007 104.383q-.775 0-1.201-.476-.424-.478-.424-1.35 0-.896.43-1.384.433-.488 1.23-.488.258 0 .515.055t.403.13l-.166.46q-.179-.072-.39-.118-.212-.049-.375-.049-1.087 0-1.087 1.387 0 .658.264 1.01.267.35.788.35.446 0 .914-.191v.478q-.358.186-.901.186zM398.298 104.318h-.54v-3.568h.54zm-.586-4.535q0-.185.092-.27.09-.088.227-.088.13 0 .225.088.094.088.094.27 0 .182-.094.274-.094.087-.225.087-.136 0-.227-.087-.092-.092-.092-.274zM401.892 104.318v-2.308q0-.437-.198-.651-.199-.215-.622-.215-.56 0-.82.303-.26.302-.26.999v1.872h-.541v-3.568h.44l.087.488h.026q.166-.263.466-.407.299-.146.667-.146.644 0 .97.312.325.31.325.993v2.328zM406.46 100.75v.342l-.662.078q.091.114.163.3.072.182.072.413 0 .524-.358.836-.358.313-.983.313-.16 0-.3-.026-.345.182-.345.459 0 .146.12.218.12.068.414.068h.631q.58 0 .89.244.312.245.312.71 0 .592-.476.902-.475.312-1.386.312-.7 0-1.081-.26-.378-.26-.378-.736 0-.325.209-.563.208-.238.586-.322-.137-.062-.232-.192-.09-.13-.09-.303 0-.195.103-.342.105-.146.33-.283-.277-.114-.453-.387-.173-.274-.173-.625 0-.586.352-.902.351-.32.996-.32.28 0 .504.066zm-2.846 4.167q0 .29.244.439.244.15.7.15.68 0 1.006-.205.329-.202.329-.55 0-.29-.18-.404-.178-.11-.673-.11h-.648q-.368 0-.573.175-.205.176-.205.505zm.293-3.025q0 .375.212.567.211.192.589.192.79 0 .79-.768 0-.804-.8-.804-.38 0-.586.205-.205.205-.205.608z" style="line-height:30.79999983%;-inkscape-font-specification:'Open Sans';text-align:center" font-weight="400"/></g><g aria-label="strains" transform="rotate(-13.656)" style="line-height:125%;-inkscape-font-specification:inconsolata" font-style="normal" font-variant="normal" font-weight="400" font-stretch="normal" font-size="6.195" font-family="Laffayette Comic Pro" letter-spacing="0" word-spacing="0" fill="#454545" fill-opacity="1" stroke="none" stroke-width=".155" stroke-linecap="butt" stroke-linejoin="miter" stroke-opacity="1"><path d="M-17.823 97.842h.063q.418.051.418.405v.082q0 .611-.418 1.137h-.063q-.067-.018-.13-.202l.163-.608-.127-.082q-.445.04-1.633.974v.04l2.111.408q.32.254.32.853v.242q0 .82-1.055 1.422-.414.163-.802.163h-.066q-1.101 0-1.343-.974v-.245q0-.448.224-.448.22.775.801.775 0 .078.481.078.711 0 1.377-.729 0-.484-2.048-.61-.738-.207-.738-.609 0-.99 1.984-1.99zM-13.385 97.83q.393 0 .393.327v.081q0 .451-.702.451l-.874.042q-.393 2.097-.393 3.606-.106.327-.218.327h-.133q-.227 0-.264-.124.221-2.32.481-3.77l-1.312.206q-.185 0-.218-.369 0-.614 1.095-.614.656-.163 2.145-.163zM-10.863 97.833h.418q.959 0 .959.668v.043q0 1.17-2.003 2.13v.039q1.002.92 1.67 1.38v.123q0 .324-.209.418h-.166l-2.293-1.628-.042.835v.626q-.106.209-.333.209-.166 0-.251-.166v-.252l.375-3.257q-.166 0-.166-.248 0-.754 1.249-.878zm-1.458 2.254h.043q2.166-.557 2.166-1.21v-.043q0-.115-.418-.166-.693 0-1.667.293z" style="-inkscape-font-specification:'Laffayette Comic Pro'"/><path d="M-7.617 97.842h.145q.3 0 .76 2.768.363 1.307.363 1.776-.076.248-.29.248-.279 0-.4-1.322l-.036-.04h-.037q-.471.006-1.99.578-.145.826-.472.826-.218-.085-.218-.33 0-.478 1.994-4.38zm-.072 1.156q-.436.786-.799 1.654h.254q.37 0 .944-.166l-.327-1.488zM-5.064 97.82h.285q.142 0 .142.167-.333 2.717-.333 3.77v.46q-.094.459-.472.459h-.094l-.19-.166q.19-2.85.475-4.523zM-3.69 97.833q.275 0 .66 1.034.743 1.525 1.654 2.608.305-2.986.454-3.518l.166-.124h.124q.124 0 .124.166-.372 4.266-.454 4.553l-.248.082q-.662 0-2.232-2.814l-.167-.166-.042.124-.124 1.906v.248l.042.248q-.054.496-.33.496-.253-.09-.29-.248.318-4.471.454-4.471zM2.3 97.842h.063q.417.051.417.405v.082q0 .611-.417 1.137h-.064q-.066-.018-.13-.202l.163-.608-.127-.082q-.444.04-1.633.974v.04l2.111.408q.321.254.321.853v.242q0 .82-1.056 1.422-.414.163-.801.163H1.08q-1.101 0-1.343-.974v-.245q0-.448.224-.448.22.775.801.775 0 .078.481.078.711 0 1.377-.729 0-.484-2.048-.61-.738-.207-.738-.609 0-.99 1.984-1.99z" style="-inkscape-font-specification:'Laffayette Comic Pro'"/></g></g></g></svg>