<svg xmlns="http://www.w3.org/2000/svg" xmlns:xlink="http://www.w3.org/1999/xlink" width="766.33" height="463.404" viewBox="0 0 718.435 434.441" version="1.1"><defs><radialGradient r="7.141" gradientTransform="matrix(.80109 -.788 .8095 .82295 -223.41 888.09)" cx="12.585" cy="188.34" gradientUnits="userSpaceOnUse" xlink:href="#software-operations.o.svga" id="software-operations.o.svgc"/><linearGradient id="software-operations.o.svga"><stop offset="0" stop-color="#fff"/><stop offset="1" stop-color="#fff" stop-opacity="0"/></linearGradient><linearGradient xlink:href="#software-operations.o.svgb" id="software-operations.o.svgd" gradientUnits="userSpaceOnUse" x1="11.464" y1="133.01" x2="11.464" y2="138.6"/><linearGradient x1="11.464" y1="133.01" x2="11.464" gradientUnits="userSpaceOnUse" y2="138.6" id="software-operations.o.svgb"><stop offset="0" stop-color="#00a5d4" stop-opacity="1"/><stop offset="1" stop-color="#008fff" stop-opacity="1"/></linearGradient></defs><g transform="translate(-1.84 -14.347)"><g steps="4--" stroke-opacity="1"><text y="93.889" x="603.118" style="line-height:0%;text-align:center" xml:space="preserve" font-style="normal" font-weight="400" font-family="sans-serif" letter-spacing="0" word-spacing="0" text-anchor="middle" fill="#4e5197" fill-opacity="1" stroke="none" stroke-width="1" stroke-linecap="butt" stroke-linejoin="miter"><tspan style="line-height:1.25;-inkscape-font-specification:'Laffayette Comic Pro';text-align:center" y="93.889" x="603.118" font-style="normal" font-variant="normal" font-weight="400" font-stretch="normal" font-size="13.76" font-family="Laffayette Comic Pro" text-anchor="middle" fill="#4e5197" fill-opacity="1">assembly planning</tspan></text><g><g><text y="129.508" x="541.792" style="line-height:0%;text-align:start" xml:space="preserve" font-style="normal" font-weight="400" font-family="sans-serif" letter-spacing="0" word-spacing="0" text-anchor="start" fill="#4e5197" fill-opacity="1" stroke="none" stroke-width="1" stroke-linecap="butt" stroke-linejoin="miter"><tspan style="line-height:1.25;-inkscape-font-specification:'Laffayette Comic Pro';text-align:start" y="129.508" x="541.792" font-style="normal" font-variant="normal" font-weight="400" font-stretch="normal" font-size="10.275" font-family="Laffayette Comic Pro" text-anchor="start" fill="#4e5197" fill-opacity="1">part based sequences</tspan></text><text y="147.011" x="557.902" style="line-height:0%;text-align:start" xml:space="preserve" font-style="normal" font-weight="400" font-family="sans-serif" letter-spacing="0" word-spacing="0" text-anchor="start" fill="#000" fill-opacity="1" stroke="none" stroke-width="1" stroke-linecap="butt" stroke-linejoin="miter"><tspan style="line-height:1.25;-inkscape-font-specification:'Open Sans';text-align:start" y="147.011" x="557.902" font-style="normal" font-variant="normal" font-weight="400" font-stretch="normal" font-size="11.837" font-family="Open Sans" text-anchor="start">Check parts availability</tspan></text><text y="166.111" x="558.661" style="line-height:0%;text-align:start" xml:space="preserve" font-style="normal" font-weight="400" font-family="sans-serif" letter-spacing="0" word-spacing="0" text-anchor="start" fill="#000" fill-opacity="1" stroke="none" stroke-width="1" stroke-linecap="butt" stroke-linejoin="miter"><tspan style="line-height:1.25;-inkscape-font-specification:'Open Sans';text-align:start" y="166.111" x="558.661" font-style="normal" font-variant="normal" font-weight="400" font-stretch="normal" font-size="11.837" font-family="Open Sans" text-anchor="start">Simulate cloning</tspan></text><g transform="translate(540.174 134.892) scale(.33514)" font-weight="700" font-family="Raleway" letter-spacing="0" word-spacing="0" fill="#f4f6f8" stroke="#343434" stroke-linecap="round" stroke-linejoin="round"><path d="M6.5 29.5v10a17.5 5 0 0 0 17.5 5 17.5 5 0 0 0 17.5-5v-10"/><path d="M6.5 19.5v10a17.5 5 0 0 0 17.5 5 17.5 5 0 0 0 17.5-5v-10"/><path d="M6.5 9.5v10a17.5 5 0 0 0 17.5 5 17.5 5 0 0 0 17.5-5v-10"/><path d="M24 4.5a17.5 5 0 0 0-17.5 5 17.5 5 0 0 0 17.5 5 17.5 5 0 0 0 17.5-5 17.5 5 0 0 0-17.5-5z"/></g><path d="M552.936 162.09a4.786 4.786 0 0 1-2.06 5.28 4.786 4.786 0 0 1-5.654-.387 4.786 4.786 0 0 1-1.32-5.512 4.786 4.786 0 0 1 4.864-2.908M549.012 156.58a4.786 4.786 0 0 1 4.761.761 4.786 4.786 0 0 1 1.684 4.518" opacity="1" fill="#fff" fill-opacity="1" stroke="#36374d" stroke-width="1.59" stroke-linecap="butt" stroke-linejoin="round" stroke-miterlimit="4" stroke-dasharray="none" stroke-dashoffset="0"/><circle r="3.419" cy="168.482" cx="555.154" opacity="1" fill="#4e5197" fill-opacity="1" stroke="#deddf8" stroke-width=".921" stroke-linecap="round" stroke-linejoin="round" stroke-miterlimit="4" stroke-dasharray="none" stroke-dashoffset="0"/><circle r="3.419" cy="147.786" cx="554.016" opacity="1" fill="#4e5197" fill-opacity="1" stroke="#deddf8" stroke-width=".921" stroke-linecap="round" stroke-linejoin="round" stroke-miterlimit="4" stroke-dasharray="none" stroke-dashoffset="0"/></g><g><text y="205.28" x="543.942" style="line-height:0%;text-align:start" xml:space="preserve" font-style="normal" font-weight="400" font-family="sans-serif" letter-spacing="0" word-spacing="0" text-anchor="start" fill="#4e5197" fill-opacity="1" stroke="none" stroke-width="1" stroke-linecap="butt" stroke-linejoin="miter"><tspan style="line-height:1.25;-inkscape-font-specification:'Laffayette Comic Pro';text-align:start" y="205.28" x="543.942" font-style="normal" font-variant="normal" font-weight="400" font-stretch="normal" font-size="10.375" font-family="Laffayette Comic Pro" text-anchor="start" fill="#4e5197" fill-opacity="1">arbitrary sequences</tspan></text><text y="220.146" x="564.27" style="line-height:0%;text-align:start" xml:space="preserve" font-style="normal" font-weight="400" font-family="sans-serif" letter-spacing="0" word-spacing="0" text-anchor="start" fill="#000" fill-opacity="1" stroke="none" stroke-width="1" stroke-linecap="butt" stroke-linejoin="miter"><tspan style="line-height:1.25;-inkscape-font-specification:'Open Sans';text-align:start" y="220.146" x="564.27" font-style="normal" font-variant="normal" font-weight="400" font-stretch="normal" font-size="11.837" font-family="Open Sans" text-anchor="start">Find optimal strategy</tspan></text><path d="M542.87 220.19h6.355M545.606 213.565h10.96M553.361 220.39h6.094" fill="none" fill-rule="evenodd" stroke="#000" stroke-width="1.453" stroke-linecap="butt" stroke-linejoin="miter" stroke-miterlimit="4" stroke-dasharray="none"/><g transform="matrix(.7267 0 0 .7267 -406.674 358.9)" stroke="#9292b2" fill="none" fill-rule="evenodd" stroke-width=".718" stroke-linecap="butt" stroke-linejoin="miter"><path d="M1321.1-198.907l4.176 7.226M1325.326-198.614l-4.175 7.226"/></g><g transform="matrix(.7267 0 0 .7267 -406.674 358.9)" stroke="#9292b2" fill="none" fill-rule="evenodd" stroke-width=".718" stroke-linecap="butt" stroke-linejoin="miter"><path d="M1310.864-199.005l4.175 7.227M1314.913-198.907l-4.175 7.226"/></g><circle r="3.419" cy="223.65" cx="560.839" opacity="1" fill="#4e5197" fill-opacity="1" stroke="#deddf8" stroke-width=".921" stroke-linecap="round" stroke-linejoin="round" stroke-miterlimit="4" stroke-dasharray="none" stroke-dashoffset="0"/></g></g><g fill="none" fill-rule="evenodd" stroke="#000" stroke-width=".582" stroke-linecap="butt" stroke-linejoin="miter"><path d="M486.624 163.303l45.672-17.047-44.386 18.655zM486.624 177.536l45.672 17.046-44.386-18.654z"/></g></g><g steps="5--"><text y="383.67" x="147.603" style="line-height:0%;text-align:start" xml:space="preserve" font-style="normal" font-weight="400" font-family="sans-serif" letter-spacing="0" word-spacing="0" text-anchor="start" fill="#000" fill-opacity="1" stroke="none" stroke-width="1" stroke-linecap="butt" stroke-linejoin="miter" stroke-opacity="1"><tspan style="line-height:1.25;-inkscape-font-specification:'Open Sans';text-align:start" y="383.67" x="147.603" font-style="normal" font-variant="normal" font-weight="400" font-stretch="normal" font-size="11.837" font-family="Open Sans" text-anchor="start">Generate picklists</tspan></text><text y="410.758" x="147.516" style="line-height:0%;text-align:start" xml:space="preserve" font-style="normal" font-weight="400" font-family="sans-serif" letter-spacing="0" word-spacing="0" text-anchor="start" fill="#000" fill-opacity="1" stroke="none" stroke-width="1" stroke-linecap="butt" stroke-linejoin="miter" stroke-opacity="1"><tspan style="line-height:1.25;-inkscape-font-specification:'Open Sans';text-align:start" y="410.758" x="147.516" font-style="normal" font-variant="normal" font-weight="400" font-stretch="normal" font-size="11.837" font-family="Open Sans" text-anchor="start">Transfer files to robots</tspan></text><text y="357.852" x="147.583" style="line-height:0%;text-align:start" xml:space="preserve" font-style="normal" font-weight="400" font-family="sans-serif" letter-spacing="0" word-spacing="0" text-anchor="start" fill="#000" fill-opacity="1" stroke="none" stroke-width="1" stroke-linecap="butt" stroke-linejoin="miter" stroke-opacity="1"><tspan style="line-height:1.25;-inkscape-font-specification:'Open Sans';text-align:start" y="357.852" x="147.583" font-style="normal" font-variant="normal" font-weight="400" font-stretch="normal" font-size="11.837" font-family="Open Sans" text-anchor="start">Select optimal digestions</tspan></text><text y="331.158" x="146.045" style="line-height:0%;text-align:start" xml:space="preserve" font-style="normal" font-weight="400" font-family="sans-serif" letter-spacing="0" word-spacing="0" text-anchor="start" fill="#000" fill-opacity="1" stroke="none" stroke-width="1" stroke-linecap="butt" stroke-linejoin="miter" stroke-opacity="1"><tspan style="line-height:1.25;-inkscape-font-specification:'Open Sans';text-align:start" y="331.158" x="146.045" font-style="normal" font-variant="normal" font-weight="400" font-stretch="normal" font-size="11.837" font-family="Open Sans" text-anchor="start">Check parts locations</tspan></text><g transform="translate(128.318 319.04) scale(.33514)" font-weight="700" font-family="Raleway" letter-spacing="0" word-spacing="0" fill="#f4f6f8" stroke="#343434" stroke-linecap="round" stroke-linejoin="round" stroke-opacity="1"><path d="M6.5 29.5v10a17.5 5 0 0 0 17.5 5 17.5 5 0 0 0 17.5-5v-10"/><path d="M6.5 19.5v10a17.5 5 0 0 0 17.5 5 17.5 5 0 0 0 17.5-5v-10"/><path d="M6.5 9.5v10a17.5 5 0 0 0 17.5 5 17.5 5 0 0 0 17.5-5v-10"/><path d="M24 4.5a17.5 5 0 0 0-17.5 5 17.5 5 0 0 0 17.5 5 17.5 5 0 0 0 17.5-5 17.5 5 0 0 0-17.5-5z"/></g><circle r="3.419" cy="331.933" cx="142.159" opacity="1" fill="#4e5197" fill-opacity="1" stroke="#deddf8" stroke-width=".921" stroke-linecap="round" stroke-linejoin="round" stroke-miterlimit="4" stroke-dasharray="none" stroke-dashoffset="0" stroke-opacity="1"/><path d="M131.45 348.742v5.088h10.727v4.566" fill="none" fill-rule="evenodd" stroke="#000" stroke-width="1.861" stroke-linecap="round" stroke-linejoin="round" stroke-miterlimit="4" stroke-dasharray="none" stroke-opacity="1"/><circle r="3.419" cy="359.929" cx="143.418" opacity="1" fill="#4e5197" fill-opacity="1" stroke="#deddf8" stroke-width=".921" stroke-linecap="round" stroke-linejoin="round" stroke-miterlimit="4" stroke-dasharray="none" stroke-dashoffset="0" stroke-opacity="1"/><g transform="matrix(.41165 0 0 .41165 127.18 371.379)" fill="#f4f6f8" stroke="#0f2d59" stroke-linecap="round" stroke-linejoin="round"><path d="M31.5 5.5h-22a1 1 0 0 0-1 1v35a1 1 0 0 0 1 1h29a1 1 0 0 0 1-1v-28M13 26.5h22m-22 9h17m-17-3h22m-22-3h22m-22-6h22m-22-3h22m-22-3h22"/><path d="M31.5 5.5v7a1 1 0 0 0 1 1h7z"/></g><circle r="3.419" cy="388.82" cx="144.337" opacity="1" fill="#4e5197" fill-opacity="1" stroke="#deddf8" stroke-width=".921" stroke-linecap="round" stroke-linejoin="round" stroke-miterlimit="4" stroke-dasharray="none" stroke-dashoffset="0" stroke-opacity="1"/><g transform="translate(111.212 384.7) scale(.09945)" font-weight="700" font-family="Raleway" letter-spacing="0" word-spacing="0" fill="#020103" fill-opacity="1" stroke="#1d2145" stroke-width=".041" stroke-miterlimit="4" stroke-dasharray="none" stroke-opacity="1"><path d="M254.96 268.5l-20.262 8.97h-6.176l.211 2.535 2.462 1.337 19.783 11.051 29.206-11.05h.431l-.21-2.887-7.504-.986z" fill="#9aa8de" fill-rule="evenodd" stroke-width="1.763" stroke-linejoin="round"/><rect x="330.04" y="41.259" width="25.904" height="41.515" transform="matrix(.87429 .4854 -.45931 .88827 0 0)" ry="12.823" fill="#fff" stroke-width="1.763"/><g fill="#9aa8de" stroke-width="1.763"><path d="M250.84 289.6l-22.101-12.345 26.083-11.548 25.486 12.743z" fill-rule="evenodd" stroke-linejoin="round"/><path d="M235.26 250.93l-.422 29.324.064-.05c1.47 2.35 9.762 4.122 18.66 4.123 8.894-.003 17.227-1.724 18.696-4.073h.03l-.21-29.395z" stroke-linejoin="round"/><ellipse cx="253.67" cy="251.08" ry="4.878" rx="18.219"/></g><g fill="#fff"><rect x="320.39" y="81.192" width="25.904" height="41.515" transform="matrix(.90533 .42472 -.39774 .9175 0 0)" ry="12.823" stroke-width="1.763"/><rect x="183.87" y="224.45" width="24.631" height="53.604" transform="matrix(.91838 -.3957 .26461 .96436 0 0)" ry="16.556" stroke-width="1.771"/><rect x="131.05" y="260.6" width="29.771" height="49.366" transform="matrix(.90502 -.42538 .41576 .90947 0 0)" ry="15.247" stroke-width="1.763"/><rect x="278.01" y="-211.58" width="25.904" height="41.515" transform="matrix(.28622 .95816 -.94927 .31445 0 0)" ry="12.823" stroke-width="1.763"/><rect x="314.35" y="58.689" width="25.904" height="41.515" transform="matrix(.87429 .4854 -.45931 .88827 0 0)" ry="12.823" stroke-width="1.763"/></g><g transform="rotate(-3.812 2045.736 19638.08) scale(2.51797)"><path d="M605.49 26.997l-.029-.404c-.035.109-.082.21-.107.324l-.256 1.143c-.451 2.02 4.814 1.562 6.769 2.242l19.046 6.63c1.954.68 3.968 1.388 4.42-.632l.253-1.142a3.9 3.9 0 0 0-.547-2.963l-.093-.127c-.508-.725-1.245-1.293-2.149-1.54l-21.567-6.12c-1.747-.515-6.063 1.112-7.905 2.014z" fill="#fff" stroke-width=".7" stroke-linejoin="round"/><path d="M602.27 27.505l.073-.164c.674-1.515 2.499-1.86 4.09-1.396l23.951 6.99c1.592.465 2.33 1.559 1.656 3.074l-.073.163c-.674 1.515 1.502 3.484-3.965 1.896l-24.08-6.99c-1.592-.462-2.33-2.058-1.656-3.573z" fill="#fff" stroke-width=".573" stroke-linejoin="round"/><g fill="#9aa8de" stroke-width=".7"><path d="M634.16 31.899c-.768.15-1.819.973-2.49 2.43-.76 1.654-.765 3.275-.012 3.622.048.02.099.036.152.046l1.917.97 2.773-5.873-1.829-.927a.74.74 0 0 0-.259-.205c-.082-.045-.18-.045-.252-.063z" stroke-linejoin="round"/><ellipse cx="591.8" cy="-232.65" transform="rotate(24.696)" ry="3.296" rx="1.501"/><path d="M643.2 34.773l1.02 2.098 4.047.868-.19.523-4.373-.986-.504-1.398z" fill-rule="evenodd"/></g><g transform="matrix(.85067 -.05743 -.06188 .85934 194.37 -94.718)" fill="#9aa8de" fill-rule="evenodd" stroke-width=".821" stroke-linejoin="round"><path d="M535.19 186.55l-3.664 2.243-4.345.818c-.141.54.27 1.63.314 1.789l6.5 2.529 7.664-5.28-.032-.01.084-.017-.138-1.72-3.353.631-3.03-.983z"/><path d="M533.84 192.23l-6.638-2.583 7.834-4.796 6.469 2.1z"/></g><path d="M636.22 39.515l.517 2.389 4.025 1.285-.238.503-4.26-1.401-.199-1.43z" fill="#9aa8de" fill-rule="evenodd" stroke-width=".7"/></g><rect x="168.52" y="224.71" width="25.919" height="58.541" transform="matrix(.91119 -.41199 .25297 .96747 0 0)" ry="18.081" fill="#fff" stroke-width="1.775"/></g><circle r="3.419" cy="413.155" cx="143.882" opacity="1" fill="#4e5197" fill-opacity="1" stroke="#deddf8" stroke-width=".921" stroke-linecap="round" stroke-linejoin="round" stroke-miterlimit="4" stroke-dasharray="none" stroke-dashoffset="0" stroke-opacity="1"/><g transform="matrix(.58222 0 0 .58222 -482.003 357.197)" stroke-opacity="1"><text xml:space="preserve" style="line-height:0%;text-align:start" x="1089.326" y="140.447" font-style="normal" font-weight="400" font-family="sans-serif" letter-spacing="0" word-spacing="0" text-anchor="start" fill="#000" fill-opacity="1" stroke="none" stroke-width="1" stroke-linecap="butt" stroke-linejoin="miter"><tspan x="1089.326" y="140.447" style="line-height:1.25;-inkscape-font-specification:'Open Sans';text-align:start" font-style="normal" font-variant="normal" font-weight="400" font-stretch="normal" font-size="20.331" font-family="Open Sans" text-anchor="start">Monitor robots</tspan></text><g transform="matrix(.5289 0 0 .5289 1053.713 120.137)" font-weight="700" font-family="Raleway" letter-spacing="0" word-spacing="0" fill="#f4f6f8" stroke="#343434" stroke-linecap="round" stroke-linejoin="round"><path d="M7.75 36.5c-1.25 0-2 .3-2.5 1.5l-2.5 6C1.9 46 3 46.5 4 46.5h40c1 0 2.1-.5 1.25-2.5l-2.5-6c-.5-1.2-1.25-1.5-2.5-1.5zM14.5 29.5l-1 3c-.5 1.5 0 2 1.5 2h18c1.5 0 2-.5 1.5-2l-1-3z"/><path d="M8 38.5l-2 6h36l-2-6zM37.5 38.5v6m-3-6v6m-3-6v6m-3-6v3m-3-3v3m-3-3v3m-3-3v3m-3-3v3m-3-3v6m-3-6v6m-3.5-3h34M19.5 28.5h9v4h-9z"/><path d="M6.5 1.5h35c1.108 0 2 .892 2 2v25c0 1.108-.892 2-2 2h-35c-1.108 0-2-.892-2-2v-25c0-1.108.892-2 2-2z"/><path d="M8.5 4.5h31c.554 0 1 .446 1 1v20c0 .554-.446 1-1 1h-31c-.554 0-1-.446-1-1v-20c0-.554.446-1 1-1z"/></g><circle cx="1077.615" cy="144.564" r="5.873" opacity="1" fill="#e5b100" fill-opacity="1" stroke="#f8f8dd" stroke-width="1.583" stroke-linecap="round" stroke-linejoin="round" stroke-miterlimit="4" stroke-dasharray="none" stroke-dashoffset="0"/></g><path d="M692.996 165.553l23.19 2.46-22.647-.473z" fill="none" fill-rule="evenodd" stroke="#000" stroke-width=".582" stroke-linecap="butt" stroke-linejoin="miter" stroke-opacity="1"/><path d="M716.44 167.995l-.019 88.01H84.916v115.44" fill="none" fill-rule="evenodd" stroke="#000" stroke-width=".582" stroke-linecap="butt" stroke-linejoin="miter" stroke-miterlimit="4" stroke-dasharray="2.32887444,4.65774888" stroke-dashoffset="0" stroke-opacity="1"/><path d="M84.96 369.261l22.017 2.461-22.133-.474z" fill="none" fill-rule="evenodd" stroke="#000" stroke-width=".582" stroke-linecap="butt" stroke-linejoin="miter" stroke-opacity="1"/><text y="297.335" x="200.027" style="line-height:0%;text-align:center" xml:space="preserve" font-style="normal" font-weight="400" font-family="sans-serif" letter-spacing="0" word-spacing="0" text-anchor="middle" fill="#4e5197" fill-opacity="1" stroke="none" stroke-width="1" stroke-linecap="butt" stroke-linejoin="miter" stroke-opacity="1"><tspan style="line-height:1.25;-inkscape-font-specification:'Laffayette Comic Pro';text-align:center" y="297.335" x="200.027" font-style="normal" font-variant="normal" font-weight="400" font-stretch="normal" font-size="13.76" font-family="Laffayette Comic Pro" text-anchor="middle" fill="#4e5197" fill-opacity="1">manufacturing</tspan></text></g><g steps="6--"><g transform="matrix(.58222 0 0 .58222 -448.71 363.24)"><g><text xml:space="preserve" style="line-height:0%;text-align:start" x="1401.334" y="39.895" font-style="normal" font-weight="400" font-family="sans-serif" letter-spacing="0" word-spacing="0" text-anchor="start" fill="#000" fill-opacity="1" stroke="none" stroke-width="1" stroke-linecap="butt" stroke-linejoin="miter" stroke-opacity="1"><tspan x="1401.334" y="39.895" style="line-height:1.25;-inkscape-font-specification:'Open Sans';text-align:start" font-style="normal" font-variant="normal" font-weight="400" font-stretch="normal" font-size="20.331" font-family="Open Sans" text-anchor="start">Fragment analysis</tspan></text><g transform="translate(1366.309 15.06) scale(.70703)" fill="#f4f6f8" stroke="#0f2d59" stroke-linecap="round" stroke-linejoin="round"><path d="M31.5 5.5h-22a1 1 0 0 0-1 1v35a1 1 0 0 0 1 1h29a1 1 0 0 0 1-1v-28M13 26.5h22m-22 9h17m-17-3h22m-22-3h22m-22-6h22m-22-3h22m-22-3h22"/><path d="M31.5 5.5v7a1 1 0 0 0 1 1h7z"/></g></g><circle cx="1392.117" cy="43.63" r="5.873" opacity="1" fill="#4e5197" fill-opacity="1" stroke="#deddf8" stroke-width="1.583" stroke-linecap="round" stroke-linejoin="round" stroke-miterlimit="4" stroke-dasharray="none" stroke-dashoffset="0" stroke-opacity="1"/></g><g transform="matrix(.58222 0 0 .58222 -448.71 358.69)"><g><text xml:space="preserve" style="line-height:0%;text-align:start" x="1399.178" y="-.867" font-style="normal" font-weight="400" font-family="sans-serif" letter-spacing="0" word-spacing="0" text-anchor="start" fill="#000" fill-opacity="1" stroke="none" stroke-width="1" stroke-linecap="butt" stroke-linejoin="miter" stroke-opacity="1"><tspan x="1399.178" y="-.867" style="line-height:1.25;-inkscape-font-specification:'Open Sans';text-align:start" font-style="normal" font-variant="normal" font-weight="400" font-stretch="normal" font-size="20.331" font-family="Open Sans" text-anchor="start">Get and parse experimental data</tspan></text></g><g transform="matrix(.17082 0 0 .17082 1332.57 -46.676)" font-weight="700" font-family="Raleway" letter-spacing="0" word-spacing="0" fill="#020103" fill-opacity="1" stroke="#1d2145" stroke-width=".041" stroke-miterlimit="4" stroke-dasharray="none" stroke-opacity="1"><path d="M254.96 268.5l-20.262 8.97h-6.176l.211 2.535 2.462 1.337 19.783 11.051 29.206-11.05h.431l-.21-2.887-7.504-.986z" fill="#9aa8de" fill-rule="evenodd" stroke-width="1.763" stroke-linejoin="round"/><rect ry="12.823" transform="matrix(.87429 .4854 -.45931 .88827 0 0)" height="41.515" width="25.904" y="41.259" x="330.04" fill="#fff" stroke-width="1.763"/><g fill="#9aa8de" stroke-width="1.763"><path d="M250.84 289.6l-22.101-12.345 26.083-11.548 25.486 12.743z" fill-rule="evenodd" stroke-linejoin="round"/><path d="M235.26 250.93l-.422 29.324.064-.05c1.47 2.35 9.762 4.122 18.66 4.123 8.894-.003 17.227-1.724 18.696-4.073h.03l-.21-29.395z" stroke-linejoin="round"/><ellipse rx="18.219" ry="4.878" cy="251.08" cx="253.67"/></g><g fill="#fff"><rect ry="12.823" transform="matrix(.90533 .42472 -.39774 .9175 0 0)" height="41.515" width="25.904" y="81.192" x="320.39" stroke-width="1.763"/><rect ry="16.556" transform="matrix(.91838 -.3957 .26461 .96436 0 0)" height="53.604" width="24.631" y="224.45" x="183.87" stroke-width="1.771"/><rect ry="15.247" transform="matrix(.90502 -.42538 .41576 .90947 0 0)" height="49.366" width="29.771" y="260.6" x="131.05" stroke-width="1.763"/><rect ry="12.823" transform="matrix(.28622 .95816 -.94927 .31445 0 0)" height="41.515" width="25.904" y="-211.58" x="278.01" stroke-width="1.763"/><rect ry="12.823" transform="matrix(.87429 .4854 -.45931 .88827 0 0)" height="41.515" width="25.904" y="58.689" x="314.35" stroke-width="1.763"/></g><g transform="rotate(-3.812 2045.736 19638.08) scale(2.51797)"><path d="M605.49 26.997l-.029-.404c-.035.109-.082.21-.107.324l-.256 1.143c-.451 2.02 4.814 1.562 6.769 2.242l19.046 6.63c1.954.68 3.968 1.388 4.42-.632l.253-1.142a3.9 3.9 0 0 0-.547-2.963l-.093-.127c-.508-.725-1.245-1.293-2.149-1.54l-21.567-6.12c-1.747-.515-6.063 1.112-7.905 2.014z" fill="#fff" stroke-width=".7" stroke-linejoin="round"/><path d="M602.27 27.505l.073-.164c.674-1.515 2.499-1.86 4.09-1.396l23.951 6.99c1.592.465 2.33 1.559 1.656 3.074l-.073.163c-.674 1.515 1.502 3.484-3.965 1.896l-24.08-6.99c-1.592-.462-2.33-2.058-1.656-3.573z" fill="#fff" stroke-width=".573" stroke-linejoin="round"/><g fill="#9aa8de" stroke-width=".7"><path d="M634.16 31.899c-.768.15-1.819.973-2.49 2.43-.76 1.654-.765 3.275-.012 3.622.048.02.099.036.152.046l1.917.97 2.773-5.873-1.829-.927a.74.74 0 0 0-.259-.205c-.082-.045-.18-.045-.252-.063z" stroke-linejoin="round"/><ellipse rx="1.501" ry="3.296" transform="rotate(24.696)" cy="-232.65" cx="591.8"/><path d="M643.2 34.773l1.02 2.098 4.047.868-.19.523-4.373-.986-.504-1.398z" fill-rule="evenodd"/></g><g transform="matrix(.85067 -.05743 -.06188 .85934 194.37 -94.718)" fill="#9aa8de" fill-rule="evenodd" stroke-width=".821" stroke-linejoin="round"><path d="M535.19 186.55l-3.664 2.243-4.345.818c-.141.54.27 1.63.314 1.789l6.5 2.529 7.664-5.28-.032-.01.084-.017-.138-1.72-3.353.631-3.03-.983z"/><path d="M533.84 192.23l-6.638-2.583 7.834-4.796 6.469 2.1z"/></g><path d="M636.22 39.515l.517 2.389 4.025 1.285-.238.503-4.26-1.401-.199-1.43z" fill="#9aa8de" fill-rule="evenodd" stroke-width=".7"/></g><rect ry="18.081" transform="matrix(.91119 -.41199 .25297 .96747 0 0)" height="58.541" width="25.919" y="224.71" x="168.52" fill="#fff" stroke-width="1.775"/></g><circle cx="1388.683" cy="2.196" r="5.873" opacity="1" fill="#4e5197" fill-opacity="1" stroke="#deddf8" stroke-width="1.583" stroke-linecap="round" stroke-linejoin="round" stroke-miterlimit="4" stroke-dasharray="none" stroke-dashoffset="0" stroke-opacity="1"/><circle cx="1394.531" cy="6.659" r="5.873" opacity="1" fill="#4e5197" fill-opacity="1" stroke="#deddf8" stroke-width="1.583" stroke-linecap="round" stroke-linejoin="round" stroke-miterlimit="4" stroke-dasharray="none" stroke-dashoffset="0" stroke-opacity="1"/></g><g transform="matrix(.58222 0 0 .58222 -448.71 366.878)"><g><text y="82.644" x="1400.019" style="line-height:0%;text-align:start" xml:space="preserve" font-style="normal" font-weight="400" font-family="sans-serif" letter-spacing="0" word-spacing="0" text-anchor="start" fill="#000" fill-opacity="1" stroke="none" stroke-width="1" stroke-linecap="butt" stroke-linejoin="miter" stroke-opacity="1"><tspan style="line-height:1.25;-inkscape-font-specification:'Open Sans';text-align:start" y="82.644" x="1400.019" font-style="normal" font-variant="normal" font-weight="400" font-stretch="normal" font-size="20.331" font-family="Open Sans" text-anchor="start">Sanger sequencing analysis</tspan></text><g transform="translate(1366.175 57.313) scale(.70703)" fill="#f4f6f8" stroke="#0f2d59" stroke-linecap="round" stroke-linejoin="round"><path d="M31.5 5.5h-22a1 1 0 0 0-1 1v35a1 1 0 0 0 1 1h29a1 1 0 0 0 1-1v-28M13 26.5h22m-22 9h17m-17-3h22m-22-3h22m-22-6h22m-22-3h22m-22-3h22"/><path d="M31.5 5.5v7a1 1 0 0 0 1 1h7z"/></g><circle r="5.873" cy="88.092" cx="1393.64" opacity="1" fill="#e5b100" fill-opacity="1" stroke="#f8f8dd" stroke-width="1.583" stroke-linecap="round" stroke-linejoin="round" stroke-miterlimit="4" stroke-dasharray="none" stroke-dashoffset="0" stroke-opacity="1"/></g></g><text y="296.879" x="424.267" style="line-height:0%;text-align:center" xml:space="preserve" font-style="normal" font-weight="400" font-family="sans-serif" letter-spacing="0" word-spacing="0" text-anchor="middle" fill="#4e5197" fill-opacity="1" stroke="none" stroke-width="1" stroke-linecap="butt" stroke-linejoin="miter" stroke-opacity="1"><tspan style="line-height:1.25;-inkscape-font-specification:'Laffayette Comic Pro';text-align:center" y="296.879" x="424.267" font-style="normal" font-variant="normal" font-weight="400" font-stretch="normal" font-size="13.76" font-family="Laffayette Comic Pro" text-anchor="middle" fill="#4e5197" fill-opacity="1">quality control</tspan></text><path d="M295.193 380.944l43.541 2.461-42.998-.474z" fill="none" fill-rule="evenodd" stroke="#000" stroke-width=".582" stroke-linecap="butt" stroke-linejoin="miter" stroke-opacity="1"/></g><g steps="2--" stroke-opacity="1"><text y="94.095" x="191.926" style="line-height:0%;text-align:center" xml:space="preserve" font-style="normal" font-weight="400" font-family="sans-serif" letter-spacing="0" word-spacing="0" text-anchor="middle" fill="#4e5197" fill-opacity="1" stroke="none" stroke-width="1" stroke-linecap="butt" stroke-linejoin="miter"><tspan style="line-height:1.25;-inkscape-font-specification:'Laffayette Comic Pro';text-align:center" y="94.095" x="191.926" font-style="normal" font-variant="normal" font-weight="400" font-stretch="normal" font-size="14.287" font-family="Laffayette Comic Pro" text-anchor="middle" fill="#4e5197" fill-opacity="1">project onboarding</tspan></text><path d="M55.827 157.776l45.671-17.046-44.385 18.654zM56.43 164.527l43.54 2.46-42.997-.473zM55.688 171.968l45.671 17.047-44.385-18.655z" fill="none" fill-rule="evenodd" stroke="#000" stroke-width=".582" stroke-linecap="butt" stroke-linejoin="miter"/><g transform="translate(10)"><g transform="matrix(.30793 0 0 .30793 93.952 132.156)" font-weight="700" font-family="Raleway" letter-spacing="0" word-spacing="0" fill="#f4f6f8" stroke="#343434" stroke-linecap="round" stroke-linejoin="round"><path d="M7.75 36.5c-1.25 0-2 .3-2.5 1.5l-2.5 6C1.9 46 3 46.5 4 46.5h40c1 0 2.1-.5 1.25-2.5l-2.5-6c-.5-1.2-1.25-1.5-2.5-1.5zM14.5 29.5l-1 3c-.5 1.5 0 2 1.5 2h18c1.5 0 2-.5 1.5-2l-1-3z"/><path d="M8 38.5l-2 6h36l-2-6zM37.5 38.5v6m-3-6v6m-3-6v6m-3-6v3m-3-3v3m-3-3v3m-3-3v3m-3-3v3m-3-3v6m-3-6v6m-3.5-3h34M19.5 28.5h9v4h-9z"/><path d="M6.5 1.5h35c1.108 0 2 .892 2 2v25c0 1.108-.892 2-2 2h-35c-1.108 0-2-.892-2-2v-25c0-1.108.892-2 2-2z"/><path d="M8.5 4.5h31c.554 0 1 .446 1 1v20c0 .554-.446 1-1 1h-31c-.554 0-1-.446-1-1v-20c0-.554.446-1 1-1z"/></g><text xml:space="preserve" style="line-height:0%;text-align:start" x="116.11" y="143.73" font-style="normal" font-weight="400" font-family="sans-serif" letter-spacing="0" word-spacing="0" text-anchor="start" fill="#000" fill-opacity="1" stroke="none" stroke-width="1" stroke-linecap="butt" stroke-linejoin="miter"><tspan x="116.11" y="143.73" style="line-height:1.25;-inkscape-font-specification:'Open Sans';text-align:start" font-style="normal" font-variant="normal" font-weight="400" font-stretch="normal" font-size="11.837" font-family="Open Sans" text-anchor="start">Receive orders via a web tool</tspan></text><circle cx="108.483" cy="145.129" r="3.419" opacity="1" fill="#4e5197" fill-opacity="1" stroke="#deddf8" stroke-width=".921" stroke-linecap="round" stroke-linejoin="round" stroke-miterlimit="4" stroke-dasharray="none" stroke-dashoffset="0"/></g><g transform="translate(10)"><g transform="matrix(.16844 0 0 .16844 211.135 72.937)" stroke="#151414" stroke-linecap="butt" stroke-linejoin="round"><path d="M-659.775 556.633s-8.954.224-9.85-1.12c-.895-1.342-5.82-3.357-6.939-6.49-1.12-3.135-2.686-7.612-2.462-11.194.224-3.581-1.567-8.73 1.343-10.968 2.91-2.239 4.477-2.015 6.492-4.477 2.014-2.463 2.238-2.91 2.462-6.492.224-3.582-.895-6.268 1.12-8.283 2.014-2.014.447-3.357 4.476-5.148 4.03-1.791 3.806-4.253 7.387-4.253 3.582 0 4.701 0 5.82.671 1.12.672.448 2.686 4.254.672 3.805-2.015 5.148-2.686 8.058-1.791s5.373 4.477 6.716 4.925c1.343.447 6.044 2.686 7.61 3.805 1.568 1.12 1.344.896 3.583 3.582 2.238 2.686 3.581 5.372 3.581 6.492 0 1.119-.895 2.014-.448 4.924.448 2.91.672 4.925.448 6.94-.224 2.014-2.91 4.029-2.91 4.029s4.253 2.462 4.253 3.582c0 1.119-.224 8.058-.224 8.058-1.28 8.7-4.56 7.403-7.163 8.507-3.134 1.343-4.03 2.462-3.581 3.581.447 1.12 1.119 2.687 1.119 2.687s6.715 1.343-2.686.671c-9.402-.671-32.459-2.91-32.459-2.91z" fill="#000" fill-opacity="1" fill-rule="evenodd" stroke-width=".313" stroke-linejoin="miter"/><g transform="translate(-699.304 503.86) scale(2.16387)" fill="#f4f6f8" stroke-linejoin="round"><path d="M20.5 22.5l-3 15h14l-3-15z"/><path d="M18.5 27.5C10 30 5.5 39 5.5 44.5c0 1.5 6.5 2 8 2h22c1.5 0 8-.5 8-2 0-5.5-4.5-14.5-13-17l-5 1-1 8-1-8zM24.5 3.5c-5.5 0-10 5-10 11s4.5 11 10 11 10-5 10-11-4.5-11-10-11z"/><path d="M24.5 1.5c-4 0-6 1.5-7 4-3 1-4 5-3 9 2-2 3-4 4-7 11 8 10-3 16 7 1-8-4-13-10-13z" fill="#000" fill-opacity="1"/><path d="M18.5 25.5c1 1 2 2 5 3-2 1-2 3-2 4-2-1-4-4-4-6zM30.5 25.5c-1 1-2 2-5 3 2 1 2 3 2 4 2-1 4-4 4-6zM14.5 38.5l-1 8m22 0l-1-8"/></g></g><text xml:space="preserve" style="line-height:0%;text-align:start" x="116.786" y="170.209" font-style="normal" font-weight="400" font-family="sans-serif" letter-spacing="0" word-spacing="0" text-anchor="start" fill="#000" fill-opacity="1" stroke="none" stroke-width="1" stroke-linecap="butt" stroke-linejoin="miter"><tspan x="116.786" y="170.209" style="line-height:1.25;-inkscape-font-specification:'Open Sans';text-align:start" font-style="normal" font-variant="normal" font-weight="400" font-stretch="normal" font-size="11.837" font-family="Open Sans" text-anchor="start">Design a custom project</tspan></text><circle cx="108.142" cy="173.541" r="3.419" opacity="1" fill="#4e5197" fill-opacity="1" stroke="#deddf8" stroke-width=".921" stroke-linecap="round" stroke-linejoin="round" stroke-miterlimit="4" stroke-dasharray="none" stroke-dashoffset="0"/><circle cx="104.364" cy="177.842" r="3.419" opacity="1" fill="#4e5197" fill-opacity="1" stroke="#deddf8" stroke-width=".921" stroke-linecap="round" stroke-linejoin="round" stroke-miterlimit="4" stroke-dasharray="none" stroke-dashoffset="0"/><circle cx="110.474" cy="177.842" r="3.419" opacity="1" fill="#4e5197" fill-opacity="1" stroke="#deddf8" stroke-width=".921" stroke-linecap="round" stroke-linejoin="round" stroke-miterlimit="4" stroke-dasharray="none" stroke-dashoffset="0"/></g><g transform="translate(10)"><g transform="translate(94.689 186.182) scale(.33514)" font-weight="700" font-family="Raleway" letter-spacing="0" word-spacing="0" fill="#f4f6f8" stroke="#343434" stroke-linecap="round" stroke-linejoin="round"><path d="M6.5 29.5v10a17.5 5 0 0 0 17.5 5 17.5 5 0 0 0 17.5-5v-10"/><path d="M6.5 19.5v10a17.5 5 0 0 0 17.5 5 17.5 5 0 0 0 17.5-5v-10"/><path d="M6.5 9.5v10a17.5 5 0 0 0 17.5 5 17.5 5 0 0 0 17.5-5v-10"/><path d="M24 4.5a17.5 5 0 0 0-17.5 5 17.5 5 0 0 0 17.5 5 17.5 5 0 0 0 17.5-5 17.5 5 0 0 0-17.5-5z"/></g><text xml:space="preserve" style="line-height:0%;text-align:start" x="116.028" y="197.326" font-style="normal" font-weight="400" font-family="sans-serif" letter-spacing="0" word-spacing="0" text-anchor="start" fill="#000" fill-opacity="1" stroke="none" stroke-width="1" stroke-linecap="butt" stroke-linejoin="miter"><tspan x="116.028" y="197.326" style="line-height:1.25;-inkscape-font-specification:'Open Sans';text-align:start" font-style="normal" font-variant="normal" font-weight="400" font-stretch="normal" font-size="11.837" font-family="Open Sans" text-anchor="start">Register customer in CRM</tspan></text><circle cx="108.2" cy="200.504" r="3.419" opacity="1" fill="#e5b100" fill-opacity="1" stroke="#f8f8dd" stroke-width=".921" stroke-linecap="round" stroke-linejoin="round" stroke-miterlimit="4" stroke-dasharray="none" stroke-dashoffset="0"/></g><circle r="6.826" cy="43.689" cx="37.07" opacity="1" fill="#4e5197" fill-opacity="1" stroke="#deddf8" stroke-width="1.84" stroke-linecap="round" stroke-linejoin="round" stroke-miterlimit="4" stroke-dasharray="none" stroke-dashoffset="0"/><text y="47.446" x="48.045" style="line-height:0%;text-align:start" xml:space="preserve" font-style="normal" font-weight="400" font-family="sans-serif" letter-spacing="0" word-spacing="0" text-anchor="start" fill="#000" fill-opacity="1" stroke="none" stroke-width="1" stroke-linecap="butt" stroke-linejoin="miter"><tspan style="line-height:1.25;-inkscape-font-specification:'Open Sans';text-align:start" y="47.446" x="48.045" font-style="normal" font-variant="normal" font-weight="400" font-stretch="normal" font-size="11.837" font-family="Open Sans" text-anchor="start">Current software project</tspan></text><circle r="7.227" cy="43.234" cx="229.475" opacity="1" fill="#e5b100" fill-opacity="1" stroke="#f8f8dd" stroke-width="1.948" stroke-linecap="round" stroke-linejoin="round" stroke-miterlimit="4" stroke-dasharray="none" stroke-dashoffset="0"/><text y="47.478" x="241.282" style="line-height:0%;text-align:start" xml:space="preserve" font-style="normal" font-weight="400" font-family="sans-serif" letter-spacing="0" word-spacing="0" text-anchor="start" fill="#000" fill-opacity="1" stroke="none" stroke-width="1" stroke-linecap="butt" stroke-linejoin="miter"><tspan style="line-height:1.25;-inkscape-font-specification:'Open Sans';text-align:start" y="47.478" x="241.282" font-style="normal" font-variant="normal" font-weight="400" font-stretch="normal" font-size="11.837" font-family="Open Sans" text-anchor="start">Future project</tspan></text></g><g steps="3--"><text y="93.889" x="416.542" style="line-height:0%;text-align:center" xml:space="preserve" font-style="normal" font-weight="400" font-family="sans-serif" letter-spacing="0" word-spacing="0" text-anchor="middle" fill="#4e5197" fill-opacity="1" stroke="none" stroke-width="1" stroke-linecap="butt" stroke-linejoin="miter" stroke-opacity="1"><tspan style="line-height:1.25;-inkscape-font-specification:'Laffayette Comic Pro';text-align:center" y="93.889" x="416.542" font-style="normal" font-variant="normal" font-weight="400" font-stretch="normal" font-size="13.76" font-family="Laffayette Comic Pro" text-anchor="middle" fill="#4e5197" fill-opacity="1">biosafety screen</tspan></text><g><g><g transform="matrix(.03693 .0099 -.0099 .03693 304.868 167.679)" stroke="#36374d" stroke-opacity="1"><g transform="rotate(30 1706.3 2054.116)" fill="#fff" fill-opacity="1" stroke="#36374d" stroke-width="10.9" stroke-linecap="round" stroke-linejoin="round" stroke-miterlimit="4" stroke-dasharray="none" stroke-opacity="1" fill-rule="evenodd"><path d="M576.255 53.777l153.437 8.88 48.844-36.015zM576.255 54.764l19.734 37.99L729.2 62.657z" display="inline"/><path d="M595.003 93.74l121.862-12.334 12.334-18.748z"/><path d="M595.845 93.391c2.467 4.44 24.813 33.405 24.813 33.405l97.687-44.897zM567.867 344.371l190.934-41.443-178.106 76.966z"/><path d="M580.202 379.894L752.88 338.45l6.413-37.003z"/><path d="M580.695 379.894l33.549 30.095 139.13-72.031zM763.241 280.233l-194.387 63.645 189.947-40.95z"/><path d="M566.387 306.875l197.348-27.424-194.88 65.414zM744 258.032l-177.12 48.35 195.868-27.135zM743.507 257.538c-2.467 0-170.213 6.414-170.213 6.414l-5.92 41.937z"/><path d="M573.788 263.459l146.53-29.109 24.175 24.669z"/><path d="M721.076 233.712l-130.514-24.03-16.774 54.764zM620.164 126.796h53.778l43.416-44.897zM614.737 409.99l17.268 23.681 120.876-95.22z"/><path d="M689.236 207.708l-98.674 2.467 130.02 23.597zM621.645 126.796l12.334 21.215 39.963-21.709z"/><path d="M690.691 207.768l-44.871-39.53-55.751 41.444zM716.371 490.902l-78.445-40.456-42.226 34.969zM595.82 486.028l157.06 44.837-37.002-39.963zM752.387 531.358l-168.732 3.454 11.203-48.23z"/><path d="M768.175 540.239l-184.52-5.427 168.732-4.44zM583.162 535.305l10.36 45.883 174.16-40.456z"/><path d="M594.51 580.202l207.708-7.894-34.043-32.07z"/><path d="M593.523 579.215l16.774 43.91 192.414-50.817zM765.215 14.308L704.53 63.15l-37.003 43.417-42.43 46.87-37.002 48.35-22.202 46.87-9.867 45.39 6.413 61.177v5.428l14.801-44.404 22.202-39.963 27.629-52.297 31.575-42.923 44.897-45.883 32.562-29.602 37.496-30.589 24.175-24.175-12.827-22.202z"/><path d="M555.936 65.828l24.77 40.12 21.629 33.84 15.35 24.071 14.303-18.839-11.512-18.838-23.723-33.491-20.932-38.724zM659.897 180.605l15.35-16.048 24.42 25.467 33.143 28.607 21.28 20.234 16.397 24.42-6.628 17.095-19.537-22.676-23.722-24.072-32.096-27.56z"/><path d="M771.185 263.983l-16.397 29.654-28.955 31.049-29.654 27.56-34.537 33.49-44.655 42.213-26.514 44.655-16.047 42.91-6.978 41.166 1.047 21.281 2.093 16.397 4.535 25.118 2.442-53.027 6.629-31.05 17.094-52.329 40.074-48.337 47.795-36.282 29.698-25.971 36.98-33.84 19.885-29.653-1.744-21.63z"/><path d="M775.72 311.429l-10.117 48.84-26.513 34.538-32.794 28.956-27.211 24.77-24.072 17.792-28.258 30.7-13.954 31.746-15.35 36.282-6.28 17.094-3.14 25.119 2.442 29.304-14.303-15.35 2.093-53.725 6.977-31.746 17.095-51.981 40.398-47.979 22.218-16.695 17.623-13.123 43.956-37.847 29.918-28.522z"/><path d="M683.969 445.044l-21.979 17.094 49.43 29.185 40.926 38.844L767 539.935l35.584 32.095 19.885-4.186-55.47-56.167-36.63-32.445zM562.44 359.172l10.854 36.51 26.642 32.069 10.795 10.156 6.473-9.663 7.665-7.894-10.77-10.3-32.91-31.143-13.322-35.522zM592.042 579.215l-4.44 27.135 2.96 29.109h5.427l13.815-12.828zM823.926 567.867l-10.854 18.748-12.335 14.801 1.078-26.821zM729.199 592.536l69.864 5.377 1.007-23.727z"/><path d="M614.882 410.194L662.1 385.32l-37.292 35.463z"/></g></g><path d="M365.389 197.743c-.123-.175-.17-.511-.17-1.202 0-1.079.085-.986-1.04-1.131-1.06-.138-2.61-.767-3.722-1.512-2.175-1.455-3.967-4.176-4.264-6.475-.146-1.125-.054-1.04-1.132-1.04-1.151 0-1.445-.144-1.445-.71 0-.568.294-.712 1.445-.712 1.078 0 .986.085 1.132-1.04.297-2.299 2.089-5.02 4.264-6.475 1.111-.745 2.662-1.374 3.722-1.512 1.125-.146 1.04-.053 1.04-1.131 0-1.151.144-1.445.71-1.445.568 0 .712.294.712 1.445 0 1.078-.085.985 1.04 1.131 1.06.138 2.61.767 3.722 1.512 2.175 1.456 3.966 4.176 4.265 6.474.146 1.126.053 1.04 1.131 1.04 1.151 0 1.445.145 1.445.712s-.294.712-1.445.712c-1.078 0-.985-.086-1.131 1.04-.299 2.298-2.09 5.019-4.265 6.474-1.111.745-2.663 1.374-3.722 1.512-1.125.145-1.04.052-1.04 1.13 0 1.152-.144 1.446-.711 1.446-.259 0-.422-.073-.541-.243zm-.17-4.504c0-.76.04-.964.226-1.204.13-.165.337-.288.485-.288.148 0 .354.123.485.288.189.24.226.444.226 1.22v.93l.577-.068c1.87-.22 4.044-1.465 5.327-3.05.938-1.159 1.68-2.823 1.83-4.107l.068-.576h-.93c-.776 0-.98-.04-1.22-.227-.165-.13-.288-.337-.288-.485 0-.148.123-.354.288-.485.24-.189.444-.226 1.22-.226h.93l-.067-.578c-.155-1.315-.91-2.984-1.873-4.142-1.345-1.617-3.408-2.794-5.285-3.015l-.577-.068v.931c0 .776-.04.98-.226 1.22-.293.371-.677.371-.97 0-.189-.24-.227-.444-.227-1.22v-.93l-.577.067c-1.29.152-2.954.896-4.099 1.833-1.614 1.322-2.838 3.452-3.057 5.324l-.068.578h.93c.776 0 .979.04 1.22.226.371.293.371.677 0 .97-.241.189-.444.227-1.22.227h-.93l.068.576c.213 1.812 1.454 4.011 2.972 5.267 1.238 1.023 3.243 1.897 4.406 1.92l.355.006v-.916z" fill="#000"/><circle r="3.419" cy="193.857" cx="375.484" opacity="1" fill="#4e5197" fill-opacity="1" stroke="#deddf8" stroke-width=".921" stroke-linecap="round" stroke-linejoin="round" stroke-miterlimit="4" stroke-dasharray="none" stroke-dashoffset="0" stroke-opacity="1"/><text y="188.592" x="382.261" style="line-height:0%;text-align:start" xml:space="preserve" font-style="normal" font-weight="400" font-family="sans-serif" letter-spacing="0" word-spacing="0" text-anchor="start" fill="#000" fill-opacity="1" stroke="none" stroke-width="1" stroke-linecap="butt" stroke-linejoin="miter" stroke-opacity="1"><tspan style="line-height:1.25;-inkscape-font-specification:'Open Sans';text-align:start" y="188.592" x="382.261" font-style="normal" font-variant="normal" font-weight="400" font-stretch="normal" font-size="11.837" font-family="Open Sans" text-anchor="start">Screen sequence</tspan></text></g><g><g transform="matrix(.39759 0 0 .39759 356.358 145.035)" font-weight="700" font-family="Raleway" letter-spacing="0" word-spacing="0" fill="#f4f6f8" stroke="#333435" stroke-linecap="round" stroke-linejoin="round" stroke-opacity="1"><path d="M20.5 22.5l-3 15h14l-3-15z"/><path d="M18.5 27.5C10 30 5.5 39 5.5 44.5c0 1.5 6.5 2 8 2h22c1.5 0 8-.5 8-2 0-5.5-4.5-14.5-13-17l-5 1-1 8-1-8zM24.5 3.5c-5.5 0-10 5-10 11s4.5 11 10 11 10-5 10-11-4.5-11-10-11z"/><path d="M24.5 1.5c-4 0-6 1.5-7 4-3 1-4 5-3 9 2-2 3-4 4-7 11 8 10-3 16 7 1-8-4-13-10-13zM18.5 25.5c1 1 2 2 5 3-2 1-2 3-2 4-2-1-4-4-4-6zM30.5 25.5c-1 1-2 2-5 3 2 1 2 3 2 4 2-1 4-4 4-6zM14.5 38.5l-1 8m22 0l-1-8"/></g><path d="M365.54 162.71c-.122-.175-.17-.511-.17-1.202 0-1.078.086-.985-1.04-1.131-1.059-.137-2.61-.767-3.721-1.512-2.175-1.456-3.967-4.176-4.264-6.475-.146-1.125-.054-1.04-1.132-1.04-1.151 0-1.445-.144-1.445-.711s.294-.712 1.445-.712c1.078 0 .986.086 1.132-1.04.297-2.298 2.089-5.018 4.264-6.474 1.111-.744 2.662-1.374 3.722-1.511 1.125-.146 1.04-.053 1.04-1.132 0-1.15.144-1.445.71-1.445.567 0 .712.294.712 1.445 0 1.079-.085.986 1.04 1.132 1.06.137 2.61.767 3.722 1.51 2.175 1.457 3.967 4.177 4.265 6.476.145 1.125.053 1.04 1.131 1.04 1.151 0 1.445.144 1.445.71 0 .568-.294.712-1.445.712-1.078 0-.986-.085-1.131 1.04-.298 2.299-2.09 5.02-4.265 6.475-1.112.745-2.663 1.375-3.722 1.512-1.125.146-1.04.053-1.04 1.131 0 1.151-.145 1.445-.711 1.445-.26 0-.422-.073-.541-.243zm-.17-4.503c0-.76.04-.965.227-1.204.13-.166.337-.289.485-.289.148 0 .354.123.484.289.19.24.227.443.227 1.219v.93l.577-.067c1.87-.22 4.044-1.465 5.327-3.05.938-1.16 1.68-2.824 1.83-4.107l.068-.578h-.93c-.776 0-.98-.04-1.22-.226-.166-.13-.288-.337-.288-.485 0-.148.122-.354.288-.485.24-.189.444-.227 1.22-.227h.93l-.068-.576c-.154-1.315-.909-2.985-1.872-4.142-1.345-1.618-3.408-2.795-5.285-3.015l-.577-.068v.93c0 .777-.035.98-.227 1.22-.292.372-.676.372-.969 0-.189-.24-.227-.443-.227-1.22v-.93l-.577.068c-1.29.152-2.954.895-4.099 1.832-1.614 1.322-2.838 3.453-3.057 5.325l-.068.576h.93c.776 0 .979.04 1.22.227.371.293.371.677 0 .97-.241.19-.444.226-1.22.226h-.93l.068.578c.212 1.812 1.454 4.01 2.972 5.266 1.238 1.023 3.243 1.898 4.406 1.921l.355.005v-.915z" fill="#000"/><text y="154.403" x="381.54" style="line-height:0%;text-align:start" xml:space="preserve" font-style="normal" font-weight="400" font-family="sans-serif" letter-spacing="0" word-spacing="0" text-anchor="start" fill="#000" fill-opacity="1" stroke="none" stroke-width="1" stroke-linecap="butt" stroke-linejoin="miter" stroke-opacity="1"><tspan style="line-height:1.25;-inkscape-font-specification:'Open Sans';text-align:start" y="154.403" x="381.54" font-style="normal" font-variant="normal" font-weight="400" font-stretch="normal" font-size="11.837" font-family="Open Sans" text-anchor="start">Screen customer</tspan></text><circle r="3.419" cy="164.063" cx="376.166" opacity="1" fill="#e5b100" fill-opacity="1" stroke="#f8f8dd" stroke-width=".921" stroke-linecap="round" stroke-linejoin="round" stroke-miterlimit="4" stroke-dasharray="none" stroke-dashoffset="0" stroke-opacity="1"/></g></g><path d="M296.705 166.94l43.54 2.462-42.997-.474z" fill="none" fill-rule="evenodd" stroke="#000" stroke-width=".582" stroke-linecap="butt" stroke-linejoin="miter" stroke-opacity="1"/></g><g transform="matrix(.3705 0 0 .3705 96.435 94.918)" steps="1--"><g><path d="M-210.886 186.124l-18.615 64.217c21.911 15.546 44.635 17.723 68.57 0l-22.603-64.217" fill="none" fill-rule="evenodd" stroke="#000" stroke-width="2.359" stroke-linecap="butt" stroke-linejoin="miter" stroke-miterlimit="4" stroke-dasharray="none" stroke-opacity="1"/><g transform="matrix(2.35949 0 0 2.35949 224.01 486.455)" fill="#f4f6f8" stroke="#0f2d59" stroke-linecap="round" stroke-linejoin="round"><path d="M-183.912-130.857c1 1 2 2 5 3-2 1-2 3-2 4-2-1-4-4-4-6zM-171.912-130.857c-1 1-2 2-5 3 2 1 2 3 2 4 2-1 4-4 4-6z"/></g><path d="M-195.398 185.836l12.139 73.822" fill="none" fill-rule="evenodd" stroke="#000" stroke-width="2.359" stroke-linecap="butt" stroke-linejoin="miter" stroke-miterlimit="4" stroke-dasharray="none" stroke-opacity="1"/><g transform="scale(2.35949) rotate(-20.88 -1651.49 1503.614)" fill="#000" fill-opacity="1" stroke="#000" stroke-width=".17" stroke-linecap="round" stroke-linejoin="round" stroke-miterlimit="4" stroke-dasharray="none" stroke-dashoffset="0" stroke-opacity=".976"><path d="M318.645 738.584a.911.911 0 0 1-.911.911.911.911 0 0 1-.912-.911.911.911 0 0 1 .912-.912.911.911 0 0 1 .911.912zM317.848 741.416a.911.911 0 0 1-.911.911.911.911 0 0 1-.912-.911.911.911 0 0 1 .912-.912.911.911 0 0 1 .911.912zM317.05 744.314a.911.911 0 0 1-.911.912.911.911 0 0 1-.911-.912.911.911 0 0 1 .911-.911.911.911 0 0 1 .911.911z" opacity="1"/></g><path d="M-167.943 146.129a29.619 38.705 1.879 0 1-30.871 37.713 29.619 38.705 1.879 0 1-28.334-39.655 29.619 38.705 1.879 0 1 30.872-37.714 29.619 38.705 1.879 0 1 28.333 39.656z" opacity="1" fill="#fff" fill-opacity="1" stroke="#000" stroke-width="2.712" stroke-linecap="round" stroke-linejoin="round" stroke-miterlimit="4" stroke-dasharray="none" stroke-dashoffset="0" stroke-opacity=".976"/><path d="M-193.023 136.773a3.518 3.761 1.165 0 1-3.5 3.79 3.518 3.761 1.165 0 1-3.536-3.73 3.518 3.761 1.165 0 1 3.5-3.791 3.518 3.761 1.165 0 1 3.536 3.731zM-176.419 134.591a3.518 3.761 1.165 0 1-3.5 3.79 3.518 3.761 1.165 0 1-3.535-3.73 3.518 3.761 1.165 0 1 3.5-3.791 3.518 3.761 1.165 0 1 3.535 3.731z" opacity="1" fill="#000" fill-opacity="1" stroke="#000" stroke-width=".588" stroke-linecap="round" stroke-linejoin="round" stroke-miterlimit="4" stroke-dasharray="none" stroke-dashoffset="0" stroke-opacity="1"/><path d="M-201.024 106.65s-16.746 7.79-19.14 17.482c-2.412 9.765 2.638 20.156 2.083 26.398 6.361 23.134 9.25 52.22 6.859 72.054-8.909 3.624-22.678 6.637-35.394.247 3.33-4.578 3.973-23.649 3.973-30.863 0-7.213 5.133-63.954 7.77-68.948 2.635-4.994 19.282-26.08 28.439-25.803 9.156.278 13.595 5.41 13.595 5.41 31.087-15.026 47.045 103.388 49.11 112.648 0 0-31.164 36.845-30.104 4.994.139-9.711 3.052-48.416 3.19-52.856 6.344-35.549-10.276-61.83-30.381-60.763z" fill="#000" fill-opacity="1" fill-rule="evenodd" stroke="#000" stroke-width="1.005" stroke-linecap="butt" stroke-linejoin="miter" stroke-opacity="1"/><g transform="rotate(-75 -1183.247 1828.184) scale(3.6392)"><g transform="rotate(60 -45.768 367.232) scale(.82838)" stroke-linecap="round" stroke-linejoin="round"><g transform="scale(.5921) rotate(-3.427 11121.86 -8739.446)" fill="#f4f6f8" stroke="#0f2d59"><g transform="translate(125.944 -6.297)" fill="#f4f6f8" stroke="#0f2d59" stroke-linecap="round" stroke-linejoin="round"><g transform="translate(-107.667 -35.467)" fill="#fff" stroke="#000" stroke-linecap="round" stroke-linejoin="round" fill-opacity="1" stroke-width="1" stroke-opacity="1"><path d="M94.878 23.444h-22a1 1 0 0 0-1 1v35a1 1 0 0 0 1 1h29a1 1 0 0 0 1-1v-28"/><path d="M94.878 23.444v7a1 1 0 0 0 1 1h7z"/></g></g></g><g transform="scale(.5921) rotate(3.915 -9035.377 8271.45)" fill="#f4f6f8" stroke="#0f2d59"><g transform="translate(125.944 -6.297)" fill="#f4f6f8" stroke="#0f2d59" stroke-linecap="round" stroke-linejoin="round"><g transform="translate(-107.667 -35.467)" fill="#fff" stroke="#000" stroke-linecap="round" stroke-linejoin="round" fill-opacity="1" stroke-width="1" stroke-opacity="1"><path d="M94.878 23.444h-22a1 1 0 0 0-1 1v35a1 1 0 0 0 1 1h29a1 1 0 0 0 1-1v-28"/><path d="M94.878 23.444v7a1 1 0 0 0 1 1h7z"/></g></g></g><g transform="translate(3.359 1.591)"><g transform="matrix(.5921 0 0 .5921 394.041 376.361)" fill="#f4f6f8" stroke="#0f2d59"><g transform="translate(-107.667 -35.467)" fill="#fff" stroke="#000" stroke-linecap="round" stroke-linejoin="round" fill-opacity="1" stroke-width="1" stroke-opacity="1"><path d="M94.878 23.444h-22a1 1 0 0 0-1 1v35a1 1 0 0 0 1 1h29a1 1 0 0 0 1-1v-28"/><path d="M94.878 23.444v7a1 1 0 0 0 1 1h7z"/></g><path d="M-31.289 19.323h17m-17-3h22m-22-3h22" fill="#f4f6f8" stroke="#0f2d59" stroke-width="1" stroke-linecap="round" stroke-linejoin="round"/><path d="M-10.57 9.37h-19.437" fill="none" fill-rule="evenodd" stroke="#000" stroke-width="1.466" stroke-linecap="butt" stroke-linejoin="miter" stroke-opacity="1"/><path d="M-24.07 9.172l.023-7.317h10.885l-2.916-2.915M-13.35 2.1l-2.98 2.98" fill="none" fill-rule="evenodd" stroke="#000" stroke-width="1.466" stroke-linecap="round" stroke-linejoin="round" stroke-opacity="1"/></g><path d="M375.242 381.221h.87c.332 0 .598.267.598.598v.081a.596.596 0 0 1-.598.598h-.87a.596.596 0 0 1-.597-.598v-.08c0-.332.266-.599.597-.599z" opacity="1" fill="#fff" fill-opacity="1" stroke="#000" stroke-width=".404" stroke-miterlimit="4" stroke-dasharray="none" stroke-dashoffset="0" stroke-opacity="1"/><path d="M387.488 381.221h.87c.33 0-.16.439.566.598v.081c0 .331-.235.598-.566.598h-.87a.596.596 0 0 1-.598-.598v-.08c0-.332.266-.599.598-.599z" opacity="1" fill="#fcbcbc" fill-opacity="1" stroke="#000" stroke-width=".404" stroke-miterlimit="4" stroke-dasharray="none" stroke-dashoffset="0" stroke-opacity="1"/></g></g><g transform="matrix(.01806 -.00805 -.00805 -.01806 190.978 659.639)" fill="#fff" fill-opacity="1" stroke-width="29.556" stroke-miterlimit="4" stroke-dasharray="none"><g transform="translate(100.418 60.468)" fill="#fff" fill-opacity="1" stroke-miterlimit="4" stroke-dasharray="none"><g transform="translate(-1145.61 208.622)" stroke-width="29.556"><path d="M345.12 520.62c-120.86 26.07-179.52-91.27-157.81-207.57 17.86-95.68 45.81-120.43 137.88-126.18 76.9 4.76 154.35 10.17 157.03 63.07 3.48 68.91 19.96 106.82 15.88 161.13-3.89 51.65-92.69 110.34-152.98 109.55z" fill="#fff" fill-opacity="1" stroke="#000" stroke-width="29.556" stroke-linecap="round" stroke-miterlimit="4" stroke-dasharray="none"/></g><g transform="matrix(2.7161 -.16972 .14881 3.0978 -1233.473 -1195.078)" stroke-width="10.174"><path d="M178.44 561.56c7.06-15.21 11.38-43.96-24.91-39.65-6.6-5.5-21.08-4.23-29.9-1-16.71-3.49-25.872.62-34.143 5.56-29.223 10.42-22.518 25.34-19.536 40.48" fill="#fff" fill-opacity="1" stroke="#000" stroke-width="10.174" stroke-linecap="round" stroke-miterlimit="4" stroke-dasharray="none"/></g><path d="M-784.879 727.673c77.952.75 124.026-60.483 130.65-68.971 13.205-16.924 118.925-73.197 92.374-140.516-3.839-9.735-44.74 5.64-87.315 51.102" stroke="#000" stroke-width="29.556" stroke-linecap="round"/></g></g></g></g><text y="294.031" x="-189.596" style="line-height:0%;-inkscape-font-specification:'Open Sans Bold';text-align:center" xml:space="preserve" font-style="normal" font-variant="normal" font-weight="700" font-stretch="normal" font-size="14.478" font-family="Open Sans" letter-spacing="0" word-spacing="0" text-anchor="middle" fill="#000" fill-opacity="1" stroke="none" stroke-width="1.206" stroke-linecap="butt" stroke-linejoin="miter" stroke-opacity="1"><tspan style="line-height:1.25" y="294.031" x="-189.596" font-size="25.707" stroke-width="1.206">customer</tspan></text></g><g steps="7--"><text y="402.229" x="638.22" style="line-height:0%;text-align:center" xml:space="preserve" font-style="normal" font-weight="400" font-family="sans-serif" letter-spacing="0" word-spacing="0" text-anchor="middle" fill="#000" fill-opacity="1" stroke="none" stroke-width="1" stroke-linecap="butt" stroke-linejoin="miter" stroke-opacity="1"><tspan style="line-height:1.25;-inkscape-font-specification:'Open Sans';text-align:center" y="402.229" x="638.22" font-style="normal" font-variant="normal" font-weight="400" font-stretch="normal" font-size="11.837" font-family="Open Sans" text-anchor="middle">Send assemblies</tspan><tspan style="line-height:1.25;-inkscape-font-specification:'Open Sans';text-align:center" y="417.025" x="638.22" font-style="normal" font-variant="normal" font-weight="400" font-stretch="normal" font-size="11.837" font-family="Open Sans" text-anchor="middle">to customer</tspan></text><path d="M550.762 379.673l43.541 2.461-42.997-.474z" fill="none" fill-rule="evenodd" stroke="#000" stroke-width=".582" stroke-linecap="butt" stroke-linejoin="miter" stroke-opacity="1"/><g transform="translate(-71.838 -653.64) scale(1.15153)" stroke="#000"><path d="M611.383 880.617l-5.669 19.557c6.673 4.734 13.593 5.397 20.882 0l-6.884-19.557" fill="none" fill-rule="evenodd" stroke-width=".719" stroke-linecap="butt" stroke-linejoin="miter" stroke-miterlimit="4" stroke-dasharray="none" stroke-opacity="1"/><g transform="matrix(.71855 0 0 .71855 743.825 972.079)" fill="#f4f6f8" stroke-linecap="round" stroke-linejoin="round" stroke-opacity="1"><path d="M-183.912-130.857c1 1 2 2 5 3-2 1-2 3-2 4-2-1-4-4-4-6zM-171.912-130.857c-1 1-2 2-5 3 2 1 2 3 2 4 2-1 4-4 4-6z"/></g><path d="M616.1 880.53l-3.203 23.048" fill="none" fill-rule="evenodd" stroke-width=".719" stroke-linecap="butt" stroke-linejoin="miter" stroke-miterlimit="4" stroke-dasharray="none" stroke-opacity="1"/><g transform="rotate(-4.777 4691.171 -3911.94) scale(.71855)" fill="#000" fill-opacity="1" stroke-width=".17" stroke-linecap="round" stroke-linejoin="round" stroke-miterlimit="4" stroke-dasharray="none" stroke-dashoffset="0" stroke-opacity=".976"><path d="M318.645 738.584a.911.911 0 0 1-.911.911.911.911 0 0 1-.912-.911.911.911 0 0 1 .912-.912.911.911 0 0 1 .911.912zM317.848 741.416a.911.911 0 0 1-.911.911.911.911 0 0 1-.912-.911.911.911 0 0 1 .912-.912.911.911 0 0 1 .911.912zM317.05 744.314a.911.911 0 0 1-.911.912.911.911 0 0 1-.911-.912.911.911 0 0 1 .911-.911.911.911 0 0 1 .911.911z" opacity="1"/></g><path d="M624.46 868.437a9.02 11.787 1.879 0 1-9.4 11.485 9.02 11.787 1.879 0 1-8.63-12.076 9.02 11.787 1.879 0 1 9.402-11.485 9.02 11.787 1.879 0 1 8.629 12.076z" opacity="1" fill="#fff" fill-opacity="1" stroke-width=".826" stroke-linecap="round" stroke-linejoin="round" stroke-miterlimit="4" stroke-dasharray="none" stroke-dashoffset="0" stroke-opacity=".976"/><path d="M610.258 873.362a1.066 1.645 0 0 1-1.066 1.645 1.066 1.645 0 0 1-1.067-1.645 1.066 1.645 0 0 1 1.067-1.645 1.066 1.645 0 0 1 1.066 1.645zM615.568 872.923a1.066 1.645 0 0 1-1.067 1.645 1.066 1.645 0 0 1-1.066-1.645 1.066 1.645 0 0 1 1.066-1.645 1.066 1.645 0 0 1 1.067 1.645z" transform="matrix(.99993 -.01217 .00335 1 0 0)" opacity="1" fill="#000" fill-opacity="1" stroke-width=".214" stroke-linecap="round" stroke-linejoin="round" stroke-miterlimit="4" stroke-dasharray="none" stroke-dashoffset="0" stroke-opacity="1"/><path d="M614.386 856.415s-4.858 1.605-6.506 4.985c-1.648 3.38.026 6.659-.143 8.56-.17 1.9.971 5.534 1.774 7.266.803 1.733.44 2.932 1.833 6.608 1.394 3.675.274 4.803-.064 7.887-2.713 1.103-6.906 2.02-10.778.075 1.014-1.394 1.21-7.202 1.21-9.399 0-2.197 1.563-19.476 2.366-20.997.802-1.521 5.872-7.943 8.66-7.858 2.789.084 4.14 1.647 4.14 1.647 9.468-4.576 14.328 31.486 14.957 34.306 0 0-9.49 11.22-9.168 1.52.042-2.957.93-14.744.971-16.096.043-1.352-.253-6.97-.549-7.52-.296-.55-3.59-9.379-4.647-9.844-1.056-.464-4.056-1.14-4.056-1.14z" fill="#000" fill-opacity="1" fill-rule="evenodd" stroke-width=".306" stroke-linecap="butt" stroke-linejoin="miter" stroke-opacity="1"/></g><g transform="matrix(.02673 -.01543 .01543 .02673 607.473 354.67)" fill="#fff" fill-opacity="1" stroke-width="29.556" stroke-miterlimit="4" stroke-dasharray="none"><g transform="translate(23.368 109.132) scale(.77637)" fill="#fff" fill-opacity="1" stroke-miterlimit="4" stroke-dasharray="none"><g stroke-width="29.556"><path d="M345.12 520.62c-120.86 26.07-179.52-91.27-157.81-207.57 17.86-95.68 45.81-120.43 137.88-126.18 76.9 4.76 154.35 10.17 157.03 63.07 3.48 68.91 19.96 106.82 15.88 161.13-3.89 51.65-92.69 110.34-152.98 109.55z" fill="#fff" fill-opacity="1" stroke="#000" stroke-width="29.556" stroke-linecap="round" stroke-miterlimit="4" stroke-dasharray="none"/></g><g transform="matrix(2.7161 -.16972 .14881 3.0978 -87.863 -1403.7)" stroke-width="10.174" stroke="#000"><path d="M89.487 526.47c-29.223 10.42-22.518 25.34-19.536 40.48 3.133 15.83 12.461 17.85 20.892 16.47 6.284-1.02 6.769-2.78 7.095-13.36 2.862 6.64 7.072 10.91 11.942 10.91 5.25 0 9.73-4.95 12.28-12.5 2.03 7.22 5.88 12.25 10.78 12.97 5.6.82 11.15-4.18 14.78-12.32 1.09 9.99 5.27 17.51 11.25 18.6 8.4 1.53 17.12-10.19 19.47-26.16 7.06-15.21 11.38-43.96-24.91-39.65-6.6-5.5-21.08-4.23-29.9-1-16.71-3.49-25.872.62-34.143 5.56z" stroke-linecap="round"/><path d="M125.78 566c5.44 3.73 11.12 6.25 18.44.58M90 526.65l7.552 43.66M122.86 520.93l-.38 47.12M154.29 522.36l-7.08 51.2"/></g><path d="M360.73 519.051c77.953.75 124.03-60.481 130.65-68.971 16.16-20.71 33.45-70.12 8.68-113.8-36.17-63.78-57.7-66.56-72.46-58.68a31.97 31.97 0 0 0-9.18.28c-29.47 5.19-52.19-1.85-65-.89-5.82.44-9.59 2.53-11.02 8.17-5.65 22.36 19.25 55.36 55.56 73.72 10.91 5.51 9.59 3.17 19.38 4.85 3.77 7.68 21.93 36.63 14.88 25.61" stroke="#000" stroke-width="29.556" stroke-linecap="round"/></g></g><path d="M667.126 315.683c-.138.484-16.45 16.974-16.45 16.974" fill="#313360" fill-opacity="1" fill-rule="evenodd" stroke="#515ca4" stroke-width=".708" stroke-linecap="butt" stroke-linejoin="miter" stroke-opacity="1"/><g transform="rotate(7.21 5801.173 97.267) scale(1.15153)"><g transform="matrix(-.71686 .49678 .49678 .71686 896.353 344.225)"><path d="M592.997 315.968c1.347 2.625-.995 4.701-3.809 4.919-2.315.18-3.058-.312-3.76-2.398-.364-1.802-.718-3.62.485-4.009 1.566-.505 2.338-1.12 3.615-1.36 1.214-.23 3.115 1.454 3.47 2.848z" fill="#fff" fill-opacity="1" stroke="#000" stroke-width=".705" stroke-linecap="round" stroke-miterlimit="4" stroke-dasharray="none"/><g transform="scale(.36556) rotate(-22.402 7847.84 -977.487)" color="#000"><path d="M1372.395-1685.77c-.567 0-1.038.45-1.038 1.017v3.01c0 .433.279.782.657.933 0 22.741-.02 21.27 0 44.01.062 4.392 4.887 7.746 9.028 6.294 3.3-.936 5.28-4.442 4.896-7.757v-42.529c.391-.144.678-.512.678-.954v-3.01a1.01 1.01 0 0 0-1.017-1.017h-13.204z" fill="#fff" fill-opacity=".851" stroke="none" stroke-width="2.018" stroke-miterlimit="4" stroke-dasharray="none" stroke-opacity="1"/><g transform="matrix(.67823 0 0 .67823 1420.113 -2331.234)"><path d="M-71.073 982.8c.006 33.52-.03 9.042 0 42.562.09 6.477 7.206 11.422 13.312 9.281 4.864-1.38 7.784-6.55 7.219-11.438V982.8z" fill="#00a4ff" fill-opacity="1"/><path d="M-53.948 1026.7c-1.824 1.124-4.215 1.813-6.844 1.813-2.628 0-5.02-.658-6.844-1.782-.19.448-.28.916-.28 1.406 0 2.745 3.18 4.97 7.124 4.97 3.945 0 7.156-2.226 7.156-4.97 0-.504-.111-.978-.312-1.437z" opacity=".25" fill="url(#software-operations.o.svgc)"/><path d="M22.86 135.53a10.221 1.278 0 0 1-10.221 1.277 10.221 1.278 0 0 1-10.222-1.277 10.221 1.278 0 0 1 10.222-1.278 10.221 1.278 0 0 1 10.22 1.278z" transform="translate(-73.448 847.35)" fill="url(#software-operations.o.svgd)" stroke="#000" stroke-opacity="1"/><path d="M-57.486 979.95c-.992 0-1.813.79-1.813 1.781 0 .421.164.819.407 1.125h2.781c.243-.306.406-.704.406-1.125 0-.991-.79-1.781-1.781-1.781z" fill="#4686b9" fill-opacity="1" stroke="#000" stroke-opacity="1"/><path d="M-59.911 976.772a2.21 2.21 0 0 1-2.21 2.21 2.21 2.21 0 0 1-2.21-2.21 2.21 2.21 0 0 1 2.21-2.21 2.21 2.21 0 0 1 2.21 2.21z" fill="#4686b9" fill-opacity="1" stroke="#000" stroke-opacity="1" stroke-width="1.2308"/><path d="M-55.629 972.695a1.588 1.588 0 0 1-1.588 1.589 1.588 1.588 0 0 1-1.589-1.589 1.588 1.588 0 0 1 1.589-1.588 1.588 1.588 0 0 1 1.588 1.588z" fill="#4686b9" fill-opacity="1" stroke="#000" stroke-opacity="1" stroke-width=".88462"/><path d="M-59.497 968.407a1.243 1.243 0 0 1-1.243 1.244 1.243 1.243 0 0 1-1.243-1.244 1.243 1.243 0 0 1 1.243-1.243 1.243 1.243 0 0 1 1.243 1.243z" fill="#4686b9" fill-opacity="1" stroke="#000" stroke-opacity="1" stroke-width=".69231"/><path d="M-64.746 979.32a1.796 1.796 0 0 1-1.796 1.795 1.796 1.796 0 0 1-1.796-1.796 1.796 1.796 0 0 1 1.796-1.795 1.796 1.796 0 0 1 1.796 1.795z" fill="#4686b9" fill-opacity="1" stroke="#000" stroke-opacity="1"/><path d="M-54.663 965.857a1.243 1.243 0 0 1-1.243 1.244 1.243 1.243 0 0 1-1.243-1.244 1.243 1.243 0 0 1 1.243-1.243 1.243 1.243 0 0 1 1.243 1.243z" fill="#4686b9" fill-opacity="1" stroke="#000" stroke-opacity="1" stroke-width=".69231"/><path d="M-67.858 989.041c.688 0 1.242.762 1.242 1.708v32.703c0 .946-.554 1.708-1.242 1.708s-1.242-.762-1.242-1.708v-32.703c0-.946.554-1.708 1.242-1.708z" opacity=".2" fill="#fff"/><path d="M-70.51 950.93c-.837 0-1.531.662-1.531 1.5v4.437c0 .638.412 1.153.969 1.375.006 33.53-.03 33.594 0 67.12.09 6.477 7.205 11.422 13.312 9.282 4.864-1.381 7.784-6.55 7.218-11.438v-64.937c.577-.212 1-.754 1-1.406v-4.438c0-.837-.663-1.5-1.5-1.5H-70.51z" fill="none" stroke="#000" stroke-width="2.975" stroke-miterlimit="4" stroke-dasharray="none" stroke-opacity="1"/></g></g><g transform="matrix(-.02068 -.06154 .07047 -.02256 551.325 337.83)" fill="#fff" fill-opacity="1" stroke-width="10.174" stroke-miterlimit="4" stroke-dasharray="none" stroke="#000"><path d="M89.487 526.47c-29.223 10.42-22.518 25.34-19.536 40.48 3.133 15.83 12.461 17.85 20.892 16.47 6.284-1.02 6.769-2.78 7.095-13.36 2.862 6.64 7.072 10.91 11.942 10.91 5.25 0 9.73-4.95 12.28-12.5 2.03 7.22 5.88 12.25 10.78 12.97 5.6.82 11.15-4.18 14.78-12.32 1.09 9.99 5.27 17.51 11.25 18.6 8.4 1.53 17.12-10.19 19.47-26.16 7.06-15.21 11.38-43.96-24.91-39.65-6.6-5.5-21.08-4.23-29.9-1-16.71-3.49-25.872.62-34.143 5.56z" stroke-linecap="round"/><path d="M90 526.65l7.552 43.66M122.86 520.93l-.38 47.12M154.29 522.36l-7.08 51.2"/></g><path d="M592.865 315.618c-.465-1.8-2.16-2.484-2.397-2.585-.577-.244-1.822-.337-2.676.503-1.246 1.228-1.177 1.74-.905 2.032.01.07.031.14.063.21.302.647.28 1.214.381 1.504.046.131.118.205.257.203.55-.008 1.157-.785 1.355-1.736.06-.285.014-.24-.008-.476.13-.114.547-.558.546-.553 0 0-.026.05-.058.085.444.652.976.864 1.73.647" fill="#fff" fill-opacity="1" stroke="#000" stroke-width=".705" stroke-linecap="round" stroke-miterlimit="4" stroke-dasharray="none"/></g></g><text y="297.954" x="675.488" style="line-height:125%;-inkscape-font-specification:inconsolata" xml:space="preserve" font-style="normal" font-variant="normal" font-weight="400" font-stretch="normal" font-size="11.021" font-family="inconsolata" letter-spacing="0" word-spacing="0" fill="#4e5197" fill-opacity="1" stroke="none" stroke-width=".276" stroke-linecap="butt" stroke-linejoin="miter" stroke-opacity="1"><tspan style="-inkscape-font-specification:'Laffayette Comic Pro';text-align:center" y="297.954" x="675.488" font-style="normal" font-variant="normal" font-weight="400" font-stretch="normal" font-family="Laffayette Comic Pro" text-anchor="middle" fill="#4e5197" fill-opacity="1" stroke-width=".276">thank you</tspan><tspan style="-inkscape-font-specification:'Laffayette Comic Pro';text-align:center" y="312.205" x="675.488" font-style="normal" font-variant="normal" font-weight="400" font-stretch="normal" font-family="Laffayette Comic Pro" text-anchor="middle" fill="#4e5197" fill-opacity="1" stroke-width=".276">the foundry !</tspan></text></g></g></svg>