<svg xmlns="http://www.w3.org/2000/svg" width="588.125" height="335.559" viewBox="0 0 551.367 314.587" version="1.1"><g transform="translate(-119.668 -47.86)"><g><g steps="1--" stroke="none" stroke-opacity="1"><path d="M667.49 119.733l-.341 156.148-73.449-.003.218-79.12-226.06.344v-47.82h61.923v-29.586z" fill="#f8f7fb" fill-opacity="1" fill-rule="evenodd" stroke-width=".372" stroke-linecap="butt" stroke-linejoin="miter"/><path d="M600.754 293.412a801.223 801.223 0 0 0-6.76-1.86l-.74-.186.683-2.665c.376-1.466.81-2.892.966-3.17.179-.319.097-.64-.22-.872-.604-.441-.274-1.553.46-1.553.28 0 1.752.317 3.271.705 1.52.388 2.842.627 2.938.53.465-.464-.45-1.269-3.253-2.863-2.272-1.292-3.303-1.696-3.988-1.565l-.925.176v-82.988h-88.41l.012 1.29c.008 1.177.234 1.48 2.555 3.44 1.4 1.183 2.789 2.15 3.086 2.15.422 0 .542.387.542 1.744 0 1.501.083 1.718.602 1.558 1.273-.39 5.1-1.227 5.64-1.232.739-.008 1.07.897.602 1.645-.278.445-.16 1.31.48 3.512.467 1.607.812 2.964.768 3.016-.116.135-13.85 3.862-14.232 3.862-.177 0-.663-1.277-1.082-2.838-.854-3.181-1.128-3.812-1.581-3.643-.172.064-.36-.218-.42-.629-.093-.655.242-.86 2.753-1.677l2.859-.931-.025-1.747c-.024-1.725-.055-1.772-2.473-3.886-1.808-1.581-2.633-2.092-3.157-1.955-.654.172-.71.037-.71-1.746v-1.932H367.86v-47.82h61.921v-29.586l50.914.086 50.913.087v-1.806c0-1.779.016-1.806 1.034-1.806 1.25 0 7.222-3.304 7.222-3.995 0-.6.177-.614-3.331.265-2.86.718-2.978.722-3.422.115-.341-.467-.361-.748-.077-1.09.286-.345.182-1.243-.413-3.55-.437-1.697-.71-3.173-.603-3.278.412-.413 14.175-3.947 14.396-3.697.13.146.602 1.62 1.05 3.275.448 1.656.995 3.01 1.215 3.01.532 0 .921 1.066.531 1.456-.17.17-1.452.67-2.85 1.113l-2.54.805-.102 2.27-.102 2.269h-1.674c-1.323 0-2.17.285-4.038 1.363-1.983 1.143-2.358 1.504-2.326 2.235l.04.873 65.938.02 65.937.02v156.49H593.53v1.547c0 1.769.63 2.082 1.379.684.323-.604.651-.804 1.09-.665.47.15.628.02.628-.512 0-.391.172-.71.384-.71.223 0 .315.357.22.857-.145.759.113 1.018 2.226 2.236 1.917 1.106 2.73 1.378 4.11 1.378h1.719l-.116 2.243-.116 2.242 2.822.86c1.552.473 2.912 1.006 3.023 1.185.11.18-.13.657-.535 1.062-.416.416-1.068 1.955-1.497 3.538-.605 2.226-.898 2.814-1.427 2.859-.366.032-3.375-.697-6.686-1.618zm6.967.96c.193-.575-13.13-4.21-13.623-3.716-.223.223-.172.395.148.503.529.177 12.725 3.528 13.101 3.6.127.024.295-.15.374-.387zm-.46-1.413c-.288-.246-12.052-3.317-12.71-3.317-1.155 0-.744.514.44.55.615.017 3.595.735 6.622 1.59 4.813 1.36 6.2 1.65 5.648 1.177zm1.06-.02c0-.269.085-.707.188-.975.144-.376-1.374-.901-6.709-2.317-3.792-1.007-6.895-1.947-6.895-2.09 0-.141.272-.217.602-.168.331.05.409.025.172-.057-.455-.157-.611-1.482-.172-1.461.142.008 3.231.834 6.864 1.838 4.833 1.336 6.65 1.712 6.77 1.4.112-.29-1.116-.776-3.854-1.522-2.21-.603-5.28-1.448-6.825-1.878l-2.807-.781-.35.723c-.607 1.249-1.165 3.34-.95 3.556.114.113.206-.052.206-.367 0-.316.116-.568.258-.56.77.04 13.568 3.723 13.011 3.745-.365.016-3.256-.671-6.426-1.523-3.169-.851-5.966-1.536-6.216-1.522-.25.017 2.486.835 6.081 1.824 4.163 1.144 6.505 1.947 6.45 2.21-.047.227.069.413.259.413s.344-.22.344-.488zm.54-2.303c.267-.43-.445-.991-1.227-.966-.284.012-.145.164.308.346.453.181.758.395.677.476-.081.081-2.696-.54-5.812-1.381-3.116-.84-5.804-1.483-5.974-1.427-.17.055 2.076.76 4.989 1.568s5.45 1.524 5.64 1.59c.68.241 1.167.17 1.4-.206zm-1.944-1.135c-.257-.253-4.515-1.277-4.67-1.123-.082.083.748.386 1.845.673 2.042.536 3.08.701 2.825.45zm3.469-1.185c0-.163-.658-.466-1.462-.674-1.411-.365-1.417-.372-.172-.205 2.085.28 1.493-.05-1.569-.873l-2.858-.768.201-1.603c.322-2.555.156-2.9-1.31-2.723-1.032.125-1.798-.153-4.253-1.544-2.685-1.52-3.952-1.835-3.642-.904.06.179 1.808 1.317 3.886 2.53 3.13 1.826 3.827 2.114 4.069 1.681.198-.354.089-.675-.341-1.001-.348-.264-.47-.485-.269-.49.2-.009.646.194.99.445.527.386.56.58.209 1.235-.317.591-.613.727-1.239.57-.627-.157-.777-.088-.63.293.105.275.653.601 1.219.725.565.124.95.304.855.399-.096.095-2.061-.318-4.369-.918-2.946-.766-4.303-.983-4.559-.728-.2.2-.296.425-.214.5.082.074 3.555 1.068 7.717 2.208 4.163 1.141 7.607 2.089 7.654 2.107.048.016.086-.1.086-.263zm-9.374-2.714c-3.169-.869-5.696-1.645-5.616-1.725.15-.15 11.95 2.955 12.208 3.213.339.339-1.161 0-6.592-1.488zm.258 2.343c-.379-.152-1.23-.368-1.892-.48-1.188-.2-1.185-.196.172.272 1.476.511 2.896.683 1.72.208zm-3.362-.918c-.114-.115-.41-.127-.659-.029-.275.11-.193.192.208.208.362.016.566-.066.451-.18zm-1.376-.344c-.114-.115-.41-.127-.659-.029-.275.11-.193.192.208.208.362.016.566-.066.451-.18zm33.463-16.525c0-4.897-.082-5.784-.562-6.135-.465-.34-.29-.41 1.017-.41.868 0 1.499.128 1.401.286-.097.158-.4.287-.673.287-.412 0-.495.985-.495 5.848v5.848h36.466v-3.087l-11.267-.09-11.266-.091-.091-11.439-.09-11.438h22.714v-94.26h-11.697v-16.169h11.697v-18.92h-9.616l-.094 5.762-.094 5.762-7.998.092-7.999.093v-11.71h-2.924l.095 10.828.096 10.828-.784.195c-.43.107-4.46.15-8.954.095l-8.17-.1v2.924h-10.39l.123-1.548c.103-1.294.025-1.548-.48-1.548-.565 0-.605-.729-.605-10.837v-10.836h-71.89l-.09 12.814-.09 12.815-30.696.088-30.696.088-.191-.776c-.106-.427-.148-6.233-.094-12.902l.099-12.127h-45.582v29.586h-38.53v8.256h56.419v-5.16h3.44c2.064 0 3.44.137 3.44.344 0 .19.426.364.946.39.811.041.836.069.172.196-.932.18-1.058 1.488-.223 2.323.339.339.475.852.355 1.332-.176.7-.072.781.997.781 1.14 0 1.193-.055 1.193-1.238 0-1.204-.032-1.235-1.163-1.102-.674.078-1.271-.041-1.42-.279-.182-.297.025-.37.734-.258.544.086.796.09.56.012-.238-.079-.428-.403-.425-.72.003-.366.097-.436.258-.194.139.212.6.493 1.027.626.63.196.774.492.774 1.594v1.353h135.54v-.785c0-.556.3-.898 1.032-1.174.791-.299 1.013-.579.946-1.194-.077-.716.073-.815 1.375-.909.804-.058 1.462-.262 1.462-.452 0-.217 1.461-.317 3.903-.269l3.903.078 4.24-2.35c2.331-1.294 4.716-2.403 5.299-2.465.583-.062 1.37-.171 1.748-.241.378-.07.804-.148.946-.172.141-.024.258-.315.258-.646 0-.68 3.233-2.663 3.784-2.322.647.4.337 1.032-.843 1.72-1.072.625-1.136.748-.698 1.338.423.569.608.597 1.507.224 1.012-.419 1.754-.273 1.754.345 0 .565-3.304 2.048-3.694 1.658-.241-.241-.72.008-1.511.78-.638.623-1.16 1.273-1.16 1.445 0 .328-6.608 4.202-8.084 4.738-.83.302-.835.294-.172-.224.379-.295 2.275-1.417 4.215-2.493 1.939-1.076 3.526-2.081 3.526-2.234 0-.28-1.947.74-7.854 4.114-1.765 1.009-3.352 1.834-3.526 1.834-.174 0-.316.155-.316.344 0 .466.168.44 1.647-.259 1.085-.511 2.115-.586 6.867-.5 7.765.143 7.263.759-.618.759h-6.21l-.826.892c-.633.683-.852 1.352-.93 2.838l-.102 1.946-3.612.028-3.613.029 3.269-.2 3.268-.198.186-1.618.186-1.618-1.906 1.067c-1.049.588-2.053 1.2-2.233 1.36-.609.545-1.586.297-1.899-.481-.299-.744-.312-.737-.332.172-.02.905-.098.946-1.767.946-1.473 0-1.728-.094-1.63-.598.129-.673 1.31-1.054 1.31-.423 0 .224-.231.317-.515.208-.284-.109-.516-.048-.516.136 0 .183.523.333 1.164.333.874 0 1.208-.171 1.343-.688.164-.625.013-.688-1.68-.688h-1.86v-3.44H459.712v1.204c0 .662-.166 1.204-.369 1.204-.607 0-1.351.934-1.351 1.695 0 .613-.212.713-1.511.713-1.026 0-1.575.166-1.71.516-.14.364-.708.516-1.939.516h-1.74l-3.125 4.816c-1.718 2.65-3.273 4.816-3.456 4.816-.629 0-2.514 2.182-2.41 2.79.13.769-1.586 3.403-2.216 3.403-.635 0-.592-.87.094-1.918.53-.808.525-.89-.085-1.35-.588-.444-.74-.385-1.592.614-.77.903-1.001 1.014-1.268.605-.45-.692 1.094-3.227 2.115-3.47.501-.119.825-.49.902-1.032.065-.465.272-1.032.46-1.26.186-.229.236-.583.11-.789-.127-.205 1.357-2.86 3.299-5.9 1.942-3.04 3.547-5.897 3.567-6.35l.036-.823h-55.926v37.905l33.97-.119 33.97-.119v-27.177l3.527-.098 3.526-.098v27.589l4.485-.108 4.485-.108.072-12.728.073-12.729 30.789.118 30.79.118.09 12.598c.062 8.706-.02 12.487-.267 12.24-.237-.237-.325-4.43-.262-12.458l.094-12.1H476.22v25.113h117.698l-.109 39.56-.109 39.561h36.294zm-22.976 1.499c-1.675-1.697-1.756-1.856-1.222-2.391.436-.436.48-.686.186-1.041-.307-.37.189-1.041 2.355-3.195 2.339-2.325 2.832-2.67 3.342-2.336.5.328.839.16 2.061-1.023l1.464-1.415 1.89 1.866 1.89 1.867-1.446 1.473c-1.136 1.158-1.356 1.563-1.026 1.892.33.33-.185 1.027-2.407 3.26-2.562 2.576-2.88 2.794-3.396 2.326-.506-.458-.618-.457-1.005.012-.24.289-.538.525-.663.525s-1.035-.818-2.023-1.817zm2.53.748c.376-.608-2.419-3.203-3.147-2.924-.52.2-.392.453.9 1.77 1.594 1.624 1.87 1.765 2.247 1.154zm4.225-2.113l2.435-2.494-2.473-2.494-2.473-2.495-2.503 2.486-2.503 2.486 2.486 2.503c1.367 1.376 2.51 2.502 2.54 2.502.033 0 1.151-1.122 2.49-2.494zm2.982-7.81l-1.553-1.554-1.28 1.28-1.281 1.281 1.524 1.552 1.523 1.553 1.31-1.28 1.31-1.28zm12.083.158c-.11-.29-.541-.477-.983-.43-.686.073-.8-.091-.897-1.292-.062-.757-.333-1.5-.602-1.651-.37-.208-.49-1.067-.49-3.503 0-3.048.042-3.242.773-3.466 1.335-.409 1.593-.783 1.247-1.8-.732-2.152-2.652-11.942-2.406-12.271.504-.675.38-3.251-.172-3.56-.286-.16-.66-.899-.833-1.64-.477-2.058-.41-2.554.343-2.554.496 0 .731.315.898 1.204.183.979.38 1.204 1.052 1.204.77 0 .81-.092.605-1.376-.195-1.226-.143-1.376.478-1.376.557 0 .785.362 1.127 1.789.32 1.334.329 1.822.037 1.92-.535.179-.497.834.119 2.013.282.542.515 1.28.516 1.64.002.682 2.457 12.654 2.646 12.906.519.69.269-1.068-.831-5.855l-1.297-5.641v-40.564c0-33.356.08-40.59.455-40.715.377-.126.418 6.62.234 39.188-.132 23.365-.094 40.25.094 41.577.65 4.599 2.321 12.035 2.706 12.038.216.001.49.39.609.863.168.67.436.86 1.213.86 2.006 0 2.086.139 2.086 3.629 0 1.77-.155 3.306-.344 3.424-.19.116-.344.91-.344 1.763 0 1.396-.07 1.53-.69 1.332-.458-.145-.76-.04-.897.32-.296.773-6.154.796-6.45.025zm2.875-1.62v-1.65h-2.408v3.302h2.408zm2.883-.049l.041-1.602h-2.408l.065 1.634c.036.9.073 1.635.085 1.635 2.191 0 2.173.016 2.217-1.667zm-5.745-.396c-.046-.892-.217-1.203-.664-1.204-.364 0-.602.26-.602.658 0 .363-.094.905-.208 1.204-.157.409.012.545.663.545.78 0 .866-.13.811-1.203zm-.986.624c.248-.1.545-.088.66.028.114.115-.09.196-.452.18-.401-.016-.483-.097-.208-.207zm8.598-.625c-.06-1.586-1.156-1.721-1.383-.17-.173 1.179-.059 1.373.808 1.373.488 0 .61-.256.575-1.204zm-1.03.625c.248-.1.545-.088.66.028.114.115-.09.196-.452.18-.401-.016-.482-.097-.208-.207zm-6.859-4.496c-.333-1.277-.614-2.67-.625-3.096-.016-.538-.23-.774-.708-.774-.637 0-.688.23-.688 3.096v3.097h2.627zm8.361-.774l.11-3.097h-1.26l-1.259.001.497 2.13c.273 1.172.425 2.318.338 2.547-.088.229-.952.586-1.92.794-2.676.574-3.593.391-1.04-.207 1.23-.288 2.284-.566 2.341-.619.058-.052-.16-1.39-.483-2.972-.323-1.582-.59-3.082-.592-3.332-.002-.293-.26-.386-.72-.263-.395.106-1.608.37-2.695.586-1.088.217-1.979.516-1.979.666 0 .958 1.515 6.393 1.84 6.6.218.139 1.817.255 3.554.258l3.158.003.11-3.097zm-9.172-10.683c-.665-3.111-1.205-5.889-1.2-6.173.017-.903.56.34.824 1.892.366 2.15.55 2.58 1.102 2.58.282 0 .427-.139.323-.307-.389-.629-1.132-4.853-.854-4.853.275 0 .681 1.278 1.174 3.698.126.615.418 1.118.65 1.118.326 0 .303-.611-.098-2.666-.287-1.466-.53-2.694-.54-2.728-.07-.218-3.28.692-3.28.93 0 .396 2.369 11.33 2.644 12.205.12.378.272.524.341.324s-.42-2.908-1.086-6.02zm3.21 5.654c.843-.169 1.005-.33.78-.774-.157-.308-.562-1.907-.9-3.552l-.616-2.992-1.068.203c-.587.112-1.095.221-1.129.243-.037.02.232 1.277.59 2.789.359 1.512.657 3.097.663 3.522.017.845.106.876 1.68.561zm-2.184-13.547c.587-.252.536-.296-.344-.296-.568 0-1.342.133-1.72.296-.587.252-.536.295.344.295.568 0 1.342-.133 1.72-.295zm0-1.125c.23-.23.06-.274-.516-.13-.473.117-1.13.216-1.462.218-.331.003-.602.155-.602.34 0 .408 2.093.061 2.58-.428zm-.853-.595c.162 0 .271-.31.242-.688-.056-.755-.089-.768-1.155-.482-.526.141-.684.389-.557.875.11.418.369.604.676.486.275-.105.632-.192.794-.192zm.462-1.977c.308-.183.087-2.743-.268-3.097-.419-.42-.521.172-.215 1.242.289 1.006.237 1.142-.544 1.44-1.469.558-1.778.397-2.022-1.049-.128-.756-.384-1.376-.57-1.376-.185 0-.26.272-.167.602.093.331.273 1.117.4 1.745.227 1.125.252 1.14 1.66.907.786-.13 1.563-.316 1.726-.414zm2.197-67.623c-.055-4.386-.1-.698-.1 8.194 0 8.893.045 12.482.1 7.975.054-4.507.054-11.783 0-16.169zm-32.496 92.92l-2.825-1.045.073-4.634.072-4.634 2.58-.827c2.356-.755 3.073-.82 8.238-.742l5.657.086.69 1.182c.98 1.679 1.193 6.518.393 8.928-.883 2.66-1.23 2.795-7.056 2.76-4.676-.029-5.179-.097-7.822-1.074zm13.933-.874c.841-1.87.827-8.078-.02-9.633l-.611-1.118h-5.237c-4.666 0-5.516.094-7.817.86l-2.581.86v8.58l2.236.829c2 .742 2.826.833 7.844.87l5.607.042zm-16.784-27.435v-14.965h19.264v29.93H595.25zm18.655 0l.094-14.62h-18.061v29.24h17.874zm31.974 5.59l.113-4.558h-7.224l-.099-3.354-.098-3.355h7.427l-.003-1.118-.003-1.118h9.03c4.967 0 9.03.117 9.03.259v17.802h-18.285l.113-4.558zm17.83-4.386v-8.6h-17.201v17.2h17.2zm-17.889-3.526v-2.838h-6.535l-.001 2.838v2.838h6.536v-2.838zm-.276-13.331l.104-4.817h-3.539l-3.539.002.1-3.183.098-3.182h6.909l-.14-.946-.139-.946h18.999v17.889h-18.957l.104-4.817zm18.239-4.127l-.097-8.6h-17.522v17.2h17.717zm-18.247-3.785l.112-2.753h-3.182l-3.182.001v5.504h6.14l.112-2.753zm-44.266 4.74l-3.096-1.05-1.605-3.234-1.606-3.233 1.108-3.342 1.108-3.34 3.174-1.654 3.174-1.653 3.454 1.132 3.455 1.132 1.66 3.22 1.66 3.22-1.102 3.321-1.101 3.322-3.077 1.621c-1.693.892-3.31 1.614-3.594 1.604-.283-.012-1.909-.49-3.612-1.067zm6.683-.77l3.056-1.536 1.083-3.25 1.083-3.252-1.528-3.043-1.528-3.042-2.897-.944c-1.593-.519-3.162-.943-3.486-.943-.324 0-1.81.614-3.301 1.363l-2.712 1.364-1.09 3.275-1.092 3.274 1.528 3.016 1.528 3.016 3.056 1.096a287.91 287.91 0 0 0 3.15 1.118c.051.017 1.468-.668 3.15-1.513zm38.553-13.234v-2.054l-1.925-.103-1.925-.103-.053-2.667-.053-2.666h3.957v-5.16h14.806l-.093 7.31-.093 7.31-7.31.094-7.31.093zm14.177-5.356l-.1-7.052h-13.659l.03 6.873.028 6.874 6.9.1c3.794.055 6.9.136 6.9.18 0 .042-.046-3.096-.1-6.975zm-14.177.344v-2.236h-3.44v4.472h3.44zm-32.337.516v-3.096h6.192v6.192h-6.192zm5.504 0v-2.752h-4.816v5.504h4.816zM437.69 189.38v-6.346l4.988-.104 4.989-.104-.001 6.45v6.45h-9.977zm9.632-.016v-6.02h-9.288v12.04h9.288zm3.784 3.096v-3.268h5.16v6.536h-5.16zm4.472 0v-2.924h-4.128v5.848h4.128zm120.654 1.998c-.56-.146-.602-.679-.516-6.583l.094-6.423h17.2l.094 6.408.094 6.409-.781.209c-.893.24-15.258.221-16.184-.02zm16.262-6.47v-6.02h-16.169v12.04h16.169zm4.38.94l-2.655-2.67 7.657-7.652 7.658-7.652 2.74 2.757 2.742 2.758-7.56 7.565c-4.158 4.161-7.642 7.566-7.743 7.566-.1 0-1.378-1.202-2.838-2.672zm10.238-5.237l7.214-7.222-2.395-2.414-2.396-2.414-7.314 7.307-7.313 7.308 2.31 2.328c1.27 1.28 2.393 2.327 2.494 2.327.102 0 3.431-3.25 7.4-7.22zm4.127 4.325c-1.251-1.252-1.218-3.65.065-4.659.82-.645 1.298-.713 4.386-.627l3.465.098v5.848l-3.53.098c-3.366.094-3.57.058-4.386-.758zm7.4-2.264v-2.408h-3.398c-2.31 0-3.506.137-3.735.43-.638.816-.742 2.09-.263 3.236l.48 1.15h6.916zm25.88-7.655c.05-3.548.209-6.45.351-6.45h17.114v12.901h-17.558l.093-6.45zm17.122-.085v-6.02h-16.857v12.04h16.857zm-47.745-6.278l.1-3.01 3.182-.1 3.182-.098v6.218h-6.563zm5.775.085v-2.58h-5.16v5.16h5.16zm22.683-7.133c-.012-.05-.05-1.446-.085-3.101l-.064-3.01h19.12l-.1 3.01-.1 3.01-9.374.091c-5.156.05-9.384.05-9.396 0zm18.255-3.187v-2.58h-17.889v5.16h17.889zm-203.092-7.225c-.109-.283-.048-.516.136-.516.183 0 .333.233.333.516 0 .284-.061.517-.136.517-.074 0-.224-.233-.333-.517zm168.588-2.452c-.133-.133-.242-1.83-.242-3.772 0-3.404.033-3.556.907-4.243 1.072-.843 2.523-.914 3.922-.19 1.26.65 1.419 1.287 1.293 5.153l-.101 3.096-2.768.099c-1.523.054-2.877-.012-3.01-.143zm5.262-3.654c0-3.666-.393-4.386-2.395-4.386-2.13 0-2.374.422-2.49 4.3l-.103 3.44 2.494-.113 2.494-.113zm-162.372-2.997v-3.109h6.219l-.1 3.01-.1 3.01-3.01.1-3.01.1zm5.502-.126l-.001-2.467-2.578-.008-2.579-.008v2.586l-.001 2.587 2.58-.113 2.582-.114-.001-2.467zm-41.969.629l-2.222-2.243 2.064-2.064 2.064-2.064 2.222 2.243 2.223 2.242-2.064 2.065-2.064 2.064zm3.784-3.784l-1.876-1.9-1.7 1.7-1.7 1.7 1.864 1.893 1.864 1.893 1.712-1.693 1.713-1.693zm147.382 1.433c-.096-.252-.13-1.761-.074-3.354l.1-2.895 2.622-.1 2.621-.1-.154 2.508c-.207 3.353-.442 3.828-.348.7l.075-2.494h-2.15l-2.15.001v5.446l2.204.116c1.213.063 2.133-.001 2.044-.143-.088-.142.003-.258.204-.258.2 0 .365.232.365.516 0 .705-5.089.76-5.358.057zm-146.628-2.764c-1.963-2.024-2.475-2.767-2.475-3.592 0-1.55.337-2.16 1.456-2.63 1.597-.672 2.414-.291 5.035 2.347l2.456 2.473-1.999 1.977-1.998 1.978zm3.669-3.84c-2.524-2.459-3.806-2.844-5.112-1.537-1.233 1.232-.889 2.267 1.617 4.862l2.305 2.388 1.737-1.744 1.737-1.744zm129.567 4.48c-2.411-.854-2.582-1.308-2.566-6.83.016-4.622.068-5.008 1.118-7.787l1.104-2.924h9.289l.924 2.58c.85 2.37.926 3.019.946 7.985.02 5.137-.016 5.44-.734 6.108-.416.388-1.306.857-1.978 1.044-1.777.494-6.505.392-8.103-.175zm8.708-.753l1.269-.62.103-5.16c.09-4.566.012-5.467-.688-7.825l-.79-2.664h-4.301l-4.3.003-.946 2.836c-.848 2.54-.946 3.325-.946 7.54 0 5.645-.037 5.583 3.956 6.605 1.32.338 5.383-.1 6.643-.715zm-119.245-.57l-3.207-1.099-1.709-3.152-1.71-3.152 1.153-3.443 1.151-3.443 3.27-1.653 3.268-1.653 3.358 1.165 3.359 1.164 1.597 3.217 1.598 3.216-1.103 3.366-1.104 3.366-3.276 1.628c-1.802.895-3.313 1.615-3.358 1.6l-3.287-1.126zm6.638-.985l2.925-1.451 1.054-3.163 1.054-3.164-1.552-3.09-1.552-3.09-3.156-1.059-3.155-1.058-3.134 1.625-3.134 1.625-1.055 3.096-1.054 3.096 1.567 3.006 1.568 3.007 2.924 1.008c1.608.555 3.115 1.021 3.349 1.036.234.016 1.741-.626 3.35-1.424zm129.32 1.02l-3.132-1.057-1.61-3.242-1.61-3.242 1.11-3.388 1.11-3.387 3.126-1.615 3.126-1.615 3.551 1.14 3.55 1.14 1.594 3.21 1.594 3.207-1.177 3.39-1.178 3.392-3.207 1.593c-1.764.876-3.321 1.579-3.46 1.562-.14-.016-1.664-.506-3.386-1.088zm10.784-5.639l1.061-3.22-1.467-3.01-1.466-3.009-3.384-1.108-3.383-1.109-2.977 1.59-2.977 1.591-.918 2.958c-.505 1.627-.912 3.19-.904 3.475.008.283.668 1.752 1.466 3.263l1.45 2.748 3.096 1.047 3.096 1.048 3.123-1.522 3.123-1.52zm-59.75 1.564c-.585-1.361-.894-1.717-1.38-1.59-.511.134-.932-.503-2.277-3.442-1.516-3.315-1.6-3.634-1.04-3.948.435-.243.549-.582.398-1.185-.193-.767-.008-.935 2.05-1.869 2.268-1.028 2.92-1.054 2.92-.118 0 .346.242.446.774.321.695-.162.939.178 2.393 3.348 1.564 3.408 1.597 3.545.958 3.993-.648.454-.644.5.186 2.139.467.92.849 1.763.849 1.872 0 .21-4.352 2.233-4.806 2.233-.149 0-.61-.79-1.024-1.754zm3.255.218l1.915-.847-.744-1.475c-.409-.81-.783-1.52-.83-1.575-.049-.055-.946.279-1.995.743l-1.907.843.726 1.58c.4.868.77 1.579.823 1.579.053 0 .958-.382 2.012-.848zm-1.704-3.78l3.212-1.531-1.358-2.78c-.747-1.529-1.358-2.94-1.358-3.136 0-.453-.745-.213-3.99 1.287-1.555.718-2.535 1.366-2.434 1.609.092.224.713 1.591 1.38 3.04.666 1.447 1.12 2.724 1.006 2.837-.49.491.541.105 3.542-1.326zm-1.276-7.947c.066-.06.025-.266-.096-.458-.138-.223-.806-.099-1.84.343-1.903.812-2.302 1.142-1.99 1.648.152.245.836.066 2.018-.528.983-.493 1.842-.946 1.908-1.005zm-116.073 6.967c-.318-.826.012-9.297.365-9.415.222-.074.307 1.57.24 4.616l-.102 4.731 4.06-.063 4.059-.063v-4.667c0-2.567.116-4.667.258-4.667.142 0 .258 2.245.258 4.988v4.989h-4.483c-3.366 0-4.526-.112-4.655-.449zm2.86-9.094c.993-.07 2.618-.07 3.611 0 .994.07.181.127-1.806.127-1.986 0-2.8-.057-1.806-.127zm233.325 138.89v-11.008h-22.189v22.017h22.19zm-155.181-45.4c3.477-.942 6.368-1.759 6.426-1.816.057-.058-.193-1.184-.556-2.503-.482-1.747-.606-1.99-.46-.892.142 1.07.089 1.436-.186 1.266a.452.452 0 0 1-.154-.618c.15-.24.037-.302-.313-.168-.302.116-1.101.313-1.777.44-.676.127-1.228.371-1.228.543 0 .172.41.21.911.084.641-.161.84-.112.668.165-.146.236-.017.394.33.394.367 0 .501-.184.374-.516-.122-.32.001-.516.328-.516.31 0 .425.163.28.399-.17.272-.017.337.495.204.56-.147.742-.04.742.437 0 .682.126.638-8.204 2.914-2.526.69-4.641 1.205-4.702 1.144-.06-.061-.217-.536-.348-1.056-.185-.738-.116-.945.316-.945.305 0 .554-.155.554-.344 0-.45-.456-.44-.916.02-.259.258-.431.04-.588-.743-.122-.61-.182-1.147-.133-1.194.05-.048 3.03-.894 6.625-1.88 3.595-.987 6.59-1.842 6.656-1.9.066-.06.033-.25-.076-.425-.11-.178-2.81.394-6.14 1.3-3.27.89-6.358 1.72-6.863 1.843-.874.214-.902.286-.581 1.515.763 2.923 1.406 4.559 1.79 4.559.225 0 3.253-.77 6.73-1.712zm-5.129-.025c.377-.255.238-.287-.516-.118-1.265.283-1.54.48-.66.473.363-.003.892-.162 1.176-.355zm1.72-.537c0-.074-.232-.135-.516-.135-.284 0-.516.15-.516.333 0 .183.232.244.516.136.284-.11.516-.26.516-.333zm-2.845.001c-.115-.114-.411-.127-.66-.029-.274.11-.192.192.208.208.363.017.566-.066.452-.18zm4.221-.345c0-.075-.232-.136-.516-.136-.284 0-.516.15-.516.333 0 .183.232.244.516.136.284-.11.516-.26.516-.333zm-2.494-.008c.426-.114.774-.35.774-.524 0-.174-.308-.15-.688.053-.416.222-.688.237-.688.036 0-.182.851-.522 1.892-.754 1.04-.233 1.892-.554 1.892-.713 0-.357.186-.377-2.064.227s-2.516.624-2.236.172c.117-.19.058-.344-.13-.344-.19 0-.32.31-.292.688.029.378.183.688.343.688.16 0 .195.154.078.344-.242.393.017.422 1.118.127zm4.558-.471c.459-.297.459-.332 0-.315-.283.012-.825.152-1.204.315l-.688.295.688.016c.379.013.92-.13 1.204-.314zm-2.408-.333c0-.184-.232-.244-.516-.136-.283.11-.516.26-.516.333 0 .075.232.136.516.136.284 0 .516-.15.516-.333zm4.128-.22c0-.074-.232-.136-.516-.136-.283 0-.516.15-.516.333 0 .184.232.244.516.136.284-.11.516-.26.516-.333zm-8.256-.344c0-.074-.232-.135-.516-.135-.283 0-.516.15-.516.333 0 .183.232.244.516.135.284-.109.516-.259.516-.333zm5.504.22c0-.184-.232-.244-.516-.136-.284.11-.516.26-.516.333 0 .075.232.136.516.136.284 0 .516-.15.516-.333zm1.634-.228c.426-.114.774-.35.774-.523 0-.175-.307-.152-.688.051-.549.295-.688.262-.688-.16 0-.594-.536-.709-.86-.184-.116.19-.04.344.173.344.21 0 .288.155.171.344-.242.393.017.423 1.118.128zm2.401.012c-.114-.114-.41-.127-.66-.028-.274.11-.192.191.209.208.362.016.566-.067.451-.181zm-7.13-.689c0-.074-.233-.135-.517-.135-.284 0-.516.15-.516.333 0 .183.232.244.516.135.284-.109.516-.259.516-.333zm8.506.345c-.114-.114-.41-.126-.66-.028-.274.11-.192.191.209.208.362.016.566-.066.451-.18zm-11.352-.344c-.114-.114-.411-.126-.66-.028-.274.11-.192.191.209.208.362.016.565-.066.451-.18zm4.221-.345c0-.074-.232-.135-.516-.135-.283 0-.516.15-.516.332 0 .184.232.244.516.136.284-.11.516-.26.516-.333zm5.504.22c0-.184-.232-.244-.516-.136-.284.109-.516.259-.516.333 0 .074.232.135.516.135.284 0 .516-.15.516-.333zm-8.35-.219c-.114-.114-.41-.126-.659-.028-.274.11-.193.191.208.208.363.016.566-.066.452-.18zm4.222-.344c0-.075-.232-.136-.516-.136-.284 0-.516.15-.516.333 0 .183.232.244.516.136.283-.11.516-.26.516-.333zm2.58.208c.116-.19-.029-.344-.324-.344-.294 0-.536.155-.536.344 0 .19.146.344.324.344.178 0 .42-.155.536-.344zm-4.393-.552c-.115-.114-.411-.126-.66-.028-.274.11-.193.191.208.208.363.016.566-.066.452-.18zm3.705-.136c.434-.186.497-.295.172-.295-.284 0-.826.133-1.204.295-.434.187-.497.296-.172.296.283 0 .825-.133 1.204-.296zm-2.33-.208c-.114-.114-.41-.126-.659-.028-.274.11-.192.191.208.208.363.016.566-.066.452-.18zm-.007-2.08c3.933-1.07 7.218-2.001 7.3-2.07.082-.069-.012-.285-.207-.482-.246-.245-1.667-.024-4.577.71-2.321.586-4.29.996-4.375.91-.085-.084.32-.259.901-.386.972-.214 1.057-.346 1.057-1.658 0-1.405-.008-1.414-.55-.639-.525.748-.584.758-1.205.196-.633-.573-.653-.54-.653 1.124v1.716l-2.81.832c-1.545.457-2.874 1.025-2.953 1.261-.227.682.493.547 8.072-1.514zm-6.502 1.021c.248-.1.545-.087.66.029.114.114-.09.196-.452.18-.401-.016-.483-.098-.208-.208zm1.376-.344c.248-.1.545-.087.66.029.114.114-.09.196-.452.18-.401-.016-.483-.097-.208-.208zm2.408-.688c.249-.1.545-.087.66.029.114.114-.09.195-.452.18-.4-.016-.482-.098-.208-.208zm1.376-.344c.249-.1.545-.087.66.029.114.114-.09.195-.452.18-.4-.016-.482-.097-.208-.208zm2.408-.688c.249-.1.545-.087.66.029.114.114-.09.195-.452.18-.4-.016-.482-.098-.208-.208zm1.376-.344c.249-.1.545-.087.66.029.114.114-.09.195-.452.18-.4-.016-.482-.098-.208-.208zm1.613-.453c.378-.163.92-.295 1.204-.295.326 0 .261.11-.172.295-.379.163-.92.295-1.205.295-.325 0-.261-.11.172-.295zm2.171-.579c.249-.1.545-.087.66.029.114.114-.09.195-.452.18-.4-.016-.482-.098-.208-.208zm-4.844 4.155c-.115-.114-.411-.126-.66-.028-.274.11-.192.191.208.208.363.016.566-.066.452-.18zm2.752 0c-.115-.114-.411-.126-.66-.028-.274.11-.192.191.208.208.363.016.566-.066.452-.18zm-.28-.68c.388-.388-.255-.338-1.175.092l-1.032.482 1.031-.215c.567-.118 1.096-.28 1.176-.359zm1.656.337c-.115-.115-.411-.127-.66-.03-.274.11-.192.193.208.209.363.016.566-.066.452-.18zm-.25-.814c0-.183-.233-.244-.517-.135-.283.109-.516.259-.516.333 0 .074.232.135.516.135.284 0 .516-.15.516-.333zm1.282-.218c-.114-.115-.41-.127-.66-.03-.274.11-.192.193.209.209.362.016.566-.066.451-.18zm-6.765-5.228c-.332-.056-2.023-1.34-3.76-2.854-2.895-2.525-3.863-3.014-3.81-1.925.013.226 1.52 1.665 3.354 3.2 3.212 2.688 3.36 2.77 4.076 2.236.659-.492.675-.565.14-.657zm-8.071-4.485c-.098-.158.062-.631.356-1.05.502-.716.584-.73 1.362-.22.811.531.827.521.827-.498 0-1.003-.054-1.04-1.548-1.04h-1.548v1.548c0 .86.162 1.548.364 1.548.2 0 .285-.13.187-.288zm-110.72-26.63l.088-23.307h-23.088l.054 23.134c.03 12.724.112 23.23.182 23.347.07.116 5.2.193 11.402.172l11.274-.041zm74.733 9.976v-13.503h-5.848V196.764h5.849l-.001-13.502zm-24.574-5.135c.465-.883.437-.95-.67-1.634-1.532-.948-2.072-.9-2.64.232-.797 1.59-.765 1.68.19.513l.917-1.122 1.019.725 1.018.725-.702 1.19c-.386.655-.697 1.298-.691 1.429.016.324.962-.927 1.559-2.058zm.306-3.193c-.867-.656-1.068-.652-1.33.028-.128.334.033.742.394 1.011.505.375.692.369 1.108-.04.437-.43.416-.556-.172-1zm1.564.016c0-.267-2.443-1.656-2.613-1.486-.092.092.341.494.964.893 1.089.697 1.649.898 1.649.593zm.344-.814c0-.345-2.058-1.57-2.274-1.355-.09.09.347.49.97.888 1.29.827 1.304.832 1.304.467zm4.622-5.704c1.827-2.813 3.273-5.259 3.214-5.436-.114-.34-7.148 10.394-7.148 10.906 0 .511.518-.209 3.934-5.47zm-2.958 2.797c.89-1.354 1.289-2.264 1.082-2.47-.18-.18-.382-.26-.451-.178-.909 1.088-2.9 4.418-2.738 4.58.435.435.73.165 2.107-1.931zm-1.168-.918c1.35-2.221 1.424-2.449.794-2.426-.55.02-3.086 4.055-2.82 4.487.315.508.708.107 2.026-2.061zm.824-3.849c1.956-3.04 3.465-5.618 3.354-5.73-.111-.11-.249-.137-.306-.058-.058.079-1.476 2.31-3.153 4.96a1750.534 1750.534 0 0 1-3.547 5.59c-.274.425-.365.772-.202.77.164-.002 1.898-2.492 3.854-5.532zm4.182-1.137l1.812-2.717-.819-.63c-.45-.346-.925-.633-1.055-.637-.414-.016-4.158 5.981-3.809 6.098.185.062.628.328.986.592.767.566.597.725 2.885-2.706zm5.499-3.252l-.008-1.944-.568 1.152c-.312.633-1.005 1.475-1.54 1.87-.535.396-.973.808-.973.916 0 .107.697.14 1.548.072l1.548-.123-.008-1.943zm3.104.4c0-.74-.12-.844-.774-.668-.426.114-.968.21-1.204.212-.237.002-.43.275-.429.606 0 .447.313.618 1.204.664 1.075.055 1.203-.033 1.203-.814zm-1.032.237c0-.19.164-.344.364-.344.2 0 .269.155.152.344-.117.189-.281.344-.364.344-.084 0-.152-.155-.152-.344zm149.408-2.414c.254-.22-2.027-4.81-2.39-4.81-.157 0-5.317 2.755-5.618 3-.157.13 1.029 2.593 1.987 4.128l.478.765 2.632-1.421c1.448-.782 2.758-1.53 2.911-1.662zm-151.989.012c.863-1.322 1.645-2.6 1.737-2.84.184-.481-3.096-2.792-4.006-2.822-.321-.012-1.305 1.079-2.313 2.562-1.52 2.235-1.68 2.626-1.203 2.924.304.19 1.266.831 2.138 1.426.872.596 1.697 1.099 1.832 1.119.135.02.952-1.047 1.815-2.369zm144.65 1.2c-.013-.654-1.198-1.807-2.07-2.01-.827-.193-.876-.128-.86 1.138l.016 1.342 1.46-.063c.802-.037 1.457-.218 1.454-.407zm-140.347-1.204v-1.376h-1.525c-1.184 0-1.57.142-1.727.64-.366 1.152.14 1.724 1.648 1.861.788.072 1.471.158 1.518.19.048.033.086-.558.086-1.315zm1.032-.344c0-.568-.154-1.032-.344-1.032-.19 0-.344.464-.344 1.032 0 .567.155 1.032.344 1.032.19 0 .344-.465.344-1.032zm138.604-1.969c.587-.515 1.067-1.057 1.067-1.204 0-.147-.743-.267-1.65-.267h-1.652l.14 1.204c.17 1.452.671 1.516 2.095.267zm-2.717-.267c0-1.121-.501-1.12-.566 0-.028.473.089.86.259.86.169 0 .307-.387.307-.86zm13.936-1.064c1.606-.868 2.92-1.73 2.92-1.914 0-.568-.693-1.667-1.051-1.667-.187 0-1.635.74-3.22 1.646l-2.878 1.645.49.935c.269.514.563.935.653.935.091 0 1.48-.711 3.086-1.58zm-157.502-2.548c.476 0 1.316.32 1.865.71l1 .712v-.838c0-.71-.2-.865-1.3-1.012-.714-.096-2.107-.096-3.096-.001l-1.797.172v4.191l1.23-1.967c.968-1.547 1.416-1.967 2.098-1.967zm150.003 1.708c1.017-.573 1.99-.955 2.164-.848.35.217 1.72-.534 1.72-.943 0-.144-1.394-.261-3.097-.261h-3.096v1.548c0 .851.104 1.548.23 1.548.127 0 1.062-.47 2.079-1.043zm-2.8-.438c.067-.45-.18-.582-1.088-.582-.954 0-1.173.132-1.173.707 0 .59.18.686 1.088.583.698-.08 1.119-.333 1.173-.708zm-1.917.106c0-.19.164-.344.364-.344.2 0 .27.155.152.344-.117.189-.281.344-.365.344-.083 0-.151-.155-.151-.344zm13.492-2.796c6.125-3.433 5.956-3.328 5.729-3.555-.088-.087-2.616 1.229-5.618 2.924-3.003 1.696-5.589 3.083-5.747 3.083-.158 0-.288.155-.288.344 0 .189.072.344.16.344.09 0 2.682-1.413 5.763-3.14zm56.685-5.117v-7.568H655.79v15.137h11.352zm-50.96 5.178c1.024-.519 1.39-.873 1.151-1.113-.24-.24-1.075.053-2.62.918-1.249.698-2.27 1.384-2.27 1.526 0 .624.505.648 1.337.062.494-.349 1.575-.975 2.402-1.394zm.389-2.318c0-.612.016-.617-2.461.782-2.568 1.45-2.482 1.38-2.214 1.812.275.446 4.675-1.996 4.675-2.594zm1.3.239c-.431-.755-.91-1.375-1.064-1.376-.154-.001.068.616.493 1.373.426.757.905 1.376 1.065 1.376.16 0-.062-.618-.494-1.373zm.764-.519c-1-1.617-1.287-1.33-.315.316.41.694.82 1.186.913 1.093.093-.092-.177-.727-.598-1.409zm1.72-.18c0-.661-.453-1.368-.876-1.368-.71 0-.91.592-.45 1.328.391.626 1.326.654 1.326.04zm2.568-.227c.67-.32 1.216-.71 1.216-.87 0-.158-.457-.052-1.015.236-1.362.705-1.56.67-2.026-.351-.57-1.25-.519-1.399.633-1.876.856-.355 1.434-1.032.88-1.032-.387 0-2.6 1.477-2.6 1.734 0 .333 1.38 2.738 1.57 2.738.07 0 .674-.26 1.342-.58zm-85.862-16.798l.13-12.552h-60.98v25.285l30.36-.091 30.359-.09zm83.008 10.497l-.13-1.376h-8.873v2.752h9.135zm17.83-12.385v-10.664h-27.865v21.329h27.865zm19.093-4.988v-5.676h-14.965v10.995l7.483.1c4.115.054 7.482.135 7.482.178zM535.04 119.12c0-.522-.157-.704-.493-.575-.311.12-.693-.197-1.035-.859-.745-1.44-1.412-1.072-1.334.738.037.802.073 1.459.086 1.459h1.4c1.191 0 1.375-.102 1.375-.764zm3.24-3.4c2.708-1.563 3.878-2.422 3.75-2.753-.1-.264-.272-.48-.378-.48-.107 0-1.94 1.013-4.074 2.252-2.753 1.6-3.824 2.398-3.688 2.753.105.274.25.499.323.499.072 0 1.903-1.022 4.067-2.272zm4.754-1.646c.14-.21.179-.59.086-.842-.093-.251-.168-.895-.168-1.43 0-.948-.029-.963-1.188-.607-.653.2-1.267.573-1.365.828-.206.535.343.634.66.12.365-.591.86-.38 1.282.547.36.79.31.97-.438 1.57l-.843.678.86-.24c.473-.132.974-.413 1.114-.624zm-8.877-1.624c-.157-.255 0-.306.472-.157.775.246 2.774-.2 9.477-2.117 3.834-1.095 5.191-1.78 4.636-2.335-.164-.163-2.105.313-9.402 2.307-2.838.775-5.354 1.412-5.59 1.415-.458.008-.584.656-.201 1.038.379.379.861.259.608-.151zm12.515-3.639c.248-.099.545-.087.659.03.114.113-.09.195-.452.18-.4-.016-.482-.098-.208-.208zm-5.784.448c7.442-2.04 6.94-1.65 6.147-4.77-.228-.9-.529-1.635-.668-1.635-.14 0-.029.868.25 1.93.277 1.06.456 1.973.398 2.027-.059.053-2.805.827-6.104 1.717-3.298.891-6.18 1.69-6.405 1.777-.45.172-.996-.886-.631-1.222.125-.115.296-.016.38.222.085.236.313.43.506.43.194 0 .263-.232.154-.516-.122-.32.001-.516.328-.516.289 0 .43.155.313.344-.117.189.045.344.36.344.412 0 .504-.17.324-.602-.138-.331-.257-.796-.266-1.032-.012-.237-.24-.43-.512-.43-.299 0-.417.204-.297.516.109.283.048.516-.136.516a.34.34 0 0 1-.333-.344c0-.19-.171-.344-.38-.344-.21 0-.292.232-.183.516.12.314 0 .516-.308.516-.65 0-.66-.995-.016-1.243.271-.104.47-.49.442-.858-.032-.413-.23-.6-.52-.488-.26.1-.625.18-.814.18-.402 0-.1 1.63.65 3.527.282.71.534 1.287.56 1.283.03-.003 3.068-.834 6.758-1.845zm-7.913-2.277c0-.189.241-.344.537-.344.294 0 .44.155.323.344-.117.19-.358.344-.536.344-.178 0-.324-.154-.324-.344zm4.405 1.032c-.043-.567-.268-1.032-.5-1.032-.232 0-.398.31-.37.688.029.379.183.688.343.688.16 0 .195.155.078.344-.116.19-.046.344.158.344.203 0 .334-.464.29-1.032zm1.444.2c0-.727-.379-1.576-.704-1.576-.157 0-.262.31-.233.688.028.379.183.688.342.688.16 0 .196.155.079.344-.117.19-.05.344.151.344.2 0 .364-.219.364-.487zm1.281-.544c-.028-.378-.182-.688-.343-.688-.16 0-.195-.154-.078-.344.117-.189-.048-.344-.366-.344-.415 0-.482.121-.236.43.188.237.298.701.244 1.032-.053.331.112.603.367.603s.44-.31.412-.689zm1.376-.344c-.028-.378-.183-.688-.343-.688-.16 0-.195-.154-.078-.344.117-.189-.024-.344-.315-.344-.415 0-.461.177-.215.825.173.454.22.918.106 1.032-.114.114.041.207.345.207.34 0 .532-.264.5-.688zm1.295-.258c-.138-.33-.257-.795-.266-1.032-.012-.236-.24-.43-.512-.43-.338 0-.416.192-.246.602.138.331.257.796.266 1.032.012.237.24.43.512.43.338 0 .416-.191.246-.602zm1.14-.774c-.043-.567-.274-1.032-.513-1.032-.316 0-.349.224-.12.825.172.453.22.918.106 1.032-.114.114-.025.207.2.207.24 0 .374-.423.327-1.032zm-8.194.43c-.008-.318-.66-1.356-.703-1.118-.017.095-.084.443-.147.774-.066.344.093.602.37.602.267 0 .483-.116.48-.258zm9.49-.516c-.08-.425-.156-.89-.17-1.032-.017-.142-.18-.258-.368-.258s-.277.348-.197.774c.08.426.156.89.17 1.032.016.142.18.258.367.258.188 0 .277-.348.198-.774zm-8.352-.258c-.195-.743-.62-.895-.96-.344-.116.19-.04.344.172.344s.289.155.172.344c-.117.19.016.344.291.344.335 0 .444-.231.325-.688zm9.7.086c-.137-.331-.257-.796-.266-1.032a.465.465 0 0 0-.466-.43c-.333 0-.369.215-.137.824.172.454.22.918.106 1.032-.114.115.068.207.403.207.447 0 .543-.16.36-.602zm-7.822.041c.748-.2 1.138-1.503.45-1.503-.515 0-.754.615-.297.767.261.087.2.221-.17.363-.386.148-.585.053-.585-.281 0-.576-.54-.677-.86-.161-.117.189-.04.344.172.344s.289.154.172.344c-.243.393.016.422 1.118.127zm.553-2.08c3.243-.88 6.15-1.61 6.46-1.618.324-.008.489-.212.388-.474-.096-.25-.35-.392-.563-.313-.213.08-3.21.898-6.66 1.82-3.666.98-6.348 1.872-6.454 2.146-.124.32-.003.4.375.255.306-.117 3.21-.935 6.454-1.816zm1.503.92c-.029-.378-.242-.687-.474-.687-.231 0-.398.31-.37.688.03.378.242.688.474.688.231 0 .398-.31.37-.688zm1.47.201c0-.08-.094-.389-.209-.688-.296-.773-.79-.675-.728.144.028.378.25.688.494.688s.443-.065.443-.144zm1.634-.417c.748-.2 1.139-1.503.45-1.503-.531 0-.746.615-.28.803.261.106.193.185-.17.202-.331.016-.602-.128-.602-.317 0-.19-.145-.344-.323-.344-.177 0-.3.31-.27.688.057.758.083.769 1.195.47zm2.15-.615c0-.08-.093-.389-.208-.688-.297-.773-.79-.675-.729.144.029.378.251.688.495.688s.443-.065.443-.144zm-191.07 107.19c-.666-2.19-3.638-13.374-3.638-13.69 0-.215.735-.588 1.634-.829.899-.24 1.828-.49 2.064-.556.912-.252 1.65-.412 2.024-.437.215-.016.471-.336.57-.714a.916.916 0 0 1 .886-.688c.58 0 .833.443 1.427 2.494.396 1.371.789 2.697.872 2.946.093.278.563.41 1.226.344.988-.1 1.128-.276 1.717-2.172.356-1.143.645-3.101.647-4.386l.003-2.322h1.549c.9 0 1.548.159 1.548.38 0 .236-.522.33-1.376.249l-1.376-.131.03 1.385.03 1.385.315-1.088c.281-.973.412-1.061 1.245-.839.784.21.938.447.975 1.504.023.69-.065 1.188-.197 1.106-.42-.26-1.714 4.747-1.713 6.627v1.806h-1.72c-.945 0-1.72.068-1.72.15 0 .083.31 1.437.686 3.01.377 1.573.687 3.037.688 3.254.003.577-1.046.881-1.562.452-.325-.269-1.292-.138-3.554.483-2.832.776-3.125.8-3.284.277zm1.46-.521c-.25-.255-1.223-3.35-2.163-6.88-1.149-4.315-1.86-6.417-2.173-6.417-.289 0-.39.231-.27.613.107.338.898 3.24 1.757 6.45 1.942 7.259 1.725 6.697 2.581 6.697.602 0 .647-.077.269-.463zm3.02-.421c1.3-.379 1.857-.714 1.854-1.118-.007-.688-3.311-12.78-3.563-13.032-.798-.798-.562.927.81 5.918 2.32 8.435 2.196 7.74 1.388 7.74-.388 0-.695-.228-.695-.516 0-.284-.162-.516-.36-.516-.245 0-.252.196-.02.602.28.497.147.672-.758 1.006-1.603.59-.805.54 1.345-.084zm-2.614-.32c0-.283-.15-.516-.333-.516-.183 0-.244.232-.135.516.109.284.258.516.333.516.074 0 .135-.232.135-.516zm.58-.58c-.11-.275-.192-.193-.209.208-.013.362.066.565.18.451.115-.114.127-.411.031-.66zm5.531.043c.11-.406.063-.402-.257.02-.308.406-.35.259-.2-.688.154-.962.122-1.066-.157-.516-.286.563-.318.481-.176-.449.111-.73-.318-2.916-1.198-6.105-.754-2.732-1.371-5.072-1.371-5.199 0-.127-.083-.147-.185-.045-.102.101.446 2.47 1.217 5.264.771 2.793 1.35 5.233 1.288 5.422-.063.188-.776-2.116-1.585-5.121-.856-3.181-1.375-5.751-1.242-6.152.19-.576.162-.604-.179-.172-.336.427-.374.373-.224-.307.133-.6.08-.72-.196-.445-.275.276.17 2.4 1.631 7.797 1.819 6.713 2.435 8.169 2.833 6.695zm-4.519-.237c-.095-.331-.889-3.23-1.763-6.442-.874-3.211-1.648-5.898-1.72-5.97-.071-.072-.566.029-1.098.222-.545.199-.716.364-.39.38.317.016.643.22.724.457.081.236.108.16.058-.172-.05-.331.03-.602.17-.602.143 0 1.018 2.864 1.943 6.364.926 3.5 1.81 6.365 1.967 6.365.156 0 .205-.272.11-.602zm1.395-.495c-.11-.275-.191-.193-.208.208-.013.362.066.566.18.452.115-.115.127-.412.03-.66zm-3.9-2.132c-.334-1.252-.719-2.276-.855-2.276s.051 1.045.416 2.321c.365 1.277.664 2.386.664 2.466 0 .08.085.059.19-.046.104-.105-.082-1.215-.416-2.466zm.884.333c-.222-.882-.468-1.539-.547-1.46-.079.079.039.865.26 1.747.223.881.469 1.538.548 1.46.078-.08-.039-.865-.26-1.747zm1.724-.33c-.22-.875-.534-1.59-.697-1.59-.162 0-.155.348.017.773.172.426.409 1.218.525 1.761.117.543.29.91.384.816.094-.094-.01-.886-.23-1.76zm.86.326c-.126-.504-.296-.85-.377-.769-.08.081-.044.56.083 1.064.126.504.296.85.377.77.08-.082.044-.56-.083-1.065zm-.6-1.98c-.11-.275-.192-.194-.208.207-.014.363.066.566.18.452.115-.115.127-.411.03-.66zm-2.752-.689c-.11-.274-.192-.193-.208.208-.014.362.066.566.18.452.115-.115.127-.411.03-.66zm1.829-.107c0-.284-.15-.516-.333-.516-.183 0-.244.232-.136.516.11.283.26.516.333.516.075 0 .136-.232.136-.516zm.142-2.378c-.317-1.26-.64-2.228-.717-2.15-.079.078.117 1.173.433 2.433.317 1.26.64 2.228.718 2.15.078-.078-.118-1.173-.434-2.433zm-3.62-.941c-.822-3.062-.898-3.257-1.168-2.987-.095.096-.03.625.149 1.176.177.55.574 1.908.882 3.017.308 1.108.638 1.936.733 1.841.095-.095-.173-1.467-.597-3.047zm.868.253c-.317-1.26-.64-2.228-.718-2.15-.078.078.118 1.173.434 2.433.317 1.26.64 2.228.718 2.15.078-.078-.118-1.173-.434-2.433zm1.54-.941c-.822-3.063-.897-3.257-1.168-2.987-.095.095-.03.625.15 1.176.176.55.573 1.908.881 3.016.308 1.109.638 1.937.733 1.842.096-.095-.173-1.467-.596-3.047zm8.196 1.736c-.135-1.006.108-2.405.852-4.89.968-3.237.978-3.759.068-3.717-.125.008-.729 1.556-1.342 3.446-1.64 5.053-1.646 5.088-.87 5.291.43.113.72-.024.817-.39.101-.382.163-.313.19.208.03.525-.154.773-.563.769-1.007-.012-1.574-.56-1.371-1.336.159-.607.035-.723-.774-.723-.953 0-.96.017-.614 1.376.349 1.376.35 1.376 2.072 1.376h1.724zm-8.01-3.897c-.127-.504-.297-.85-.378-.77-.08.082-.044.56.083 1.065.126.504.296.85.377.769.08-.081.044-.56-.083-1.064zm-.585-1.437c-.115-.114-.411-.126-.66-.028-.274.11-.192.191.208.208.363.016.566-.067.452-.18z" font-weight="700" font-family="Raleway" letter-spacing="0" word-spacing="0" fill="#020103" fill-opacity="1" stroke-width=".034" stroke-miterlimit="4" stroke-dasharray="none"/><g style="line-height:0%;-inkscape-font-specification:'Sans Bold';text-align:center" aria-label="robotic setup" font-style="normal" font-variant="normal" font-weight="400" font-stretch="normal" font-family="Laffayette Comic Pro" letter-spacing="0" word-spacing="0" text-anchor="middle" fill="#4e5197" fill-opacity=".976" stroke-width="1" stroke-linecap="butt" stroke-linejoin="miter" font-size="13.39"><path style="line-height:100%;-inkscape-font-specification:'Laffayette Comic Pro';text-align:center" d="M416.715 102.719h.903q2.072 0 2.072 1.445v.091q0 2.53-4.328 4.603v.085q2.164 1.988 3.61 2.981v.268q0 .7-.452.903h-.36l-4.956-3.518-.091 1.805v1.353q-.229.451-.72.451-.359 0-.542-.36v-.542l.81-7.042q-.359 0-.359-.536 0-1.628 2.7-1.896zm-3.15 4.87h.09q4.682-1.202 4.682-2.615v-.091q0-.249-.902-.36-1.498 0-3.603.634zM425.411 102.719q2.792.385 2.792 3.34 0 3.871-3.06 6.408-1.262.72-2.255.72-2.426 0-3.126-2.616l-.065-.81v-.275q0-4.224 3.857-6.408.968-.36 1.857-.36zm-4.851 7.041q1.007 1.53 2.661 1.53 2.661 0 3.72-3.158l.13-.993q0-2.223-2.19-2.616h-.202q-1.811 0-3.786 3.61-.333 1.085-.333 1.627zM432.636 102.738q2.648 0 2.648 1.805v.268q0 1.262-1.197 2.432v.092q1.968.595 1.968 1.98v.36q0 2.262-4.446 3.328l-1.458.183h-.85q-.686 0-.686-.719v-.091l.686-7.389q-.431 0-.431-.176v-.543q0-1.53 3.766-1.53zm-2.485 4.054h.092q4.014 0 4.014-1.805-.66-.444-2.223-.444h-1.026q-.68 0-.68.628zm-.17 1.713l-.17 2.877.857.183.085-.092h.425q3.596-.47 3.596-1.706-1.184-1.262-3.681-1.262h-.34l-.085-.091-.085.091zM442.227 102.719q2.792.385 2.792 3.34 0 3.871-3.06 6.408-1.262.72-2.255.72-2.426 0-3.126-2.616l-.065-.81v-.275q0-4.224 3.858-6.408.967-.36 1.856-.36zm-4.85 7.041q1.006 1.53 2.66 1.53 2.661 0 3.72-3.158l.131-.993q0-2.223-2.19-2.616h-.203q-1.81 0-3.785 3.61-.334 1.085-.334 1.627zM452.688 102.712q.85 0 .85.706v.177q0 .974-1.516.974l-1.89.092q-.85 4.53-.85 7.793-.229.706-.47.706h-.288q-.49 0-.57-.268.478-5.015 1.04-8.146l-2.837.444q-.399 0-.47-.798 0-1.327 2.366-1.327 1.419-.353 4.635-.353zM455.376 102.693h.614q.308 0 .308.36-.72 5.87-.72 8.146v.994q-.202.993-1.02.993h-.202l-.412-.36q.412-6.158 1.026-9.774zM463.3 102.738h.386q.725 0 .87 1.17v.184q0 1.772-1.341 2.34l-.157-.183v-.091l.399-1.53-.314-.177q-1.955 0-4.649 3.694-.64 1.118-.64 1.707v.091q0 1.439 1.739 1.439h.072q1.673 0 3.707-.896h.242q.314.144.314.628v.36q-1.674 1.712-3.936 1.712-3.08-.32-3.08-3.06v-.183q0-3.498 4.963-6.845.941-.36 1.425-.36zM475.657 102.738h.137q.903.111.903.876v.177q0 1.32-.903 2.458h-.137q-.144-.039-.281-.438l.353-1.314-.275-.176q-.96.085-3.53 2.105v.085l4.563.882q.693.55.693 1.844v.523q0 1.772-2.281 3.073-.896.353-1.733.353h-.144q-2.38 0-2.903-2.105v-.53q0-.967.484-.967.477 1.674 1.733 1.674 0 .17 1.04.17 1.536 0 2.974-1.576 0-1.046-4.426-1.32-1.596-.445-1.596-1.315 0-2.138 4.29-4.302zM484.98 102.738q.452.098.452.687-.144 1.111-.896 1.111-4.93 0-4.93 1.373l-.091.772v.425q3.216-.772 4.393-.772h.177q.45.196.45.857 0 .941-1.254.941-4.126.536-4.126 1.288l-.085.857v.34q0 .771.98.856 1.544-.17 3.858-.771h.268q.36.137.36.601v.255q0 1.053-4.485 1.628h-.268q-1.615 0-1.792-2.053 0-1.51.628-5.74l-.177-.517q0-1.739 5.375-2.053zM492.702 102.712q.85 0 .85.706v.177q0 .974-1.517.974l-1.89.092q-.85 4.53-.85 7.793-.228.706-.47.706h-.288q-.49 0-.569-.268.478-5.015 1.04-8.146l-2.838.444q-.398 0-.47-.798 0-1.327 2.366-1.327 1.42-.353 4.636-.353zM495.232 102.719q.419.17.465.353-.746 4.661-.746 6.773v.968q2.498 0 4.093-2.288.628-5.545 1.21-5.545h.098q.555.059.555.268-.836 5.048-.836 7.565v1.406q0 .693-.563.967h-.372l-.367-.353v-.176l.092-1.491q-.333 0-3.629 1.667l-.654.177q-1.118-.144-1.118-.968v-.085q.68-9.238 1.583-9.238zM506.04 102.719q2.596 0 2.596 1.523 0 3.014-5.689 5.453-.418 0-.418.536-.059 2.955-.589 2.955h-.418q-.17-.039-.333-.444l.751-7.336h-.085q-.333 0-.333-.81 0-1.315 1.51-1.518zm-3.348 5.191q2.87-.752 4.355-2.504l.163-.543v-.176l-.418-.092h-.419q-3.34.183-3.34.628z"/></g></g><g steps="4--"><path d="M656.157 236.373l-505.704.127-.117-105.651" font-weight="700" font-family="Raleway" letter-spacing="0" word-spacing="0" fill="none" stroke="#5867d8" stroke-width="1.403" stroke-dasharray="1.40260354,1.40260354"/><g transform="scale(2.9416) rotate(89.824 118.042 130.892)" font-weight="700" font-family="Raleway" letter-spacing="0" word-spacing="0" fill="none" stroke="#5867d8" stroke-width=".477" stroke-dasharray=".47682767,.47682767"><path d="M56.872 182.005l10.433-.018" font-weight="700" font-family="Raleway" letter-spacing="0" word-spacing="0" fill="none" stroke="#5867d8" stroke-width=".477" stroke-dasharray=".47682768,.47682768"/><path d="M28.233 134.618l39.51.071" font-weight="700" font-family="Raleway" letter-spacing="0" word-spacing="0" fill="none" stroke="#5867d8" stroke-width=".477" stroke-dasharray=".47682769,.47682769"/><path d="M35.053 83.359l32.22-.086M75.078 27.025l-.19 24.063-15.229-.107V26.679M59.555 44.848h-8.167M51.186 69.415H67.41"/><path d="M51.386 118.178l.048-16.23 16.226.003" font-weight="700" font-family="Raleway" letter-spacing="0" word-spacing="0" fill="none" stroke="#5867d8" stroke-width=".477" stroke-dasharray=".47682766,.47682766"/></g><g transform="matrix(4.68057 0 0 4.68057 150.864 785.96)"><g transform="matrix(.62666 0 0 .62666 -48.94 -160.83)" font-weight="700" font-family="Raleway" letter-spacing="0" word-spacing="0" fill="#6d63b1" stroke-linecap="round" stroke-linejoin="round"><path d="M126.62 69.259a8.44 8.44 0 0 1-8.44 8.44 8.44 8.44 0 0 1-8.44-8.44 8.44 8.44 0 0 1 8.44-8.44 8.44 8.44 0 0 1 8.44 8.44z" fill="#e6e6f3" stroke="#413a57" stroke-width=".155"/><g transform="translate(112.71 63.619) scale(.23291)" fill="#f4f6f8" stroke="#0f2d59"><path d="M16.5 1.5l-5 6v39h24v-39l-5-6z"/><path d="M14.5 9.5v24h18v-24zM14.5 31.5h18m-18-4h18m-18-2h18m-18-10h18m-18 4h18m-18 2h18m-18-8h18M30.5 43.5v-7m-2 7v-7m-2 7v-7m-2 7v-7m-2 7v-7m-2 7v-7m-2 7v-7m-2 7v-7M16.5 29.5h2m-2-6h2m-2-6h2m-2-6h2"/></g></g></g><g style="line-height:0%;-inkscape-font-specification:'Sans Bold';text-align:center" aria-label="foundry
software" font-style="normal" font-variant="normal" font-weight="400" font-stretch="normal" font-family="Laffayette Comic Pro" letter-spacing="0" word-spacing="0" text-anchor="middle" fill="#4e5197" fill-opacity=".976" stroke="none" stroke-width="1" stroke-linecap="butt" stroke-linejoin="miter" stroke-opacity="1" font-size="13.39"><path style="line-height:100%;-inkscape-font-specification:'Laffayette Comic Pro';text-align:center" d="M248.18 267.824h.844q.562.353.562.791-.15 1.053-.935 1.053-2.256 0-4.4.438l-.183 1.935.464.085h.372q1.661 0 3.838-.53l.282.53q-.21 1.582-1.308 1.582-.68.347-3.838.523-.222 3.956-.752 3.956l-.373.085h-.091q-.235 0-.281-.353 0-2.151.745-7.898l-.274-.268q0-1.328 1.87-1.576 1.876-.353 3.458-.353zM255.313 267.804q2.792.386 2.792 3.341 0 3.87-3.06 6.408-1.262.719-2.255.719-2.426 0-3.126-2.615l-.065-.811v-.275q0-4.223 3.857-6.407.968-.36 1.857-.36zm-4.851 7.042q1.007 1.53 2.661 1.53 2.661 0 3.72-3.158l.13-.994q0-2.223-2.19-2.615h-.202q-1.811 0-3.786 3.609-.333 1.085-.333 1.628zM260.459 267.804q.418.17.464.353-.745 4.662-.745 6.774v.968q2.497 0 4.093-2.289.627-5.544 1.21-5.544h.097q.556.059.556.268-.837 5.047-.837 7.565v1.405q0 .693-.562.968h-.373l-.366-.353v-.177l.091-1.49q-.333 0-3.628 1.667l-.654.176q-1.118-.143-1.118-.967v-.085q.68-9.239 1.582-9.239zM267.847 267.804q.595 0 1.425 2.236 1.609 3.296 3.577 5.636.66-6.453.98-7.604l.36-.268h.268q.268 0 .268.36-.804 9.219-.98 9.84l-.537.176q-1.432 0-4.825-6.08l-.36-.36-.091.268-.268 4.12v.536l.091.536q-.117 1.072-.712 1.072-.55-.196-.628-.536.687-9.664.98-9.664zM278.74 267.804h.398q2.844 0 3.485 2.256l.079.72q0 4.49-6.656 7.4l-.392.092h-.085q-.177 0-.314-.634l.79-7.761q-.476 0-.476-.268v-.183q0-1.439 1.268-1.439zm-1.583 1.896q-.712 4.63-.712 6.225v.45q4.988-2.49 4.988-4.694v-.085q0-1.268-.712-1.268-.883-.628-2.851-.628zM287.573 267.804h.902q2.072 0 2.072 1.445v.092q0 2.53-4.328 4.603v.085q2.164 1.987 3.61 2.981v.268q0 .7-.452.902h-.36l-4.955-3.517-.092 1.804v1.354q-.229.45-.72.45-.359 0-.542-.359v-.542l.81-7.042q-.359 0-.359-.536 0-1.628 2.7-1.896zm-3.152 4.871h.092q4.681-1.203 4.681-2.615v-.092q0-.248-.902-.36-1.498 0-3.603.635zM291.352 267.824l2 3.034.876.719q1.661-2.955 2.315-3.577h.399l.32.36q-.065.477-3.753 6.695-.928 1.746-1.36 3.125l-.235.092q-.562-.262-.562-.804.032-.7 1.915-4.374-2.713-2.916-2.713-4.734.503-.536.798-.536zM242.871 281.214h.137q.903.111.903.876v.177q0 1.32-.903 2.458h-.137q-.144-.04-.281-.438l.353-1.314-.275-.177q-.96.085-3.53 2.106v.085l4.563.882q.694.55.694 1.844v.523q0 1.772-2.282 3.073-.896.353-1.733.353h-.144q-2.38 0-2.903-2.105v-.53q0-.967.484-.967.477 1.673 1.733 1.673 0 .17 1.04.17 1.536 0 2.974-1.575 0-1.047-4.426-1.321-1.595-.445-1.595-1.314 0-2.138 4.289-4.302zM250.92 281.194q2.791.386 2.791 3.341 0 3.871-3.06 6.408-1.261.72-2.255.72-2.426 0-3.125-2.616l-.066-.81v-.276q0-4.223 3.858-6.407.967-.36 1.857-.36zm-4.852 7.042q1.007 1.53 2.661 1.53 2.661 0 3.72-3.158l.131-.994q0-2.223-2.19-2.615h-.203q-1.81 0-3.785 3.61-.334 1.084-.334 1.627zM259.923 281.214h.843q.562.353.562.791-.15 1.053-.935 1.053-2.255 0-4.4.438l-.183 1.935.464.085h.373q1.66 0 3.838-.53l.281.53q-.21 1.582-1.308 1.582-.68.347-3.837.523-.223 3.956-.752 3.956l-.373.085h-.092q-.235 0-.28-.353 0-2.151.745-7.898l-.275-.268q0-1.327 1.87-1.576 1.876-.353 3.459-.353zM268.599 281.188q.85 0 .85.706v.177q0 .974-1.517.974l-1.89.091q-.85 4.531-.85 7.794-.228.706-.47.706h-.288q-.49 0-.569-.268.477-5.015 1.04-8.147l-2.838.445q-.399 0-.47-.798 0-1.327 2.366-1.327 1.419-.353 4.636-.353z"/><path style="line-height:100%;-inkscape-font-specification:'Laffayette Comic Pro';text-align:center" d="M269.848 281.214q.438 0 .438 3.034l.588 3.844h.144q0-.333 1.759-3.576.274-2.138 1.026-2.138h.144q.445 0 .732 3.302.49 2.255.733 2.68.235-1.137 2.347-6.701.307-.353.588-.353.392 0 .51.353 0 .457-2.197 5.982-.366 1.308-.66 3.576-.235.445-.588.445-.667 0-1.02-3.034-.72-2.961-.883-3.216l-1.465 2.857q-.366.837-.66 2.857-.196.327-.582.445-.614 0-1.026-4.643-.589-3.282-.589-5.27 0-.267.66-.444zM282.898 281.214h.314q.647 0 1.64 5.983.785 2.824.785 3.837-.163.537-.627.537-.602 0-.863-2.858l-.079-.085h-.078q-1.02.013-4.303 1.25-.313 1.784-1.02 1.784-.47-.183-.47-.713 0-1.033 4.308-9.467zm-.157 2.498q-.942 1.7-1.726 3.576h.549q.798 0 2.04-.36l-.706-3.216zM291.182 281.194h.902q2.072 0 2.072 1.445v.092q0 2.53-4.328 4.603v.085q2.164 1.987 3.61 2.981v.268q0 .7-.452.903h-.36l-4.955-3.518-.092 1.805v1.353q-.229.451-.72.451-.359 0-.542-.36v-.542l.811-7.042q-.36 0-.36-.536 0-1.628 2.7-1.896zm-3.152 4.871h.092q4.681-1.203 4.681-2.615v-.091q0-.249-.902-.36-1.497 0-3.603.634zM301.152 281.214q.451.098.451.687-.143 1.111-.895 1.111-4.93 0-4.93 1.373l-.092.772v.425q3.217-.772 4.394-.772h.177q.45.196.45.857 0 .941-1.255.941-4.125.536-4.125 1.288l-.085.857v.34q0 .771.98.856 1.544-.17 3.858-.771h.268q.36.137.36.601v.255q0 1.053-4.485 1.628h-.268q-1.615 0-1.792-2.053 0-1.51.628-5.74l-.177-.517q0-1.74 5.375-2.053z"/></g><path d="M270.01 301.046v57.857M270.01 51.403V197.83" fill="none" fill-rule="evenodd" stroke="#000" stroke-width="1" stroke-linecap="butt" stroke-linejoin="miter" stroke-miterlimit="4" stroke-dasharray="6,6" stroke-dashoffset="0" stroke-opacity="1"/></g><g steps="2--" font-weight="700" font-family="Raleway" letter-spacing="0" word-spacing="0"><path d="M594.196 285.32h-90.714" fill="none" stroke="#5867d8" stroke-width="1.403" stroke-dasharray="1.40260354,1.40260354"/><path d="M550.105 286.78a24.756 24.756 0 0 1-24.756 24.755 24.756 24.756 0 0 1-24.756-24.756 24.756 24.756 0 0 1 24.756-24.756 24.756 24.756 0 0 1 24.756 24.756z" fill="#e6e6f3" stroke="#413a57" stroke-width=".456" stroke-linecap="round" stroke-linejoin="round"/><g transform="matrix(.59316 0 0 .59316 511.31 272.33)" fill="#f4f6f8" stroke="#0f2d59" stroke-linecap="round" stroke-linejoin="round"><path d="M7.75 36.5c-1.25 0-2 .3-2.5 1.5l-2.5 6C1.9 46 3 46.5 4 46.5h40c1 0 2.1-.5 1.25-2.5l-2.5-6c-.5-1.2-1.25-1.5-2.5-1.5zM14.5 29.5l-1 3c-.5 1.5 0 2 1.5 2h18c1.5 0 2-.5 1.5-2l-1-3z"/><path d="M8 38.5l-2 6h36l-2-6zM37.5 38.5v6m-3-6v6m-3-6v6m-3-6v3m-3-3v3m-3-3v3m-3-3v3m-3-3v3m-3-3v6m-3-6v6m-3.5-3h34M19.5 28.5h9v4h-9z"/><path d="M6.5 1.5h35c1.108 0 2 .892 2 2v25c0 1.108-.892 2-2 2h-35c-1.108 0-2-.892-2-2v-25c0-1.108.892-2 2-2z"/><path d="M8.5 4.5h31c.554 0 1 .446 1 1v20c0 .554-.446 1-1 1h-31c-.554 0-1-.446-1-1v-20c0-.554.446-1 1-1z"/></g><g aria-label="Robots controller ThermoFisher Momentum" transform="matrix(2.8255 0 0 2.8255 189.685 246.407)" fill="#6d63b1" fill-opacity="1" stroke-width=".09" stroke-dasharray=".41524581,.41524581"><path d="M106.86 25.534h.148q.217 0 .321-.072.104-.073.104-.228 0-.154-.107-.22-.105-.064-.327-.064h-.139zm0 .373v.83h-.459v-2.163h.63q.442 0 .653.16.212.16.212.488 0 .19-.105.34-.105.148-.298.232.489.73.637.943h-.51l-.516-.83zM108.72 25.906q0 .246.08.371.081.126.263.126.18 0 .26-.124.08-.126.08-.373 0-.246-.08-.368-.08-.123-.263-.123-.18 0-.26.123-.08.12-.08.368zm1.144 0q0 .404-.213.632-.213.228-.594.228-.238 0-.42-.104-.182-.105-.28-.3-.097-.196-.097-.456 0-.405.211-.63.212-.225.595-.225.238 0 .42.103.182.104.28.298.098.194.098.454zM111.16 25.051q.293 0 .459.23.165.227.165.625 0 .41-.171.635-.17.225-.465.225-.291 0-.457-.212h-.031l-.076.182h-.344v-2.302h.45v.536q0 .102-.017.327h.018q.158-.246.469-.246zm-.145.361q-.167 0-.244.104-.077.102-.08.338v.05q0 .266.078.381.08.115.252.115.139 0 .22-.127.083-.129.083-.373t-.083-.365q-.083-.123-.226-.123zM112.51 25.906q0 .246.08.371.081.126.263.126.18 0 .26-.124.08-.126.08-.373 0-.246-.08-.368-.08-.123-.263-.123-.18 0-.26.123-.08.12-.08.368zm1.144 0q0 .404-.213.632-.213.228-.594.228-.238 0-.42-.104-.182-.105-.28-.3-.097-.196-.097-.456 0-.405.211-.63.212-.225.595-.225.238 0 .42.103.182.104.28.298.098.194.098.454zM114.73 26.407q.118 0 .284-.052v.336q-.169.076-.414.076-.271 0-.395-.137-.123-.137-.123-.41v-.798h-.216v-.191l.248-.151.13-.35h.29v.353h.462v.339h-.463v.797q0 .096.053.142.055.046.144.046zM116.5 26.245q0 .255-.178.388-.176.133-.528.133-.18 0-.308-.025-.127-.024-.238-.071v-.373q.126.059.283.099.158.04.278.04.246 0 .246-.142 0-.053-.033-.086-.033-.034-.112-.075-.08-.043-.213-.1-.191-.08-.282-.148-.088-.068-.13-.155-.04-.089-.04-.217 0-.22.17-.34.172-.122.486-.122.299 0 .581.13l-.136.326q-.124-.054-.232-.088-.108-.034-.22-.034-.2 0-.2.108 0 .061.063.105.065.045.283.132.194.079.284.147.09.068.133.156.043.09.043.212zM118.31 26.766q-.772 0-.772-.848 0-.422.21-.644.21-.223.602-.223.287 0 .515.113l-.133.349q-.107-.043-.199-.07-.091-.028-.183-.028-.352 0-.352.5 0 .486.352.486.13 0 .241-.035.111-.035.222-.109v.386q-.11.07-.222.096-.11.027-.281.027zM119.56 25.906q0 .246.08.371.081.126.263.126.18 0 .26-.124.08-.126.08-.373 0-.246-.08-.368-.08-.123-.263-.123-.18 0-.26.123-.08.12-.08.368zm1.144 0q0 .404-.213.632-.213.228-.594.228-.238 0-.42-.104-.182-.105-.28-.3-.097-.196-.097-.456 0-.405.211-.63.212-.225.595-.225.238 0 .42.103.182.104.28.298.098.194.098.454zM122.6 26.737h-.451v-.966q0-.18-.064-.268-.063-.09-.203-.09-.189 0-.273.127-.085.126-.085.419v.778h-.451v-1.654h.345l.06.211h.026q.075-.12.207-.18.133-.062.302-.062.288 0 .438.156.15.156.15.45zM123.77 26.407q.118 0 .284-.052v.336q-.169.076-.414.076-.271 0-.395-.137-.123-.137-.123-.41v-.798h-.216v-.191l.248-.151.13-.35h.29v.353h.462v.339h-.463v.797q0 .096.054.142.054.046.143.046zM125.31 25.051q.092 0 .152.013l-.034.423q-.054-.014-.133-.014-.216 0-.337.11-.12.112-.12.311v.842h-.451v-1.654h.342l.066.278h.022q.077-.139.207-.223.132-.086.286-.086zM126.12 25.906q0 .246.08.371.081.126.263.126.18 0 .26-.124.08-.126.08-.373 0-.246-.08-.368-.08-.123-.263-.123-.18 0-.26.123-.08.12-.08.368zm1.144 0q0 .404-.213.632-.213.228-.594.228-.238 0-.42-.104-.182-.105-.28-.3-.097-.196-.097-.456 0-.405.211-.63.212-.225.595-.225.238 0 .42.103.182.104.28.298.098.194.098.454zM128.09 26.737h-.451v-2.302h.451zM129.01 26.737h-.451v-2.302h.451zM130.17 25.372q-.144 0-.225.092-.081.09-.093.257h.633q-.003-.167-.087-.257-.084-.092-.228-.092zm.064 1.394q-.4 0-.625-.22-.225-.221-.225-.625 0-.416.207-.642.21-.228.576-.228.35 0 .546.2.195.2.195.552v.219h-1.066q.007.192.113.3.107.108.3.108.149 0 .282-.031.133-.031.278-.1v.35q-.118.06-.253.087-.135.03-.328.03zM132.2 25.051q.092 0 .152.013l-.034.423q-.054-.014-.133-.014-.216 0-.337.11-.12.112-.12.311v.842h-.451v-1.654h.342l.066.278h.022q.077-.139.207-.223.132-.086.286-.086zM105.84 29.493h-.206l.332-1.573h-.487l.04-.182h1.181l-.036.182h-.49zM107.36 29.493l.178-.83q.021-.113.021-.162 0-.178-.176-.178-.107 0-.209.07-.1.072-.179.207-.077.135-.116.325l-.121.568h-.202l.396-1.867h.202l-.042.19-.041.189q-.02.095-.046.2-.024.104-.056.226h.013q.113-.148.222-.211.11-.064.23-.064.158 0 .243.087.086.086.086.244 0 .075-.027.2-.047.231-.174.806zM108.5 29.517q-.22 0-.347-.13-.126-.132-.126-.363 0-.226.089-.432.09-.208.238-.323.147-.115.325-.115.183 0 .276.08.092.08.092.222 0 .216-.199.34-.2.122-.57.122h-.04l-.005.096q0 .157.074.246.074.088.229.088.075 0 .155-.022.08-.021.199-.079v.175q-.113.053-.2.073-.086.022-.19.022zm.167-1.192q-.124 0-.233.113-.108.113-.166.313h.015q.273 0 .419-.07.146-.072.146-.208 0-.064-.044-.106-.044-.042-.137-.042zM110.02 28.153q.083 0 .144.017l-.043.18q-.064-.016-.126-.016-.11 0-.205.072-.095.072-.167.2-.071.128-.105.284l-.128.602h-.202l.281-1.315h.167l-.026.244h.012q.086-.114.142-.164.057-.05.118-.076.062-.028.138-.028zM110.93 29.493l.178-.83q.021-.113.021-.162 0-.084-.037-.131t-.127-.047q-.101 0-.197.072-.095.072-.168.206-.072.134-.112.322l-.12.57h-.202l.28-1.315h.167l-.026.243h.012q.104-.143.207-.205.105-.062.215-.062.136 0 .209.078.073.078.086.217h.01q.104-.15.22-.222.116-.073.235-.073.153 0 .235.081.084.082.084.238 0 .082-.026.214l-.173.806h-.204l.178-.83q.024-.125.024-.176 0-.074-.042-.119-.04-.045-.13-.045-.097 0-.192.07t-.167.197q-.07.128-.108.303l-.128.6zM113.01 28.16q.228 0 .36.136.132.134.132.37 0 .226-.086.426-.087.2-.234.31-.148.11-.334.11-.23 0-.361-.136-.131-.136-.131-.371 0-.228.088-.429.087-.201.236-.308.149-.108.33-.108zm.283.479q0-.138-.075-.223-.075-.087-.203-.087-.131 0-.235.089-.104.089-.161.247-.057.157-.057.35 0 .158.076.244.077.085.22.085.124 0 .224-.087.1-.088.155-.249.056-.162.056-.37zM113.93 29.493h-.206l.37-1.754h.882l-.036.183h-.681l-.132.64h.633l-.038.183h-.635zM115.05 29.493h-.202l.281-1.315h.202zm.136-1.651q0-.067.038-.11t.1-.043q.105 0 .105.108 0 .066-.04.112t-.093.046q-.048 0-.08-.03-.03-.03-.03-.083zM116.29 29.119q0 .187-.133.293-.132.104-.373.104-.203 0-.366-.083v-.19q.084.051.18.079.098.027.18.027.152 0 .229-.06.077-.06.077-.153 0-.069-.042-.115-.042-.047-.182-.129-.156-.087-.22-.171-.065-.084-.065-.2 0-.165.121-.266.121-.102.32-.102.204 0 .395.089l-.065.164-.067-.03q-.121-.051-.264-.051-.111 0-.175.052-.064.052-.064.135 0 .067.042.115.044.048.177.124.128.072.183.123.057.052.084.112.028.059.028.133zM117.33 29.493l.178-.83q.021-.113.021-.162 0-.178-.176-.178-.107 0-.209.07-.1.072-.179.207-.077.135-.116.325l-.121.568h-.202l.396-1.867h.202l-.042.19-.041.189q-.02.095-.046.2-.024.104-.056.226h.013q.113-.148.222-.211.11-.064.23-.064.158 0 .243.087.086.086.086.244 0 .075-.027.2-.047.231-.174.806zM118.47 29.517q-.22 0-.347-.13-.126-.132-.126-.363 0-.226.089-.432.09-.208.238-.323.147-.115.325-.115.183 0 .276.08.092.08.092.222 0 .216-.199.34-.2.122-.57.122h-.04l-.005.096q0 .157.074.246.074.088.229.088.075 0 .155-.022.08-.021.199-.079v.175q-.113.053-.2.073-.086.022-.19.022zm.167-1.192q-.124 0-.233.113-.108.113-.166.313h.015q.273 0 .419-.07.146-.072.146-.208 0-.064-.044-.106-.044-.042-.137-.042zM119.99 28.153q.083 0 .144.017l-.043.18q-.064-.016-.126-.016-.11 0-.205.072-.095.072-.167.2-.071.128-.105.284l-.128.602h-.202l.281-1.315h.167l-.026.244h.012q.086-.114.142-.164.057-.05.118-.076.062-.028.138-.028zM121.51 29.493l-.2-1.555h-.01q-.007.086-.034.237-.025.15-.044.24l-.228 1.078h-.195l.371-1.754h.293l.179 1.444h.01l.791-1.444h.32l-.364 1.754h-.209l.232-1.086q.08-.38.112-.472h-.007l-.86 1.558zM123.53 28.16q.228 0 .36.136.132.134.132.37 0 .226-.086.426-.087.2-.234.31-.148.11-.334.11-.23 0-.361-.136-.131-.136-.131-.371 0-.228.088-.429.087-.201.236-.308.149-.108.33-.108zm.283.479q0-.138-.075-.223-.075-.087-.203-.087-.131 0-.235.089-.104.089-.161.247-.057.157-.057.35 0 .158.076.244.077.085.22.085.124 0 .224-.087.1-.088.155-.249.056-.162.056-.37zM124.98 29.493l.178-.83q.021-.113.021-.162 0-.084-.037-.131t-.127-.047q-.101 0-.197.072-.095.072-.168.206-.072.134-.112.322l-.12.57h-.202l.28-1.315h.167l-.026.243h.012q.104-.143.207-.205.105-.062.215-.062.136 0 .209.078.073.078.086.217h.01q.104-.15.22-.222.116-.073.235-.073.153 0 .235.081.084.082.084.238 0 .082-.026.214l-.173.806h-.204l.178-.83q.024-.125.024-.176 0-.074-.042-.119-.041-.045-.13-.045-.097 0-.192.07t-.167.197q-.07.128-.108.303l-.128.6zM126.88 29.517q-.22 0-.347-.13-.126-.132-.126-.363 0-.226.089-.432.09-.208.238-.323.147-.115.325-.115.183 0 .276.08.092.08.092.222 0 .216-.199.34-.2.122-.57.122h-.04l-.005.096q0 .157.074.246.074.088.229.088.075 0 .155-.022.08-.021.199-.079v.175q-.113.053-.2.073-.086.022-.19.022zm.167-1.192q-.124 0-.233.113-.108.113-.166.313h.015q.273 0 .419-.07.146-.072.146-.208 0-.064-.044-.106-.044-.042-.137-.042zM128.37 29.493l.178-.83q.024-.125.024-.173 0-.076-.044-.121-.042-.046-.135-.046-.107 0-.209.072-.1.072-.179.205-.077.133-.116.323l-.121.57h-.202l.28-1.315h.168l-.027.243H128q.115-.146.222-.206.108-.061.223-.061.153 0 .24.084.09.082.09.232 0 .095-.028.217l-.172.806zM129.4 29.352q.066 0 .173-.031v.155q-.041.016-.101.028-.06.012-.096.012-.15 0-.23-.07-.08-.072-.08-.214 0-.08.022-.18l.152-.722h-.206l.017-.088.222-.094.15-.273h.117l-.066.302h.33l-.032.153h-.328l-.154.724q-.022.105-.022.159 0 .067.035.103.035.036.097.036zM130.26 28.177l-.18.834q-.022.107-.022.167 0 .171.177.171.105 0 .207-.072t.18-.206q.078-.134.12-.324l.12-.57h.198l-.277 1.315h-.167l.027-.243h-.015q-.117.15-.224.209-.107.058-.22.058-.154 0-.242-.082-.088-.084-.088-.24 0-.074.027-.206l.175-.81zM131.97 29.493l.178-.83q.021-.113.021-.162 0-.084-.037-.131t-.127-.047q-.101 0-.197.072-.095.072-.168.206-.072.134-.112.322l-.12.57h-.202l.28-1.315h.167l-.026.243h.012q.104-.143.207-.205.105-.062.215-.062.136 0 .209.078.073.078.086.217h.01q.104-.15.22-.222.116-.073.235-.073.153 0 .235.081.084.082.084.238 0 .082-.026.214l-.173.806h-.204l.178-.83q.024-.125.024-.176 0-.074-.042-.119-.041-.045-.13-.045-.097 0-.192.07t-.167.197q-.07.128-.108.303l-.128.6z"/></g><g transform="translate(339.398 -104.374) scale(2.74907)" fill="#6d63b1"><g aria-label="Sample Database JBEI ICE" transform="translate(-183.933 22.203) scale(1.0278)" stroke-width=".09" stroke-dasharray=".4152458,.4152458"><path d="M165.68 36.341q0 .293-.212.462-.21.168-.586.168-.346 0-.612-.13v-.426q.219.098.37.138.152.04.278.04.15 0 .23-.058.082-.058.082-.172 0-.063-.035-.112-.036-.05-.105-.096-.068-.046-.28-.147-.198-.093-.297-.179-.1-.086-.159-.2-.059-.114-.059-.266 0-.287.194-.451.195-.165.538-.165.17 0 .322.04.153.04.32.113l-.147.356q-.173-.07-.287-.099-.113-.028-.222-.028-.13 0-.2.06-.07.061-.07.16 0 .06.029.106.028.044.088.087.062.041.292.15.303.146.416.292.112.145.112.357zM167.09 36.942l-.087-.225h-.012q-.114.144-.235.2-.12.055-.314.055-.238 0-.376-.137-.136-.136-.136-.387 0-.264.183-.388.185-.126.557-.139l.287-.009v-.072q0-.252-.258-.252-.198 0-.466.12l-.15-.305q.286-.15.634-.15.333 0 .51.146.178.145.178.44v1.103zm-.133-.766l-.175.005q-.197.006-.293.071-.096.066-.096.199 0 .19.219.19.157 0 .25-.09.095-.09.095-.24zM169.35 36.942h-.451v-.966q0-.18-.061-.268-.06-.09-.188-.09-.173 0-.251.127-.079.127-.079.419v.778h-.451v-1.654h.345l.06.211h.025q.067-.114.193-.177.126-.065.288-.065.372 0 .503.242h.04q.067-.115.196-.179.13-.063.293-.063.28 0 .424.145.145.143.145.461v1.079h-.453v-.966q0-.18-.06-.268-.06-.09-.188-.09-.166 0-.249.118-.081.118-.081.376zM171.75 36.971q-.291 0-.457-.212h-.024q.024.208.024.24v.67h-.452v-2.382h.367l.064.215h.02q.16-.246.47-.246.293 0 .458.226.166.227.166.63 0 .264-.078.46-.077.195-.22.297-.144.102-.338.102zm-.133-1.354q-.167 0-.244.104-.077.102-.08.339v.048q0 .267.078.382.08.116.252.116.303 0 .303-.5 0-.245-.075-.366-.074-.123-.234-.123zM173.21 36.942h-.451V34.64h.451zM174.37 35.577q-.144 0-.225.092-.081.09-.093.257h.633q-.003-.167-.087-.257-.084-.092-.228-.092zm.064 1.394q-.4 0-.625-.22-.225-.221-.225-.625 0-.416.207-.642.21-.228.576-.228.35 0 .546.2.195.2.195.552v.219h-1.066q.007.192.113.3.107.108.3.108.149 0 .282-.031.133-.031.278-.1v.35q-.118.06-.253.087-.135.03-.328.03zM178.09 35.839q0 .534-.305.818-.303.284-.877.284h-.613v-2.163h.68q.529 0 .822.28.293.28.293.781zm-.476.012q0-.697-.616-.697h-.244v1.409h.197q.663 0 .663-.712zM179.56 36.942l-.087-.225h-.012q-.114.144-.235.2-.12.055-.314.055-.238 0-.376-.137-.136-.136-.136-.387 0-.264.183-.388.185-.126.557-.139l.287-.009v-.072q0-.252-.258-.252-.198 0-.466.12l-.15-.305q.286-.15.634-.15.333 0 .51.146.178.145.178.44v1.103zm-.133-.766l-.175.005q-.197.006-.293.071-.096.066-.096.199 0 .19.219.19.157 0 .25-.09.095-.09.095-.24zM181.03 36.612q.118 0 .284-.052v.336q-.169.076-.414.076-.271 0-.395-.137-.123-.137-.123-.41v-.798h-.216v-.191l.248-.151.13-.35h.29v.353h.462v.339h-.463v.797q0 .096.054.142.054.046.143.046zM182.7 36.942l-.087-.225h-.012q-.114.144-.235.2-.12.055-.314.055-.238 0-.376-.137-.136-.136-.136-.387 0-.264.183-.388.185-.126.557-.139l.287-.009v-.072q0-.252-.258-.252-.198 0-.466.12l-.15-.305q.286-.15.634-.15.333 0 .51.146.178.145.178.44v1.103zm-.133-.766l-.175.005q-.197.006-.293.071-.096.066-.096.199 0 .19.219.19.157 0 .25-.09.095-.09.095-.24zM184.4 35.256q.293 0 .459.23.165.227.165.625 0 .41-.171.635-.17.225-.465.225-.291 0-.457-.212h-.031l-.076.182h-.344V34.64h.45v.536q0 .102-.017.327h.018q.158-.246.469-.246zm-.145.361q-.167 0-.244.104-.077.102-.08.338v.05q0 .266.078.381.08.115.252.115.139 0 .22-.127.083-.129.083-.373t-.083-.365q-.083-.123-.226-.123zM186.45 36.942l-.087-.225h-.012q-.114.144-.235.2-.12.055-.314.055-.238 0-.376-.137-.136-.136-.136-.387 0-.264.183-.388.185-.126.557-.139l.287-.009v-.072q0-.252-.258-.252-.198 0-.466.12l-.15-.305q.286-.15.634-.15.333 0 .51.146.178.145.178.44v1.103zm-.133-.766l-.175.005q-.197.006-.293.071-.096.066-.096.199 0 .19.219.19.157 0 .25-.09.095-.09.095-.24zM188.38 36.45q0 .255-.178.388-.176.133-.528.133-.18 0-.308-.025-.127-.024-.238-.071v-.373q.126.059.283.099.158.04.278.04.246 0 .246-.142 0-.053-.033-.086-.032-.034-.112-.075-.08-.043-.213-.1-.191-.08-.282-.148-.088-.068-.13-.155-.04-.089-.04-.217 0-.22.17-.34.172-.122.486-.122.299 0 .581.13l-.136.326q-.124-.054-.232-.088-.108-.034-.22-.034-.2 0-.2.108 0 .061.063.105.065.045.283.132.194.079.284.147.09.068.133.156.043.09.043.212zM189.42 35.577q-.144 0-.225.092-.081.09-.093.257h.633q-.003-.167-.087-.257-.084-.092-.228-.092zm.064 1.394q-.4 0-.625-.22-.225-.221-.225-.625 0-.416.207-.642.21-.228.576-.228.35 0 .546.2.195.2.195.552v.219h-1.066q.007.192.113.3.107.108.3.108.149 0 .282-.031.133-.031.278-.1v.35q-.118.06-.253.087-.135.03-.328.03zM172.98 40.16q-.126 0-.184-.03l.007-.176q.083.024.174.024.12 0 .2-.076.078-.074.108-.218l.368-1.74h.204l-.37 1.761q-.096.455-.507.455zM174.76 37.943q.518 0 .518.403 0 .17-.104.286-.104.116-.294.151v.012q.138.038.211.133.075.094.075.226 0 .254-.183.4-.182.143-.488.143h-.556l.371-1.754zm-.403.751h.297q.188 0 .3-.087.11-.088.11-.24 0-.124-.08-.185-.079-.063-.25-.063h-.254zm-.177.83h.32q.217 0 .333-.097.117-.097.117-.273 0-.14-.09-.213-.09-.074-.257-.074h-.283zM176.29 39.698h-.882l.37-1.754h.883l-.039.183h-.679l-.117.563h.632l-.035.182h-.635l-.136.644h.678zM176.67 39.698l.373-1.754h.202l-.373 1.754zM177.98 39.698l.373-1.754h.202l-.373 1.754zM179.68 38.1q-.209 0-.374.116-.165.117-.262.342-.096.225-.096.49 0 .224.116.359.118.133.323.133.167 0 .387-.068v.179q-.104.037-.197.053-.094.017-.226.017-.29 0-.456-.179-.165-.18-.165-.49 0-.312.126-.581.127-.27.34-.412.214-.141.484-.141.236 0 .418.096l-.083.169q-.166-.083-.335-.083zM180.97 39.698h-.882l.37-1.754h.883l-.039.183h-.679l-.117.563h.632l-.035.182h-.635l-.136.644h.678z"/></g><path d="M7.36 73.683a9.005 9.005 0 0 1-9.005 9.006 9.005 9.005 0 0 1-9.005-9.006 9.005 9.005 0 0 1 9.005-9.005 9.005 9.005 0 0 1 9.006 9.005z" fill="#e6e6f3" stroke="#413a57" stroke-width=".166" stroke-linecap="round" stroke-linejoin="round"/><g transform="matrix(.2487 0 0 .2487 -7.439 66.889)" fill="#f4f6f8" stroke="#0f2d59" stroke-linecap="round" stroke-linejoin="round"><path d="M6.5 29.5v10a17.5 5 0 0 0 17.5 5 17.5 5 0 0 0 17.5-5v-10"/><path d="M6.5 19.5v10a17.5 5 0 0 0 17.5 5 17.5 5 0 0 0 17.5-5v-10"/><path d="M6.5 9.5v10a17.5 5 0 0 0 17.5 5 17.5 5 0 0 0 17.5-5v-10"/><path d="M24 4.5a17.5 5 0 0 0-17.5 5 17.5 5 0 0 0 17.5 5 17.5 5 0 0 0 17.5-5 17.5 5 0 0 0-17.5-5z"/></g></g></g><g steps="3--" font-weight="700" letter-spacing="0" word-spacing="0"><g transform="translate(71.72 -45.457)" font-family="Raleway" stroke-linecap="round" stroke-linejoin="round"><path d="M104.732 157.738a24.756 24.756 0 0 1-24.756 24.756 24.756 24.756 0 0 1-24.756-24.756 24.756 24.756 0 0 1 24.756-24.756 24.756 24.756 0 0 1 24.756 24.756z" fill="#e6e6f3" stroke="#413a57" stroke-width=".456"/><g transform="matrix(.59316 0 0 .59316 67.508 142.859)" fill="#f4f6f8" stroke="#0f2d59"><path d="M7.75 36.5c-1.25 0-2 .3-2.5 1.5l-2.5 6C1.9 46 3 46.5 4 46.5h40c1 0 2.1-.5 1.25-2.5l-2.5-6c-.5-1.2-1.25-1.5-2.5-1.5zM14.5 29.5l-1 3c-.5 1.5 0 2 1.5 2h18c1.5 0 2-.5 1.5-2l-1-3z"/><path d="M8 38.5l-2 6h36l-2-6zM37.5 38.5v6m-3-6v6m-3-6v6m-3-6v3m-3-3v3m-3-3v3m-3-3v3m-3-3v3m-3-3v6m-3-6v6m-3.5-3h34M19.5 28.5h9v4h-9z"/><path d="M6.5 1.5h35c1.108 0 2 .892 2 2v25c0 1.108-.892 2-2 2h-35c-1.108 0-2-.892-2-2v-25c0-1.108.892-2 2-2z"/><path d="M8.5 4.5h31c.554 0 1 .446 1 1v20c0 .554-.446 1-1 1h-31c-.554 0-1-.446-1-1v-20c0-.554.446-1 1-1z"/></g><g transform="translate(61.41 147.834) scale(.52848)" fill="#f4f6f8" stroke="#0f2d59"><path d="M20.5 22.5l-3 15h14l-3-15z"/><path d="M18.5 27.5C10 30 5.5 39 5.5 44.5c0 1.5 6.5 2 8 2h22c1.5 0 8-.5 8-2 0-5.5-4.5-14.5-13-17l-5 1-1 8-1-8zM24.5 3.5c-5.5 0-10 5-10 11s4.5 11 10 11 10-5 10-11-4.5-11-10-11z"/><path d="M24.5 1.5c-4 0-6 1.5-7 4-3 1-4 5-3 9 2-2 3-4 4-7 11 8 10-3 16 7 1-8-4-13-10-13zM18.5 25.5c1 1 2 2 5 3-2 1-2 3-2 4-2-1-4-4-4-6zM30.5 25.5c-1 1-2 2-5 3 2 1 2 3 2 4 2-1 4-4 4-6zM14.5 38.5l-1 8m22 0l-1-8"/></g></g><g transform="translate(1.894 1.515)" font-family="Raleway" fill="#6d63b1" stroke-width=".09" stroke-dasharray=".4152458,.4152458"><path d="M169.237 150.962h-3.52v-6.113h3.52v1.062h-2.224v1.342h2.07v1.062h-2.07v1.576h2.224zM172.854 147.529h2.425v3.169q-.59.192-1.113.267-.518.08-1.062.08-1.383 0-2.115-.811-.727-.816-.727-2.337 0-1.48.844-2.308.849-.828 2.35-.828.94 0 1.814.376l-.43 1.037q-.67-.334-1.393-.334-.84 0-1.346.564-.506.565-.506 1.518 0 .995.406 1.522.41.522 1.187.522.406 0 .824-.083v-1.276h-1.158zM177.996 150.962h-1.275v-6.113h3.504v1.062h-2.229v1.576h2.074v1.058h-2.074zM189.213 147.896q0 1.518-.752 2.333-.753.815-2.158.815-1.404 0-2.157-.815-.752-.815-.752-2.341 0-1.526.752-2.329.757-.807 2.166-.807 1.409 0 2.153.811.748.811.748 2.333zm-4.46 0q0 1.024.388 1.543.389.518 1.162.518 1.552 0 1.552-2.06 0-2.066-1.543-2.066-.774 0-1.167.522-.393.519-.393 1.543zM192.943 151.044q-.824 0-1.292-.598h-.067q.067.585.067.677v1.894h-1.275v-6.731h1.037l.18.606h.058q.447-.694 1.325-.694.828 0 1.296.64.469.64.469 1.777 0 .748-.222 1.3-.218.552-.623.84-.405.289-.953.289zm-.376-3.826q-.473 0-.69.293-.217.288-.226.957v.138q0 .753.222 1.079.225.326.71.326.857 0 .857-1.413 0-.69-.213-1.033-.209-.347-.66-.347zM197.746 147.105q-.405 0-.635.26-.23.254-.264.727h1.79q-.008-.473-.247-.728-.238-.26-.644-.26zm.18 3.938q-1.129 0-1.764-.623-.636-.623-.636-1.764 0-1.175.586-1.815.589-.643 1.626-.643.99 0 1.543.564.551.564.551 1.56v.618h-3.014q.02.544.322.849.301.305.845.305.422 0 .798-.088.376-.087.786-.28v.987q-.334.167-.715.247-.38.083-.928.083zM203.482 146.198q.26 0 .43.038l-.095 1.195q-.155-.042-.377-.042-.61 0-.953.314-.339.314-.339.878v2.379h-1.275v-4.674h.966l.188.786h.063q.217-.393.585-.632.372-.242.807-.242zM207.72 150.962l-.246-.636h-.034q-.322.406-.665.565-.338.154-.886.154-.673 0-1.062-.384-.384-.385-.384-1.096 0-.744.518-1.095.523-.355 1.572-.393l.811-.025v-.205q0-.71-.727-.71-.56 0-1.317.338l-.423-.861q.807-.423 1.79-.423.94 0 1.442.41t.502 1.246v3.115zm-.376-2.166l-.493.017q-.556.017-.828.2-.272.184-.272.56 0 .54.619.54.443 0 .706-.255.268-.255.268-.677zM211.902 150.03q.334 0 .803-.147v.949q-.477.213-1.17.213-.766 0-1.117-.384-.347-.39-.347-1.163v-2.253h-.61v-.54l.702-.426.368-.987h.815v.995h1.309v.958h-1.309v2.253q0 .272.15.402.155.13.406.13zM214.671 148.614q0 .694.226 1.05.23.355.744.355.51 0 .732-.352.225-.355.225-1.053 0-.694-.225-1.041-.226-.347-.74-.347-.51 0-.736.347-.226.343-.226 1.04zm3.232 0q0 1.141-.602 1.785-.602.644-1.677.644-.673 0-1.187-.293-.514-.297-.79-.849-.276-.551-.276-1.287 0-1.146.598-1.781.597-.636 1.68-.636.673 0 1.188.293.514.293.79.84.276.548.276 1.284zM221.565 146.198q.26 0 .43.038l-.095 1.195q-.155-.042-.377-.042-.61 0-.953.314-.338.314-.338.878v2.379h-1.276v-4.674h.966l.188.786h.063q.218-.393.585-.632.373-.242.807-.242zM226.114 149.572q0 .719-.501 1.095-.498.376-1.493.376-.51 0-.87-.07-.36-.068-.673-.202v-1.053q.356.167.799.28.447.113.786.113.694 0 .694-.401 0-.151-.092-.243-.092-.096-.318-.213-.226-.121-.602-.28-.54-.226-.794-.418-.251-.193-.368-.44-.113-.25-.113-.614 0-.623.48-.961.485-.343 1.372-.343.844 0 1.643.368l-.385.92q-.351-.151-.656-.247-.305-.096-.623-.096-.565 0-.565.305 0 .171.18.297.184.125.799.372.547.221.802.414.256.192.377.443.12.25.12.598z"/></g><g style="line-height:0%" aria-label="EGF customers" font-style="normal" font-family="Open Sans" fill="#6d63b1" fill-opacity="1" stroke="none" stroke-width="1" stroke-linecap="butt" stroke-linejoin="miter" stroke-dasharray=".4152458,.4152458" stroke-opacity="1" font-variant="normal" font-stretch="normal" font-size="8.27"><path style="line-height:1.25;-inkscape-font-specification:'Open Sans Bold'" d="M126.612 83.41h-3.4v-5.904h3.4v1.026h-2.149v1.296h2v1.026h-2v1.522h2.149zM130.088 80.094h2.342v3.061q-.569.186-1.074.259-.5.076-1.025.076-1.337 0-2.044-.783-.702-.787-.702-2.257 0-1.43.815-2.23.82-.799 2.27-.799.908 0 1.752.364l-.416 1.001q-.646-.323-1.344-.323-.812 0-1.3.545-.49.545-.49 1.466 0 .961.393 1.47.395.505 1.146.505.392 0 .796-.081v-1.232h-1.119zM135.071 83.41h-1.231v-5.904h3.383v1.026h-2.152v1.522h2.003v1.022h-2.003zM142.263 83.49q-2.108 0-2.108-2.313 0-1.151.573-1.757.574-.61 1.644-.61.783 0 1.405.307l-.363.953q-.291-.117-.541-.19-.25-.076-.501-.076-.961 0-.961 1.365 0 1.324.96 1.324.356 0 .66-.093.302-.097.605-.299v1.054q-.3.19-.606.263-.303.072-.767.072zM147.876 83.41l-.166-.578h-.065q-.197.315-.56.489-.364.17-.829.17-.795 0-1.199-.425-.404-.428-.404-1.227v-2.944h1.232v2.637q0 .489.174.735.173.242.553.242.517 0 .747-.343.23-.347.23-1.147v-2.124h1.232v4.515zM153.27 82.069q0 .695-.484 1.058-.48.363-1.442.363-.492 0-.84-.068-.347-.065-.65-.194V82.21q.343.162.771.27.433.11.76.11.67 0 .67-.388 0-.145-.089-.234-.089-.093-.307-.206-.218-.117-.581-.27-.521-.219-.767-.404-.243-.186-.356-.424-.109-.243-.109-.594 0-.601.465-.929.468-.33 1.324-.33.816 0 1.587.355l-.372.888q-.339-.145-.634-.238-.294-.093-.601-.093-.545 0-.545.295 0 .165.173.286.178.122.772.36.529.214.775.4.246.185.363.428.117.242.117.577zM156.141 82.51q.323 0 .776-.142v.916q-.46.206-1.131.206-.739 0-1.078-.371-.335-.376-.335-1.123V79.82h-.59v-.521l.679-.412.355-.953h.787v.961h1.264v.925h-1.264v2.176q0 .263.146.388.15.125.391.125zM158.806 81.144q0 .67.218 1.014.223.343.72.343.492 0 .706-.34.218-.342.218-1.017 0-.67-.218-1.005-.218-.335-.715-.335-.492 0-.71.335-.219.33-.219 1.005zm3.122 0q0 1.103-.582 1.724-.581.622-1.619.622-.65 0-1.147-.282-.496-.287-.763-.82-.266-.533-.266-1.244 0-1.106.577-1.72.577-.614 1.623-.614.65 0 1.147.283t.763.812q.267.529.267 1.24zM166.987 83.41h-1.231v-2.637q0-.489-.166-.731-.161-.246-.513-.246-.472 0-.686.347-.214.347-.214 1.143v2.124h-1.232v-4.515h.941l.166.578h.068q.182-.311.525-.485.344-.178.788-.178 1.013 0 1.373.663h.109q.181-.315.533-.489.355-.174.8-.174.766 0 1.158.396.396.392.396 1.26v2.944h-1.236v-2.637q0-.489-.165-.731-.162-.246-.513-.246-.452 0-.679.323-.222.323-.222 1.025zM172.94 79.687q-.392 0-.614.25-.223.246-.255.703h1.728q-.008-.457-.238-.703-.23-.25-.622-.25zm.173 3.803q-1.09 0-1.704-.601-.614-.602-.614-1.704 0-1.135.565-1.753.57-.622 1.571-.622.957 0 1.49.545.533.546.533 1.507v.597h-2.911q.02.525.31.82.292.295.817.295.407 0 .77-.085.364-.085.76-.27v.952q-.323.162-.69.239-.368.08-.897.08zM178.483 78.81q.25 0 .416.037l-.093 1.155q-.149-.04-.363-.04-.59 0-.92.302-.328.303-.328.848v2.298h-1.231v-4.515h.933l.181.76h.06q.21-.38.566-.61.36-.235.78-.235zM182.877 82.069q0 .695-.485 1.058-.48.363-1.441.363-.493 0-.84-.068-.347-.065-.65-.194V82.21q.343.162.77.27.433.11.76.11.67 0 .67-.388 0-.145-.088-.234-.09-.093-.307-.206-.218-.117-.582-.27-.52-.219-.767-.404-.242-.186-.355-.424-.11-.243-.11-.594 0-.601.465-.929.468-.33 1.324-.33.816 0 1.587.355l-.371.888q-.34-.145-.634-.238-.295-.093-.602-.093-.545 0-.545.295 0 .165.174.286.177.122.771.36.529.214.775.4.247.185.364.428.117.242.117.577z"/></g><g transform="translate(40.22)" font-family="Raleway" stroke-linecap="round" stroke-linejoin="round"><path d="M180.356 182.767a24.756 24.756 0 0 1-24.756 24.756 24.756 24.756 0 0 1-24.756-24.756A24.756 24.756 0 0 1 155.6 158.01a24.756 24.756 0 0 1 24.756 24.756z" fill="#e6e6f3" stroke="#413a57" stroke-width=".456"/><g transform="matrix(.59316 0 0 .59316 143.162 168.49)" fill="#f4f6f8" stroke="#0f2d59"><path d="M7.75 36.5c-1.25 0-2 .3-2.5 1.5l-2.5 6C1.9 46 3 46.5 4 46.5h40c1 0 2.1-.5 1.25-2.5l-2.5-6c-.5-1.2-1.25-1.5-2.5-1.5zM14.5 29.5l-1 3c-.5 1.5 0 2 1.5 2h18c1.5 0 2-.5 1.5-2l-1-3z"/><path d="M8 38.5l-2 6h36l-2-6zM37.5 38.5v6m-3-6v6m-3-6v6m-3-6v3m-3-3v3m-3-3v3m-3-3v3m-3-3v3m-3-3v6m-3-6v6m-3.5-3h34M19.5 28.5h9v4h-9z"/><path d="M6.5 1.5h35c1.108 0 2 .892 2 2v25c0 1.108-.892 2-2 2h-35c-1.108 0-2-.892-2-2v-25c0-1.108.892-2 2-2z"/><path d="M8.5 4.5h31c.554 0 1 .446 1 1v20c0 .554-.446 1-1 1h-31c-.554 0-1-.446-1-1v-20c0-.554.446-1 1-1z"/></g><g transform="translate(137.97 174.097) scale(.52848)" fill="#f4f6f8" stroke="#0f2d59"><path d="M20.5 22.5l-3 15h14l-3-15z"/><path d="M18.5 27.5C10 30 5.5 39 5.5 44.5c0 1.5 6.5 2 8 2h22c1.5 0 8-.5 8-2 0-5.5-4.5-14.5-13-17l-5 1-1 8-1-8zM24.5 3.5c-5.5 0-10 5-10 11s4.5 11 10 11 10-5 10-11-4.5-11-10-11z"/><path d="M24.5 1.5c-4 0-6 1.5-7 4-3 1-4 5-3 9 2-2 3-4 4-7 11 8 10-3 16 7 1-8-4-13-10-13zM18.5 25.5c1 1 2 2 5 3-2 1-2 3-2 4-2-1-4-4-4-6zM30.5 25.5c-1 1-2 2-5 3 2 1 2 3 2 4 2-1 4-4 4-6zM14.5 38.5l-1 8m22 0l-1-8"/></g></g></g></g></g></svg>