<?xml version="1.0" encoding="utf-8" standalone="no"?>
<!DOCTYPE svg PUBLIC "-//W3C//DTD SVG 1.1//EN"
  "http://www.w3.org/Graphics/SVG/1.1/DTD/svg11.dtd">
<!-- Created with matplotlib (http://matplotlib.org/) -->
<svg height="252pt" version="1.1" viewBox="0 0 1044 252" width="1044pt" xmlns="http://www.w3.org/2000/svg" xmlns:xlink="http://www.w3.org/1999/xlink">
 <defs>
  <style type="text/css">
*{stroke-linecap:butt;stroke-linejoin:round;}
  </style>
 </defs>
 <g id="figure_1">
  <g id="patch_1">
   <path d="M 0 252.018125 
L 1044.042187 252.018125 
L 1044.042187 0 
L 0 0 
z
" style="fill:#ffffff;"/>
  </g>
  <g id="axes_1">
   <g id="PolyCollection_1">
    <path clip-path="url(#pa9fa2d236f)" d="M 118.888456 -0.393878 
L 118.888456 265.859184 
L 208.834725 265.859184 
L 208.834725 -0.393878 
L 208.834725 -0.393878 
L 118.888456 -0.393878 
z
" style="fill:#0000ff;fill-opacity:0.02;"/>
   </g>
   <g id="PolyCollection_2">
    <path clip-path="url(#pa9fa2d236f)" d="M 298.780993 -0.393878 
L 298.780993 265.859184 
L 388.727262 265.859184 
L 388.727262 -0.393878 
L 388.727262 -0.393878 
L 298.780993 -0.393878 
z
" style="fill:#0000ff;fill-opacity:0.02;"/>
   </g>
   <g id="PolyCollection_3">
    <path clip-path="url(#pa9fa2d236f)" d="M 478.673531 -0.393878 
L 478.673531 265.859184 
L 568.619799 265.859184 
L 568.619799 -0.393878 
L 568.619799 -0.393878 
L 478.673531 -0.393878 
z
" style="fill:#0000ff;fill-opacity:0.02;"/>
   </g>
   <g id="PolyCollection_4">
    <path clip-path="url(#pa9fa2d236f)" d="M 658.566068 -0.393878 
L 658.566068 265.859184 
L 748.512337 265.859184 
L 748.512337 -0.393878 
L 748.512337 -0.393878 
L 658.566068 -0.393878 
z
" style="fill:#0000ff;fill-opacity:0.02;"/>
   </g>
   <g id="PolyCollection_5">
    <path clip-path="url(#pa9fa2d236f)" d="M 838.458605 -0.393878 
L 838.458605 265.859184 
L 928.404874 265.859184 
L 928.404874 -0.393878 
L 928.404874 -0.393878 
L 838.458605 -0.393878 
z
" style="fill:#0000ff;fill-opacity:0.02;"/>
   </g>
   <g id="PolyCollection_6">
    <path clip-path="url(#pa9fa2d236f)" d="M 418.709352 77.263265 
L 418.709352 99.45102 
L 598.601889 99.45102 
L 598.601889 77.263265 
L 598.601889 77.263265 
L 418.709352 77.263265 
z
" style="fill:#ff0000;fill-opacity:0.2;"/>
   </g>
   <g id="PolyCollection_7">
    <path clip-path="url(#pa9fa2d236f)" d="M 568.619799 77.263265 
L 568.619799 99.45102 
L 748.512337 99.45102 
L 748.512337 77.263265 
L 748.512337 77.263265 
L 568.619799 77.263265 
z
" style="fill:#ff0000;fill-opacity:0.2;"/>
   </g>
   <g id="PolyCollection_8">
    <path clip-path="url(#pa9fa2d236f)" d="M 268.798904 77.263265 
L 268.798904 99.45102 
L 328.763083 99.45102 
L 328.763083 77.263265 
L 328.763083 77.263265 
L 268.798904 77.263265 
z
" style="fill:#ff0000;fill-opacity:0.2;"/>
   </g>
   <g id="PolyCollection_9">
    <path clip-path="url(#pa9fa2d236f)" d="M 568.619799 77.263265 
L 568.619799 99.45102 
L 628.583979 99.45102 
L 628.583979 77.263265 
L 628.583979 77.263265 
L 568.619799 77.263265 
z
" style="fill:#ff0000;fill-opacity:0.2;"/>
   </g>
   <g id="PolyCollection_10">
    <path clip-path="url(#pa9fa2d236f)" d="M 808.476516 77.263265 
L 808.476516 99.45102 
L 868.440695 99.45102 
L 868.440695 77.263265 
L 868.440695 77.263265 
L 808.476516 77.263265 
z
" style="fill:#ff0000;fill-opacity:0.2;"/>
   </g>
   <g id="PolyCollection_11">
    <path clip-path="url(#pa9fa2d236f)" d="M 898.422785 77.263265 
L 898.422785 99.45102 
L 958.386964 99.45102 
L 958.386964 77.263265 
L 958.386964 77.263265 
L 898.422785 77.263265 
z
" style="fill:#ff0000;fill-opacity:0.2;"/>
   </g>
   <g id="line2d_1">
    <path clip-path="url(#pa9fa2d236f)" d="M 28.942188 228.14 
L 28.942188 10.7 
" style="fill:none;stroke:#999999;stroke-linecap:square;stroke-width:0.3;"/>
   </g>
   <g id="line2d_2">
    <path clip-path="url(#pa9fa2d236f)" d="M 118.888456 228.14 
L 118.888456 10.7 
" style="fill:none;stroke:#999999;stroke-linecap:square;stroke-width:0.3;"/>
   </g>
   <g id="line2d_3">
    <path clip-path="url(#pa9fa2d236f)" d="M 208.834725 228.14 
L 208.834725 10.7 
" style="fill:none;stroke:#999999;stroke-linecap:square;stroke-width:0.3;"/>
   </g>
   <g id="line2d_4">
    <path clip-path="url(#pa9fa2d236f)" d="M 298.780993 228.14 
L 298.780993 10.7 
" style="fill:none;stroke:#999999;stroke-linecap:square;stroke-width:0.3;"/>
   </g>
   <g id="line2d_5">
    <path clip-path="url(#pa9fa2d236f)" d="M 388.727262 228.14 
L 388.727262 10.7 
" style="fill:none;stroke:#999999;stroke-linecap:square;stroke-width:0.3;"/>
   </g>
   <g id="line2d_6">
    <path clip-path="url(#pa9fa2d236f)" d="M 478.673531 228.14 
L 478.673531 10.7 
" style="fill:none;stroke:#999999;stroke-linecap:square;stroke-width:0.3;"/>
   </g>
   <g id="line2d_7">
    <path clip-path="url(#pa9fa2d236f)" d="M 568.619799 228.14 
L 568.619799 10.7 
" style="fill:none;stroke:#999999;stroke-linecap:square;stroke-width:0.3;"/>
   </g>
   <g id="line2d_8">
    <path clip-path="url(#pa9fa2d236f)" d="M 658.566068 228.14 
L 658.566068 10.7 
" style="fill:none;stroke:#999999;stroke-linecap:square;stroke-width:0.3;"/>
   </g>
   <g id="line2d_9">
    <path clip-path="url(#pa9fa2d236f)" d="M 748.512337 228.14 
L 748.512337 10.7 
" style="fill:none;stroke:#999999;stroke-linecap:square;stroke-width:0.3;"/>
   </g>
   <g id="line2d_10">
    <path clip-path="url(#pa9fa2d236f)" d="M 838.458605 228.14 
L 838.458605 10.7 
" style="fill:none;stroke:#999999;stroke-linecap:square;stroke-width:0.3;"/>
   </g>
   <g id="line2d_11">
    <path clip-path="url(#pa9fa2d236f)" d="M 928.404874 228.14 
L 928.404874 10.7 
" style="fill:none;stroke:#999999;stroke-linecap:square;stroke-width:0.3;"/>
   </g>
   <g id="text_1">
    <!-- A -->
    <defs>
     <path d="M 41.203125 0 
L 34.90625 18.203125 
L 14.796875 18.203125 
L 8.5 0 
L 1.59375 0 
L 24.59375 63.40625 
L 25.40625 63.40625 
L 48.40625 0 
z
M 16.703125 23.59375 
L 33.09375 23.59375 
L 24.90625 47.40625 
z
" id="Inconsolata-Regular-41"/>
    </defs>
    <g transform="translate(37.933232 94.332768)scale(0.24 -0.24)">
     <use xlink:href="#Inconsolata-Regular-41"/>
    </g>
   </g>
   <g id="text_2">
    <!-- T -->
    <defs>
     <path d="M 20.796875 0 
L 20.796875 56.09375 
L 3.09375 56.09375 
L 3.09375 62.40625 
L 46.296875 62.40625 
L 46.296875 56.09375 
L 27.90625 56.09375 
L 27.90625 0 
z
" id="Inconsolata-Regular-54"/>
    </defs>
    <g transform="translate(67.915322 94.332768)scale(0.24 -0.24)">
     <use xlink:href="#Inconsolata-Regular-54"/>
    </g>
   </g>
   <g id="text_3">
    <!-- M -->
    <defs>
     <path d="M 4.09375 0 
L 4.09375 62.296875 
L 9.59375 62.296875 
L 25 31.796875 
L 40.703125 62.40625 
L 46 62.40625 
L 46 0 
L 39.40625 0 
L 39.40625 47 
L 25.90625 21.90625 
L 23.203125 21.90625 
L 10.59375 46.703125 
L 10.59375 0 
z
" id="Inconsolata-Regular-4d"/>
    </defs>
    <g style="fill:#ff0000;" transform="translate(67.915322 38.86338)scale(0.24 -0.24)">
     <use xlink:href="#Inconsolata-Regular-4d"/>
    </g>
   </g>
   <g id="text_4">
    <!-- G -->
    <defs>
     <path d="M 46 29.90625 
L 46 5.5 
Q 37.09375 -1 27.703125 -1 
Q 20.296875 -1 14.84375 2.890625 
Q 9.40625 6.796875 6.5 13.890625 
Q 3.59375 21 3.59375 30.40625 
Q 3.5 42.796875 7.203125 50.046875 
Q 10.90625 57.296875 16.296875 60.140625 
Q 21.703125 63 27.203125 63 
Q 32.796875 63 38 60.09375 
Q 43.203125 57.203125 45.796875 52.5 
L 40.90625 48.59375 
L 40.796875 48.5 
Q 37.40625 53 34.5 54.890625 
Q 31.59375 56.796875 27.296875 56.796875 
Q 19.796875 56.796875 15.140625 51 
Q 10.5 45.203125 10.5 31.90625 
Q 10.5 19.09375 15.046875 12.140625 
Q 19.59375 5.203125 27.703125 5.203125 
Q 30.703125 5.203125 34 6.140625 
Q 37.296875 7.09375 39.5 9 
L 39.5 23.796875 
L 28.203125 23.796875 
L 28.203125 29.90625 
z
M 39.703125 48.5 
Q 39.703125 49.09375 40.59375 48.40625 
L 40.09375 47.90625 
L 39.703125 48.5 
z
M 40.796875 48.5 
Q 41.296875 47.796875 40.59375 48.40625 
L 40.796875 48.5 
z
" id="Inconsolata-Regular-47"/>
    </defs>
    <g transform="translate(97.897411 94.332768)scale(0.24 -0.24)">
     <use xlink:href="#Inconsolata-Regular-47"/>
    </g>
   </g>
   <g id="text_5">
    <!-- A -->
    <g transform="translate(127.879501 94.332768)scale(0.24 -0.24)">
     <use xlink:href="#Inconsolata-Regular-41"/>
    </g>
   </g>
   <g id="text_6">
    <!-- G -->
    <g transform="translate(157.86159 94.332768)scale(0.24 -0.24)">
     <use xlink:href="#Inconsolata-Regular-47"/>
    </g>
   </g>
   <g id="text_7">
    <!-- S -->
    <defs>
     <path d="M 29.796875 34.40625 
Q 38.703125 30.703125 42.09375 26.796875 
Q 45.5 22.90625 45.5 17 
Q 45.5 12.40625 43.25 8.296875 
Q 41 4.203125 36.296875 1.59375 
Q 31.59375 -1 24.703125 -1 
Q 12.59375 -1 5.203125 6.90625 
L 8.796875 13.203125 
L 8.796875 13.296875 
Q 8.90625 13.296875 8.90625 13.25 
Q 8.90625 13.203125 8.90625 13.203125 
Q 11.59375 9.59375 15.84375 7.4375 
Q 20.09375 5.296875 25.703125 5.296875 
Q 31.203125 5.296875 34.890625 8.390625 
Q 38.59375 11.5 38.59375 16 
Q 38.59375 18.90625 37.4375 20.84375 
Q 36.296875 22.796875 33.296875 24.6875 
Q 30.296875 26.59375 24.296875 29.203125 
Q 15.09375 32.796875 11.140625 37.390625 
Q 7.203125 42 7.203125 47.703125 
Q 7.203125 54.703125 12.296875 58.890625 
Q 17.40625 63.09375 26.203125 63.09375 
Q 31.296875 63.09375 35.75 61.046875 
Q 40.203125 59 43.5 55.296875 
L 39.59375 50.09375 
L 39.5 50 
Q 36.5 54.09375 33.25 55.6875 
Q 30 57.296875 25.09375 57.296875 
Q 20.296875 57.296875 17.34375 54.640625 
Q 14.40625 52 14.40625 48.203125 
Q 14.40625 45.296875 15.65625 43.140625 
Q 16.90625 41 20.203125 38.953125 
Q 23.5 36.90625 29.796875 34.40625 
z
M 38.40625 49.796875 
Q 38.40625 50.09375 38.796875 49.890625 
Q 39.203125 49.703125 39.296875 49.703125 
L 39 49.296875 
L 38.40625 49.703125 
z
M 39.5 50 
Q 40.09375 49.203125 39.75 49.453125 
Q 39.40625 49.703125 39.296875 49.703125 
L 39.5 50 
z
M 9.90625 13.59375 
Q 9.90625 13.296875 9.5 13.5 
Q 9.09375 13.703125 9 13.703125 
L 9.203125 14.09375 
L 9.90625 13.703125 
z
M 8.796875 13.296875 
Q 8.203125 14.09375 9 13.703125 
L 8.796875 13.296875 
z
" id="Inconsolata-Regular-53"/>
    </defs>
    <g style="fill:#ff0000;" transform="translate(157.86159 38.86338)scale(0.24 -0.24)">
     <use xlink:href="#Inconsolata-Regular-53"/>
    </g>
   </g>
   <g id="text_8">
    <!-- T -->
    <g transform="translate(187.84368 94.332768)scale(0.24 -0.24)">
     <use xlink:href="#Inconsolata-Regular-54"/>
    </g>
   </g>
   <g id="text_9">
    <!-- A -->
    <g transform="translate(217.82577 94.332768)scale(0.24 -0.24)">
     <use xlink:href="#Inconsolata-Regular-41"/>
    </g>
   </g>
   <g id="text_10">
    <!-- G -->
    <g transform="translate(247.807859 94.332768)scale(0.24 -0.24)">
     <use xlink:href="#Inconsolata-Regular-47"/>
    </g>
   </g>
   <g id="text_11">
    <!-- S -->
    <g style="fill:#ff0000;" transform="translate(247.807859 38.86338)scale(0.24 -0.24)">
     <use xlink:href="#Inconsolata-Regular-53"/>
    </g>
   </g>
   <g id="text_12">
    <!-- C -->
    <defs>
     <path d="M 28.203125 5 
Q 31.90625 5 35.296875 7.046875 
Q 38.703125 9.09375 40.796875 12.59375 
L 46 9.203125 
Q 42.90625 4.09375 38.703125 1.546875 
Q 34.5 -1 28.5 -1 
Q 21.5 -1 16.046875 2.453125 
Q 10.59375 5.90625 7.34375 13 
Q 4.09375 20.09375 4.09375 30.796875 
Q 4.09375 42.296875 7.59375 49.4375 
Q 11.09375 56.59375 16.5 59.6875 
Q 21.90625 62.796875 28.09375 62.796875 
Q 34.703125 62.796875 39.546875 59.5 
Q 44.40625 56.203125 46.90625 50.5 
L 40.90625 47.703125 
Q 40.796875 47.703125 40.796875 47.75 
Q 40.796875 47.796875 40.796875 47.796875 
Q 38.203125 53 35 55.09375 
Q 31.796875 57.203125 27.90625 57.203125 
Q 20 57.203125 15.453125 50.34375 
Q 10.90625 43.5 10.90625 31.296875 
Q 10.90625 23.59375 13.203125 17.59375 
Q 15.5 11.59375 19.453125 8.296875 
Q 23.40625 5 28.203125 5 
z
M 39.703125 48 
Q 39.90625 48.203125 39.90625 48.203125 
Q 40.09375 48.203125 40.703125 47.59375 
L 40 47.296875 
L 39.703125 48 
z
M 40.90625 47.703125 
Q 41.296875 46.796875 40.703125 47.59375 
L 40.90625 47.703125 
z
" id="Inconsolata-Regular-43"/>
    </defs>
    <g transform="translate(277.789949 94.332768)scale(0.24 -0.24)">
     <use xlink:href="#Inconsolata-Regular-43"/>
    </g>
   </g>
   <g id="text_13">
    <!-- G -->
    <g transform="translate(307.772038 94.332768)scale(0.24 -0.24)">
     <use xlink:href="#Inconsolata-Regular-47"/>
    </g>
   </g>
   <g id="text_14">
    <!-- G -->
    <g transform="translate(337.754128 94.332768)scale(0.24 -0.24)">
     <use xlink:href="#Inconsolata-Regular-47"/>
    </g>
   </g>
   <g id="text_15">
    <!-- G -->
    <g style="fill:#ff0000;" transform="translate(337.754128 38.86338)scale(0.24 -0.24)">
     <use xlink:href="#Inconsolata-Regular-47"/>
    </g>
   </g>
   <g id="text_16">
    <!-- T -->
    <g transform="translate(367.736217 94.332768)scale(0.24 -0.24)">
     <use xlink:href="#Inconsolata-Regular-54"/>
    </g>
   </g>
   <g id="text_17">
    <!-- G -->
    <g transform="translate(397.718307 94.332768)scale(0.24 -0.24)">
     <use xlink:href="#Inconsolata-Regular-47"/>
    </g>
   </g>
   <g id="text_18">
    <!-- G -->
    <g transform="translate(427.700396 94.332768)scale(0.24 -0.24)">
     <use xlink:href="#Inconsolata-Regular-47"/>
    </g>
   </g>
   <g id="text_19">
    <!-- G -->
    <g style="fill:#ff0000;" transform="translate(427.700396 38.86338)scale(0.24 -0.24)">
     <use xlink:href="#Inconsolata-Regular-47"/>
    </g>
   </g>
   <g id="text_20">
    <!-- G -->
    <g transform="translate(457.682486 94.332768)scale(0.24 -0.24)">
     <use xlink:href="#Inconsolata-Regular-47"/>
    </g>
   </g>
   <g id="text_21">
    <!-- T -->
    <g transform="translate(487.664576 94.332768)scale(0.24 -0.24)">
     <use xlink:href="#Inconsolata-Regular-54"/>
    </g>
   </g>
   <g id="text_22">
    <!-- C -->
    <g transform="translate(517.646665 94.332768)scale(0.24 -0.24)">
     <use xlink:href="#Inconsolata-Regular-43"/>
    </g>
   </g>
   <g id="text_23">
    <!-- S -->
    <g style="fill:#ff0000;" transform="translate(517.646665 38.86338)scale(0.24 -0.24)">
     <use xlink:href="#Inconsolata-Regular-53"/>
    </g>
   </g>
   <g id="text_24">
    <!-- T -->
    <g transform="translate(547.628755 94.332768)scale(0.24 -0.24)">
     <use xlink:href="#Inconsolata-Regular-54"/>
    </g>
   </g>
   <g id="text_25">
    <!-- C -->
    <g transform="translate(577.610844 94.332768)scale(0.24 -0.24)">
     <use xlink:href="#Inconsolata-Regular-43"/>
    </g>
   </g>
   <g id="text_26">
    <!-- G -->
    <g transform="translate(607.592934 94.332768)scale(0.24 -0.24)">
     <use xlink:href="#Inconsolata-Regular-47"/>
    </g>
   </g>
   <g id="text_27">
    <!-- R -->
    <defs>
     <path d="M 5.59375 62.296875 
L 24 62.296875 
Q 34.59375 62.296875 39.640625 57.59375 
Q 44.703125 52.90625 44.703125 44.5 
Q 44.703125 39 41.140625 34.09375 
Q 37.59375 29.203125 32 27.796875 
L 46.40625 0 
L 38.59375 0 
L 24.796875 27.5 
L 12.703125 27.5 
L 12.703125 0 
L 5.59375 0 
z
M 24.796875 33.703125 
Q 31.296875 33.703125 34.390625 36.546875 
Q 37.5 39.40625 37.5 44.5 
Q 37.5 49.5 34.34375 52.59375 
Q 31.203125 55.703125 24.796875 55.703125 
L 12.703125 55.703125 
L 12.703125 33.703125 
z
" id="Inconsolata-Regular-52"/>
    </defs>
    <g style="fill:#ff0000;" transform="translate(607.592934 38.86338)scale(0.24 -0.24)">
     <use xlink:href="#Inconsolata-Regular-52"/>
    </g>
   </g>
   <g id="text_28">
    <!-- T -->
    <g transform="translate(637.575023 94.332768)scale(0.24 -0.24)">
     <use xlink:href="#Inconsolata-Regular-54"/>
    </g>
   </g>
   <g id="text_29">
    <!-- C -->
    <g transform="translate(667.557113 94.332768)scale(0.24 -0.24)">
     <use xlink:href="#Inconsolata-Regular-43"/>
    </g>
   </g>
   <g id="text_30">
    <!-- T -->
    <g transform="translate(697.539202 94.332768)scale(0.24 -0.24)">
     <use xlink:href="#Inconsolata-Regular-54"/>
    </g>
   </g>
   <g id="text_31">
    <!-- L -->
    <defs>
     <path d="M 6.59375 62.296875 
L 14.796875 62.296875 
L 14.796875 61.59375 
Q 14.203125 61 14.046875 60.296875 
Q 13.90625 59.59375 13.90625 57.90625 
L 13.90625 6 
L 43.90625 6 
L 43.90625 0 
L 6.59375 0 
z
" id="Inconsolata-Regular-4c"/>
    </defs>
    <g style="fill:#ff0000;" transform="translate(697.539202 38.86338)scale(0.24 -0.24)">
     <use xlink:href="#Inconsolata-Regular-4c"/>
    </g>
   </g>
   <g id="text_32">
    <!-- C -->
    <g transform="translate(727.521292 94.332768)scale(0.24 -0.24)">
     <use xlink:href="#Inconsolata-Regular-43"/>
    </g>
   </g>
   <g id="text_33">
    <!-- C -->
    <g transform="translate(757.503382 94.332768)scale(0.24 -0.24)">
     <use xlink:href="#Inconsolata-Regular-43"/>
    </g>
   </g>
   <g id="text_34">
    <!-- A -->
    <g transform="translate(787.485471 94.332768)scale(0.24 -0.24)">
     <use xlink:href="#Inconsolata-Regular-41"/>
    </g>
   </g>
   <g id="text_35">
    <!-- H -->
    <defs>
     <path d="M 5 62.296875 
L 13.203125 62.296875 
L 13.203125 61.59375 
Q 12.59375 61 12.4375 60.296875 
Q 12.296875 59.59375 12.296875 57.90625 
L 12.296875 35.703125 
L 36.703125 35.703125 
L 36.703125 62.296875 
L 44.90625 62.296875 
L 44.90625 61.59375 
Q 44.296875 61 44.140625 60.296875 
Q 44 59.59375 44 57.90625 
L 44 0 
L 36.59375 0 
L 36.59375 29.703125 
L 12.296875 29.703125 
L 12.296875 0 
L 5 0 
z
" id="Inconsolata-Regular-48"/>
    </defs>
    <g style="fill:#ff0000;" transform="translate(787.485471 38.86338)scale(0.24 -0.24)">
     <use xlink:href="#Inconsolata-Regular-48"/>
    </g>
   </g>
   <g id="text_36">
    <!-- C -->
    <g transform="translate(817.467561 94.332768)scale(0.24 -0.24)">
     <use xlink:href="#Inconsolata-Regular-43"/>
    </g>
   </g>
   <g id="text_37">
    <!-- G -->
    <g transform="translate(847.44965 94.332768)scale(0.24 -0.24)">
     <use xlink:href="#Inconsolata-Regular-47"/>
    </g>
   </g>
   <g id="text_38">
    <!-- G -->
    <g transform="translate(877.43174 94.332768)scale(0.24 -0.24)">
     <use xlink:href="#Inconsolata-Regular-47"/>
    </g>
   </g>
   <g id="text_39">
    <!-- G -->
    <g style="fill:#ff0000;" transform="translate(877.43174 38.86338)scale(0.24 -0.24)">
     <use xlink:href="#Inconsolata-Regular-47"/>
    </g>
   </g>
   <g id="text_40">
    <!-- C -->
    <g transform="translate(907.413829 94.332768)scale(0.24 -0.24)">
     <use xlink:href="#Inconsolata-Regular-43"/>
    </g>
   </g>
   <g id="text_41">
    <!-- G -->
    <g transform="translate(937.395919 94.332768)scale(0.24 -0.24)">
     <use xlink:href="#Inconsolata-Regular-47"/>
    </g>
   </g>
   <g id="text_42">
    <!-- T -->
    <g transform="translate(967.378008 94.332768)scale(0.24 -0.24)">
     <use xlink:href="#Inconsolata-Regular-54"/>
    </g>
   </g>
   <g id="text_43">
    <!-- V -->
    <defs>
     <path d="M 23.703125 -0.40625 
L 2.5 62.40625 
L 9.796875 62.40625 
L 25.796875 14.5 
L 40.90625 62.296875 
L 47.796875 62.296875 
L 26.90625 -0.40625 
z
" id="Inconsolata-Regular-56"/>
    </defs>
    <g style="fill:#ff0000;" transform="translate(967.378008 38.86338)scale(0.24 -0.24)">
     <use xlink:href="#Inconsolata-Regular-56"/>
    </g>
   </g>
   <g id="text_44">
    <!-- A -->
    <g transform="translate(997.360098 94.332768)scale(0.24 -0.24)">
     <use xlink:href="#Inconsolata-Regular-41"/>
    </g>
   </g>
   <g id="text_45">
    <!-- A -->
    <g style="fill:#808080;" transform="translate(127.879501 127.614401)scale(0.24 -0.24)">
     <use xlink:href="#Inconsolata-Regular-41"/>
    </g>
   </g>
   <g id="text_46">
    <!-- G -->
    <g style="fill:#808080;" transform="translate(157.86159 127.614401)scale(0.24 -0.24)">
     <use xlink:href="#Inconsolata-Regular-47"/>
    </g>
   </g>
   <g id="text_47">
    <!-- C -->
    <g style="fill:#808080;" transform="translate(187.84368 127.614401)scale(0.24 -0.24)">
     <use xlink:href="#Inconsolata-Regular-43"/>
    </g>
   </g>
   <g id="text_48">
    <!-- T -->
    <g style="fill:#808080;" transform="translate(127.879501 149.802156)scale(0.24 -0.24)">
     <use xlink:href="#Inconsolata-Regular-54"/>
    </g>
   </g>
   <g id="text_49">
    <!-- C -->
    <g style="fill:#808080;" transform="translate(157.86159 149.802156)scale(0.24 -0.24)">
     <use xlink:href="#Inconsolata-Regular-43"/>
    </g>
   </g>
   <g id="text_50">
    <!-- A -->
    <g style="fill:#808080;" transform="translate(187.84368 149.802156)scale(0.24 -0.24)">
     <use xlink:href="#Inconsolata-Regular-41"/>
    </g>
   </g>
   <g id="text_51">
    <!-- T -->
    <g style="fill:#808080;" transform="translate(127.879501 171.989911)scale(0.24 -0.24)">
     <use xlink:href="#Inconsolata-Regular-54"/>
    </g>
   </g>
   <g id="text_52">
    <!-- C -->
    <g style="fill:#808080;" transform="translate(157.86159 171.989911)scale(0.24 -0.24)">
     <use xlink:href="#Inconsolata-Regular-43"/>
    </g>
   </g>
   <g id="text_53">
    <!-- C -->
    <g style="fill:#808080;" transform="translate(187.84368 171.989911)scale(0.24 -0.24)">
     <use xlink:href="#Inconsolata-Regular-43"/>
    </g>
   </g>
   <g id="text_54">
    <!-- T -->
    <g style="fill:#808080;" transform="translate(127.879501 194.177666)scale(0.24 -0.24)">
     <use xlink:href="#Inconsolata-Regular-54"/>
    </g>
   </g>
   <g id="text_55">
    <!-- C -->
    <g style="fill:#808080;" transform="translate(157.86159 194.177666)scale(0.24 -0.24)">
     <use xlink:href="#Inconsolata-Regular-43"/>
    </g>
   </g>
   <g id="text_56">
    <!-- G -->
    <g style="fill:#808080;" transform="translate(187.84368 194.177666)scale(0.24 -0.24)">
     <use xlink:href="#Inconsolata-Regular-47"/>
    </g>
   </g>
   <g id="text_57">
    <!-- T -->
    <g style="fill:#808080;" transform="translate(127.879501 216.365421)scale(0.24 -0.24)">
     <use xlink:href="#Inconsolata-Regular-54"/>
    </g>
   </g>
   <g id="text_58">
    <!-- C -->
    <g style="fill:#808080;" transform="translate(157.86159 216.365421)scale(0.24 -0.24)">
     <use xlink:href="#Inconsolata-Regular-43"/>
    </g>
   </g>
   <g id="text_59">
    <!-- T -->
    <g style="fill:#808080;" transform="translate(187.84368 216.365421)scale(0.24 -0.24)">
     <use xlink:href="#Inconsolata-Regular-54"/>
    </g>
   </g>
   <g id="text_60">
    <!-- A -->
    <g style="fill:#808080;" transform="translate(217.82577 127.614401)scale(0.24 -0.24)">
     <use xlink:href="#Inconsolata-Regular-41"/>
    </g>
   </g>
   <g id="text_61">
    <!-- G -->
    <g style="fill:#808080;" transform="translate(247.807859 127.614401)scale(0.24 -0.24)">
     <use xlink:href="#Inconsolata-Regular-47"/>
    </g>
   </g>
   <g id="text_62">
    <!-- T -->
    <g style="fill:#808080;" transform="translate(277.789949 127.614401)scale(0.24 -0.24)">
     <use xlink:href="#Inconsolata-Regular-54"/>
    </g>
   </g>
   <g id="text_63">
    <!-- T -->
    <g style="fill:#808080;" transform="translate(217.82577 149.802156)scale(0.24 -0.24)">
     <use xlink:href="#Inconsolata-Regular-54"/>
    </g>
   </g>
   <g id="text_64">
    <!-- C -->
    <g style="fill:#808080;" transform="translate(247.807859 149.802156)scale(0.24 -0.24)">
     <use xlink:href="#Inconsolata-Regular-43"/>
    </g>
   </g>
   <g id="text_65">
    <!-- A -->
    <g style="fill:#808080;" transform="translate(277.789949 149.802156)scale(0.24 -0.24)">
     <use xlink:href="#Inconsolata-Regular-41"/>
    </g>
   </g>
   <g id="text_66">
    <!-- T -->
    <g style="fill:#808080;" transform="translate(217.82577 171.989911)scale(0.24 -0.24)">
     <use xlink:href="#Inconsolata-Regular-54"/>
    </g>
   </g>
   <g id="text_67">
    <!-- C -->
    <g style="fill:#808080;" transform="translate(247.807859 171.989911)scale(0.24 -0.24)">
     <use xlink:href="#Inconsolata-Regular-43"/>
    </g>
   </g>
   <g id="text_68">
    <!-- C -->
    <g style="fill:#808080;" transform="translate(277.789949 171.989911)scale(0.24 -0.24)">
     <use xlink:href="#Inconsolata-Regular-43"/>
    </g>
   </g>
   <g id="text_69">
    <!-- T -->
    <g style="fill:#808080;" transform="translate(217.82577 194.177666)scale(0.24 -0.24)">
     <use xlink:href="#Inconsolata-Regular-54"/>
    </g>
   </g>
   <g id="text_70">
    <!-- C -->
    <g style="fill:#808080;" transform="translate(247.807859 194.177666)scale(0.24 -0.24)">
     <use xlink:href="#Inconsolata-Regular-43"/>
    </g>
   </g>
   <g id="text_71">
    <!-- G -->
    <g style="fill:#808080;" transform="translate(277.789949 194.177666)scale(0.24 -0.24)">
     <use xlink:href="#Inconsolata-Regular-47"/>
    </g>
   </g>
   <g id="text_72">
    <!-- T -->
    <g style="fill:#808080;" transform="translate(217.82577 216.365421)scale(0.24 -0.24)">
     <use xlink:href="#Inconsolata-Regular-54"/>
    </g>
   </g>
   <g id="text_73">
    <!-- C -->
    <g style="fill:#808080;" transform="translate(247.807859 216.365421)scale(0.24 -0.24)">
     <use xlink:href="#Inconsolata-Regular-43"/>
    </g>
   </g>
   <g id="text_74">
    <!-- T -->
    <g style="fill:#808080;" transform="translate(277.789949 216.365421)scale(0.24 -0.24)">
     <use xlink:href="#Inconsolata-Regular-54"/>
    </g>
   </g>
   <g id="text_75">
    <!-- G -->
    <g style="fill:#808080;" transform="translate(307.772038 127.614401)scale(0.24 -0.24)">
     <use xlink:href="#Inconsolata-Regular-47"/>
    </g>
   </g>
   <g id="text_76">
    <!-- G -->
    <g style="fill:#808080;" transform="translate(337.754128 127.614401)scale(0.24 -0.24)">
     <use xlink:href="#Inconsolata-Regular-47"/>
    </g>
   </g>
   <g id="text_77">
    <!-- A -->
    <g style="fill:#808080;" transform="translate(367.736217 127.614401)scale(0.24 -0.24)">
     <use xlink:href="#Inconsolata-Regular-41"/>
    </g>
   </g>
   <g id="text_78">
    <!-- G -->
    <g style="fill:#808080;" transform="translate(307.772038 149.802156)scale(0.24 -0.24)">
     <use xlink:href="#Inconsolata-Regular-47"/>
    </g>
   </g>
   <g id="text_79">
    <!-- G -->
    <g style="fill:#808080;" transform="translate(337.754128 149.802156)scale(0.24 -0.24)">
     <use xlink:href="#Inconsolata-Regular-47"/>
    </g>
   </g>
   <g id="text_80">
    <!-- C -->
    <g style="fill:#808080;" transform="translate(367.736217 149.802156)scale(0.24 -0.24)">
     <use xlink:href="#Inconsolata-Regular-43"/>
    </g>
   </g>
   <g id="text_81">
    <!-- G -->
    <g style="fill:#808080;" transform="translate(307.772038 171.989911)scale(0.24 -0.24)">
     <use xlink:href="#Inconsolata-Regular-47"/>
    </g>
   </g>
   <g id="text_82">
    <!-- G -->
    <g style="fill:#808080;" transform="translate(337.754128 171.989911)scale(0.24 -0.24)">
     <use xlink:href="#Inconsolata-Regular-47"/>
    </g>
   </g>
   <g id="text_83">
    <!-- G -->
    <g style="fill:#808080;" transform="translate(367.736217 171.989911)scale(0.24 -0.24)">
     <use xlink:href="#Inconsolata-Regular-47"/>
    </g>
   </g>
   <g id="text_84">
    <!-- G -->
    <g style="fill:#808080;" transform="translate(397.718307 127.614401)scale(0.24 -0.24)">
     <use xlink:href="#Inconsolata-Regular-47"/>
    </g>
   </g>
   <g id="text_85">
    <!-- G -->
    <g style="fill:#808080;" transform="translate(427.700396 127.614401)scale(0.24 -0.24)">
     <use xlink:href="#Inconsolata-Regular-47"/>
    </g>
   </g>
   <g id="text_86">
    <!-- A -->
    <g style="fill:#808080;" transform="translate(457.682486 127.614401)scale(0.24 -0.24)">
     <use xlink:href="#Inconsolata-Regular-41"/>
    </g>
   </g>
   <g id="text_87">
    <!-- G -->
    <g style="fill:#808080;" transform="translate(397.718307 149.802156)scale(0.24 -0.24)">
     <use xlink:href="#Inconsolata-Regular-47"/>
    </g>
   </g>
   <g id="text_88">
    <!-- G -->
    <g style="fill:#808080;" transform="translate(427.700396 149.802156)scale(0.24 -0.24)">
     <use xlink:href="#Inconsolata-Regular-47"/>
    </g>
   </g>
   <g id="text_89">
    <!-- C -->
    <g style="fill:#808080;" transform="translate(457.682486 149.802156)scale(0.24 -0.24)">
     <use xlink:href="#Inconsolata-Regular-43"/>
    </g>
   </g>
   <g id="text_90">
    <!-- G -->
    <g style="fill:#808080;" transform="translate(397.718307 171.989911)scale(0.24 -0.24)">
     <use xlink:href="#Inconsolata-Regular-47"/>
    </g>
   </g>
   <g id="text_91">
    <!-- G -->
    <g style="fill:#808080;" transform="translate(427.700396 171.989911)scale(0.24 -0.24)">
     <use xlink:href="#Inconsolata-Regular-47"/>
    </g>
   </g>
   <g id="text_92">
    <!-- T -->
    <g style="fill:#808080;" transform="translate(457.682486 171.989911)scale(0.24 -0.24)">
     <use xlink:href="#Inconsolata-Regular-54"/>
    </g>
   </g>
   <g id="text_93">
    <!-- A -->
    <g style="fill:#808080;" transform="translate(487.664576 127.614401)scale(0.24 -0.24)">
     <use xlink:href="#Inconsolata-Regular-41"/>
    </g>
   </g>
   <g id="text_94">
    <!-- G -->
    <g style="fill:#808080;" transform="translate(517.646665 127.614401)scale(0.24 -0.24)">
     <use xlink:href="#Inconsolata-Regular-47"/>
    </g>
   </g>
   <g id="text_95">
    <!-- C -->
    <g style="fill:#808080;" transform="translate(547.628755 127.614401)scale(0.24 -0.24)">
     <use xlink:href="#Inconsolata-Regular-43"/>
    </g>
   </g>
   <g id="text_96">
    <!-- A -->
    <g style="fill:#808080;" transform="translate(487.664576 149.802156)scale(0.24 -0.24)">
     <use xlink:href="#Inconsolata-Regular-41"/>
    </g>
   </g>
   <g id="text_97">
    <!-- G -->
    <g style="fill:#808080;" transform="translate(517.646665 149.802156)scale(0.24 -0.24)">
     <use xlink:href="#Inconsolata-Regular-47"/>
    </g>
   </g>
   <g id="text_98">
    <!-- T -->
    <g style="fill:#808080;" transform="translate(547.628755 149.802156)scale(0.24 -0.24)">
     <use xlink:href="#Inconsolata-Regular-54"/>
    </g>
   </g>
   <g id="text_99">
    <!-- T -->
    <g style="fill:#808080;" transform="translate(487.664576 171.989911)scale(0.24 -0.24)">
     <use xlink:href="#Inconsolata-Regular-54"/>
    </g>
   </g>
   <g id="text_100">
    <!-- C -->
    <g style="fill:#808080;" transform="translate(517.646665 171.989911)scale(0.24 -0.24)">
     <use xlink:href="#Inconsolata-Regular-43"/>
    </g>
   </g>
   <g id="text_101">
    <!-- A -->
    <g style="fill:#808080;" transform="translate(547.628755 171.989911)scale(0.24 -0.24)">
     <use xlink:href="#Inconsolata-Regular-41"/>
    </g>
   </g>
   <g id="text_102">
    <!-- T -->
    <g style="fill:#808080;" transform="translate(487.664576 194.177666)scale(0.24 -0.24)">
     <use xlink:href="#Inconsolata-Regular-54"/>
    </g>
   </g>
   <g id="text_103">
    <!-- C -->
    <g style="fill:#808080;" transform="translate(517.646665 194.177666)scale(0.24 -0.24)">
     <use xlink:href="#Inconsolata-Regular-43"/>
    </g>
   </g>
   <g id="text_104">
    <!-- C -->
    <g style="fill:#808080;" transform="translate(547.628755 194.177666)scale(0.24 -0.24)">
     <use xlink:href="#Inconsolata-Regular-43"/>
    </g>
   </g>
   <g id="text_105">
    <!-- T -->
    <g style="fill:#808080;" transform="translate(487.664576 216.365421)scale(0.24 -0.24)">
     <use xlink:href="#Inconsolata-Regular-54"/>
    </g>
   </g>
   <g id="text_106">
    <!-- C -->
    <g style="fill:#808080;" transform="translate(517.646665 216.365421)scale(0.24 -0.24)">
     <use xlink:href="#Inconsolata-Regular-43"/>
    </g>
   </g>
   <g id="text_107">
    <!-- G -->
    <g style="fill:#808080;" transform="translate(547.628755 216.365421)scale(0.24 -0.24)">
     <use xlink:href="#Inconsolata-Regular-47"/>
    </g>
   </g>
   <g id="text_108">
    <!-- A -->
    <g style="fill:#808080;" transform="translate(577.610844 127.614401)scale(0.24 -0.24)">
     <use xlink:href="#Inconsolata-Regular-41"/>
    </g>
   </g>
   <g id="text_109">
    <!-- G -->
    <g style="fill:#808080;" transform="translate(607.592934 127.614401)scale(0.24 -0.24)">
     <use xlink:href="#Inconsolata-Regular-47"/>
    </g>
   </g>
   <g id="text_110">
    <!-- A -->
    <g style="fill:#808080;" transform="translate(637.575023 127.614401)scale(0.24 -0.24)">
     <use xlink:href="#Inconsolata-Regular-41"/>
    </g>
   </g>
   <g id="text_111">
    <!-- A -->
    <g style="fill:#808080;" transform="translate(577.610844 149.802156)scale(0.24 -0.24)">
     <use xlink:href="#Inconsolata-Regular-41"/>
    </g>
   </g>
   <g id="text_112">
    <!-- G -->
    <g style="fill:#808080;" transform="translate(607.592934 149.802156)scale(0.24 -0.24)">
     <use xlink:href="#Inconsolata-Regular-47"/>
    </g>
   </g>
   <g id="text_113">
    <!-- G -->
    <g style="fill:#808080;" transform="translate(637.575023 149.802156)scale(0.24 -0.24)">
     <use xlink:href="#Inconsolata-Regular-47"/>
    </g>
   </g>
   <g id="text_114">
    <!-- C -->
    <g style="fill:#808080;" transform="translate(577.610844 171.989911)scale(0.24 -0.24)">
     <use xlink:href="#Inconsolata-Regular-43"/>
    </g>
   </g>
   <g id="text_115">
    <!-- G -->
    <g style="fill:#808080;" transform="translate(607.592934 171.989911)scale(0.24 -0.24)">
     <use xlink:href="#Inconsolata-Regular-47"/>
    </g>
   </g>
   <g id="text_116">
    <!-- A -->
    <g style="fill:#808080;" transform="translate(637.575023 171.989911)scale(0.24 -0.24)">
     <use xlink:href="#Inconsolata-Regular-41"/>
    </g>
   </g>
   <g id="text_117">
    <!-- C -->
    <g style="fill:#808080;" transform="translate(577.610844 194.177666)scale(0.24 -0.24)">
     <use xlink:href="#Inconsolata-Regular-43"/>
    </g>
   </g>
   <g id="text_118">
    <!-- G -->
    <g style="fill:#808080;" transform="translate(607.592934 194.177666)scale(0.24 -0.24)">
     <use xlink:href="#Inconsolata-Regular-47"/>
    </g>
   </g>
   <g id="text_119">
    <!-- C -->
    <g style="fill:#808080;" transform="translate(637.575023 194.177666)scale(0.24 -0.24)">
     <use xlink:href="#Inconsolata-Regular-43"/>
    </g>
   </g>
   <g id="text_120">
    <!-- C -->
    <g style="fill:#808080;" transform="translate(577.610844 216.365421)scale(0.24 -0.24)">
     <use xlink:href="#Inconsolata-Regular-43"/>
    </g>
   </g>
   <g id="text_121">
    <!-- G -->
    <g style="fill:#808080;" transform="translate(607.592934 216.365421)scale(0.24 -0.24)">
     <use xlink:href="#Inconsolata-Regular-47"/>
    </g>
   </g>
   <g id="text_122">
    <!-- G -->
    <g style="fill:#808080;" transform="translate(637.575023 216.365421)scale(0.24 -0.24)">
     <use xlink:href="#Inconsolata-Regular-47"/>
    </g>
   </g>
   <g id="text_123">
    <!-- C -->
    <g style="fill:#808080;" transform="translate(667.557113 127.614401)scale(0.24 -0.24)">
     <use xlink:href="#Inconsolata-Regular-43"/>
    </g>
   </g>
   <g id="text_124">
    <!-- T -->
    <g style="fill:#808080;" transform="translate(697.539202 127.614401)scale(0.24 -0.24)">
     <use xlink:href="#Inconsolata-Regular-54"/>
    </g>
   </g>
   <g id="text_125">
    <!-- A -->
    <g style="fill:#808080;" transform="translate(727.521292 127.614401)scale(0.24 -0.24)">
     <use xlink:href="#Inconsolata-Regular-41"/>
    </g>
   </g>
   <g id="text_126">
    <!-- C -->
    <g style="fill:#808080;" transform="translate(667.557113 149.802156)scale(0.24 -0.24)">
     <use xlink:href="#Inconsolata-Regular-43"/>
    </g>
   </g>
   <g id="text_127">
    <!-- T -->
    <g style="fill:#808080;" transform="translate(697.539202 149.802156)scale(0.24 -0.24)">
     <use xlink:href="#Inconsolata-Regular-54"/>
    </g>
   </g>
   <g id="text_128">
    <!-- G -->
    <g style="fill:#808080;" transform="translate(727.521292 149.802156)scale(0.24 -0.24)">
     <use xlink:href="#Inconsolata-Regular-47"/>
    </g>
   </g>
   <g id="text_129">
    <!-- C -->
    <g style="fill:#808080;" transform="translate(667.557113 171.989911)scale(0.24 -0.24)">
     <use xlink:href="#Inconsolata-Regular-43"/>
    </g>
   </g>
   <g id="text_130">
    <!-- T -->
    <g style="fill:#808080;" transform="translate(697.539202 171.989911)scale(0.24 -0.24)">
     <use xlink:href="#Inconsolata-Regular-54"/>
    </g>
   </g>
   <g id="text_131">
    <!-- T -->
    <g style="fill:#808080;" transform="translate(727.521292 171.989911)scale(0.24 -0.24)">
     <use xlink:href="#Inconsolata-Regular-54"/>
    </g>
   </g>
   <g id="text_132">
    <!-- T -->
    <g style="fill:#808080;" transform="translate(667.557113 194.177666)scale(0.24 -0.24)">
     <use xlink:href="#Inconsolata-Regular-54"/>
    </g>
   </g>
   <g id="text_133">
    <!-- T -->
    <g style="fill:#808080;" transform="translate(697.539202 194.177666)scale(0.24 -0.24)">
     <use xlink:href="#Inconsolata-Regular-54"/>
    </g>
   </g>
   <g id="text_134">
    <!-- A -->
    <g style="fill:#808080;" transform="translate(727.521292 194.177666)scale(0.24 -0.24)">
     <use xlink:href="#Inconsolata-Regular-41"/>
    </g>
   </g>
   <g id="text_135">
    <!-- T -->
    <g style="fill:#808080;" transform="translate(667.557113 216.365421)scale(0.24 -0.24)">
     <use xlink:href="#Inconsolata-Regular-54"/>
    </g>
   </g>
   <g id="text_136">
    <!-- T -->
    <g style="fill:#808080;" transform="translate(697.539202 216.365421)scale(0.24 -0.24)">
     <use xlink:href="#Inconsolata-Regular-54"/>
    </g>
   </g>
   <g id="text_137">
    <!-- G -->
    <g style="fill:#808080;" transform="translate(727.521292 216.365421)scale(0.24 -0.24)">
     <use xlink:href="#Inconsolata-Regular-47"/>
    </g>
   </g>
   <g id="text_138">
    <!-- C -->
    <g style="fill:#808080;" transform="translate(757.503382 127.614401)scale(0.24 -0.24)">
     <use xlink:href="#Inconsolata-Regular-43"/>
    </g>
   </g>
   <g id="text_139">
    <!-- A -->
    <g style="fill:#808080;" transform="translate(787.485471 127.614401)scale(0.24 -0.24)">
     <use xlink:href="#Inconsolata-Regular-41"/>
    </g>
   </g>
   <g id="text_140">
    <!-- T -->
    <g style="fill:#808080;" transform="translate(817.467561 127.614401)scale(0.24 -0.24)">
     <use xlink:href="#Inconsolata-Regular-54"/>
    </g>
   </g>
   <g id="text_141">
    <!-- G -->
    <g style="fill:#808080;" transform="translate(847.44965 127.614401)scale(0.24 -0.24)">
     <use xlink:href="#Inconsolata-Regular-47"/>
    </g>
   </g>
   <g id="text_142">
    <!-- G -->
    <g style="fill:#808080;" transform="translate(877.43174 127.614401)scale(0.24 -0.24)">
     <use xlink:href="#Inconsolata-Regular-47"/>
    </g>
   </g>
   <g id="text_143">
    <!-- A -->
    <g style="fill:#808080;" transform="translate(907.413829 127.614401)scale(0.24 -0.24)">
     <use xlink:href="#Inconsolata-Regular-41"/>
    </g>
   </g>
   <g id="text_144">
    <!-- G -->
    <g style="fill:#808080;" transform="translate(847.44965 149.802156)scale(0.24 -0.24)">
     <use xlink:href="#Inconsolata-Regular-47"/>
    </g>
   </g>
   <g id="text_145">
    <!-- G -->
    <g style="fill:#808080;" transform="translate(877.43174 149.802156)scale(0.24 -0.24)">
     <use xlink:href="#Inconsolata-Regular-47"/>
    </g>
   </g>
   <g id="text_146">
    <!-- G -->
    <g style="fill:#808080;" transform="translate(907.413829 149.802156)scale(0.24 -0.24)">
     <use xlink:href="#Inconsolata-Regular-47"/>
    </g>
   </g>
   <g id="text_147">
    <!-- G -->
    <g style="fill:#808080;" transform="translate(847.44965 171.989911)scale(0.24 -0.24)">
     <use xlink:href="#Inconsolata-Regular-47"/>
    </g>
   </g>
   <g id="text_148">
    <!-- G -->
    <g style="fill:#808080;" transform="translate(877.43174 171.989911)scale(0.24 -0.24)">
     <use xlink:href="#Inconsolata-Regular-47"/>
    </g>
   </g>
   <g id="text_149">
    <!-- T -->
    <g style="fill:#808080;" transform="translate(907.413829 171.989911)scale(0.24 -0.24)">
     <use xlink:href="#Inconsolata-Regular-54"/>
    </g>
   </g>
   <g id="text_150">
    <!-- G -->
    <g style="fill:#808080;" transform="translate(937.395919 127.614401)scale(0.24 -0.24)">
     <use xlink:href="#Inconsolata-Regular-47"/>
    </g>
   </g>
   <g id="text_151">
    <!-- T -->
    <g style="fill:#808080;" transform="translate(967.378008 127.614401)scale(0.24 -0.24)">
     <use xlink:href="#Inconsolata-Regular-54"/>
    </g>
   </g>
   <g id="text_152">
    <!-- C -->
    <g style="fill:#808080;" transform="translate(997.360098 127.614401)scale(0.24 -0.24)">
     <use xlink:href="#Inconsolata-Regular-43"/>
    </g>
   </g>
   <g id="text_153">
    <!-- G -->
    <g style="fill:#808080;" transform="translate(937.395919 149.802156)scale(0.24 -0.24)">
     <use xlink:href="#Inconsolata-Regular-47"/>
    </g>
   </g>
   <g id="text_154">
    <!-- T -->
    <g style="fill:#808080;" transform="translate(967.378008 149.802156)scale(0.24 -0.24)">
     <use xlink:href="#Inconsolata-Regular-54"/>
    </g>
   </g>
   <g id="text_155">
    <!-- G -->
    <g style="fill:#808080;" transform="translate(997.360098 149.802156)scale(0.24 -0.24)">
     <use xlink:href="#Inconsolata-Regular-47"/>
    </g>
   </g>
   <g id="text_156">
    <!-- G -->
    <g style="fill:#808080;" transform="translate(937.395919 171.989911)scale(0.24 -0.24)">
     <use xlink:href="#Inconsolata-Regular-47"/>
    </g>
   </g>
   <g id="text_157">
    <!-- T -->
    <g style="fill:#808080;" transform="translate(967.378008 171.989911)scale(0.24 -0.24)">
     <use xlink:href="#Inconsolata-Regular-54"/>
    </g>
   </g>
   <g id="text_158">
    <!-- T -->
    <g style="fill:#808080;" transform="translate(997.360098 171.989911)scale(0.24 -0.24)">
     <use xlink:href="#Inconsolata-Regular-54"/>
    </g>
   </g>
  </g>
 </g>
 <defs>
  <clipPath id="pa9fa2d236f">
   <rect height="217.44" width="1004.4" x="28.942188" y="10.7"/>
  </clipPath>
 </defs>
</svg>
